<?xml version="1.0" encoding="UTF-8" standalone="no"?>
<!DOCTYPE svg PUBLIC "-//W3C//DTD SVG 1.1//EN"
 "http://www.w3.org/Graphics/SVG/1.1/DTD/svg11.dtd">
<!-- Generated by graphviz version 11.0.0 (20240428.1522)
 -->
<!-- Title: GVmap Pages: 1 -->
<svg width="1417pt" height="805pt"
 viewBox="0.00 0.00 1417.38 804.75" xmlns="http://www.w3.org/2000/svg" xmlns:xlink="http://www.w3.org/1999/xlink">
<g id="graph0" class="graph" transform="scale(1 1) rotate(0) translate(4 800.75)">
<title>GVmap</title>
<polygon fill="white" stroke="none" points="-4,4 -4,-800.75 1413.38,-800.75 1413.38,4 -4,4"/>
<text text-anchor="middle" x="704.69" y="-7.2" font-family="Times,serif" font-size="14.00">coords data model</text>
<!-- coords:Epoch -->
<g id="node1" class="node">
<title>coords:Epoch</title>
<g id="a_node1"><a xlink:href="../coords/Epoch" xlink:title="{&amp;lt;&amp;lt;primitive type&amp;gt;&amp;gt;\nEpoch}">
<polygon fill="#8dd3c7" stroke="black" points="5,-687.38 5,-723.38 84,-723.38 84,-687.38 5,-687.38"/>
<text text-anchor="middle" x="44.5" y="-707.77" font-family="Times,serif" font-size="8.00">&lt;&lt;primitive type&gt;&gt;</text>
<text text-anchor="middle" x="44.5" y="-698.02" font-family="Times,serif" font-size="8.00">Epoch</text>
</a>
</g>
</g>
<!-- coords:Handedness -->
<g id="node2" class="node">
<title>coords:Handedness</title>
<g id="a_node2"><a xlink:href="../coords/Handedness" xlink:title="{&amp;lt;&amp;lt;enumeration&amp;gt;&amp;gt;\nHandedness|+left\l+right\l}">
<polygon fill="#8dd3c7" stroke="black" points="101.62,-677.88 101.62,-732.88 175.38,-732.88 175.38,-677.88 101.62,-677.88"/>
<text text-anchor="middle" x="138.5" y="-721.27" font-family="Times,serif" font-size="8.00">&lt;&lt;enumeration&gt;&gt;</text>
<text text-anchor="middle" x="138.5" y="-711.52" font-family="Times,serif" font-size="8.00">Handedness</text>
<polyline fill="none" stroke="black" points="101.62,-705.38 175.38,-705.38"/>
<text text-anchor="start" x="109.62" y="-693.77" font-family="Times,serif" font-size="8.00">+left</text>
<text text-anchor="start" x="109.62" y="-684.02" font-family="Times,serif" font-size="8.00">+right</text>
</a>
</g>
</g>
<!-- coords:PolStateEnum -->
<g id="node3" class="node">
<title>coords:PolStateEnum</title>
<g id="a_node3"><a xlink:href="../coords/PolStateEnum" xlink:title="{&amp;lt;&amp;lt;enumeration&amp;gt;&amp;gt;\nPolStateEnum|+I\l+Q\l+U\l+V\l+RR\l+LL\l+RL\l+LR\l+XX\l+YY\l+XY\l+YX\l+PF\l+PP\l+PA\l}">
<polygon fill="#8dd3c7" stroke="black" points="193.62,-614.5 193.62,-796.25 267.38,-796.25 267.38,-614.5 193.62,-614.5"/>
<text text-anchor="middle" x="230.5" y="-784.65" font-family="Times,serif" font-size="8.00">&lt;&lt;enumeration&gt;&gt;</text>
<text text-anchor="middle" x="230.5" y="-774.9" font-family="Times,serif" font-size="8.00">PolStateEnum</text>
<polyline fill="none" stroke="black" points="193.62,-768.75 267.38,-768.75"/>
<text text-anchor="start" x="201.62" y="-757.15" font-family="Times,serif" font-size="8.00">+I</text>
<text text-anchor="start" x="201.62" y="-747.4" font-family="Times,serif" font-size="8.00">+Q</text>
<text text-anchor="start" x="201.62" y="-737.65" font-family="Times,serif" font-size="8.00">+U</text>
<text text-anchor="start" x="201.62" y="-727.9" font-family="Times,serif" font-size="8.00">+V</text>
<text text-anchor="start" x="201.62" y="-718.15" font-family="Times,serif" font-size="8.00">+RR</text>
<text text-anchor="start" x="201.62" y="-708.4" font-family="Times,serif" font-size="8.00">+LL</text>
<text text-anchor="start" x="201.62" y="-698.65" font-family="Times,serif" font-size="8.00">+RL</text>
<text text-anchor="start" x="201.62" y="-688.9" font-family="Times,serif" font-size="8.00">+LR</text>
<text text-anchor="start" x="201.62" y="-679.15" font-family="Times,serif" font-size="8.00">+XX</text>
<text text-anchor="start" x="201.62" y="-669.4" font-family="Times,serif" font-size="8.00">+YY</text>
<text text-anchor="start" x="201.62" y="-659.65" font-family="Times,serif" font-size="8.00">+XY</text>
<text text-anchor="start" x="201.62" y="-649.9" font-family="Times,serif" font-size="8.00">+YX</text>
<text text-anchor="start" x="201.62" y="-640.15" font-family="Times,serif" font-size="8.00">+PF</text>
<text text-anchor="start" x="201.62" y="-630.4" font-family="Times,serif" font-size="8.00">+PP</text>
<text text-anchor="start" x="201.62" y="-620.65" font-family="Times,serif" font-size="8.00">+PA</text>
</a>
</g>
</g>
<!-- coords:Coordinate -->
<g id="node4" class="node">
<title>coords:Coordinate</title>
<g id="a_node4"><a xlink:href="../coords/Coordinate" xlink:title="{&amp;lt;&amp;lt;datatype&amp;gt;&amp;gt;\nCoordinate}">
<polygon fill="#8dd3c7" stroke="black" points="403,-331.88 403,-367.88 464,-367.88 464,-331.88 403,-331.88"/>
<text text-anchor="middle" x="433.5" y="-352.27" font-family="Times,serif" font-size="8.00">&lt;&lt;datatype&gt;&gt;</text>
<text text-anchor="middle" x="433.5" y="-342.52" font-family="Times,serif" font-size="8.00">Coordinate</text>
</a>
</g>
</g>
<!-- coords:CoordSys -->
<g id="node35" class="node">
<title>coords:CoordSys</title>
<g id="a_node35"><a xlink:href="../coords/CoordSys" xlink:title="{CoordSys}">
<polygon fill="#8dd3c7" stroke="black" points="508.5,-233.25 508.5,-269.25 562.5,-269.25 562.5,-233.25 508.5,-233.25"/>
<text text-anchor="middle" x="535.38" y="-248.65" font-family="Times,serif" font-size="8.00">CoordSys</text>
</a>
</g>
</g>
<!-- coords:Coordinate&#45;&gt;coords:CoordSys -->
<g id="edge40" class="edge">
<title>coords:Coordinate&#45;&gt;coords:CoordSys</title>
<path fill="none" stroke="green" d="M451.74,-331.6C467.74,-316.44 491.2,-294.22 509.23,-277.14"/>
<polygon fill="green" stroke="green" points="516.19,-270.54 512.03,-280.68 513.45,-273.14 508.93,-277.42 508.93,-277.42 508.93,-277.42 513.45,-273.14 505.84,-274.15 516.19,-270.54"/>
<text text-anchor="middle" x="515.25" y="-289.5" font-family="Times,serif" font-size="10.00">coordSys</text>
<text text-anchor="middle" x="514.45" y="-271.45" font-family="Times,serif" font-size="10.00">1</text>
</g>
<!-- coords:BinnedCoordinate -->
<g id="node5" class="node">
<title>coords:BinnedCoordinate</title>
<g id="a_node5"><a xlink:href="../coords/BinnedCoordinate" xlink:title="{&amp;lt;&amp;lt;datatype&amp;gt;&amp;gt;\nBinnedCoordinate|+cval : ivoa:integer\l}">
<polygon fill="#8dd3c7" stroke="black" points="38,-430.5 38,-475.75 117,-475.75 117,-430.5 38,-430.5"/>
<text text-anchor="middle" x="77.5" y="-464.15" font-family="Times,serif" font-size="8.00">&lt;&lt;datatype&gt;&gt;</text>
<text text-anchor="middle" x="77.5" y="-454.4" font-family="Times,serif" font-size="8.00">BinnedCoordinate</text>
<polyline fill="none" stroke="black" points="38,-448.25 117,-448.25"/>
<text text-anchor="start" x="46" y="-436.65" font-family="Times,serif" font-size="8.00">+cval : ivoa:integer</text>
</a>
</g>
</g>
<!-- coords:BinnedCoordinate&#45;&gt;coords:Coordinate -->
<g id="edge1" class="edge">
<title>coords:BinnedCoordinate&#45;&gt;coords:Coordinate</title>
<path fill="none" stroke="red" d="M117.17,-442.83C134.46,-438.82 154.97,-434.12 173.5,-430 198.01,-424.56 371.87,-393.63 394.5,-382.75 398.84,-380.66 403.13,-378 407.17,-375.1"/>
<polygon fill="none" stroke="red" points="409.21,-377.94 414.91,-369.01 404.89,-372.44 409.21,-377.94"/>
</g>
<!-- coords:PixelIndex -->
<g id="node6" class="node">
<title>coords:PixelIndex</title>
<g id="a_node6"><a xlink:href="../coords/PixelIndex" xlink:title="{&amp;lt;&amp;lt;datatype&amp;gt;&amp;gt;\nPixelIndex}">
<polygon fill="#8dd3c7" stroke="black" points="0,-527.12 0,-563.12 61,-563.12 61,-527.12 0,-527.12"/>
<text text-anchor="middle" x="30.5" y="-547.52" font-family="Times,serif" font-size="8.00">&lt;&lt;datatype&gt;&gt;</text>
<text text-anchor="middle" x="30.5" y="-537.77" font-family="Times,serif" font-size="8.00">PixelIndex</text>
</a>
</g>
</g>
<!-- coords:PixelIndex&#45;&gt;coords:BinnedCoordinate -->
<g id="edge2" class="edge">
<title>coords:PixelIndex&#45;&gt;coords:BinnedCoordinate</title>
<path fill="none" stroke="red" d="M39.56,-526.77C45.56,-515.29 53.6,-499.9 60.73,-486.23"/>
<polygon fill="none" stroke="red" points="63.74,-488.04 65.26,-477.56 57.53,-484.8 63.74,-488.04"/>
</g>
<!-- coords:PhysicalCoordinate -->
<g id="node7" class="node">
<title>coords:PhysicalCoordinate</title>
<g id="a_node7"><a xlink:href="../coords/PhysicalCoordinate" xlink:title="{&amp;lt;&amp;lt;datatype&amp;gt;&amp;gt;\nPhysicalCoordinate|+cval : ivoa:Quantity\l}">
<polygon fill="#8dd3c7" stroke="black" points="182.38,-430.5 182.38,-475.75 266.62,-475.75 266.62,-430.5 182.38,-430.5"/>
<text text-anchor="middle" x="224.5" y="-464.15" font-family="Times,serif" font-size="8.00">&lt;&lt;datatype&gt;&gt;</text>
<text text-anchor="middle" x="224.5" y="-454.4" font-family="Times,serif" font-size="8.00">PhysicalCoordinate</text>
<polyline fill="none" stroke="black" points="182.38,-448.25 266.62,-448.25"/>
<text text-anchor="start" x="190.38" y="-436.65" font-family="Times,serif" font-size="8.00">+cval : ivoa:Quantity</text>
</a>
</g>
</g>
<!-- coords:PhysicalCoordinate&#45;&gt;coords:Coordinate -->
<g id="edge3" class="edge">
<title>coords:PhysicalCoordinate&#45;&gt;coords:Coordinate</title>
<path fill="none" stroke="red" d="M267.03,-433.55C269.9,-432.34 272.74,-431.15 275.5,-430 328.05,-408.17 345.45,-411.6 394.5,-382.75 398.29,-380.52 402.1,-377.94 405.77,-375.22"/>
<polygon fill="none" stroke="red" points="407.64,-378.2 413.34,-369.27 403.31,-372.7 407.64,-378.2"/>
</g>
<!-- coords:Point -->
<g id="node8" class="node">
<title>coords:Point</title>
<g id="a_node8"><a xlink:href="../coords/Point" xlink:title="{&amp;lt;&amp;lt;datatype&amp;gt;&amp;gt;\nPoint}">
<polygon fill="#8dd3c7" stroke="black" points="285,-435.12 285,-471.12 346,-471.12 346,-435.12 285,-435.12"/>
<text text-anchor="middle" x="315.5" y="-455.52" font-family="Times,serif" font-size="8.00">&lt;&lt;datatype&gt;&gt;</text>
<text text-anchor="middle" x="315.5" y="-445.77" font-family="Times,serif" font-size="8.00">Point</text>
</a>
</g>
</g>
<!-- coords:Point&#45;&gt;coords:Coordinate -->
<g id="edge4" class="edge">
<title>coords:Point&#45;&gt;coords:Coordinate</title>
<path fill="none" stroke="red" d="M335.78,-434.72C354.81,-418.39 383.46,-393.81 404.82,-375.48"/>
<polygon fill="none" stroke="red" points="407.02,-378.21 412.33,-369.04 402.46,-372.89 407.02,-378.21"/>
</g>
<!-- coords:CartesianPoint -->
<g id="node9" class="node">
<title>coords:CartesianPoint</title>
<g id="a_node9"><a xlink:href="../coords/CartesianPoint" xlink:title="{&amp;lt;&amp;lt;datatype&amp;gt;&amp;gt;\nCartesianPoint|+x : ivoa:Quantity\l+y : ivoa:Quantity\l+z : ivoa:Quantity\l}">
<polygon fill="#8dd3c7" stroke="black" points="79.25,-512.75 79.25,-577.5 153.75,-577.5 153.75,-512.75 79.25,-512.75"/>
<text text-anchor="middle" x="116.5" y="-565.9" font-family="Times,serif" font-size="8.00">&lt;&lt;datatype&gt;&gt;</text>
<text text-anchor="middle" x="116.5" y="-556.15" font-family="Times,serif" font-size="8.00">CartesianPoint</text>
<polyline fill="none" stroke="black" points="79.25,-550 153.75,-550"/>
<text text-anchor="start" x="87.25" y="-538.4" font-family="Times,serif" font-size="8.00">+x : ivoa:Quantity</text>
<text text-anchor="start" x="87.25" y="-528.65" font-family="Times,serif" font-size="8.00">+y : ivoa:Quantity</text>
<text text-anchor="start" x="87.25" y="-518.9" font-family="Times,serif" font-size="8.00">+z : ivoa:Quantity</text>
</a>
</g>
</g>
<!-- coords:CartesianPoint&#45;&gt;coords:Point -->
<g id="edge5" class="edge">
<title>coords:CartesianPoint&#45;&gt;coords:Point</title>
<path fill="none" stroke="red" d="M154.12,-516.77C156.9,-515.15 159.71,-513.62 162.5,-512.25 206.84,-490.44 224.81,-496.21 275.16,-475.88"/>
<polygon fill="none" stroke="red" points="276.43,-479.14 284.28,-472.04 273.71,-472.69 276.43,-479.14"/>
</g>
<!-- coords:LonLatPoint -->
<g id="node10" class="node">
<title>coords:LonLatPoint</title>
<g id="a_node10"><a xlink:href="../coords/LonLatPoint" xlink:title="{&amp;lt;&amp;lt;datatype&amp;gt;&amp;gt;\nLonLatPoint|+lon : ivoa:Quantity\l+lat : ivoa:Quantity\l+dist : ivoa:Quantity\l}">
<polygon fill="#8dd3c7" stroke="black" points="171.5,-512.75 171.5,-577.5 253.5,-577.5 253.5,-512.75 171.5,-512.75"/>
<text text-anchor="middle" x="212.5" y="-565.9" font-family="Times,serif" font-size="8.00">&lt;&lt;datatype&gt;&gt;</text>
<text text-anchor="middle" x="212.5" y="-556.15" font-family="Times,serif" font-size="8.00">LonLatPoint</text>
<polyline fill="none" stroke="black" points="171.5,-550 253.5,-550"/>
<text text-anchor="start" x="179.5" y="-538.4" font-family="Times,serif" font-size="8.00">+lon : ivoa:Quantity</text>
<text text-anchor="start" x="179.5" y="-528.65" font-family="Times,serif" font-size="8.00">+lat : ivoa:Quantity</text>
<text text-anchor="start" x="179.5" y="-518.9" font-family="Times,serif" font-size="8.00">+dist : ivoa:Quantity</text>
</a>
</g>
</g>
<!-- coords:LonLatPoint&#45;&gt;coords:Point -->
<g id="edge6" class="edge">
<title>coords:LonLatPoint&#45;&gt;coords:Point</title>
<path fill="none" stroke="red" d="M248.81,-512.39C261.37,-501.42 275.24,-489.3 287.07,-478.96"/>
<polygon fill="none" stroke="red" points="289.3,-481.67 294.52,-472.45 284.69,-476.4 289.3,-481.67"/>
</g>
<!-- coords:GenericPoint -->
<g id="node11" class="node">
<title>coords:GenericPoint</title>
<g id="a_node11"><a xlink:href="../coords/GenericPoint" xlink:title="{&amp;lt;&amp;lt;datatype&amp;gt;&amp;gt;\nGenericPoint|+axis1 : ivoa:Quantity\l+axis2 : ivoa:Quantity\l+axis3 : ivoa:Quantity\l}">
<polygon fill="#8dd3c7" stroke="black" points="271.88,-512.75 271.88,-577.5 359.12,-577.5 359.12,-512.75 271.88,-512.75"/>
<text text-anchor="middle" x="315.5" y="-565.9" font-family="Times,serif" font-size="8.00">&lt;&lt;datatype&gt;&gt;</text>
<text text-anchor="middle" x="315.5" y="-556.15" font-family="Times,serif" font-size="8.00">GenericPoint</text>
<polyline fill="none" stroke="black" points="271.88,-550 359.12,-550"/>
<text text-anchor="start" x="279.88" y="-538.4" font-family="Times,serif" font-size="8.00">+axis1 : ivoa:Quantity</text>
<text text-anchor="start" x="279.88" y="-528.65" font-family="Times,serif" font-size="8.00">+axis2 : ivoa:Quantity</text>
<text text-anchor="start" x="279.88" y="-518.9" font-family="Times,serif" font-size="8.00">+axis3 : ivoa:Quantity</text>
</a>
</g>
</g>
<!-- coords:GenericPoint&#45;&gt;coords:Point -->
<g id="edge7" class="edge">
<title>coords:GenericPoint&#45;&gt;coords:Point</title>
<path fill="none" stroke="red" d="M315.5,-512.39C315.5,-502.72 315.5,-492.14 315.5,-482.68"/>
<polygon fill="none" stroke="red" points="319,-482.97 315.5,-472.97 312,-482.97 319,-482.97"/>
</g>
<!-- coords:TimeStamp -->
<g id="node12" class="node">
<title>coords:TimeStamp</title>
<g id="a_node12"><a xlink:href="../coords/TimeStamp" xlink:title="{&amp;lt;&amp;lt;datatype&amp;gt;&amp;gt;\nTimeStamp}">
<polygon fill="#8dd3c7" stroke="black" points="370,-435.12 370,-471.12 431,-471.12 431,-435.12 370,-435.12"/>
<text text-anchor="middle" x="400.5" y="-455.52" font-family="Times,serif" font-size="8.00">&lt;&lt;datatype&gt;&gt;</text>
<text text-anchor="middle" x="400.5" y="-445.77" font-family="Times,serif" font-size="8.00">TimeStamp</text>
</a>
</g>
</g>
<!-- coords:TimeStamp&#45;&gt;coords:Coordinate -->
<g id="edge8" class="edge">
<title>coords:TimeStamp&#45;&gt;coords:Coordinate</title>
<path fill="none" stroke="red" d="M406.1,-434.95C411.1,-419.6 418.52,-396.84 424.38,-378.86"/>
<polygon fill="none" stroke="red" points="427.63,-380.17 427.41,-369.57 420.98,-378 427.63,-380.17"/>
</g>
<!-- coords:TimeOffset -->
<g id="node13" class="node">
<title>coords:TimeOffset</title>
<g id="a_node13"><a xlink:href="../coords/TimeOffset" xlink:title="{&amp;lt;&amp;lt;datatype&amp;gt;&amp;gt;\nTimeOffset|+time : ivoa:RealQuantity\l+time0 : coords:TimeInstant\l}">
<polygon fill="#8dd3c7" stroke="black" points="456.12,-517.62 456.12,-572.62 562.88,-572.62 562.88,-517.62 456.12,-517.62"/>
<text text-anchor="middle" x="509.5" y="-561.02" font-family="Times,serif" font-size="8.00">&lt;&lt;datatype&gt;&gt;</text>
<text text-anchor="middle" x="509.5" y="-551.27" font-family="Times,serif" font-size="8.00">TimeOffset</text>
<polyline fill="none" stroke="black" points="456.12,-545.12 562.88,-545.12"/>
<text text-anchor="start" x="464.12" y="-533.52" font-family="Times,serif" font-size="8.00">+time : ivoa:RealQuantity</text>
<text text-anchor="start" x="464.12" y="-523.77" font-family="Times,serif" font-size="8.00">+time0 : coords:TimeInstant</text>
</a>
</g>
</g>
<!-- coords:TimeOffset&#45;&gt;coords:TimeStamp -->
<g id="edge9" class="edge">
<title>coords:TimeOffset&#45;&gt;coords:TimeStamp</title>
<path fill="none" stroke="red" d="M477.09,-517.37C462.23,-505.09 444.73,-490.64 430.21,-478.65"/>
<polygon fill="none" stroke="red" points="432.71,-476.18 422.77,-472.51 428.25,-481.58 432.71,-476.18"/>
</g>
<!-- coords:TimeInstant -->
<g id="node14" class="node">
<title>coords:TimeInstant</title>
<g id="a_node14"><a xlink:href="../coords/TimeInstant" xlink:title="{&amp;lt;&amp;lt;datatype&amp;gt;&amp;gt;\nTimeInstant}">
<polygon fill="#8dd3c7" stroke="black" points="377,-527.12 377,-563.12 438,-563.12 438,-527.12 377,-527.12"/>
<text text-anchor="middle" x="407.5" y="-547.52" font-family="Times,serif" font-size="8.00">&lt;&lt;datatype&gt;&gt;</text>
<text text-anchor="middle" x="407.5" y="-537.77" font-family="Times,serif" font-size="8.00">TimeInstant</text>
</a>
</g>
</g>
<!-- coords:TimeInstant&#45;&gt;coords:TimeStamp -->
<g id="edge10" class="edge">
<title>coords:TimeInstant&#45;&gt;coords:TimeStamp</title>
<path fill="none" stroke="red" d="M406.15,-526.77C405.18,-514.32 403.85,-497.26 402.73,-482.8"/>
<polygon fill="none" stroke="red" points="406.23,-482.63 401.96,-472.93 399.25,-483.17 406.23,-482.63"/>
</g>
<!-- coords:JD -->
<g id="node15" class="node">
<title>coords:JD</title>
<g id="a_node15"><a xlink:href="../coords/JD" xlink:title="{&amp;lt;&amp;lt;datatype&amp;gt;&amp;gt;\nJD|+date : ivoa:real\l}">
<polygon fill="#8dd3c7" stroke="black" points="285.88,-682.75 285.88,-728 355.12,-728 355.12,-682.75 285.88,-682.75"/>
<text text-anchor="middle" x="320.5" y="-716.4" font-family="Times,serif" font-size="8.00">&lt;&lt;datatype&gt;&gt;</text>
<text text-anchor="middle" x="320.5" y="-706.65" font-family="Times,serif" font-size="8.00">JD</text>
<polyline fill="none" stroke="black" points="285.88,-700.5 355.12,-700.5"/>
<text text-anchor="start" x="293.88" y="-688.9" font-family="Times,serif" font-size="8.00">+date : ivoa:real</text>
</a>
</g>
</g>
<!-- coords:JD&#45;&gt;coords:TimeInstant -->
<g id="edge11" class="edge">
<title>coords:JD&#45;&gt;coords:TimeInstant</title>
<path fill="none" stroke="red" d="M329.97,-682.42C338.21,-663.87 350.79,-636.75 363.5,-614 371.28,-600.07 380.83,-585.14 389.03,-572.83"/>
<polygon fill="none" stroke="red" points="391.73,-575.1 394.42,-564.85 385.92,-571.18 391.73,-575.1"/>
</g>
<!-- coords:MJD -->
<g id="node16" class="node">
<title>coords:MJD</title>
<g id="a_node16"><a xlink:href="../coords/MJD" xlink:title="{&amp;lt;&amp;lt;datatype&amp;gt;&amp;gt;\nMJD|+date : ivoa:real\l}">
<polygon fill="#8dd3c7" stroke="black" points="372.88,-682.75 372.88,-728 442.12,-728 442.12,-682.75 372.88,-682.75"/>
<text text-anchor="middle" x="407.5" y="-716.4" font-family="Times,serif" font-size="8.00">&lt;&lt;datatype&gt;&gt;</text>
<text text-anchor="middle" x="407.5" y="-706.65" font-family="Times,serif" font-size="8.00">MJD</text>
<polyline fill="none" stroke="black" points="372.88,-700.5 442.12,-700.5"/>
<text text-anchor="start" x="380.88" y="-688.9" font-family="Times,serif" font-size="8.00">+date : ivoa:real</text>
</a>
</g>
</g>
<!-- coords:MJD&#45;&gt;coords:TimeInstant -->
<g id="edge12" class="edge">
<title>coords:MJD&#45;&gt;coords:TimeInstant</title>
<path fill="none" stroke="red" d="M407.5,-682.37C407.5,-654.33 407.5,-605.8 407.5,-574.86"/>
<polygon fill="none" stroke="red" points="411,-575.07 407.5,-565.07 404,-575.07 411,-575.07"/>
</g>
<!-- coords:ISOTime -->
<g id="node17" class="node">
<title>coords:ISOTime</title>
<g id="a_node17"><a xlink:href="../coords/ISOTime" xlink:title="{&amp;lt;&amp;lt;datatype&amp;gt;&amp;gt;\nISOTime|+date : ivoa:datetime\l}">
<polygon fill="#8dd3c7" stroke="black" points="460.38,-682.75 460.38,-728 544.62,-728 544.62,-682.75 460.38,-682.75"/>
<text text-anchor="middle" x="502.5" y="-716.4" font-family="Times,serif" font-size="8.00">&lt;&lt;datatype&gt;&gt;</text>
<text text-anchor="middle" x="502.5" y="-706.65" font-family="Times,serif" font-size="8.00">ISOTime</text>
<polyline fill="none" stroke="black" points="460.38,-700.5 544.62,-700.5"/>
<text text-anchor="start" x="468.38" y="-688.9" font-family="Times,serif" font-size="8.00">+date : ivoa:datetime</text>
</a>
</g>
</g>
<!-- coords:ISOTime&#45;&gt;coords:TimeInstant -->
<g id="edge13" class="edge">
<title>coords:ISOTime&#45;&gt;coords:TimeInstant</title>
<path fill="none" stroke="red" d="M490.71,-682.61C480.6,-664.17 465.5,-637.12 451.5,-614 443.18,-600.26 433.51,-585.24 425.35,-572.83"/>
<polygon fill="none" stroke="red" points="428.46,-571.19 420.03,-564.78 422.62,-575.05 428.46,-571.19"/>
</g>
<!-- coords:PolCoordinate -->
<g id="node18" class="node">
<title>coords:PolCoordinate</title>
<g id="a_node18"><a xlink:href="../coords/PolCoordinate" xlink:title="{&amp;lt;&amp;lt;datatype&amp;gt;&amp;gt;\nPolCoordinate}">
<polygon fill="#8dd3c7" stroke="black" points="448.62,-435.12 448.62,-471.12 510.38,-471.12 510.38,-435.12 448.62,-435.12"/>
<text text-anchor="middle" x="479.5" y="-455.52" font-family="Times,serif" font-size="8.00">&lt;&lt;datatype&gt;&gt;</text>
<text text-anchor="middle" x="479.5" y="-445.77" font-family="Times,serif" font-size="8.00">PolCoordinate</text>
</a>
</g>
</g>
<!-- coords:PolCoordinate&#45;&gt;coords:Coordinate -->
<g id="edge14" class="edge">
<title>coords:PolCoordinate&#45;&gt;coords:Coordinate</title>
<path fill="none" stroke="red" d="M471.7,-434.95C464.69,-419.53 454.28,-396.62 446.1,-378.61"/>
<polygon fill="none" stroke="red" points="449.29,-377.17 441.97,-369.51 442.92,-380.07 449.29,-377.17"/>
</g>
<!-- coords:PolState -->
<g id="node19" class="node">
<title>coords:PolState</title>
<g id="a_node19"><a xlink:href="../coords/PolState" xlink:title="{&amp;lt;&amp;lt;datatype&amp;gt;&amp;gt;\nPolState|+cval : coords:PolStateEnum\l}">
<polygon fill="#8dd3c7" stroke="black" points="580.62,-522.5 580.62,-567.75 690.38,-567.75 690.38,-522.5 580.62,-522.5"/>
<text text-anchor="middle" x="635.5" y="-556.15" font-family="Times,serif" font-size="8.00">&lt;&lt;datatype&gt;&gt;</text>
<text text-anchor="middle" x="635.5" y="-546.4" font-family="Times,serif" font-size="8.00">PolState</text>
<polyline fill="none" stroke="black" points="580.62,-540.25 690.38,-540.25"/>
<text text-anchor="start" x="588.62" y="-528.65" font-family="Times,serif" font-size="8.00">+cval : coords:PolStateEnum</text>
</a>
</g>
</g>
<!-- coords:PolState&#45;&gt;coords:PolCoordinate -->
<g id="edge15" class="edge">
<title>coords:PolState&#45;&gt;coords:PolCoordinate</title>
<path fill="none" stroke="red" d="M597.34,-522.11C573.74,-508.49 543.49,-491.04 519.55,-477.23"/>
<polygon fill="none" stroke="red" points="521.43,-474.28 511.02,-472.31 517.93,-480.34 521.43,-474.28"/>
</g>
<!-- coords:RefLocation -->
<g id="node20" class="node">
<title>coords:RefLocation</title>
<g id="a_node20"><a xlink:href="../coords/RefLocation" xlink:title="{&amp;lt;&amp;lt;datatype&amp;gt;&amp;gt;\nRefLocation}">
<polygon fill="#8dd3c7" stroke="black" points="708,-527.12 708,-563.12 769,-563.12 769,-527.12 708,-527.12"/>
<text text-anchor="middle" x="738.5" y="-547.52" font-family="Times,serif" font-size="8.00">&lt;&lt;datatype&gt;&gt;</text>
<text text-anchor="middle" x="738.5" y="-537.77" font-family="Times,serif" font-size="8.00">RefLocation</text>
</a>
</g>
</g>
<!-- coords:StdRefLocation -->
<g id="node21" class="node">
<title>coords:StdRefLocation</title>
<g id="a_node21"><a xlink:href="../coords/StdRefLocation" xlink:title="{&amp;lt;&amp;lt;datatype&amp;gt;&amp;gt;\nStdRefLocation|+position : ivoa:string\l}">
<polygon fill="#8dd3c7" stroke="black" points="641.62,-682.75 641.62,-728 727.38,-728 727.38,-682.75 641.62,-682.75"/>
<text text-anchor="middle" x="684.5" y="-716.4" font-family="Times,serif" font-size="8.00">&lt;&lt;datatype&gt;&gt;</text>
<text text-anchor="middle" x="684.5" y="-706.65" font-family="Times,serif" font-size="8.00">StdRefLocation</text>
<polyline fill="none" stroke="black" points="641.62,-700.5 727.38,-700.5"/>
<text text-anchor="start" x="649.62" y="-688.9" font-family="Times,serif" font-size="8.00">+position : ivoa:string</text>
</a>
</g>
</g>
<!-- coords:StdRefLocation&#45;&gt;coords:RefLocation -->
<g id="edge16" class="edge">
<title>coords:StdRefLocation&#45;&gt;coords:RefLocation</title>
<path fill="none" stroke="red" d="M692.01,-682.37C701.62,-654.21 718.28,-605.37 728.83,-574.45"/>
<polygon fill="none" stroke="red" points="732.14,-575.59 732.06,-564.99 725.52,-573.33 732.14,-575.59"/>
</g>
<!-- coords:CustomRefLocation -->
<g id="node22" class="node">
<title>coords:CustomRefLocation</title>
<g id="a_node22"><a xlink:href="../coords/CustomRefLocation" xlink:title="{&amp;lt;&amp;lt;datatype&amp;gt;&amp;gt;\nCustomRefLocation|+epoch : coords:Epoch\l+position : coords:Point\l+velocity : coords:Point\l}">
<polygon fill="#8dd3c7" stroke="black" points="745.25,-673 745.25,-737.75 837.75,-737.75 837.75,-673 745.25,-673"/>
<text text-anchor="middle" x="791.5" y="-726.15" font-family="Times,serif" font-size="8.00">&lt;&lt;datatype&gt;&gt;</text>
<text text-anchor="middle" x="791.5" y="-716.4" font-family="Times,serif" font-size="8.00">CustomRefLocation</text>
<polyline fill="none" stroke="black" points="745.25,-710.25 837.75,-710.25"/>
<text text-anchor="start" x="753.25" y="-698.65" font-family="Times,serif" font-size="8.00">+epoch : coords:Epoch</text>
<text text-anchor="start" x="753.25" y="-688.9" font-family="Times,serif" font-size="8.00">+position : coords:Point</text>
<text text-anchor="start" x="753.25" y="-679.15" font-family="Times,serif" font-size="8.00">+velocity : coords:Point</text>
</a>
</g>
</g>
<!-- coords:CustomRefLocation&#45;&gt;coords:RefLocation -->
<g id="edge17" class="edge">
<title>coords:CustomRefLocation&#45;&gt;coords:RefLocation</title>
<path fill="none" stroke="red" d="M780.9,-672.73C771.28,-644 757.22,-602.02 747.97,-574.4"/>
<polygon fill="none" stroke="red" points="751.3,-573.32 744.81,-564.95 744.66,-575.54 751.3,-573.32"/>
</g>
<!-- coords:CoordSpace -->
<g id="node23" class="node">
<title>coords:CoordSpace</title>
<g id="a_node23"><a xlink:href="../coords/CoordSpace" xlink:title="{CoordSpace}">
<polygon fill="#8dd3c7" stroke="black" points="730,-150.75 730,-186.75 785,-186.75 785,-150.75 730,-150.75"/>
<text text-anchor="middle" x="757.5" y="-166.15" font-family="Times,serif" font-size="8.00">CoordSpace</text>
</a>
</g>
</g>
<!-- coords:Axis -->
<g id="node24" class="node">
<title>coords:Axis</title>
<g id="a_node24"><a xlink:href="../coords/Axis" xlink:title="{Axis|+name : ivoa:string\l}">
<polygon fill="#8dd3c7" stroke="black" points="885.38,-57 885.38,-93 963.62,-93 963.62,-57 885.38,-57"/>
<text text-anchor="middle" x="924.5" y="-81.4" font-family="Times,serif" font-size="8.00">Axis</text>
<polyline fill="none" stroke="black" points="885.38,-75.25 963.62,-75.25"/>
<text text-anchor="start" x="893.38" y="-63.65" font-family="Times,serif" font-size="8.00">+name : ivoa:string</text>
</a>
</g>
</g>
<!-- coords:CoordSpace&#45;&gt;coords:Axis -->
<g id="edge35" class="edge">
<title>coords:CoordSpace&#45;&gt;coords:Axis</title>
<path fill="none" stroke="blue" d="M790.91,-142.99C792.11,-142.22 793.31,-141.47 794.5,-140.75 820.35,-125.04 850.52,-109.83 875.29,-98.11"/>
<polygon fill="blue" stroke="blue" points="790.85,-143.03 788.14,-149.71 780.93,-149.78 783.64,-143.09 790.85,-143.03"/>
<polygon fill="blue" stroke="blue" points="884.09,-93.98 876.94,-102.3 880.66,-95.59 875.03,-98.23 875.03,-98.23 875.03,-98.23 880.66,-95.59 873.12,-94.15 884.09,-93.98"/>
<text text-anchor="middle" x="854.75" y="-113.25" font-family="Times,serif" font-size="10.00">axis</text>
<text text-anchor="middle" x="877.69" y="-95.22" font-family="Times,serif" font-size="10.00">1..*</text>
</g>
<!-- coords:ContinuousAxis -->
<g id="node25" class="node">
<title>coords:ContinuousAxis</title>
<g id="a_node25"><a xlink:href="../coords/ContinuousAxis" xlink:title="{ContinuousAxis|+domainMin : ivoa:Quantity\l+domainMax : ivoa:Quantity\l+cyclic : ivoa:boolean\l}">
<polygon fill="#8dd3c7" stroke="black" points="803.38,-141.25 803.38,-196.25 911.62,-196.25 911.62,-141.25 803.38,-141.25"/>
<text text-anchor="middle" x="857.5" y="-184.65" font-family="Times,serif" font-size="8.00">ContinuousAxis</text>
<polyline fill="none" stroke="black" points="803.38,-178.5 911.62,-178.5"/>
<text text-anchor="start" x="811.38" y="-166.9" font-family="Times,serif" font-size="8.00">+domainMin : ivoa:Quantity</text>
<text text-anchor="start" x="811.38" y="-157.15" font-family="Times,serif" font-size="8.00">+domainMax : ivoa:Quantity</text>
<text text-anchor="start" x="811.38" y="-147.4" font-family="Times,serif" font-size="8.00">+cyclic : ivoa:boolean</text>
</a>
</g>
</g>
<!-- coords:ContinuousAxis&#45;&gt;coords:Axis -->
<g id="edge18" class="edge">
<title>coords:ContinuousAxis&#45;&gt;coords:Axis</title>
<path fill="none" stroke="red" d="M876.88,-141.21C885.72,-129.1 896.17,-114.79 905.03,-102.66"/>
<polygon fill="none" stroke="red" points="907.76,-104.85 910.83,-94.71 902.11,-100.73 907.76,-104.85"/>
</g>
<!-- coords:BinnedAxis -->
<g id="node26" class="node">
<title>coords:BinnedAxis</title>
<g id="a_node26"><a xlink:href="../coords/BinnedAxis" xlink:title="{BinnedAxis|+length : ivoa:nonnegativeInteger\l}">
<polygon fill="#8dd3c7" stroke="black" points="929.5,-150.75 929.5,-186.75 1053.5,-186.75 1053.5,-150.75 929.5,-150.75"/>
<text text-anchor="middle" x="991.5" y="-175.15" font-family="Times,serif" font-size="8.00">BinnedAxis</text>
<polyline fill="none" stroke="black" points="929.5,-169 1053.5,-169"/>
<text text-anchor="start" x="937.5" y="-157.4" font-family="Times,serif" font-size="8.00">+length : ivoa:nonnegativeInteger</text>
</a>
</g>
</g>
<!-- coords:BinnedAxis&#45;&gt;coords:Axis -->
<g id="edge19" class="edge">
<title>coords:BinnedAxis&#45;&gt;coords:Axis</title>
<path fill="none" stroke="red" d="M978.9,-150.49C969.04,-136.99 955.16,-117.99 943.89,-102.56"/>
<polygon fill="none" stroke="red" points="946.89,-100.73 938.17,-94.71 941.24,-104.85 946.89,-100.73"/>
</g>
<!-- coords:DiscreteSetAxis -->
<g id="node27" class="node">
<title>coords:DiscreteSetAxis</title>
<g id="a_node27"><a xlink:href="../coords/DiscreteSetAxis" xlink:title="{DiscreteSetAxis}">
<polygon fill="#8dd3c7" stroke="black" points="1071.88,-150.75 1071.88,-186.75 1141.12,-186.75 1141.12,-150.75 1071.88,-150.75"/>
<text text-anchor="middle" x="1106.5" y="-166.15" font-family="Times,serif" font-size="8.00">DiscreteSetAxis</text>
</a>
</g>
</g>
<!-- coords:DiscreteSetAxis&#45;&gt;coords:Axis -->
<g id="edge20" class="edge">
<title>coords:DiscreteSetAxis&#45;&gt;coords:Axis</title>
<path fill="none" stroke="red" d="M1079.32,-150.42C1073.81,-147.1 1068.02,-143.73 1062.5,-140.75 1033.81,-125.28 1000.79,-109.71 974.24,-97.72"/>
<polygon fill="none" stroke="red" points="975.98,-94.66 965.42,-93.76 973.11,-101.04 975.98,-94.66"/>
</g>
<!-- coords:CoordFrame -->
<g id="node28" class="node">
<title>coords:CoordFrame</title>
<g id="a_node28"><a xlink:href="../coords/CoordFrame" xlink:title="{CoordFrame}">
<polygon fill="#8dd3c7" stroke="black" points="793.25,-233.25 793.25,-269.25 849.75,-269.25 849.75,-233.25 793.25,-233.25"/>
<text text-anchor="middle" x="821.5" y="-248.65" font-family="Times,serif" font-size="8.00">CoordFrame</text>
</a>
</g>
</g>
<!-- coords:GenericFrame -->
<g id="node29" class="node">
<title>coords:GenericFrame</title>
<g id="a_node29"><a xlink:href="../coords/GenericFrame" xlink:title="{GenericFrame|+refPosition : coords:RefLocation\l+planetaryEphem : ivoa:string\l}">
<polygon fill="#8dd3c7" stroke="black" points="975.38,-327.25 975.38,-372.5 1101.62,-372.5 1101.62,-327.25 975.38,-327.25"/>
<text text-anchor="middle" x="1038.5" y="-360.9" font-family="Times,serif" font-size="8.00">GenericFrame</text>
<polyline fill="none" stroke="black" points="975.38,-354.75 1101.62,-354.75"/>
<text text-anchor="start" x="983.38" y="-343.15" font-family="Times,serif" font-size="8.00">+refPosition : coords:RefLocation</text>
<text text-anchor="start" x="983.38" y="-333.4" font-family="Times,serif" font-size="8.00">+planetaryEphem : ivoa:string</text>
</a>
</g>
</g>
<!-- coords:GenericFrame&#45;&gt;coords:CoordFrame -->
<g id="edge21" class="edge">
<title>coords:GenericFrame&#45;&gt;coords:CoordFrame</title>
<path fill="none" stroke="red" d="M988.99,-326.83C949.94,-309.44 896.24,-285.53 860.27,-269.52"/>
<polygon fill="none" stroke="red" points="862.12,-266.5 851.56,-265.63 859.27,-272.9 862.12,-266.5"/>
</g>
<!-- coords:SpaceFrame -->
<g id="node30" class="node">
<title>coords:SpaceFrame</title>
<g id="a_node30"><a xlink:href="../coords/SpaceFrame" xlink:title="{SpaceFrame|+refPosition : coords:RefLocation\l+spaceRefFrame : ivoa:string\l+equinox : coords:Epoch\l+planetaryEphem : ivoa:string\l}">
<polygon fill="#8dd3c7" stroke="black" points="831.38,-317.5 831.38,-382.25 957.62,-382.25 957.62,-317.5 831.38,-317.5"/>
<text text-anchor="middle" x="894.5" y="-370.65" font-family="Times,serif" font-size="8.00">SpaceFrame</text>
<polyline fill="none" stroke="black" points="831.38,-364.5 957.62,-364.5"/>
<text text-anchor="start" x="839.38" y="-352.9" font-family="Times,serif" font-size="8.00">+refPosition : coords:RefLocation</text>
<text text-anchor="start" x="839.38" y="-343.15" font-family="Times,serif" font-size="8.00">+spaceRefFrame : ivoa:string</text>
<text text-anchor="start" x="839.38" y="-333.4" font-family="Times,serif" font-size="8.00">+equinox : coords:Epoch</text>
<text text-anchor="start" x="839.38" y="-323.65" font-family="Times,serif" font-size="8.00">+planetaryEphem : ivoa:string</text>
</a>
</g>
</g>
<!-- coords:SpaceFrame&#45;&gt;coords:CoordFrame -->
<g id="edge22" class="edge">
<title>coords:SpaceFrame&#45;&gt;coords:CoordFrame</title>
<path fill="none" stroke="red" d="M870.6,-317.24C861.15,-304.73 850.41,-290.52 841.4,-278.59"/>
<polygon fill="none" stroke="red" points="844.33,-276.66 835.51,-270.79 838.74,-280.88 844.33,-276.66"/>
</g>
<!-- coords:TimeFrame -->
<g id="node31" class="node">
<title>coords:TimeFrame</title>
<g id="a_node31"><a xlink:href="../coords/TimeFrame" xlink:title="{TimeFrame|+refPosition : coords:RefLocation\l+timescale : ivoa:string\l+refDirection : coords:RefLocation\l}">
<polygon fill="#8dd3c7" stroke="black" points="681.75,-322.38 681.75,-377.38 813.25,-377.38 813.25,-322.38 681.75,-322.38"/>
<text text-anchor="middle" x="747.5" y="-365.77" font-family="Times,serif" font-size="8.00">TimeFrame</text>
<polyline fill="none" stroke="black" points="681.75,-359.62 813.25,-359.62"/>
<text text-anchor="start" x="689.75" y="-348.02" font-family="Times,serif" font-size="8.00">+refPosition : coords:RefLocation</text>
<text text-anchor="start" x="689.75" y="-338.27" font-family="Times,serif" font-size="8.00">+timescale : ivoa:string</text>
<text text-anchor="start" x="689.75" y="-328.52" font-family="Times,serif" font-size="8.00">+refDirection : coords:RefLocation</text>
</a>
</g>
</g>
<!-- coords:TimeFrame&#45;&gt;coords:CoordFrame -->
<g id="edge23" class="edge">
<title>coords:TimeFrame&#45;&gt;coords:CoordFrame</title>
<path fill="none" stroke="red" d="M768.11,-321.96C778.54,-308.35 791.14,-291.9 801.48,-278.4"/>
<polygon fill="none" stroke="red" points="804,-280.86 807.3,-270.79 798.44,-276.6 804,-280.86"/>
</g>
<!-- coords:AstroCoordSystem -->
<g id="node32" class="node">
<title>coords:AstroCoordSystem</title>
<g id="a_node32"><a xlink:href="../coords/AstroCoordSystem" xlink:title="{AstroCoordSystem}">
<polygon fill="#8dd3c7" stroke="black" points="528.12,-435.12 528.12,-471.12 604.88,-471.12 604.88,-435.12 528.12,-435.12"/>
<text text-anchor="middle" x="566.5" y="-450.52" font-family="Times,serif" font-size="8.00">AstroCoordSystem</text>
</a>
</g>
</g>
<!-- coords:AstroCoordSystem&#45;&gt;coords:CoordSys -->
<g id="edge24" class="edge">
<title>coords:AstroCoordSystem&#45;&gt;coords:CoordSys</title>
<path fill="none" stroke="red" d="M563.8,-434.74C558.46,-400.26 546.46,-322.93 539.94,-280.85"/>
<polygon fill="none" stroke="red" points="543.44,-280.58 538.44,-271.24 536.52,-281.65 543.44,-280.58"/>
</g>
<!-- coords:PhysicalCoordSys -->
<g id="node36" class="node">
<title>coords:PhysicalCoordSys</title>
<g id="a_node36"><a xlink:href="../coords/PhysicalCoordSys" xlink:title="{PhysicalCoordSys}">
<polygon fill="#8dd3c7" stroke="black" points="589.62,-331.88 589.62,-367.88 663.38,-367.88 663.38,-331.88 589.62,-331.88"/>
<text text-anchor="middle" x="626.5" y="-347.27" font-family="Times,serif" font-size="8.00">PhysicalCoordSys</text>
</a>
</g>
</g>
<!-- coords:AstroCoordSystem&#45;&gt;coords:PhysicalCoordSys -->
<g id="edge36" class="edge">
<title>coords:AstroCoordSystem&#45;&gt;coords:PhysicalCoordSys</title>
<path fill="none" stroke="blue" d="M582.59,-423.78C586.9,-416.27 591.59,-408.18 596,-400.75 600.46,-393.22 605.38,-385.11 609.94,-377.66"/>
<polygon fill="blue" stroke="blue" points="582.62,-423.73 583.11,-430.92 576.66,-434.15 576.17,-426.95 582.62,-423.73"/>
<polygon fill="blue" stroke="blue" points="615.02,-369.38 613.62,-380.26 613.04,-372.61 609.78,-377.91 609.78,-377.91 609.78,-377.91 613.04,-372.61 605.95,-375.55 615.02,-369.38"/>
<text text-anchor="middle" x="614.25" y="-402.5" font-family="Times,serif" font-size="10.00">coordSys</text>
<text text-anchor="middle" x="608.15" y="-370.1" font-family="Times,serif" font-size="10.00">1..*</text>
</g>
<!-- coords:PixelCoordSystem -->
<g id="node33" class="node">
<title>coords:PixelCoordSystem</title>
<g id="a_node33"><a xlink:href="../coords/PixelCoordSystem" xlink:title="{PixelCoordSystem}">
<polygon fill="#8dd3c7" stroke="black" points="309.88,-331.88 309.88,-367.88 385.12,-367.88 385.12,-331.88 309.88,-331.88"/>
<text text-anchor="middle" x="347.5" y="-347.27" font-family="Times,serif" font-size="8.00">PixelCoordSystem</text>
</a>
</g>
</g>
<!-- coords:PixelSpace -->
<g id="node34" class="node">
<title>coords:PixelSpace</title>
<g id="a_node34"><a xlink:href="../coords/PixelSpace" xlink:title="{PixelSpace|+handedness : coords:Handedness\l}">
<polygon fill="#8dd3c7" stroke="black" points="348.12,-233.25 348.12,-269.25 472.88,-269.25 472.88,-233.25 348.12,-233.25"/>
<text text-anchor="middle" x="410.5" y="-257.65" font-family="Times,serif" font-size="8.00">PixelSpace</text>
<polyline fill="none" stroke="black" points="348.12,-251.5 472.88,-251.5"/>
<text text-anchor="start" x="356.12" y="-239.9" font-family="Times,serif" font-size="8.00">+handedness : coords:Handedness</text>
</a>
</g>
</g>
<!-- coords:PixelCoordSystem&#45;&gt;coords:PixelSpace -->
<g id="edge37" class="edge">
<title>coords:PixelCoordSystem&#45;&gt;coords:PixelSpace</title>
<path fill="none" stroke="blue" d="M365.74,-320.9C374.33,-307.73 384.53,-292.09 393.02,-279.06"/>
<polygon fill="blue" stroke="blue" points="365.81,-320.79 365.88,-328 359.26,-330.85 359.18,-323.63 365.81,-320.79"/>
<polygon fill="blue" stroke="blue" points="398.46,-270.72 396.76,-281.56 396.39,-273.89 392.99,-279.1 392.99,-279.1 392.99,-279.1 396.39,-273.89 389.23,-276.64 398.46,-270.72"/>
<text text-anchor="middle" x="408" y="-289.5" font-family="Times,serif" font-size="10.00">pixelSpace</text>
<text text-anchor="middle" x="396.5" y="-271.45" font-family="Times,serif" font-size="10.00">1</text>
</g>
<!-- coords:PixelCoordSystem&#45;&gt;coords:CoordSys -->
<g id="edge25" class="edge">
<title>coords:PixelCoordSystem&#45;&gt;coords:CoordSys</title>
<path fill="none" stroke="red" d="M371.39,-331.51C378.64,-326.55 386.75,-321.33 394.5,-317 411.52,-307.49 416.77,-307.09 434.5,-299 455.46,-289.43 478.81,-278.63 497.78,-269.83"/>
<polygon fill="none" stroke="red" points="499.14,-273.05 506.73,-265.67 496.19,-266.71 499.14,-273.05"/>
</g>
<!-- coords:PixelSpace&#45;&gt;coords:CoordSpace -->
<g id="edge26" class="edge">
<title>coords:PixelSpace&#45;&gt;coords:CoordSpace</title>
<path fill="none" stroke="red" d="M473.34,-235.67C544.75,-219.11 659.08,-192.58 718.61,-178.77"/>
<polygon fill="none" stroke="red" points="719.34,-182.2 728.29,-176.53 717.75,-175.38 719.34,-182.2"/>
</g>
<!-- coords:PhysicalCoordSys&#45;&gt;coords:CoordFrame -->
<g id="edge39" class="edge">
<title>coords:PhysicalCoordSys&#45;&gt;coords:CoordFrame</title>
<path fill="none" stroke="blue" d="M622.68,-318.83C622.93,-307.8 625.38,-296 633,-287.75 652.64,-266.47 732.62,-257.72 781.87,-254.29"/>
<polygon fill="blue" stroke="blue" points="622.68,-318.73 626.95,-324.54 623.23,-330.71 618.96,-324.91 622.68,-318.73"/>
<polygon fill="blue" stroke="blue" points="791.57,-253.67 781.88,-258.8 787.79,-253.91 781.59,-254.31 781.59,-254.31 781.59,-254.31 787.79,-253.91 781.3,-249.82 791.57,-253.67"/>
<text text-anchor="middle" x="643.75" y="-289.5" font-family="Times,serif" font-size="10.00">frame</text>
<text text-anchor="middle" x="785.28" y="-255.34" font-family="Times,serif" font-size="10.00">0..1</text>
</g>
<!-- coords:PhysicalCoordSys&#45;&gt;coords:CoordSys -->
<g id="edge27" class="edge">
<title>coords:PhysicalCoordSys&#45;&gt;coords:CoordSys</title>
<path fill="none" stroke="red" d="M610.23,-331.6C596.21,-316.72 575.78,-295.02 559.82,-278.07"/>
<polygon fill="none" stroke="red" points="562.38,-275.68 552.97,-270.8 557.28,-280.48 562.38,-275.68"/>
</g>
<!-- coords:PhysicalCoordSpace -->
<g id="node40" class="node">
<title>coords:PhysicalCoordSpace</title>
<g id="a_node40"><a xlink:href="../coords/PhysicalCoordSpace" xlink:title="{PhysicalCoordSpace}">
<polygon fill="#8dd3c7" stroke="black" points="1119.5,-233.25 1119.5,-269.25 1201.5,-269.25 1201.5,-233.25 1119.5,-233.25"/>
<text text-anchor="middle" x="1160.5" y="-248.65" font-family="Times,serif" font-size="8.00">PhysicalCoordSpace</text>
</a>
</g>
</g>
<!-- coords:PhysicalCoordSys&#45;&gt;coords:PhysicalCoordSpace -->
<g id="edge38" class="edge">
<title>coords:PhysicalCoordSys&#45;&gt;coords:PhysicalCoordSpace</title>
<path fill="none" stroke="blue" d="M659.85,-324.26C680.45,-310.62 708.05,-294.98 735.25,-287.75 804.3,-269.4 1010.67,-258.55 1108.26,-254.31"/>
<polygon fill="blue" stroke="blue" points="659.83,-324.28 657.14,-330.97 649.93,-331.07 652.62,-324.38 659.83,-324.28"/>
<polygon fill="blue" stroke="blue" points="1118.11,-253.89 1108.31,-258.82 1114.33,-254.06 1108.12,-254.32 1108.12,-254.32 1108.12,-254.32 1114.33,-254.06 1107.93,-249.82 1118.11,-253.89"/>
<text text-anchor="middle" x="758.12" y="-289.5" font-family="Times,serif" font-size="10.00">coordSpace</text>
<text text-anchor="middle" x="1111.83" y="-255.59" font-family="Times,serif" font-size="10.00">0..1</text>
</g>
<!-- coords:GenericSys -->
<g id="node37" class="node">
<title>coords:GenericSys</title>
<g id="a_node37"><a xlink:href="../coords/GenericSys" xlink:title="{GenericSys}">
<polygon fill="#8dd3c7" stroke="black" points="622.5,-435.12 622.5,-471.12 676.5,-471.12 676.5,-435.12 622.5,-435.12"/>
<text text-anchor="middle" x="649.25" y="-450.52" font-family="Times,serif" font-size="8.00">GenericSys</text>
</a>
</g>
</g>
<!-- coords:GenericSys&#45;&gt;coords:PhysicalCoordSys -->
<g id="edge28" class="edge">
<title>coords:GenericSys&#45;&gt;coords:PhysicalCoordSys</title>
<path fill="none" stroke="red" d="M645.6,-434.95C642.13,-419.68 636.99,-397.05 632.92,-379.12"/>
<polygon fill="none" stroke="red" points="636.38,-378.59 630.76,-369.61 629.56,-380.14 636.38,-378.59"/>
</g>
<!-- coords:SpaceSys -->
<g id="node38" class="node">
<title>coords:SpaceSys</title>
<g id="a_node38"><a xlink:href="../coords/SpaceSys" xlink:title="{SpaceSys}">
<polygon fill="#8dd3c7" stroke="black" points="694.5,-435.12 694.5,-471.12 748.5,-471.12 748.5,-435.12 694.5,-435.12"/>
<text text-anchor="middle" x="721.38" y="-450.52" font-family="Times,serif" font-size="8.00">SpaceSys</text>
</a>
</g>
</g>
<!-- coords:SpaceSys&#45;&gt;coords:PhysicalCoordSys -->
<g id="edge29" class="edge">
<title>coords:SpaceSys&#45;&gt;coords:PhysicalCoordSys</title>
<path fill="none" stroke="red" d="M705.38,-434.95C690.24,-418.8 667.38,-394.44 650.16,-376.09"/>
<polygon fill="none" stroke="red" points="653.12,-374.14 643.73,-369.24 648.02,-378.93 653.12,-374.14"/>
</g>
<!-- coords:TimeSys -->
<g id="node39" class="node">
<title>coords:TimeSys</title>
<g id="a_node39"><a xlink:href="../coords/TimeSys" xlink:title="{TimeSys}">
<polygon fill="#8dd3c7" stroke="black" points="766.5,-435.12 766.5,-471.12 820.5,-471.12 820.5,-435.12 766.5,-435.12"/>
<text text-anchor="middle" x="793.38" y="-450.52" font-family="Times,serif" font-size="8.00">TimeSys</text>
</a>
</g>
</g>
<!-- coords:TimeSys&#45;&gt;coords:PhysicalCoordSys -->
<g id="edge30" class="edge">
<title>coords:TimeSys&#45;&gt;coords:PhysicalCoordSys</title>
<path fill="none" stroke="red" d="M766.06,-435.09C763.18,-433.35 760.29,-431.63 757.5,-430 720.19,-408.18 709.2,-405.59 672.5,-382.75 668.42,-380.21 664.19,-377.46 660.03,-374.68"/>
<polygon fill="none" stroke="red" points="662.03,-371.8 651.8,-369.06 658.09,-377.58 662.03,-371.8"/>
</g>
<!-- coords:PhysicalCoordSpace&#45;&gt;coords:CoordSpace -->
<g id="edge31" class="edge">
<title>coords:PhysicalCoordSpace&#45;&gt;coords:CoordSpace</title>
<path fill="none" stroke="red" d="M1119.02,-250.58C1049.33,-249.75 905.52,-242.1 794.5,-196.75 792.02,-195.74 789.54,-194.52 787.12,-193.17"/>
<polygon fill="none" stroke="red" points="789.16,-190.32 778.84,-187.89 785.39,-196.22 789.16,-190.32"/>
</g>
<!-- coords:GenericCoordSpace -->
<g id="node41" class="node">
<title>coords:GenericCoordSpace</title>
<g id="a_node41"><a xlink:href="../coords/GenericCoordSpace" xlink:title="{GenericCoordSpace}">
<polygon fill="#8dd3c7" stroke="black" points="1119.88,-331.88 1119.88,-367.88 1201.12,-367.88 1201.12,-331.88 1119.88,-331.88"/>
<text text-anchor="middle" x="1160.5" y="-347.27" font-family="Times,serif" font-size="8.00">GenericCoordSpace</text>
</a>
</g>
</g>
<!-- coords:GenericCoordSpace&#45;&gt;coords:PhysicalCoordSpace -->
<g id="edge32" class="edge">
<title>coords:GenericCoordSpace&#45;&gt;coords:PhysicalCoordSpace</title>
<path fill="none" stroke="red" d="M1160.5,-331.6C1160.5,-317.54 1160.5,-297.38 1160.5,-280.91"/>
<polygon fill="none" stroke="red" points="1164,-281.21 1160.5,-271.21 1157,-281.21 1164,-281.21"/>
</g>
<!-- coords:SphericalCoordSpace -->
<g id="node42" class="node">
<title>coords:SphericalCoordSpace</title>
<g id="a_node42"><a xlink:href="../coords/SphericalCoordSpace" xlink:title="{SphericalCoordSpace}">
<polygon fill="#8dd3c7" stroke="black" points="1219.62,-331.88 1219.62,-367.88 1305.38,-367.88 1305.38,-331.88 1219.62,-331.88"/>
<text text-anchor="middle" x="1262.5" y="-347.27" font-family="Times,serif" font-size="8.00">SphericalCoordSpace</text>
</a>
</g>
</g>
<!-- coords:SphericalCoordSpace&#45;&gt;coords:PhysicalCoordSpace -->
<g id="edge33" class="edge">
<title>coords:SphericalCoordSpace&#45;&gt;coords:PhysicalCoordSpace</title>
<path fill="none" stroke="red" d="M1244.26,-331.6C1228.41,-316.58 1205.22,-294.62 1187.26,-277.6"/>
<polygon fill="none" stroke="red" points="1189.69,-275.08 1180.02,-270.74 1184.87,-280.16 1189.69,-275.08"/>
</g>
<!-- coords:CartesianCoordSpace -->
<g id="node43" class="node">
<title>coords:CartesianCoordSpace</title>
<g id="a_node43"><a xlink:href="../coords/CartesianCoordSpace" xlink:title="{CartesianCoordSpace}">
<polygon fill="#8dd3c7" stroke="black" points="1323.62,-331.88 1323.62,-367.88 1409.38,-367.88 1409.38,-331.88 1323.62,-331.88"/>
<text text-anchor="middle" x="1366.5" y="-347.27" font-family="Times,serif" font-size="8.00">CartesianCoordSpace</text>
</a>
</g>
</g>
<!-- coords:CartesianCoordSpace&#45;&gt;coords:PhysicalCoordSpace -->
<g id="edge34" class="edge">
<title>coords:CartesianCoordSpace&#45;&gt;coords:PhysicalCoordSpace</title>
<path fill="none" stroke="red" d="M1339.96,-331.54C1331.92,-326.58 1322.98,-321.35 1314.5,-317 1281.26,-299.95 1242.48,-283.66 1212.15,-271.69"/>
<polygon fill="none" stroke="red" points="1213.8,-268.58 1203.21,-268.19 1211.25,-275.09 1213.8,-268.58"/>
</g>
</g>
</svg>
