<?xml version="1.0" encoding="UTF-8" standalone="no"?>
<!DOCTYPE svg PUBLIC "-//W3C//DTD SVG 1.1//EN"
 "http://www.w3.org/Graphics/SVG/1.1/DTD/svg11.dtd">
<!-- Generated by graphviz version 11.0.0 (20240428.1522)
 -->
<!-- Title: GVmap Pages: 1 -->
<svg width="806pt" height="538pt"
 viewBox="0.00 0.00 805.50 538.25" xmlns="http://www.w3.org/2000/svg" xmlns:xlink="http://www.w3.org/1999/xlink">
<g id="graph0" class="graph" transform="scale(1 1) rotate(0) translate(4 534.25)">
<title>GVmap</title>
<polygon fill="white" stroke="none" points="-4,4 -4,-534.25 801.5,-534.25 801.5,4 -4,4"/>
<text text-anchor="middle" x="398.75" y="-7.2" font-family="Times,serif" font-size="14.00">cube data model</text>
<!-- coords:PixelCoordSystem -->
<g id="node1" class="node">
<title>coords:PixelCoordSystem</title>
<g id="a_node1"><a xlink:href="#PixelCoordSystem" xlink:title="{coords:PixelCoordSystem}">
<polygon fill="grey" stroke="black" points="154.25,-409.5 154.25,-445.5 252.75,-445.5 252.75,-409.5 154.25,-409.5"/>
<text text-anchor="middle" x="203.5" y="-424.9" font-family="Times,serif" font-size="8.00">coords:PixelCoordSystem</text>
</a>
</g>
</g>
<!-- coords:CoordSys -->
<g id="node2" class="node">
<title>coords:CoordSys</title>
<g id="a_node2"><a xlink:href="#CoordSys" xlink:title="{coords:CoordSys}">
<polygon fill="grey" stroke="black" points="655.5,-325.25 655.5,-361.25 725.5,-361.25 725.5,-325.25 655.5,-325.25"/>
<text text-anchor="middle" x="690.5" y="-340.65" font-family="Times,serif" font-size="8.00">coords:CoordSys</text>
</a>
</g>
</g>
<!-- ds:dataset.Dataset -->
<g id="node3" class="node">
<title>ds:dataset.Dataset</title>
<g id="a_node3"><a xlink:href="#dataset.Dataset" xlink:title="{ds:dataset.Dataset}">
<polygon fill="grey" stroke="black" points="563.25,-325.25 563.25,-361.25 637.75,-361.25 637.75,-325.25 563.25,-325.25"/>
<text text-anchor="middle" x="600.5" y="-340.65" font-family="Times,serif" font-size="8.00">ds:dataset.Dataset</text>
</a>
</g>
</g>
<!-- meas:Measure -->
<g id="node4" class="node">
<title>meas:Measure</title>
<g id="a_node4"><a xlink:href="#Measure" xlink:title="{meas:Measure}">
<polygon fill="grey" stroke="black" points="516.25,-131 516.25,-167 578.75,-167 578.75,-131 516.25,-131"/>
<text text-anchor="middle" x="547.5" y="-146.4" font-family="Times,serif" font-size="8.00">meas:Measure</text>
</a>
</g>
</g>
<!-- trans:Mapping -->
<g id="node5" class="node">
<title>trans:Mapping</title>
<g id="a_node5"><a xlink:href="#Mapping" xlink:title="{trans:Mapping}">
<polygon fill="grey" stroke="black" points="387.62,-215.25 387.62,-251.25 449.38,-251.25 449.38,-215.25 387.62,-215.25"/>
<text text-anchor="middle" x="418.5" y="-230.65" font-family="Times,serif" font-size="8.00">trans:Mapping</text>
</a>
</g>
</g>
<!-- coords:CoordFrame -->
<g id="node6" class="node">
<title>coords:CoordFrame</title>
<g id="a_node6"><a xlink:href="#CoordFrame" xlink:title="{coords:CoordFrame}">
<polygon fill="grey" stroke="black" points="234.62,-215.25 234.62,-251.25 314.38,-251.25 314.38,-215.25 234.62,-215.25"/>
<text text-anchor="middle" x="274.5" y="-230.65" font-family="Times,serif" font-size="8.00">coords:CoordFrame</text>
</a>
</g>
</g>
<!-- cube:NDImage -->
<g id="node7" class="node">
<title>cube:NDImage</title>
<g id="a_node7"><a xlink:href="../cube/NDImage" xlink:title="{NDImage}">
<polygon fill="#8dd3c7" stroke="black" points="270.5,-493.75 270.5,-529.75 324.5,-529.75 324.5,-493.75 270.5,-493.75"/>
<text text-anchor="middle" x="297.12" y="-509.15" font-family="Times,serif" font-size="8.00">NDImage</text>
</a>
</g>
</g>
<!-- cube:NDImage&#45;&gt;coords:PixelCoordSystem -->
<g id="edge11" class="edge">
<title>cube:NDImage&#45;&gt;coords:PixelCoordSystem</title>
<path fill="none" stroke="blue" d="M258.87,-493.76C249.68,-488.64 240.35,-482.43 232.75,-475.25 226.62,-469.47 221.25,-462.13 216.84,-455"/>
<polygon fill="blue" stroke="blue" points="258.83,-493.74 266,-492.95 269.49,-499.26 262.32,-500.05 258.83,-493.74"/>
<polygon fill="blue" stroke="blue" points="212.05,-446.62 220.92,-453.07 213.92,-449.91 217.01,-455.3 217.01,-455.3 217.01,-455.3 213.92,-449.91 213.11,-457.54 212.05,-446.62"/>
<text text-anchor="middle" x="262.88" y="-465.75" font-family="Times,serif" font-size="10.00">pixelCoordSys</text>
<text text-anchor="middle" x="208.82" y="-447.32" font-family="Times,serif" font-size="10.00">1</text>
</g>
<!-- cube:DataProduct -->
<g id="node9" class="node">
<title>cube:DataProduct</title>
<g id="a_node9"><a xlink:href="../cube/DataProduct" xlink:title="{DataProduct}">
<polygon fill="#8dd3c7" stroke="black" points="572.25,-409.5 572.25,-445.5 628.75,-445.5 628.75,-409.5 572.25,-409.5"/>
<text text-anchor="middle" x="600.5" y="-424.9" font-family="Times,serif" font-size="8.00">DataProduct</text>
</a>
</g>
</g>
<!-- cube:NDImage&#45;&gt;cube:DataProduct -->
<g id="edge1" class="edge">
<title>cube:NDImage&#45;&gt;cube:DataProduct</title>
<path fill="none" stroke="red" d="M324.92,-503.31C378.82,-488.68 498.72,-456.13 561.09,-439.2"/>
<polygon fill="none" stroke="red" points="561.84,-442.62 570.58,-436.62 560.01,-435.86 561.84,-442.62"/>
</g>
<!-- cube:Voxel -->
<g id="node10" class="node">
<title>cube:Voxel</title>
<g id="a_node10"><a xlink:href="../cube/Voxel" xlink:title="{Voxel}">
<polygon fill="#8dd3c7" stroke="black" points="270.5,-409.5 270.5,-445.5 324.5,-445.5 324.5,-409.5 270.5,-409.5"/>
<text text-anchor="middle" x="297.38" y="-424.9" font-family="Times,serif" font-size="8.00">Voxel</text>
</a>
</g>
</g>
<!-- cube:NDImage&#45;&gt;cube:Voxel -->
<g id="edge10" class="edge">
<title>cube:NDImage&#45;&gt;cube:Voxel</title>
<path fill="none" stroke="blue" d="M297.5,-480.47C297.5,-472.83 297.5,-464.66 297.5,-457.1"/>
<polygon fill="blue" stroke="blue" points="297.5,-480.41 301.5,-486.41 297.5,-492.41 293.5,-486.41 297.5,-480.41"/>
<polygon fill="blue" stroke="blue" points="297.5,-447.14 302,-457.14 297.5,-450.92 297.5,-457.14 297.5,-457.14 297.5,-457.14 297.5,-450.92 293,-457.14 297.5,-447.14"/>
<text text-anchor="middle" x="306.12" y="-465.75" font-family="Times,serif" font-size="10.00">data</text>
<text text-anchor="middle" x="290" y="-447.67" font-family="Times,serif" font-size="10.00">0..*</text>
</g>
<!-- cube:SparseCube -->
<g id="node8" class="node">
<title>cube:SparseCube</title>
<g id="a_node8"><a xlink:href="../cube/SparseCube" xlink:title="{SparseCube}">
<polygon fill="#8dd3c7" stroke="black" points="630.38,-493.75 630.38,-529.75 684.62,-529.75 684.62,-493.75 630.38,-493.75"/>
<text text-anchor="middle" x="657.5" y="-509.15" font-family="Times,serif" font-size="8.00">SparseCube</text>
</a>
</g>
</g>
<!-- cube:SparseCube&#45;&gt;cube:DataProduct -->
<g id="edge2" class="edge">
<title>cube:SparseCube&#45;&gt;cube:DataProduct</title>
<path fill="none" stroke="red" d="M645.41,-493.31C637.78,-482.29 627.76,-467.84 619.13,-455.38"/>
<polygon fill="none" stroke="red" points="622.01,-453.39 613.43,-447.16 616.25,-457.37 622.01,-453.39"/>
</g>
<!-- cube:NDPoint -->
<g id="node11" class="node">
<title>cube:NDPoint</title>
<g id="a_node11"><a xlink:href="../cube/NDPoint" xlink:title="{NDPoint}">
<polygon fill="#8dd3c7" stroke="black" points="689.5,-409.5 689.5,-445.5 743.5,-445.5 743.5,-409.5 689.5,-409.5"/>
<text text-anchor="middle" x="716.25" y="-424.9" font-family="Times,serif" font-size="8.00">NDPoint</text>
</a>
</g>
</g>
<!-- cube:SparseCube&#45;&gt;cube:NDPoint -->
<g id="edge12" class="edge">
<title>cube:SparseCube&#45;&gt;cube:NDPoint</title>
<path fill="none" stroke="blue" d="M677.6,-482.72C684.03,-473.76 691.13,-463.87 697.47,-455.02"/>
<polygon fill="blue" stroke="blue" points="677.53,-482.82 677.29,-490.03 670.54,-492.57 670.78,-485.37 677.53,-482.82"/>
<polygon fill="blue" stroke="blue" points="703.3,-446.91 701.12,-457.66 701.09,-449.98 697.47,-455.03 697.47,-455.03 697.47,-455.03 701.09,-449.98 693.81,-452.41 703.3,-446.91"/>
<text text-anchor="middle" x="699.12" y="-465.75" font-family="Times,serif" font-size="10.00">data</text>
<text text-anchor="middle" x="696.51" y="-447.67" font-family="Times,serif" font-size="10.00">0..*</text>
</g>
<!-- cube:DataProduct&#45;&gt;coords:CoordSys -->
<g id="edge13" class="edge">
<title>cube:DataProduct&#45;&gt;coords:CoordSys</title>
<path fill="none" stroke="blue" d="M629.14,-400.33C640.04,-390.36 652.43,-379.04 663.2,-369.2"/>
<polygon fill="blue" stroke="blue" points="629.11,-400.35 627.38,-407.35 620.25,-408.45 621.98,-401.45 629.11,-400.35"/>
<polygon fill="blue" stroke="blue" points="670.54,-362.49 666.2,-372.56 667.75,-365.04 663.16,-369.24 663.16,-369.24 663.16,-369.24 667.75,-365.04 660.12,-365.91 670.54,-362.49"/>
<text text-anchor="middle" x="669.25" y="-381.5" font-family="Times,serif" font-size="10.00">coordSys</text>
<text text-anchor="middle" x="663.94" y="-363.42" font-family="Times,serif" font-size="10.00">1..*</text>
</g>
<!-- cube:DataProduct&#45;&gt;ds:dataset.Dataset -->
<g id="edge23" class="edge">
<title>cube:DataProduct&#45;&gt;ds:dataset.Dataset</title>
<path fill="none" stroke="green" d="M600.5,-409.06C600.5,-398.48 600.5,-384.73 600.5,-372.62"/>
<polygon fill="green" stroke="green" points="600.5,-362.89 605,-372.89 600.5,-366.67 600.5,-372.89 600.5,-372.89 600.5,-372.89 600.5,-366.67 596,-372.89 600.5,-362.89"/>
<text text-anchor="middle" x="614.75" y="-381.5" font-family="Times,serif" font-size="10.00">dataset</text>
<text text-anchor="middle" x="597.88" y="-363.42" font-family="Times,serif" font-size="10.00">1</text>
</g>
<!-- cube:Mappings -->
<g id="node22" class="node">
<title>cube:Mappings</title>
<g id="a_node22"><a xlink:href="../cube/Mappings" xlink:title="{Mappings}">
<polygon fill="#8dd3c7" stroke="black" points="491.5,-325.25 491.5,-361.25 545.5,-361.25 545.5,-325.25 491.5,-325.25"/>
<text text-anchor="middle" x="518.38" y="-340.65" font-family="Times,serif" font-size="8.00">Mappings</text>
</a>
</g>
</g>
<!-- cube:DataProduct&#45;&gt;cube:Mappings -->
<g id="edge14" class="edge">
<title>cube:DataProduct&#45;&gt;cube:Mappings</title>
<path fill="none" stroke="blue" d="M567.58,-401.01C563.83,-397.75 560.14,-394.37 556.75,-391 550.27,-384.55 543.77,-377.07 538.01,-370.01"/>
<polygon fill="blue" stroke="blue" points="567.58,-401.02 574.75,-401.79 576.8,-408.7 569.63,-407.93 567.58,-401.02"/>
<polygon fill="blue" stroke="blue" points="531.93,-362.36 541.67,-367.39 534.28,-365.32 538.15,-370.19 538.15,-370.19 538.15,-370.19 534.28,-365.32 534.63,-372.98 531.93,-362.36"/>
<text text-anchor="middle" x="576.38" y="-381.5" font-family="Times,serif" font-size="10.00">mappings</text>
<text text-anchor="middle" x="523.67" y="-363.15" font-family="Times,serif" font-size="10.00">0..1</text>
</g>
<!-- cube:PixelAxis -->
<g id="node13" class="node">
<title>cube:PixelAxis</title>
<g id="a_node13"><a xlink:href="../cube/PixelAxis" xlink:title="{PixelAxis|+coord : coords:PixelIndex\l}">
<polygon fill="#8dd3c7" stroke="black" points="0,-270.25 0,-306.25 103,-306.25 103,-270.25 0,-270.25"/>
<text text-anchor="middle" x="51.5" y="-294.65" font-family="Times,serif" font-size="8.00">PixelAxis</text>
<polyline fill="none" stroke="black" points="0,-288.5 103,-288.5"/>
<text text-anchor="start" x="8" y="-276.9" font-family="Times,serif" font-size="8.00">+coord : coords:PixelIndex</text>
</a>
</g>
</g>
<!-- cube:Voxel&#45;&gt;cube:PixelAxis -->
<g id="edge15" class="edge">
<title>cube:Voxel&#45;&gt;cube:PixelAxis</title>
<path fill="none" stroke="blue" d="M258.09,-407.92C237.58,-400.04 229.89,-399.79 212,-391 165.51,-368.15 115.68,-335.06 84.09,-312.88"/>
<polygon fill="blue" stroke="blue" points="258.17,-407.96 265.24,-406.52 269.28,-412.49 262.22,-413.92 258.17,-407.96"/>
<polygon fill="blue" stroke="blue" points="76.28,-307.35 87.04,-309.46 79.37,-309.54 84.44,-313.13 84.44,-313.13 84.44,-313.13 79.37,-309.54 81.84,-316.8 76.28,-307.35"/>
<text text-anchor="middle" x="231.75" y="-381.5" font-family="Times,serif" font-size="10.00">pixelAxis</text>
<text text-anchor="middle" x="67.79" y="-308.4" font-family="Times,serif" font-size="10.00">1..*</text>
</g>
<!-- cube:ValueAxis -->
<g id="node16" class="node">
<title>cube:ValueAxis</title>
<g id="a_node16"><a xlink:href="../cube/ValueAxis" xlink:title="{ValueAxis}">
<polygon fill="#8dd3c7" stroke="black" points="419.5,-325.25 419.5,-361.25 473.5,-361.25 473.5,-325.25 419.5,-325.25"/>
<text text-anchor="middle" x="446.5" y="-340.65" font-family="Times,serif" font-size="8.00">ValueAxis</text>
</a>
</g>
</g>
<!-- cube:Voxel&#45;&gt;cube:ValueAxis -->
<g id="edge16" class="edge">
<title>cube:Voxel&#45;&gt;cube:ValueAxis</title>
<path fill="none" stroke="blue" d="M336.17,-405.15C358.73,-392.7 387.03,-377.08 409.32,-364.78"/>
<polygon fill="blue" stroke="blue" points="336.12,-405.18 332.8,-411.58 325.62,-410.98 328.94,-404.58 336.12,-405.18"/>
<polygon fill="blue" stroke="blue" points="418.03,-359.97 411.45,-368.74 414.72,-361.8 409.27,-364.8 409.27,-364.8 409.27,-364.8 414.72,-361.8 407.1,-360.86 418.03,-359.97"/>
<text text-anchor="middle" x="401.5" y="-381.5" font-family="Times,serif" font-size="10.00">valueAxis</text>
<text text-anchor="middle" x="416.47" y="-361.13" font-family="Times,serif" font-size="10.00">1</text>
</g>
<!-- cube:VirtualImageAxis -->
<g id="node20" class="node">
<title>cube:VirtualImageAxis</title>
<g id="a_node20"><a xlink:href="../cube/VirtualImageAxis" xlink:title="{VirtualImageAxis|+result_type : ivoa:string\l}">
<polygon fill="#8dd3c7" stroke="black" points="177.38,-325.25 177.38,-361.25 273.62,-361.25 273.62,-325.25 177.38,-325.25"/>
<text text-anchor="middle" x="225.5" y="-349.65" font-family="Times,serif" font-size="8.00">VirtualImageAxis</text>
<polyline fill="none" stroke="black" points="177.38,-343.5 273.62,-343.5"/>
<text text-anchor="start" x="185.38" y="-331.9" font-family="Times,serif" font-size="8.00">+result_type : ivoa:string</text>
</a>
</g>
</g>
<!-- cube:Voxel&#45;&gt;cube:VirtualImageAxis -->
<g id="edge17" class="edge">
<title>cube:Voxel&#45;&gt;cube:VirtualImageAxis</title>
<path fill="none" stroke="blue" d="M273.94,-399.59C265.59,-390.05 256.22,-379.34 247.96,-369.91"/>
<polygon fill="blue" stroke="blue" points="273.73,-399.35 280.69,-401.23 281.64,-408.38 274.68,-406.5 273.73,-399.35"/>
<polygon fill="blue" stroke="blue" points="241.55,-362.58 251.52,-367.15 244.04,-365.43 248.14,-370.11 248.14,-370.11 248.14,-370.11 244.04,-365.43 244.75,-373.07 241.55,-362.58"/>
<text text-anchor="middle" x="286.88" y="-381.5" font-family="Times,serif" font-size="10.00">coordAxis</text>
<text text-anchor="middle" x="233.25" y="-363.42" font-family="Times,serif" font-size="10.00">0..*</text>
</g>
<!-- cube:Observable -->
<g id="node15" class="node">
<title>cube:Observable</title>
<g id="a_node15"><a xlink:href="../cube/Observable" xlink:title="{Observable}">
<polygon fill="#8dd3c7" stroke="black" points="743.5,-325.25 743.5,-361.25 797.5,-361.25 797.5,-325.25 743.5,-325.25"/>
<text text-anchor="middle" x="770.38" y="-340.65" font-family="Times,serif" font-size="8.00">Observable</text>
</a>
</g>
</g>
<!-- cube:NDPoint&#45;&gt;cube:Observable -->
<g id="edge18" class="edge">
<title>cube:NDPoint&#45;&gt;cube:Observable</title>
<path fill="none" stroke="blue" d="M734.9,-398.47C740.78,-389.51 747.28,-379.62 753.09,-370.77"/>
<polygon fill="blue" stroke="blue" points="735.03,-398.27 735.08,-405.48 728.45,-408.3 728.4,-401.09 735.03,-398.27"/>
<polygon fill="blue" stroke="blue" points="758.4,-362.69 756.67,-373.52 756.32,-365.85 752.91,-371.05 752.91,-371.05 752.91,-371.05 756.32,-365.85 749.15,-368.58 758.4,-362.69"/>
<text text-anchor="middle" x="768.62" y="-381.5" font-family="Times,serif" font-size="10.00">observable</text>
<text text-anchor="middle" x="751.56" y="-363.42" font-family="Times,serif" font-size="10.00">0..*</text>
</g>
<!-- cube:DataAxis -->
<g id="node12" class="node">
<title>cube:DataAxis</title>
<g id="a_node12"><a xlink:href="../cube/DataAxis" xlink:title="{DataAxis|+dependent : ivoa:boolean\l}">
<polygon fill="#8dd3c7" stroke="black" points="370.5,-57 370.5,-93 470.5,-93 470.5,-57 370.5,-57"/>
<text text-anchor="middle" x="420.5" y="-81.4" font-family="Times,serif" font-size="8.00">DataAxis</text>
<polyline fill="none" stroke="black" points="370.5,-75.25 470.5,-75.25"/>
<text text-anchor="start" x="378.5" y="-63.65" font-family="Times,serif" font-size="8.00">+dependent : ivoa:boolean</text>
</a>
</g>
</g>
<!-- cube:ImageAxis -->
<g id="node17" class="node">
<title>cube:ImageAxis</title>
<g id="a_node17"><a xlink:href="../cube/ImageAxis" xlink:title="{ImageAxis}">
<polygon fill="#8dd3c7" stroke="black" points="123.5,-131 123.5,-167 177.5,-167 177.5,-131 123.5,-131"/>
<text text-anchor="middle" x="150.12" y="-146.4" font-family="Times,serif" font-size="8.00">ImageAxis</text>
</a>
</g>
</g>
<!-- cube:PixelAxis&#45;&gt;cube:ImageAxis -->
<g id="edge3" class="edge">
<title>cube:PixelAxis&#45;&gt;cube:ImageAxis</title>
<path fill="none" stroke="red" d="M47.42,-269.99C44.73,-254.54 43.2,-231.76 52.5,-214.75 65.45,-191.07 91.2,-174.57 113.06,-164.15"/>
<polygon fill="none" stroke="red" points="114.32,-167.42 122.02,-160.14 111.46,-161.03 114.32,-167.42"/>
</g>
<!-- cube:MeasurementAxis -->
<g id="node14" class="node">
<title>cube:MeasurementAxis</title>
<g id="a_node14"><a xlink:href="../cube/MeasurementAxis" xlink:title="{MeasurementAxis}">
<polygon fill="#8dd3c7" stroke="black" points="610.25,-215.25 610.25,-251.25 684.75,-251.25 684.75,-215.25 610.25,-215.25"/>
<text text-anchor="middle" x="647.5" y="-230.65" font-family="Times,serif" font-size="8.00">MeasurementAxis</text>
</a>
</g>
</g>
<!-- cube:MeasurementAxis&#45;&gt;meas:Measure -->
<g id="edge19" class="edge">
<title>cube:MeasurementAxis&#45;&gt;meas:Measure</title>
<path fill="none" stroke="blue" d="M612.82,-207.21C608.29,-203.76 603.75,-200.22 599.5,-196.75 591.07,-189.87 582.18,-182.08 574.17,-174.86"/>
<polygon fill="blue" stroke="blue" points="612.9,-207.27 620.1,-207.66 622.51,-214.46 615.31,-214.07 612.9,-207.27"/>
<polygon fill="blue" stroke="blue" points="566.8,-168.14 577.22,-171.55 569.59,-170.69 574.19,-174.88 574.19,-174.88 574.19,-174.88 569.59,-170.69 571.16,-178.2 566.8,-168.14"/>
<text text-anchor="middle" x="616" y="-187.25" font-family="Times,serif" font-size="10.00">measure</text>
<text text-anchor="middle" x="563.27" y="-169.07" font-family="Times,serif" font-size="10.00">1</text>
</g>
<!-- cube:MeasurementAxis&#45;&gt;cube:DataAxis -->
<g id="edge4" class="edge">
<title>cube:MeasurementAxis&#45;&gt;cube:DataAxis</title>
<path fill="none" stroke="red" d="M643.68,-215.19C641.23,-206.04 637.55,-194.79 632.5,-185.5 617.41,-157.75 613.56,-148.34 587.5,-130.5 555.96,-108.91 515.27,-95.4 481.96,-87.23"/>
<polygon fill="none" stroke="red" points="482.97,-83.87 472.44,-85 481.38,-90.69 482.97,-83.87"/>
</g>
<!-- cube:Observable&#45;&gt;cube:MeasurementAxis -->
<g id="edge5" class="edge">
<title>cube:Observable&#45;&gt;cube:MeasurementAxis</title>
<path fill="none" stroke="red" d="M750.74,-324.9C730.47,-307.11 698.77,-279.26 675.83,-259.13"/>
<polygon fill="none" stroke="red" points="678.17,-256.53 668.35,-252.56 673.56,-261.79 678.17,-256.53"/>
</g>
<!-- cube:ValueAxis&#45;&gt;cube:MeasurementAxis -->
<g id="edge6" class="edge">
<title>cube:ValueAxis&#45;&gt;cube:MeasurementAxis</title>
<path fill="none" stroke="red" d="M473.7,-328.1C476.63,-326.85 479.6,-325.71 482.5,-324.75 523.72,-311.14 540.36,-327.48 578.5,-306.75 598.92,-295.65 616.84,-276.36 629.29,-260.47"/>
<polygon fill="none" stroke="red" points="631.85,-262.89 635.06,-252.8 626.25,-258.69 631.85,-262.89"/>
</g>
<!-- cube:ImageAxis&#45;&gt;cube:DataAxis -->
<g id="edge7" class="edge">
<title>cube:ImageAxis&#45;&gt;cube:DataAxis</title>
<path fill="none" stroke="red" d="M177.87,-140.7C220.11,-129.44 302.21,-107.54 359.14,-92.36"/>
<polygon fill="none" stroke="red" points="359.95,-95.77 368.71,-89.81 358.14,-89.01 359.95,-95.77"/>
</g>
<!-- cube:VirtualMeasure -->
<g id="node18" class="node">
<title>cube:VirtualMeasure</title>
<g id="a_node18"><a xlink:href="../cube/VirtualMeasure" xlink:title="{VirtualMeasure|+result_type : ivoa:string\l}">
<polygon fill="#8dd3c7" stroke="black" points="305.38,-325.25 305.38,-361.25 401.62,-361.25 401.62,-325.25 305.38,-325.25"/>
<text text-anchor="middle" x="353.5" y="-349.65" font-family="Times,serif" font-size="8.00">VirtualMeasure</text>
<polyline fill="none" stroke="black" points="305.38,-343.5 401.62,-343.5"/>
<text text-anchor="start" x="313.38" y="-331.9" font-family="Times,serif" font-size="8.00">+result_type : ivoa:string</text>
</a>
</g>
</g>
<!-- cube:VirtualMeasure&#45;&gt;meas:Measure -->
<g id="edge8" class="edge">
<title>cube:VirtualMeasure&#45;&gt;meas:Measure</title>
<path fill="none" stroke="red" d="M402.1,-326.94C430.6,-317.87 461.29,-307.93 462.5,-306.75 493.67,-276.49 474.27,-252.65 495.5,-214.75 503.23,-200.95 513.88,-187.09 523.53,-175.76"/>
<polygon fill="none" stroke="red" points="526.02,-178.22 529.98,-168.39 520.76,-173.61 526.02,-178.22"/>
</g>
<!-- cube:VirtualMeasure&#45;&gt;trans:Mapping -->
<g id="edge24" class="edge">
<title>cube:VirtualMeasure&#45;&gt;trans:Mapping</title>
<path fill="none" stroke="green" d="M392.29,-324.8C399.38,-319.93 405.97,-313.95 410.5,-306.75 418.62,-293.86 420.87,-277.07 420.98,-262.9"/>
<polygon fill="green" stroke="green" points="420.69,-252.96 425.48,-262.83 420.8,-256.74 420.98,-262.96 420.98,-262.96 420.98,-262.96 420.8,-256.74 416.48,-263.09 420.69,-252.96"/>
<text text-anchor="middle" x="439.62" y="-284.38" font-family="Times,serif" font-size="10.00">transform</text>
<text text-anchor="middle" x="418.02" y="-253.5" font-family="Times,serif" font-size="10.00">1</text>
</g>
<!-- cube:VirtualMeasure&#45;&gt;coords:CoordFrame -->
<g id="edge25" class="edge">
<title>cube:VirtualMeasure&#45;&gt;coords:CoordFrame</title>
<path fill="none" stroke="green" d="M319.38,-324.88C311.96,-319.84 304.7,-313.77 299.25,-306.75 289.27,-293.9 283.18,-276.78 279.54,-262.4"/>
<polygon fill="green" stroke="green" points="277.38,-252.79 283.96,-261.56 278.21,-256.48 279.57,-262.54 279.57,-262.54 279.57,-262.54 278.21,-256.48 275.18,-263.53 277.38,-252.79"/>
<text text-anchor="middle" x="323.62" y="-284.38" font-family="Times,serif" font-size="10.00">result_frame</text>
<text text-anchor="middle" x="269.61" y="-253.35" font-family="Times,serif" font-size="10.00">0..1</text>
</g>
<!-- cube:VirtualMeasureSource -->
<g id="node19" class="node">
<title>cube:VirtualMeasureSource</title>
<g id="a_node19"><a xlink:href="../cube/VirtualMeasureSource" xlink:title="{VirtualMeasureSource}">
<polygon fill="#8dd3c7" stroke="black" points="503.12,-215.25 503.12,-251.25 591.88,-251.25 591.88,-215.25 503.12,-215.25"/>
<text text-anchor="middle" x="547.5" y="-230.65" font-family="Times,serif" font-size="8.00">VirtualMeasureSource</text>
</a>
</g>
</g>
<!-- cube:VirtualMeasure&#45;&gt;cube:VirtualMeasureSource -->
<g id="edge20" class="edge">
<title>cube:VirtualMeasure&#45;&gt;cube:VirtualMeasureSource</title>
<path fill="none" stroke="blue" d="M414.71,-324.69C453.52,-319.94 516.64,-324.03 534.5,-306.75 546.15,-295.49 549.45,-277.61 549.81,-262.43"/>
<polygon fill="blue" stroke="blue" points="414.6,-324.71 409.34,-329.65 402.76,-326.7 408.02,-321.76 414.6,-324.71"/>
<polygon fill="blue" stroke="blue" points="549.63,-252.72 554.32,-262.63 549.7,-256.5 549.82,-262.72 549.82,-262.72 549.82,-262.72 549.7,-256.5 545.32,-262.8 549.63,-252.72"/>
<text text-anchor="middle" x="561.62" y="-284.38" font-family="Times,serif" font-size="10.00">source</text>
<text text-anchor="middle" x="542.11" y="-253.25" font-family="Times,serif" font-size="10.00">1..*</text>
</g>
<!-- cube:VirtualMeasureSource&#45;&gt;meas:Measure -->
<g id="edge26" class="edge">
<title>cube:VirtualMeasureSource&#45;&gt;meas:Measure</title>
<path fill="none" stroke="green" d="M547.5,-214.81C547.5,-204.23 547.5,-190.48 547.5,-178.37"/>
<polygon fill="green" stroke="green" points="547.5,-168.64 552,-178.64 547.5,-172.42 547.5,-178.64 547.5,-178.64 547.5,-178.64 547.5,-172.42 543,-178.64 547.5,-168.64"/>
<text text-anchor="middle" x="560.62" y="-187.25" font-family="Times,serif" font-size="10.00">source</text>
<text text-anchor="middle" x="550.12" y="-169.17" font-family="Times,serif" font-size="10.00">1</text>
</g>
<!-- cube:VirtualImageAxis&#45;&gt;trans:Mapping -->
<g id="edge27" class="edge">
<title>cube:VirtualImageAxis&#45;&gt;trans:Mapping</title>
<path fill="none" stroke="green" d="M274.06,-330.32C306.15,-322.11 343.39,-311.79 349.5,-306.75 363.71,-295.01 356.2,-283.7 368.25,-269.75 371.73,-265.72 375.76,-261.91 380,-258.39"/>
<polygon fill="green" stroke="green" points="387.91,-252.34 382.7,-261.99 384.9,-254.64 379.97,-258.42 379.97,-258.42 379.97,-258.42 384.9,-254.64 377.23,-254.85 387.91,-252.34"/>
<text text-anchor="middle" x="386.62" y="-284.38" font-family="Times,serif" font-size="10.00">transform</text>
<text text-anchor="middle" x="386.25" y="-253.35" font-family="Times,serif" font-size="10.00">1</text>
</g>
<!-- cube:VirtualImageAxis&#45;&gt;coords:CoordFrame -->
<g id="edge28" class="edge">
<title>cube:VirtualImageAxis&#45;&gt;coords:CoordFrame</title>
<path fill="none" stroke="green" d="M221.5,-324.81C218.92,-309.44 217.47,-286.89 226.25,-269.75 228.27,-265.8 230.96,-262.18 234.04,-258.9"/>
<polygon fill="green" stroke="green" points="241.42,-252.22 237.02,-262.26 238.61,-254.75 234,-258.93 234,-258.93 234,-258.93 238.61,-254.75 230.98,-255.59 241.42,-252.22"/>
<text text-anchor="middle" x="250.62" y="-284.38" font-family="Times,serif" font-size="10.00">result_frame</text>
<text text-anchor="middle" x="234.82" y="-253.15" font-family="Times,serif" font-size="10.00">0..1</text>
</g>
<!-- cube:VirtualImageAxis&#45;&gt;cube:ImageAxis -->
<g id="edge9" class="edge">
<title>cube:VirtualImageAxis&#45;&gt;cube:ImageAxis</title>
<path fill="none" stroke="red" d="M218.71,-324.85C205.72,-291.55 177.24,-218.54 161.5,-178.19"/>
<polygon fill="none" stroke="red" points="164.77,-176.95 157.88,-168.91 158.25,-179.5 164.77,-176.95"/>
</g>
<!-- cube:VirtualImageAxisSource -->
<g id="node21" class="node">
<title>cube:VirtualImageAxisSource</title>
<g id="a_node21"><a xlink:href="../cube/VirtualImageAxisSource" xlink:title="{VirtualImageAxisSource}">
<polygon fill="#8dd3c7" stroke="black" points="60.38,-215.25 60.38,-251.25 156.62,-251.25 156.62,-215.25 60.38,-215.25"/>
<text text-anchor="middle" x="108.5" y="-230.65" font-family="Times,serif" font-size="8.00">VirtualImageAxisSource</text>
</a>
</g>
</g>
<!-- cube:VirtualImageAxis&#45;&gt;cube:VirtualImageAxisSource -->
<g id="edge21" class="edge">
<title>cube:VirtualImageAxis&#45;&gt;cube:VirtualImageAxisSource</title>
<path fill="none" stroke="blue" d="M168.08,-318.55C162.42,-315.03 157.02,-311.1 152.25,-306.75 138.48,-294.19 127.62,-276.3 120.17,-261.43"/>
<polygon fill="blue" stroke="blue" points="167.94,-318.47 175.13,-317.94 178.39,-324.37 171.19,-324.91 167.94,-318.47"/>
<polygon fill="blue" stroke="blue" points="116.08,-252.82 124.44,-259.92 117.7,-256.24 120.37,-261.85 120.37,-261.85 120.37,-261.85 117.7,-256.24 116.31,-263.78 116.08,-252.82"/>
<text text-anchor="middle" x="164.62" y="-284.38" font-family="Times,serif" font-size="10.00">source</text>
<text text-anchor="middle" x="108.06" y="-253.47" font-family="Times,serif" font-size="10.00">1..*</text>
</g>
<!-- cube:VirtualImageAxisSource&#45;&gt;cube:ImageAxis -->
<g id="edge29" class="edge">
<title>cube:VirtualImageAxisSource&#45;&gt;cube:ImageAxis</title>
<path fill="none" stroke="green" d="M117.41,-214.81C122.98,-203.9 130.26,-189.63 136.58,-177.25"/>
<polygon fill="green" stroke="green" points="141.05,-168.5 140.51,-179.46 139.33,-171.87 136.5,-177.41 136.5,-177.41 136.5,-177.41 139.33,-171.87 132.5,-175.36 141.05,-168.5"/>
<text text-anchor="middle" x="144.62" y="-187.25" font-family="Times,serif" font-size="10.00">source</text>
<text text-anchor="middle" x="144.23" y="-169.17" font-family="Times,serif" font-size="10.00">1</text>
</g>
<!-- cube:Mappings&#45;&gt;trans:Mapping -->
<g id="edge22" class="edge">
<title>cube:Mappings&#45;&gt;trans:Mapping</title>
<path fill="none" stroke="blue" d="M499.37,-314.41C489.15,-300.37 475.93,-283.47 462.5,-269.75 458.83,-266 454.78,-262.27 450.66,-258.72"/>
<polygon fill="blue" stroke="blue" points="499.38,-314.42 506.12,-316.99 506.34,-324.2 499.6,-321.63 499.38,-314.42"/>
<polygon fill="blue" stroke="blue" points="443.15,-252.49 453.72,-255.41 446.06,-254.9 450.85,-258.87 450.85,-258.87 450.85,-258.87 446.06,-254.9 447.97,-262.34 443.15,-252.49"/>
<text text-anchor="middle" x="511.62" y="-284.38" font-family="Times,serif" font-size="10.00">transform</text>
<text text-anchor="middle" x="434.71" y="-253.46" font-family="Times,serif" font-size="10.00">1..*</text>
</g>
</g>
</svg>
