<?xml version="1.0" encoding="UTF-8" standalone="no"?>
<!DOCTYPE svg PUBLIC "-//W3C//DTD SVG 1.1//EN"
 "http://www.w3.org/Graphics/SVG/1.1/DTD/svg11.dtd">
<!-- Generated by graphviz version 11.0.0 (20240428.1522)
 -->
<!-- Title: GVmap Pages: 1 -->
<svg width="937pt" height="799pt"
 viewBox="0.00 0.00 936.75 799.00" xmlns="http://www.w3.org/2000/svg" xmlns:xlink="http://www.w3.org/1999/xlink">
<g id="graph0" class="graph" transform="scale(1 1) rotate(0) translate(4 795)">
<title>GVmap</title>
<polygon fill="white" stroke="none" points="-4,4 -4,-795 932.75,-795 932.75,4 -4,4"/>
<text text-anchor="middle" x="464.38" y="-7.2" font-family="Times,serif" font-size="14.00">ds data model</text>
<g id="clust1" class="cluster">
<title>cluster_packages</title>
<polygon fill="#8dd3c7" stroke="black" points="8,-702.88 8,-779.38 246,-779.38 246,-702.88 8,-702.88"/>
<text text-anchor="middle" x="127" y="-762.08" font-family="Times,serif" font-size="14.00">Model</text>
</g>
<!-- experiment -->
<g id="node1" class="node">
<title>experiment</title>
<g id="a_node1"><a xlink:href="../ds/experiment" xlink:title="experiment">
<polygon fill="#ffffb3" stroke="black" points="93.75,-746.88 28.25,-746.88 28.25,-750.88 16.25,-750.88 16.25,-710.88 93.75,-710.88 93.75,-746.88"/>
<polyline fill="none" stroke="black" points="16.25,-746.88 28.25,-746.88"/>
<text text-anchor="middle" x="55" y="-723.83" font-family="Times,serif" font-size="14.00">experiment</text>
</a>
</g>
</g>
<!-- dataset -->
<g id="node2" class="node">
<title>dataset</title>
<g id="a_node2"><a xlink:href="../ds/dataset" xlink:title="dataset">
<polygon fill="#bebada" stroke="black" points="166,-746.88 124,-746.88 124,-750.88 112,-750.88 112,-710.88 166,-710.88 166,-746.88"/>
<polyline fill="none" stroke="black" points="112,-746.88 124,-746.88"/>
<text text-anchor="middle" x="139" y="-723.83" font-family="Times,serif" font-size="14.00">dataset</text>
</a>
</g>
</g>
<!-- party -->
<g id="node3" class="node">
<title>party</title>
<g id="a_node3"><a xlink:href="../ds/party" xlink:title="party">
<polygon fill="#fb8072" stroke="black" points="238,-746.88 196,-746.88 196,-750.88 184,-750.88 184,-710.88 238,-710.88 238,-746.88"/>
<polyline fill="none" stroke="black" points="184,-746.88 196,-746.88"/>
<text text-anchor="middle" x="211" y="-723.83" font-family="Times,serif" font-size="14.00">party</text>
</a>
</g>
</g>
<!-- meas:Position -->
<g id="node4" class="node">
<title>meas:Position</title>
<g id="a_node4"><a xlink:href="#Position" xlink:title="{meas:Position}">
<polygon fill="grey" stroke="black" points="767.88,-352.38 767.88,-388.38 828.12,-388.38 828.12,-352.38 767.88,-352.38"/>
<text text-anchor="middle" x="798" y="-367.77" font-family="Times,serif" font-size="8.00">meas:Position</text>
</a>
</g>
</g>
<!-- ds:experiment.Observation -->
<g id="node5" class="node">
<title>ds:experiment.Observation</title>
<g id="a_node5"><a xlink:href="../ds/experiment.Observation" xlink:title="{experiment/Observation|+observationID : ivoa:string\l}">
<polygon fill="#ffffb3" stroke="black" points="255.62,-710.88 255.62,-746.88 362.38,-746.88 362.38,-710.88 255.62,-710.88"/>
<text text-anchor="middle" x="309" y="-735.27" font-family="Times,serif" font-size="8.00">experiment/Observation</text>
<polyline fill="none" stroke="black" points="255.62,-729.12 362.38,-729.12"/>
<text text-anchor="start" x="263.62" y="-717.52" font-family="Times,serif" font-size="8.00">+observationID : ivoa:string</text>
</a>
</g>
</g>
<!-- ds:experiment.ObsConfig -->
<g id="node6" class="node">
<title>ds:experiment.ObsConfig</title>
<g id="a_node6"><a xlink:href="../ds/experiment.ObsConfig" xlink:title="{experiment/ObsConfig|+bandpass : ivoa:string\l+datasource : ivoa:string\l}">
<polygon fill="#ffffb3" stroke="black" points="120.25,-460.75 120.25,-506 215.75,-506 215.75,-460.75 120.25,-460.75"/>
<text text-anchor="middle" x="168" y="-494.4" font-family="Times,serif" font-size="8.00">experiment/ObsConfig</text>
<polyline fill="none" stroke="black" points="120.25,-488.25 215.75,-488.25"/>
<text text-anchor="start" x="128.25" y="-476.65" font-family="Times,serif" font-size="8.00">+bandpass : ivoa:string</text>
<text text-anchor="start" x="128.25" y="-466.9" font-family="Times,serif" font-size="8.00">+datasource : ivoa:string</text>
</a>
</g>
</g>
<!-- ds:experiment.Observation&#45;&gt;ds:experiment.ObsConfig -->
<g id="edge12" class="edge">
<title>ds:experiment.Observation&#45;&gt;ds:experiment.ObsConfig</title>
<path fill="none" stroke="blue" d="M290.35,-699.75C276.18,-678.08 256.43,-647.23 240.25,-619.5 219.92,-584.66 198.33,-543.69 184.1,-516.07"/>
<polygon fill="blue" stroke="blue" points="290.31,-699.7 296.95,-702.51 296.9,-709.72 290.27,-706.91 290.31,-699.7"/>
<polygon fill="blue" stroke="blue" points="179.58,-507.26 188.15,-514.11 181.31,-510.63 184.15,-516.16 184.15,-516.16 184.15,-516.16 181.31,-510.63 180.14,-518.21 179.58,-507.26"/>
<text text-anchor="middle" x="261.38" y="-582.75" font-family="Times,serif" font-size="10.00">obsConfig</text>
<text text-anchor="middle" x="181.65" y="-507.93" font-family="Times,serif" font-size="10.00">1</text>
</g>
<!-- ds:experiment.BaseTarget -->
<g id="node7" class="node">
<title>ds:experiment.BaseTarget</title>
<g id="a_node7"><a xlink:href="../ds/experiment.BaseTarget" xlink:title="{experiment/BaseTarget|+name : ivoa:string\l+description : ivoa:string\l}">
<polygon fill="#ffffb3" stroke="black" points="749.88,-460.75 749.88,-506 846.12,-506 846.12,-460.75 749.88,-460.75"/>
<text text-anchor="middle" x="798" y="-494.4" font-family="Times,serif" font-size="8.00">experiment/BaseTarget</text>
<polyline fill="none" stroke="black" points="749.88,-488.25 846.12,-488.25"/>
<text text-anchor="start" x="757.88" y="-476.65" font-family="Times,serif" font-size="8.00">+name : ivoa:string</text>
<text text-anchor="start" x="757.88" y="-466.9" font-family="Times,serif" font-size="8.00">+description : ivoa:string</text>
</a>
</g>
</g>
<!-- ds:experiment.Observation&#45;&gt;ds:experiment.BaseTarget -->
<g id="edge14" class="edge">
<title>ds:experiment.Observation&#45;&gt;ds:experiment.BaseTarget</title>
<path fill="none" stroke="blue" d="M332.28,-701.22C343.45,-689.57 357.53,-676.38 372,-666.75 404.32,-645.23 630.09,-552.48 739.21,-508.15"/>
<polygon fill="blue" stroke="blue" points="332.41,-701.08 331.27,-708.2 324.25,-709.89 325.4,-702.77 332.41,-701.08"/>
<polygon fill="blue" stroke="blue" points="748.27,-504.47 740.69,-512.4 744.76,-505.89 739,-508.23 739,-508.23 739,-508.23 744.76,-505.89 737.31,-504.06 748.27,-504.47"/>
<text text-anchor="middle" x="638.62" y="-582.75" font-family="Times,serif" font-size="10.00">target</text>
<text text-anchor="middle" x="746.77" y="-505.76" font-family="Times,serif" font-size="10.00">1</text>
</g>
<!-- ds:experiment.Proposal -->
<g id="node12" class="node">
<title>ds:experiment.Proposal</title>
<g id="a_node12"><a xlink:href="../ds/experiment.Proposal" xlink:title="{experiment/Proposal|+identifier : ivoa:string\l}">
<polygon fill="#ffffb3" stroke="black" points="233.5,-465.38 233.5,-501.38 324.5,-501.38 324.5,-465.38 233.5,-465.38"/>
<text text-anchor="middle" x="279" y="-489.77" font-family="Times,serif" font-size="8.00">experiment/Proposal</text>
<polyline fill="none" stroke="black" points="233.5,-483.62 324.5,-483.62"/>
<text text-anchor="start" x="241.5" y="-472.02" font-family="Times,serif" font-size="8.00">+identifier : ivoa:string</text>
</a>
</g>
</g>
<!-- ds:experiment.Observation&#45;&gt;ds:experiment.Proposal -->
<g id="edge15" class="edge">
<title>ds:experiment.Observation&#45;&gt;ds:experiment.Proposal</title>
<path fill="none" stroke="blue" d="M305.32,-698.02C299.5,-650.74 288.22,-559.24 282.51,-512.84"/>
<polygon fill="blue" stroke="blue" points="305.31,-697.95 310.02,-703.41 306.78,-709.86 302.08,-704.39 305.31,-697.95"/>
<polygon fill="blue" stroke="blue" points="281.3,-503.01 286.99,-512.39 281.76,-506.77 282.52,-512.94 282.52,-512.94 282.52,-512.94 281.76,-506.77 278.05,-513.49 281.3,-503.01"/>
<text text-anchor="middle" x="312.62" y="-582.75" font-family="Times,serif" font-size="10.00">proposal</text>
<text text-anchor="middle" x="273.65" y="-503.55" font-family="Times,serif" font-size="10.00">0..1</text>
</g>
<!-- ds:experiment.ObsDataset -->
<g id="node14" class="node">
<title>ds:experiment.ObsDataset</title>
<g id="a_node14"><a xlink:href="../ds/experiment.ObsDataset" xlink:title="{experiment/ObsDataset|+calibLevel : ivoa:integer\l}">
<polygon fill="#ffffb3" stroke="black" points="355,-568.62 355,-604.62 455,-604.62 455,-568.62 355,-568.62"/>
<text text-anchor="middle" x="405" y="-593.02" font-family="Times,serif" font-size="8.00">experiment/ObsDataset</text>
<polyline fill="none" stroke="black" points="355,-586.88 455,-586.88"/>
<text text-anchor="start" x="363" y="-575.27" font-family="Times,serif" font-size="8.00">+calibLevel : ivoa:integer</text>
</a>
</g>
</g>
<!-- ds:experiment.Observation&#45;&gt;ds:experiment.ObsDataset -->
<g id="edge13" class="edge">
<title>ds:experiment.Observation&#45;&gt;ds:experiment.ObsDataset</title>
<path fill="none" stroke="blue" d="M328.11,-699.96C345.23,-674.94 370.18,-638.5 386.97,-613.97"/>
<polygon fill="blue" stroke="blue" points="328.25,-699.75 328.16,-706.96 321.47,-709.65 321.56,-702.44 328.25,-699.75"/>
<polygon fill="blue" stroke="blue" points="392.5,-605.89 390.56,-616.68 390.36,-609.01 386.85,-614.14 386.85,-614.14 386.85,-614.14 390.36,-609.01 383.14,-611.6 392.5,-605.89"/>
<text text-anchor="middle" x="379.25" y="-639.25" font-family="Times,serif" font-size="10.00">result</text>
<text text-anchor="middle" x="385.69" y="-606.63" font-family="Times,serif" font-size="10.00">0..*</text>
</g>
<!-- ds:experiment.Facility -->
<g id="node10" class="node">
<title>ds:experiment.Facility</title>
<g id="a_node10"><a xlink:href="../ds/experiment.Facility" xlink:title="{experiment/Facility}">
<polygon fill="#ffffb3" stroke="black" points="128.5,-352.38 128.5,-388.38 207.5,-388.38 207.5,-352.38 128.5,-352.38"/>
<text text-anchor="middle" x="168" y="-367.77" font-family="Times,serif" font-size="8.00">experiment/Facility</text>
</a>
</g>
</g>
<!-- ds:experiment.ObsConfig&#45;&gt;ds:experiment.Facility -->
<g id="edge16" class="edge">
<title>ds:experiment.ObsConfig&#45;&gt;ds:experiment.Facility</title>
<path fill="none" stroke="blue" d="M168,-447.63C168,-432.11 168,-414.07 168,-399.43"/>
<polygon fill="blue" stroke="blue" points="168,-447.54 172,-453.54 168,-459.54 164,-453.54 168,-447.54"/>
<polygon fill="blue" stroke="blue" points="168,-389.75 172.5,-399.75 168,-393.53 168,-399.75 168,-399.75 168,-399.75 168,-393.53 163.5,-399.75 168,-389.75"/>
<text text-anchor="middle" x="182.62" y="-432.75" font-family="Times,serif" font-size="10.00">facility</text>
<text text-anchor="middle" x="160.5" y="-390.28" font-family="Times,serif" font-size="10.00">0..1</text>
</g>
<!-- ds:experiment.Instrument -->
<g id="node11" class="node">
<title>ds:experiment.Instrument</title>
<g id="a_node11"><a xlink:href="../ds/experiment.Instrument" xlink:title="{experiment/Instrument|+name : ivoa:string\l}">
<polygon fill="#ffffb3" stroke="black" points="21.62,-352.38 21.62,-388.38 110.38,-388.38 110.38,-352.38 21.62,-352.38"/>
<text text-anchor="middle" x="66" y="-376.77" font-family="Times,serif" font-size="8.00">experiment/Instrument</text>
<polyline fill="none" stroke="black" points="21.62,-370.62 110.38,-370.62"/>
<text text-anchor="start" x="29.62" y="-359.02" font-family="Times,serif" font-size="8.00">+name : ivoa:string</text>
</a>
</g>
</g>
<!-- ds:experiment.ObsConfig&#45;&gt;ds:experiment.Instrument -->
<g id="edge17" class="edge">
<title>ds:experiment.ObsConfig&#45;&gt;ds:experiment.Instrument</title>
<path fill="none" stroke="blue" d="M130.3,-451.84C126.89,-448.69 123.58,-445.47 120.5,-442.25 107.35,-428.48 94.28,-411.63 84.24,-397.81"/>
<polygon fill="blue" stroke="blue" points="130.32,-451.86 137.46,-452.84 139.3,-459.81 132.16,-458.83 130.32,-451.86"/>
<polygon fill="blue" stroke="blue" points="78.52,-389.8 88,-395.32 80.72,-392.88 84.33,-397.94 84.33,-397.94 84.33,-397.94 80.72,-392.88 80.67,-400.55 78.52,-389.8"/>
<text text-anchor="middle" x="142.75" y="-432.75" font-family="Times,serif" font-size="10.00">instrument</text>
<text text-anchor="middle" x="70.31" y="-390.56" font-family="Times,serif" font-size="10.00">0..1</text>
</g>
<!-- ds:experiment.BaseTarget&#45;&gt;meas:Position -->
<g id="edge28" class="edge">
<title>ds:experiment.BaseTarget&#45;&gt;meas:Position</title>
<path fill="none" stroke="green" d="M798,-460.44C798,-443.05 798,-418.61 798,-399.73"/>
<polygon fill="green" stroke="green" points="798,-389.75 802.5,-399.75 798,-393.53 798,-399.75 798,-399.75 798,-399.75 798,-393.53 793.5,-399.75 798,-389.75"/>
<text text-anchor="middle" x="814.88" y="-432.75" font-family="Times,serif" font-size="10.00">position</text>
<text text-anchor="middle" x="790.5" y="-390.28" font-family="Times,serif" font-size="10.00">0..1</text>
</g>
<!-- ds:experiment.Target -->
<g id="node8" class="node">
<title>ds:experiment.Target</title>
<g id="a_node8"><a xlink:href="../ds/experiment.Target" xlink:title="{experiment/Target|+objectClass : ivoa:string\l}">
<polygon fill="#ffffb3" stroke="black" points="689.12,-568.62 689.12,-604.62 786.88,-604.62 786.88,-568.62 689.12,-568.62"/>
<text text-anchor="middle" x="738" y="-593.02" font-family="Times,serif" font-size="8.00">experiment/Target</text>
<polyline fill="none" stroke="black" points="689.12,-586.88 786.88,-586.88"/>
<text text-anchor="start" x="697.12" y="-575.27" font-family="Times,serif" font-size="8.00">+objectClass : ivoa:string</text>
</a>
</g>
</g>
<!-- ds:experiment.Target&#45;&gt;ds:experiment.BaseTarget -->
<g id="edge1" class="edge">
<title>ds:experiment.Target&#45;&gt;ds:experiment.BaseTarget</title>
<path fill="none" stroke="red" d="M748.18,-568.45C756.67,-554.11 769.01,-533.29 779.28,-515.96"/>
<polygon fill="none" stroke="red" points="782.19,-517.92 784.27,-507.54 776.16,-514.36 782.19,-517.92"/>
</g>
<!-- ds:experiment.AstroTarget -->
<g id="node9" class="node">
<title>ds:experiment.AstroTarget</title>
<g id="a_node9"><a xlink:href="../ds/experiment.AstroTarget" xlink:title="{experiment/AstroTarget|+objectClass : ivoa:string\l+spectralClass : ivoa:string\l+redshift : ivoa:real\l+varAmpl : ivoa:real\l}">
<polygon fill="#ffffb3" stroke="black" points="805.12,-554.25 805.12,-619 908.88,-619 908.88,-554.25 805.12,-554.25"/>
<text text-anchor="middle" x="857" y="-607.4" font-family="Times,serif" font-size="8.00">experiment/AstroTarget</text>
<polyline fill="none" stroke="black" points="805.12,-601.25 908.88,-601.25"/>
<text text-anchor="start" x="813.12" y="-589.65" font-family="Times,serif" font-size="8.00">+objectClass : ivoa:string</text>
<text text-anchor="start" x="813.12" y="-579.9" font-family="Times,serif" font-size="8.00">+spectralClass : ivoa:string</text>
<text text-anchor="start" x="813.12" y="-570.15" font-family="Times,serif" font-size="8.00">+redshift : ivoa:real</text>
<text text-anchor="start" x="813.12" y="-560.4" font-family="Times,serif" font-size="8.00">+varAmpl : ivoa:real</text>
</a>
</g>
</g>
<!-- ds:experiment.AstroTarget&#45;&gt;ds:experiment.BaseTarget -->
<g id="edge2" class="edge">
<title>ds:experiment.AstroTarget&#45;&gt;ds:experiment.BaseTarget</title>
<path fill="none" stroke="red" d="M838.49,-553.87C831.47,-541.81 823.48,-528.1 816.46,-516.05"/>
<polygon fill="none" stroke="red" points="819.66,-514.59 811.6,-507.71 813.61,-518.11 819.66,-514.59"/>
</g>
<!-- ds:party.Role -->
<g id="node32" class="node">
<title>ds:party.Role</title>
<g id="a_node32"><a xlink:href="../ds/party.Role" xlink:title="{party/Role}">
<polygon fill="#fb8072" stroke="black" points="299,-155.62 299,-191.62 353,-191.62 353,-155.62 299,-155.62"/>
<text text-anchor="middle" x="325.88" y="-171.03" font-family="Times,serif" font-size="8.00">party/Role</text>
</a>
</g>
</g>
<!-- ds:experiment.Facility&#45;&gt;ds:party.Role -->
<g id="edge3" class="edge">
<title>ds:experiment.Facility&#45;&gt;ds:party.Role</title>
<path fill="none" stroke="red" d="M164.14,-352.13C159.35,-326.09 154.33,-276.31 177,-243.5 202.43,-206.69 252.72,-189.12 287.8,-181.04"/>
<polygon fill="none" stroke="red" points="288.08,-184.56 297.13,-179.06 286.62,-177.72 288.08,-184.56"/>
</g>
<!-- ds:experiment.Derived -->
<g id="node13" class="node">
<title>ds:experiment.Derived</title>
<g id="a_node13"><a xlink:href="../ds/experiment.Derived" xlink:title="{experiment/Derived}">
<polygon fill="#ffffb3" stroke="black" points="531.75,-465.38 531.75,-501.38 612.25,-501.38 612.25,-465.38 531.75,-465.38"/>
<text text-anchor="middle" x="572" y="-480.77" font-family="Times,serif" font-size="8.00">experiment/Derived</text>
</a>
</g>
</g>
<!-- ds:experiment.DerivedElement -->
<g id="node15" class="node">
<title>ds:experiment.DerivedElement</title>
<g id="a_node15"><a xlink:href="../ds/experiment.DerivedElement" xlink:title="{experiment/DerivedElement}">
<polygon fill="#ffffb3" stroke="black" points="627.25,-352.38 627.25,-388.38 734.75,-388.38 734.75,-352.38 627.25,-352.38"/>
<text text-anchor="middle" x="681" y="-367.77" font-family="Times,serif" font-size="8.00">experiment/DerivedElement</text>
</a>
</g>
</g>
<!-- ds:experiment.Derived&#45;&gt;ds:experiment.DerivedElement -->
<g id="edge18" class="edge">
<title>ds:experiment.Derived&#45;&gt;ds:experiment.DerivedElement</title>
<path fill="none" stroke="blue" d="M592.24,-454.75C598.45,-446.83 605.5,-438.35 612.5,-431 624.23,-418.69 638.23,-406.17 650.5,-395.8"/>
<polygon fill="blue" stroke="blue" points="592.2,-454.8 591.74,-462 584.92,-464.34 585.38,-457.15 592.2,-454.8"/>
<polygon fill="blue" stroke="blue" points="658.15,-389.45 653.34,-399.3 655.24,-391.87 650.46,-395.84 650.46,-395.84 650.46,-395.84 655.24,-391.87 647.58,-392.38 658.15,-389.45"/>
<text text-anchor="middle" x="644.25" y="-432.75" font-family="Times,serif" font-size="10.00">derivedElement</text>
<text text-anchor="middle" x="651.58" y="-390.42" font-family="Times,serif" font-size="10.00">0..*</text>
</g>
<!-- ds:experiment.ObsDataset&#45;&gt;ds:experiment.ObsConfig -->
<g id="edge31" class="edge">
<title>ds:experiment.ObsDataset&#45;&gt;ds:experiment.ObsConfig</title>
<path fill="none" stroke="green" d="M364.26,-568.22C326.23,-551.97 269.08,-527.56 226.25,-509.26"/>
<polygon fill="green" stroke="green" points="217.08,-505.34 228.05,-505.13 220.56,-506.83 226.28,-509.27 226.28,-509.27 226.28,-509.27 220.56,-506.83 224.51,-513.41 217.08,-505.34"/>
<text text-anchor="middle" x="307.38" y="-526.25" font-family="Times,serif" font-size="10.00">obsConfig</text>
<text text-anchor="middle" x="223.46" y="-506.61" font-family="Times,serif" font-size="10.00">0..1</text>
</g>
<!-- ds:experiment.ObsDataset&#45;&gt;ds:experiment.BaseTarget -->
<g id="edge29" class="edge">
<title>ds:experiment.ObsDataset&#45;&gt;ds:experiment.BaseTarget</title>
<path fill="none" stroke="green" d="M443.57,-568.14C482.49,-550.55 537.56,-525.85 542.75,-524.5 625.04,-503.13 652.71,-524.87 738.68,-506.67"/>
<polygon fill="green" stroke="green" points="748.28,-504.51 739.51,-511.09 744.59,-505.34 738.52,-506.7 738.52,-506.7 738.52,-506.7 744.59,-505.34 737.53,-502.31 748.28,-504.51"/>
<text text-anchor="middle" x="553.62" y="-526.25" font-family="Times,serif" font-size="10.00">target</text>
<text text-anchor="middle" x="746.84" y="-494.74" font-family="Times,serif" font-size="10.00">1</text>
</g>
<!-- ds:experiment.ObsDataset&#45;&gt;ds:experiment.Proposal -->
<g id="edge30" class="edge">
<title>ds:experiment.ObsDataset&#45;&gt;ds:experiment.Proposal</title>
<path fill="none" stroke="green" d="M392.68,-568.33C382.74,-555.21 367.84,-537.3 352,-524.5 344.15,-518.16 335.16,-512.29 326.23,-507.12"/>
<polygon fill="green" stroke="green" points="317.69,-502.37 328.61,-503.29 320.99,-504.21 326.43,-507.23 326.43,-507.23 326.43,-507.23 320.99,-504.21 324.24,-511.16 317.69,-502.37"/>
<text text-anchor="middle" x="380.62" y="-526.25" font-family="Times,serif" font-size="10.00">proposal</text>
<text text-anchor="middle" x="309.12" y="-503.53" font-family="Times,serif" font-size="10.00">0..1</text>
</g>
<!-- ds:experiment.ObsDataset&#45;&gt;ds:experiment.Derived -->
<g id="edge19" class="edge">
<title>ds:experiment.ObsDataset&#45;&gt;ds:experiment.Derived</title>
<path fill="none" stroke="blue" d="M434.74,-560.08C449.14,-548.41 467.01,-534.9 484.25,-524.5 486.31,-523.26 504.22,-515.04 523.32,-506.36"/>
<polygon fill="blue" stroke="blue" points="434.88,-559.97 432.8,-566.88 425.63,-567.61 427.71,-560.71 434.88,-559.97"/>
<polygon fill="blue" stroke="blue" points="532.23,-502.32 524.98,-510.55 528.79,-503.88 523.13,-506.45 523.13,-506.45 523.13,-506.45 528.79,-503.88 521.27,-502.35 532.23,-502.32"/>
<text text-anchor="middle" x="499.38" y="-526.25" font-family="Times,serif" font-size="10.00">derived</text>
<text text-anchor="middle" x="525.84" y="-503.56" font-family="Times,serif" font-size="10.00">0..1</text>
</g>
<!-- ds:dataset.Dataset -->
<g id="node22" class="node">
<title>ds:dataset.Dataset</title>
<g id="a_node22"><a xlink:href="../ds/dataset.Dataset" xlink:title="{dataset/Dataset|+dataProductType : ds:dataset.DataProductType\l+dataProductSubtype : ivoa:string\l}">
<polygon fill="#bebada" stroke="black" points="342.38,-460.75 342.38,-506 513.62,-506 513.62,-460.75 342.38,-460.75"/>
<text text-anchor="middle" x="428" y="-494.4" font-family="Times,serif" font-size="8.00">dataset/Dataset</text>
<polyline fill="none" stroke="black" points="342.38,-488.25 513.62,-488.25"/>
<text text-anchor="start" x="350.38" y="-476.65" font-family="Times,serif" font-size="8.00">+dataProductType : ds:dataset.DataProductType</text>
<text text-anchor="start" x="350.38" y="-466.9" font-family="Times,serif" font-size="8.00">+dataProductSubtype : ivoa:string</text>
</a>
</g>
</g>
<!-- ds:experiment.ObsDataset&#45;&gt;ds:dataset.Dataset -->
<g id="edge4" class="edge">
<title>ds:experiment.ObsDataset&#45;&gt;ds:dataset.Dataset</title>
<path fill="none" stroke="red" d="M408.9,-568.45C412.07,-554.51 416.62,-534.46 420.49,-517.43"/>
<polygon fill="none" stroke="red" points="423.9,-518.24 422.7,-507.71 417.07,-516.69 423.9,-518.24"/>
</g>
<!-- ds:experiment.DerivedScalar -->
<g id="node16" class="node">
<title>ds:experiment.DerivedScalar</title>
<g id="a_node16"><a xlink:href="../ds/experiment.DerivedScalar" xlink:title="{experiment/DerivedScalar|+name : ivoa:string\l+value : ivoa:Quantity\l}">
<polygon fill="#ffffb3" stroke="black" points="630.25,-460.75 630.25,-506 731.75,-506 731.75,-460.75 630.25,-460.75"/>
<text text-anchor="middle" x="681" y="-494.4" font-family="Times,serif" font-size="8.00">experiment/DerivedScalar</text>
<polyline fill="none" stroke="black" points="630.25,-488.25 731.75,-488.25"/>
<text text-anchor="start" x="638.25" y="-476.65" font-family="Times,serif" font-size="8.00">+name : ivoa:string</text>
<text text-anchor="start" x="638.25" y="-466.9" font-family="Times,serif" font-size="8.00">+value : ivoa:Quantity</text>
</a>
</g>
</g>
<!-- ds:experiment.DerivedScalar&#45;&gt;ds:experiment.DerivedElement -->
<g id="edge5" class="edge">
<title>ds:experiment.DerivedScalar&#45;&gt;ds:experiment.DerivedElement</title>
<path fill="none" stroke="red" d="M681,-460.44C681,-443.13 681,-418.84 681,-400"/>
<polygon fill="none" stroke="red" points="684.5,-400.05 681,-390.05 677.5,-400.05 684.5,-400.05"/>
</g>
<!-- ds:dataset.DataProductType -->
<g id="node17" class="node">
<title>ds:dataset.DataProductType</title>
<g id="a_node17"><a xlink:href="../ds/dataset.DataProductType" xlink:title="{&amp;lt;&amp;lt;enumeration&amp;gt;&amp;gt;\ndataset/DataProductType|+CUBE\l+IMAGE\l+PHOTOMETRY\l+SPECTRUM\l+TIMESERIES\l+SED\l+VISIBILITY\l+EVENT\l+CATALOG\l}">
<polygon fill="#bebada" stroke="black" points="380.5,-667.25 380.5,-790.5 477.5,-790.5 477.5,-667.25 380.5,-667.25"/>
<text text-anchor="middle" x="429" y="-778.9" font-family="Times,serif" font-size="8.00">&lt;&lt;enumeration&gt;&gt;</text>
<text text-anchor="middle" x="429" y="-769.15" font-family="Times,serif" font-size="8.00">dataset/DataProductType</text>
<polyline fill="none" stroke="black" points="380.5,-763 477.5,-763"/>
<text text-anchor="start" x="388.5" y="-751.4" font-family="Times,serif" font-size="8.00">+CUBE</text>
<text text-anchor="start" x="388.5" y="-741.65" font-family="Times,serif" font-size="8.00">+IMAGE</text>
<text text-anchor="start" x="388.5" y="-731.9" font-family="Times,serif" font-size="8.00">+PHOTOMETRY</text>
<text text-anchor="start" x="388.5" y="-722.15" font-family="Times,serif" font-size="8.00">+SPECTRUM</text>
<text text-anchor="start" x="388.5" y="-712.4" font-family="Times,serif" font-size="8.00">+TIMESERIES</text>
<text text-anchor="start" x="388.5" y="-702.65" font-family="Times,serif" font-size="8.00">+SED</text>
<text text-anchor="start" x="388.5" y="-692.9" font-family="Times,serif" font-size="8.00">+VISIBILITY</text>
<text text-anchor="start" x="388.5" y="-683.15" font-family="Times,serif" font-size="8.00">+EVENT</text>
<text text-anchor="start" x="388.5" y="-673.4" font-family="Times,serif" font-size="8.00">+CATALOG</text>
</a>
</g>
</g>
<!-- ds:dataset.CreationType -->
<g id="node18" class="node">
<title>ds:dataset.CreationType</title>
<g id="a_node18"><a xlink:href="../ds/dataset.CreationType" xlink:title="{&amp;lt;&amp;lt;enumeration&amp;gt;&amp;gt;\ndataset/CreationType|+ARCHIVAL\l+CUTOUT\l+FILTERED\l+MOSAIC\l+SPECTRAL_EXTRACTION\l+CATALOG_EXTRACTION\l}">
<polygon fill="#bebada" stroke="black" points="495.62,-681.88 495.62,-775.88 614.38,-775.88 614.38,-681.88 495.62,-681.88"/>
<text text-anchor="middle" x="555" y="-764.27" font-family="Times,serif" font-size="8.00">&lt;&lt;enumeration&gt;&gt;</text>
<text text-anchor="middle" x="555" y="-754.52" font-family="Times,serif" font-size="8.00">dataset/CreationType</text>
<polyline fill="none" stroke="black" points="495.62,-748.38 614.38,-748.38"/>
<text text-anchor="start" x="503.62" y="-736.77" font-family="Times,serif" font-size="8.00">+ARCHIVAL</text>
<text text-anchor="start" x="503.62" y="-727.02" font-family="Times,serif" font-size="8.00">+CUTOUT</text>
<text text-anchor="start" x="503.62" y="-717.27" font-family="Times,serif" font-size="8.00">+FILTERED</text>
<text text-anchor="start" x="503.62" y="-707.52" font-family="Times,serif" font-size="8.00">+MOSAIC</text>
<text text-anchor="start" x="503.62" y="-697.77" font-family="Times,serif" font-size="8.00">+SPECTRAL_EXTRACTION</text>
<text text-anchor="start" x="503.62" y="-688.02" font-family="Times,serif" font-size="8.00">+CATALOG_EXTRACTION</text>
</a>
</g>
</g>
<!-- ds:dataset.RightsType -->
<g id="node19" class="node">
<title>ds:dataset.RightsType</title>
<g id="a_node19"><a xlink:href="../ds/dataset.RightsType" xlink:title="{&amp;lt;&amp;lt;enumeration&amp;gt;&amp;gt;\ndataset/RightsType|+PUBLIC\l+PROPRIETARY\l+SECURE\l}">
<polygon fill="#bebada" stroke="black" points="632.62,-696.5 632.62,-761.25 709.38,-761.25 709.38,-696.5 632.62,-696.5"/>
<text text-anchor="middle" x="671" y="-749.65" font-family="Times,serif" font-size="8.00">&lt;&lt;enumeration&gt;&gt;</text>
<text text-anchor="middle" x="671" y="-739.9" font-family="Times,serif" font-size="8.00">dataset/RightsType</text>
<polyline fill="none" stroke="black" points="632.62,-733.75 709.38,-733.75"/>
<text text-anchor="start" x="640.62" y="-722.15" font-family="Times,serif" font-size="8.00">+PUBLIC</text>
<text text-anchor="start" x="640.62" y="-712.4" font-family="Times,serif" font-size="8.00">+PROPRIETARY</text>
<text text-anchor="start" x="640.62" y="-702.65" font-family="Times,serif" font-size="8.00">+SECURE</text>
</a>
</g>
</g>
<!-- ds:dataset.SpectralBandType -->
<g id="node20" class="node">
<title>ds:dataset.SpectralBandType</title>
<g id="a_node20"><a xlink:href="../ds/dataset.SpectralBandType" xlink:title="{&amp;lt;&amp;lt;enumeration&amp;gt;&amp;gt;\ndataset/SpectralBandType|+RADIO\l+MILLIMETER\l+INFRARED\l+OPTICAL\l+ULTRAVIOLET\l+XRAY\l+GAMMARAY\l}">
<polygon fill="#bebada" stroke="black" points="727,-677 727,-780.75 827,-780.75 827,-677 727,-677"/>
<text text-anchor="middle" x="777" y="-769.15" font-family="Times,serif" font-size="8.00">&lt;&lt;enumeration&gt;&gt;</text>
<text text-anchor="middle" x="777" y="-759.4" font-family="Times,serif" font-size="8.00">dataset/SpectralBandType</text>
<polyline fill="none" stroke="black" points="727,-753.25 827,-753.25"/>
<text text-anchor="start" x="735" y="-741.65" font-family="Times,serif" font-size="8.00">+RADIO</text>
<text text-anchor="start" x="735" y="-731.9" font-family="Times,serif" font-size="8.00">+MILLIMETER</text>
<text text-anchor="start" x="735" y="-722.15" font-family="Times,serif" font-size="8.00">+INFRARED</text>
<text text-anchor="start" x="735" y="-712.4" font-family="Times,serif" font-size="8.00">+OPTICAL</text>
<text text-anchor="start" x="735" y="-702.65" font-family="Times,serif" font-size="8.00">+ULTRAVIOLET</text>
<text text-anchor="start" x="735" y="-692.9" font-family="Times,serif" font-size="8.00">+XRAY</text>
<text text-anchor="start" x="735" y="-683.15" font-family="Times,serif" font-size="8.00">+GAMMARAY</text>
</a>
</g>
</g>
<!-- ds:dataset.DataModel -->
<g id="node21" class="node">
<title>ds:dataset.DataModel</title>
<g id="a_node21"><a xlink:href="../ds/dataset.DataModel" xlink:title="{dataset/DataModel|+name : ivoa:string\l+prefix : ivoa:string\l+URL : ivoa:anyURI\l}">
<polygon fill="#bebada" stroke="black" points="845.25,-701.38 845.25,-756.38 928.75,-756.38 928.75,-701.38 845.25,-701.38"/>
<text text-anchor="middle" x="887" y="-744.77" font-family="Times,serif" font-size="8.00">dataset/DataModel</text>
<polyline fill="none" stroke="black" points="845.25,-738.62 928.75,-738.62"/>
<text text-anchor="start" x="853.25" y="-727.02" font-family="Times,serif" font-size="8.00">+name : ivoa:string</text>
<text text-anchor="start" x="853.25" y="-717.27" font-family="Times,serif" font-size="8.00">+prefix : ivoa:string</text>
<text text-anchor="start" x="853.25" y="-707.52" font-family="Times,serif" font-size="8.00">+URL : ivoa:anyURI</text>
</a>
</g>
</g>
<!-- ds:dataset.DataID -->
<g id="node23" class="node">
<title>ds:dataset.DataID</title>
<g id="a_node23"><a xlink:href="../ds/dataset.DataID" xlink:title="{dataset/DataID|+title : ivoa:string\l+datasetID : ivoa:anyURI\l+creatorDID : ivoa:anyURI\l+version : ivoa:string\l+date : ivoa:datetime\l+creationType : ds:dataset.CreationType\l}">
<polygon fill="#bebada" stroke="black" points="291.75,-328.25 291.75,-412.5 438.25,-412.5 438.25,-328.25 291.75,-328.25"/>
<text text-anchor="middle" x="365" y="-400.9" font-family="Times,serif" font-size="8.00">dataset/DataID</text>
<polyline fill="none" stroke="black" points="291.75,-394.75 438.25,-394.75"/>
<text text-anchor="start" x="299.75" y="-383.15" font-family="Times,serif" font-size="8.00">+title : ivoa:string</text>
<text text-anchor="start" x="299.75" y="-373.4" font-family="Times,serif" font-size="8.00">+datasetID : ivoa:anyURI</text>
<text text-anchor="start" x="299.75" y="-363.65" font-family="Times,serif" font-size="8.00">+creatorDID : ivoa:anyURI</text>
<text text-anchor="start" x="299.75" y="-353.9" font-family="Times,serif" font-size="8.00">+version : ivoa:string</text>
<text text-anchor="start" x="299.75" y="-344.15" font-family="Times,serif" font-size="8.00">+date : ivoa:datetime</text>
<text text-anchor="start" x="299.75" y="-334.4" font-family="Times,serif" font-size="8.00">+creationType : ds:dataset.CreationType</text>
</a>
</g>
</g>
<!-- ds:dataset.Dataset&#45;&gt;ds:dataset.DataID -->
<g id="edge21" class="edge">
<title>ds:dataset.Dataset&#45;&gt;ds:dataset.DataID</title>
<path fill="none" stroke="blue" d="M409.13,-449.13C404.29,-440.6 398.98,-431.24 393.76,-422.05"/>
<polygon fill="blue" stroke="blue" points="409.18,-449.22 415.63,-452.47 415.11,-459.66 408.67,-456.42 409.18,-449.22"/>
<polygon fill="blue" stroke="blue" points="388.99,-413.64 397.84,-420.11 390.85,-416.93 393.92,-422.34 393.92,-422.34 393.92,-422.34 390.85,-416.93 390.01,-424.56 388.99,-413.64"/>
<text text-anchor="middle" x="416.88" y="-432.75" font-family="Times,serif" font-size="10.00">dataID</text>
<text text-anchor="middle" x="385.76" y="-414.33" font-family="Times,serif" font-size="10.00">1</text>
</g>
<!-- ds:dataset.Curation -->
<g id="node24" class="node">
<title>ds:dataset.Curation</title>
<g id="a_node24"><a xlink:href="../ds/dataset.Curation" xlink:title="{dataset/Curation|+publisherDID : ivoa:anyURI\l+version : ivoa:string\l+releaseDate : ivoa:datetime\l+rights : ds:dataset.RightsType\l}">
<polygon fill="#bebada" stroke="black" points="494.5,-338 494.5,-402.75 609.5,-402.75 609.5,-338 494.5,-338"/>
<text text-anchor="middle" x="552" y="-391.15" font-family="Times,serif" font-size="8.00">dataset/Curation</text>
<polyline fill="none" stroke="black" points="494.5,-385 609.5,-385"/>
<text text-anchor="start" x="502.5" y="-373.4" font-family="Times,serif" font-size="8.00">+publisherDID : ivoa:anyURI</text>
<text text-anchor="start" x="502.5" y="-363.65" font-family="Times,serif" font-size="8.00">+version : ivoa:string</text>
<text text-anchor="start" x="502.5" y="-353.9" font-family="Times,serif" font-size="8.00">+releaseDate : ivoa:datetime</text>
<text text-anchor="start" x="502.5" y="-344.15" font-family="Times,serif" font-size="8.00">+rights : ds:dataset.RightsType</text>
</a>
</g>
</g>
<!-- ds:dataset.Dataset&#45;&gt;ds:dataset.Curation -->
<g id="edge20" class="edge">
<title>ds:dataset.Dataset&#45;&gt;ds:dataset.Curation</title>
<path fill="none" stroke="blue" d="M462.05,-451.9C476.39,-439.06 493.26,-423.96 508.49,-410.33"/>
<polygon fill="blue" stroke="blue" points="462.11,-451.84 460.31,-458.82 453.17,-459.84 454.97,-452.86 462.11,-451.84"/>
<polygon fill="blue" stroke="blue" points="515.84,-403.74 511.39,-413.76 513.03,-406.26 508.39,-410.41 508.39,-410.41 508.39,-410.41 513.03,-406.26 505.39,-407.06 515.84,-403.74"/>
<text text-anchor="middle" x="498.88" y="-432.75" font-family="Times,serif" font-size="10.00">curation</text>
<text text-anchor="middle" x="514.13" y="-404.68" font-family="Times,serif" font-size="10.00">1</text>
</g>
<!-- ds:dataset.Creator -->
<g id="node27" class="node">
<title>ds:dataset.Creator</title>
<g id="a_node27"><a xlink:href="../ds/dataset.Creator" xlink:title="{dataset/Creator}">
<polygon fill="#bebada" stroke="black" points="185.25,-244 185.25,-280 250.75,-280 250.75,-244 185.25,-244"/>
<text text-anchor="middle" x="218" y="-259.4" font-family="Times,serif" font-size="8.00">dataset/Creator</text>
</a>
</g>
</g>
<!-- ds:dataset.DataID&#45;&gt;ds:dataset.Creator -->
<g id="edge22" class="edge">
<title>ds:dataset.DataID&#45;&gt;ds:dataset.Creator</title>
<path fill="none" stroke="blue" d="M297.43,-320.48C281.28,-308.79 264.75,-296.83 250.98,-286.86"/>
<polygon fill="blue" stroke="blue" points="297.29,-320.38 304.5,-320.66 307.01,-327.41 299.81,-327.14 297.29,-320.38"/>
<polygon fill="blue" stroke="blue" points="242.91,-281.02 253.65,-283.24 245.97,-283.24 251.01,-286.89 251.01,-286.89 251.01,-286.89 245.97,-283.24 248.37,-290.53 242.91,-281.02"/>
<text text-anchor="middle" x="291.88" y="-300.25" font-family="Times,serif" font-size="10.00">creator</text>
<text text-anchor="middle" x="249.42" y="-282.06" font-family="Times,serif" font-size="10.00">0..1</text>
</g>
<!-- ds:dataset.Contributor -->
<g id="node28" class="node">
<title>ds:dataset.Contributor</title>
<g id="a_node28"><a xlink:href="../ds/dataset.Contributor" xlink:title="{dataset/Contributor|+acknowledgment : ivoa:string\l}">
<polygon fill="#bebada" stroke="black" points="268.5,-244 268.5,-280 383.5,-280 383.5,-244 268.5,-244"/>
<text text-anchor="middle" x="326" y="-268.4" font-family="Times,serif" font-size="8.00">dataset/Contributor</text>
<polyline fill="none" stroke="black" points="268.5,-262.25 383.5,-262.25"/>
<text text-anchor="start" x="276.5" y="-250.65" font-family="Times,serif" font-size="8.00">+acknowledgment : ivoa:string</text>
</a>
</g>
</g>
<!-- ds:dataset.DataID&#45;&gt;ds:dataset.Contributor -->
<g id="edge23" class="edge">
<title>ds:dataset.DataID&#45;&gt;ds:dataset.Contributor</title>
<path fill="none" stroke="blue" d="M345.33,-315.72C342.17,-307.1 339.01,-298.49 336.19,-290.8"/>
<polygon fill="blue" stroke="blue" points="345.37,-315.83 351.19,-320.09 349.5,-327.1 343.68,-322.84 345.37,-315.83"/>
<polygon fill="blue" stroke="blue" points="332.77,-281.45 340.43,-289.29 334.07,-285 336.21,-290.84 336.21,-290.84 336.21,-290.84 334.07,-285 331.98,-292.39 332.77,-281.45"/>
<text text-anchor="middle" x="364.88" y="-300.25" font-family="Times,serif" font-size="10.00">contributor</text>
<text text-anchor="middle" x="324.85" y="-282.06" font-family="Times,serif" font-size="10.00">0..*</text>
</g>
<!-- ds:dataset.Collection -->
<g id="node30" class="node">
<title>ds:dataset.Collection</title>
<g id="a_node30"><a xlink:href="../ds/dataset.Collection" xlink:title="{dataset/Collection|+name : ivoa:string\l}">
<polygon fill="#bebada" stroke="black" points="401.88,-244 401.88,-280 480.12,-280 480.12,-244 401.88,-244"/>
<text text-anchor="middle" x="441" y="-268.4" font-family="Times,serif" font-size="8.00">dataset/Collection</text>
<polyline fill="none" stroke="black" points="401.88,-262.25 480.12,-262.25"/>
<text text-anchor="start" x="409.88" y="-250.65" font-family="Times,serif" font-size="8.00">+name : ivoa:string</text>
</a>
</g>
</g>
<!-- ds:dataset.DataID&#45;&gt;ds:dataset.Collection -->
<g id="edge24" class="edge">
<title>ds:dataset.DataID&#45;&gt;ds:dataset.Collection</title>
<path fill="none" stroke="blue" d="M401.91,-317.71C408.92,-307.9 415.97,-298.03 422.12,-289.42"/>
<polygon fill="blue" stroke="blue" points="402.1,-317.45 401.87,-324.65 395.13,-327.21 395.36,-320 402.1,-317.45"/>
<polygon fill="blue" stroke="blue" points="427.93,-281.3 425.77,-292.05 425.73,-284.38 422.11,-289.44 422.11,-289.44 422.11,-289.44 425.73,-284.38 418.45,-286.82 427.93,-281.3"/>
<text text-anchor="middle" x="434.62" y="-300.25" font-family="Times,serif" font-size="10.00">collection</text>
<text text-anchor="middle" x="421.13" y="-282.06" font-family="Times,serif" font-size="10.00">0..*</text>
</g>
<!-- ds:dataset.Publisher -->
<g id="node25" class="node">
<title>ds:dataset.Publisher</title>
<g id="a_node25"><a xlink:href="../ds/dataset.Publisher" xlink:title="{dataset/Publisher|+publisherID : ivoa:anyURI\l}">
<polygon fill="#bebada" stroke="black" points="498.62,-244 498.62,-280 605.38,-280 605.38,-244 498.62,-244"/>
<text text-anchor="middle" x="552" y="-268.4" font-family="Times,serif" font-size="8.00">dataset/Publisher</text>
<polyline fill="none" stroke="black" points="498.62,-262.25 605.38,-262.25"/>
<text text-anchor="start" x="506.62" y="-250.65" font-family="Times,serif" font-size="8.00">+publisherID : ivoa:anyURI</text>
</a>
</g>
</g>
<!-- ds:dataset.Curation&#45;&gt;ds:dataset.Publisher -->
<g id="edge25" class="edge">
<title>ds:dataset.Curation&#45;&gt;ds:dataset.Publisher</title>
<path fill="none" stroke="blue" d="M552,-324.96C552,-313.69 552,-301.89 552,-291.65"/>
<polygon fill="blue" stroke="blue" points="552,-324.85 556,-330.85 552,-336.85 548,-330.85 552,-324.85"/>
<polygon fill="blue" stroke="blue" points="552,-281.68 556.5,-291.68 552,-285.46 552,-291.68 552,-291.68 552,-291.68 552,-285.46 547.5,-291.68 552,-281.68"/>
<text text-anchor="middle" x="571.12" y="-300.25" font-family="Times,serif" font-size="10.00">publisher</text>
<text text-anchor="middle" x="554.62" y="-282.21" font-family="Times,serif" font-size="10.00">1</text>
</g>
<!-- ds:dataset.Contact -->
<g id="node26" class="node">
<title>ds:dataset.Contact</title>
<g id="a_node26"><a xlink:href="../ds/dataset.Contact" xlink:title="{dataset/Contact}">
<polygon fill="#bebada" stroke="black" points="623.25,-244 623.25,-280 688.75,-280 688.75,-244 623.25,-244"/>
<text text-anchor="middle" x="656" y="-259.4" font-family="Times,serif" font-size="8.00">dataset/Contact</text>
</a>
</g>
</g>
<!-- ds:dataset.Curation&#45;&gt;ds:dataset.Contact -->
<g id="edge26" class="edge">
<title>ds:dataset.Curation&#45;&gt;ds:dataset.Contact</title>
<path fill="none" stroke="blue" d="M591.77,-328.69C605.04,-315.12 619.43,-300.4 631.23,-288.34"/>
<polygon fill="blue" stroke="blue" points="591.94,-328.52 590.61,-335.61 583.55,-337.1 584.89,-330.02 591.94,-328.52"/>
<polygon fill="blue" stroke="blue" points="638.08,-281.33 634.3,-291.63 635.43,-284.04 631.08,-288.48 631.08,-288.48 631.08,-288.48 635.43,-284.04 627.87,-285.34 638.08,-281.33"/>
<text text-anchor="middle" x="634" y="-300.25" font-family="Times,serif" font-size="10.00">contact</text>
<text text-anchor="middle" x="631.43" y="-282.21" font-family="Times,serif" font-size="10.00">0..1</text>
</g>
<!-- ds:dataset.Publication -->
<g id="node29" class="node">
<title>ds:dataset.Publication</title>
<g id="a_node29"><a xlink:href="../ds/dataset.Publication" xlink:title="{dataset/Publication|+refCode : ivoa:string\l}">
<polygon fill="#bebada" stroke="black" points="706.38,-244 706.38,-280 793.62,-280 793.62,-244 706.38,-244"/>
<text text-anchor="middle" x="750" y="-268.4" font-family="Times,serif" font-size="8.00">dataset/Publication</text>
<polyline fill="none" stroke="black" points="706.38,-262.25 793.62,-262.25"/>
<text text-anchor="start" x="714.38" y="-250.65" font-family="Times,serif" font-size="8.00">+refCode : ivoa:string</text>
</a>
</g>
</g>
<!-- ds:dataset.Curation&#45;&gt;ds:dataset.Publication -->
<g id="edge27" class="edge">
<title>ds:dataset.Curation&#45;&gt;ds:dataset.Publication</title>
<path fill="none" stroke="blue" d="M612.21,-331.04C614.16,-329.92 616.09,-328.82 618,-327.75 633.68,-318.99 672.03,-300.29 703.37,-285.22"/>
<polygon fill="blue" stroke="blue" points="612.13,-331.08 609,-337.58 601.8,-337.19 604.93,-330.7 612.13,-331.08"/>
<polygon fill="blue" stroke="blue" points="712.17,-281 705.1,-289.39 708.76,-282.64 703.15,-285.33 703.15,-285.33 703.15,-285.33 708.76,-282.64 701.21,-281.27 712.17,-281"/>
<text text-anchor="middle" x="691.38" y="-300.25" font-family="Times,serif" font-size="10.00">reference</text>
<text text-anchor="middle" x="705.77" y="-282.23" font-family="Times,serif" font-size="10.00">0..*</text>
</g>
<!-- ds:dataset.Publisher&#45;&gt;ds:party.Role -->
<g id="edge6" class="edge">
<title>ds:dataset.Publisher&#45;&gt;ds:party.Role</title>
<path fill="none" stroke="red" d="M498.51,-245.87C443.72,-230.33 366.1,-208.18 363,-206.5 359.09,-204.38 355.22,-201.79 351.55,-199.01"/>
<polygon fill="none" stroke="red" points="354.01,-196.51 344.07,-192.84 349.55,-201.9 354.01,-196.51"/>
</g>
<!-- ds:dataset.Contact&#45;&gt;ds:party.Role -->
<g id="edge7" class="edge">
<title>ds:dataset.Contact&#45;&gt;ds:party.Role</title>
<path fill="none" stroke="red" d="M622.79,-246.29C619.85,-245.25 616.89,-244.3 614,-243.5 559.67,-228.43 414.28,-229.94 363,-206.5 358.87,-204.61 354.84,-202.12 351.06,-199.35"/>
<polygon fill="none" stroke="red" points="353.37,-196.72 343.42,-193.08 348.93,-202.13 353.37,-196.72"/>
</g>
<!-- ds:dataset.Creator&#45;&gt;ds:party.Role -->
<g id="edge8" class="edge">
<title>ds:dataset.Creator&#45;&gt;ds:party.Role</title>
<path fill="none" stroke="red" d="M239.86,-243.52C255.81,-230.76 277.65,-213.29 295.35,-199.14"/>
<polygon fill="none" stroke="red" points="297.37,-202 303,-193.02 293,-196.54 297.37,-202"/>
</g>
<!-- ds:dataset.Contributor&#45;&gt;ds:party.Role -->
<g id="edge9" class="edge">
<title>ds:dataset.Contributor&#45;&gt;ds:party.Role</title>
<path fill="none" stroke="red" d="M326,-243.52C326,-232.05 326,-216.77 326,-203.51"/>
<polygon fill="none" stroke="red" points="329.5,-203.59 326,-193.59 322.5,-203.59 329.5,-203.59"/>
</g>
<!-- ds:party.Party -->
<g id="node31" class="node">
<title>ds:party.Party</title>
<g id="a_node31"><a xlink:href="../ds/party.Party" xlink:title="{party/Party|+name : ivoa:string\l}">
<polygon fill="#fb8072" stroke="black" points="374.88,-57 374.88,-93 453.12,-93 453.12,-57 374.88,-57"/>
<text text-anchor="middle" x="414" y="-81.4" font-family="Times,serif" font-size="8.00">party/Party</text>
<polyline fill="none" stroke="black" points="374.88,-75.25 453.12,-75.25"/>
<text text-anchor="start" x="382.88" y="-63.65" font-family="Times,serif" font-size="8.00">+name : ivoa:string</text>
</a>
</g>
</g>
<!-- ds:party.Role&#45;&gt;ds:party.Party -->
<g id="edge32" class="edge">
<title>ds:party.Role&#45;&gt;ds:party.Party</title>
<path fill="none" stroke="green" d="M341.73,-155.35C355.41,-140.33 375.42,-118.37 390.91,-101.35"/>
<polygon fill="green" stroke="green" points="397.29,-94.35 393.88,-104.78 394.74,-97.15 390.55,-101.75 390.55,-101.75 390.55,-101.75 394.74,-97.15 387.23,-98.71 397.29,-94.35"/>
<text text-anchor="middle" x="390.5" y="-113.25" font-family="Times,serif" font-size="10.00">party</text>
<text text-anchor="middle" x="400.73" y="-95.2" font-family="Times,serif" font-size="10.00">1</text>
</g>
<!-- ds:party.Individual -->
<g id="node33" class="node">
<title>ds:party.Individual</title>
<g id="a_node33"><a xlink:href="../ds/party.Individual" xlink:title="{party/Individual|+address : ivoa:string\l+phone : ivoa:string\l+email : ivoa:string\l}">
<polygon fill="#fb8072" stroke="black" points="371.5,-146.12 371.5,-201.12 456.5,-201.12 456.5,-146.12 371.5,-146.12"/>
<text text-anchor="middle" x="414" y="-189.53" font-family="Times,serif" font-size="8.00">party/Individual</text>
<polyline fill="none" stroke="black" points="371.5,-183.38 456.5,-183.38"/>
<text text-anchor="start" x="379.5" y="-171.78" font-family="Times,serif" font-size="8.00">+address : ivoa:string</text>
<text text-anchor="start" x="379.5" y="-162.03" font-family="Times,serif" font-size="8.00">+phone : ivoa:string</text>
<text text-anchor="start" x="379.5" y="-152.28" font-family="Times,serif" font-size="8.00">+email : ivoa:string</text>
</a>
</g>
</g>
<!-- ds:party.Individual&#45;&gt;ds:party.Party -->
<g id="edge10" class="edge">
<title>ds:party.Individual&#45;&gt;ds:party.Party</title>
<path fill="none" stroke="red" d="M414,-145.71C414,-132.88 414,-117.54 414,-104.51"/>
<polygon fill="none" stroke="red" points="417.5,-104.85 414,-94.85 410.5,-104.85 417.5,-104.85"/>
</g>
<!-- ds:party.Organization -->
<g id="node34" class="node">
<title>ds:party.Organization</title>
<g id="a_node34"><a xlink:href="../ds/party.Organization" xlink:title="{party/Organization|+address : ivoa:string\l+phone : ivoa:string\l+email : ivoa:string\l+logo : ivoa:anyURI\l}">
<polygon fill="#fb8072" stroke="black" points="474.5,-141.25 474.5,-206 559.5,-206 559.5,-141.25 474.5,-141.25"/>
<text text-anchor="middle" x="517" y="-194.4" font-family="Times,serif" font-size="8.00">party/Organization</text>
<polyline fill="none" stroke="black" points="474.5,-188.25 559.5,-188.25"/>
<text text-anchor="start" x="482.5" y="-176.65" font-family="Times,serif" font-size="8.00">+address : ivoa:string</text>
<text text-anchor="start" x="482.5" y="-166.9" font-family="Times,serif" font-size="8.00">+phone : ivoa:string</text>
<text text-anchor="start" x="482.5" y="-157.15" font-family="Times,serif" font-size="8.00">+email : ivoa:string</text>
<text text-anchor="start" x="482.5" y="-147.4" font-family="Times,serif" font-size="8.00">+logo : ivoa:anyURI</text>
</a>
</g>
</g>
<!-- ds:party.Organization&#45;&gt;ds:party.Party -->
<g id="edge11" class="edge">
<title>ds:party.Organization&#45;&gt;ds:party.Party</title>
<path fill="none" stroke="red" d="M483.27,-140.99C469.41,-127.98 453.59,-113.14 440.58,-100.93"/>
<polygon fill="none" stroke="red" points="443.27,-98.66 433.58,-94.37 438.48,-103.76 443.27,-98.66"/>
</g>
</g>
</svg>
