<?xml version="1.0" encoding="UTF-8" standalone="no"?>
<!DOCTYPE svg PUBLIC "-//W3C//DTD SVG 1.1//EN"
 "http://www.w3.org/Graphics/SVG/1.1/DTD/svg11.dtd">
<!-- Generated by graphviz version 11.0.0 (20240428.1522)
 -->
<!-- Title: GVmap Pages: 1 -->
<svg width="1152pt" height="193pt"
 viewBox="0.00 0.00 1152.00 193.00" xmlns="http://www.w3.org/2000/svg" xmlns:xlink="http://www.w3.org/1999/xlink">
<g id="graph0" class="graph" transform="scale(1 1) rotate(0) translate(4 189)">
<title>GVmap</title>
<polygon fill="white" stroke="none" points="-4,4 -4,-189 1148,-189 1148,4 -4,4"/>
<text text-anchor="middle" x="572" y="-7.2" font-family="Times,serif" font-size="14.00">ivoa data model</text>
<!-- ivoa:Unit -->
<g id="node1" class="node">
<title>ivoa:Unit</title>
<g id="a_node1"><a xlink:href="../ivoa/Unit" xlink:title="{&amp;lt;&amp;lt;primitive type&amp;gt;&amp;gt;\nUnit}">
<polygon fill="#8dd3c7" stroke="black" points="0,-143.88 0,-179.88 79,-179.88 79,-143.88 0,-143.88"/>
<text text-anchor="middle" x="39.5" y="-164.28" font-family="Times,serif" font-size="8.00">&lt;&lt;primitive type&gt;&gt;</text>
<text text-anchor="middle" x="39.5" y="-154.53" font-family="Times,serif" font-size="8.00">Unit</text>
</a>
</g>
</g>
<!-- ivoa:anyURI -->
<g id="node2" class="node">
<title>ivoa:anyURI</title>
<g id="a_node2"><a xlink:href="../ivoa/anyURI" xlink:title="{&amp;lt;&amp;lt;primitive type&amp;gt;&amp;gt;\nanyURI}">
<polygon fill="#8dd3c7" stroke="black" points="97,-143.88 97,-179.88 176,-179.88 176,-143.88 97,-143.88"/>
<text text-anchor="middle" x="136.5" y="-164.28" font-family="Times,serif" font-size="8.00">&lt;&lt;primitive type&gt;&gt;</text>
<text text-anchor="middle" x="136.5" y="-154.53" font-family="Times,serif" font-size="8.00">anyURI</text>
</a>
</g>
</g>
<!-- ivoa:boolean -->
<g id="node3" class="node">
<title>ivoa:boolean</title>
<g id="a_node3"><a xlink:href="../ivoa/boolean" xlink:title="{&amp;lt;&amp;lt;primitive type&amp;gt;&amp;gt;\nboolean}">
<polygon fill="#8dd3c7" stroke="black" points="194,-143.88 194,-179.88 273,-179.88 273,-143.88 194,-143.88"/>
<text text-anchor="middle" x="233.5" y="-164.28" font-family="Times,serif" font-size="8.00">&lt;&lt;primitive type&gt;&gt;</text>
<text text-anchor="middle" x="233.5" y="-154.53" font-family="Times,serif" font-size="8.00">boolean</text>
</a>
</g>
</g>
<!-- ivoa:complex -->
<g id="node4" class="node">
<title>ivoa:complex</title>
<g id="a_node4"><a xlink:href="../ivoa/complex" xlink:title="{&amp;lt;&amp;lt;primitive type&amp;gt;&amp;gt;\ncomplex}">
<polygon fill="#8dd3c7" stroke="black" points="291,-143.88 291,-179.88 370,-179.88 370,-143.88 291,-143.88"/>
<text text-anchor="middle" x="330.5" y="-164.28" font-family="Times,serif" font-size="8.00">&lt;&lt;primitive type&gt;&gt;</text>
<text text-anchor="middle" x="330.5" y="-154.53" font-family="Times,serif" font-size="8.00">complex</text>
</a>
</g>
</g>
<!-- ivoa:datetime -->
<g id="node5" class="node">
<title>ivoa:datetime</title>
<g id="a_node5"><a xlink:href="../ivoa/datetime" xlink:title="{&amp;lt;&amp;lt;primitive type&amp;gt;&amp;gt;\ndatetime}">
<polygon fill="#8dd3c7" stroke="black" points="388,-143.88 388,-179.88 467,-179.88 467,-143.88 388,-143.88"/>
<text text-anchor="middle" x="427.5" y="-164.28" font-family="Times,serif" font-size="8.00">&lt;&lt;primitive type&gt;&gt;</text>
<text text-anchor="middle" x="427.5" y="-154.53" font-family="Times,serif" font-size="8.00">datetime</text>
</a>
</g>
</g>
<!-- ivoa:integer -->
<g id="node6" class="node">
<title>ivoa:integer</title>
<g id="a_node6"><a xlink:href="../ivoa/integer" xlink:title="{&amp;lt;&amp;lt;primitive type&amp;gt;&amp;gt;\ninteger}">
<polygon fill="#8dd3c7" stroke="black" points="485,-143.88 485,-179.88 564,-179.88 564,-143.88 485,-143.88"/>
<text text-anchor="middle" x="524.5" y="-164.28" font-family="Times,serif" font-size="8.00">&lt;&lt;primitive type&gt;&gt;</text>
<text text-anchor="middle" x="524.5" y="-154.53" font-family="Times,serif" font-size="8.00">integer</text>
</a>
</g>
</g>
<!-- ivoa:nonnegativeInteger -->
<g id="node7" class="node">
<title>ivoa:nonnegativeInteger</title>
<g id="a_node7"><a xlink:href="../ivoa/nonnegativeInteger" xlink:title="{&amp;lt;&amp;lt;primitive type&amp;gt;&amp;gt;\nnonnegativeInteger}">
<polygon fill="#8dd3c7" stroke="black" points="582,-143.88 582,-179.88 661,-179.88 661,-143.88 582,-143.88"/>
<text text-anchor="middle" x="621.5" y="-164.28" font-family="Times,serif" font-size="8.00">&lt;&lt;primitive type&gt;&gt;</text>
<text text-anchor="middle" x="621.5" y="-154.53" font-family="Times,serif" font-size="8.00">nonnegativeInteger</text>
</a>
</g>
</g>
<!-- ivoa:rational -->
<g id="node8" class="node">
<title>ivoa:rational</title>
<g id="a_node8"><a xlink:href="../ivoa/rational" xlink:title="{&amp;lt;&amp;lt;primitive type&amp;gt;&amp;gt;\nrational}">
<polygon fill="#8dd3c7" stroke="black" points="679,-143.88 679,-179.88 758,-179.88 758,-143.88 679,-143.88"/>
<text text-anchor="middle" x="718.5" y="-164.28" font-family="Times,serif" font-size="8.00">&lt;&lt;primitive type&gt;&gt;</text>
<text text-anchor="middle" x="718.5" y="-154.53" font-family="Times,serif" font-size="8.00">rational</text>
</a>
</g>
</g>
<!-- ivoa:real -->
<g id="node9" class="node">
<title>ivoa:real</title>
<g id="a_node9"><a xlink:href="../ivoa/real" xlink:title="{&amp;lt;&amp;lt;primitive type&amp;gt;&amp;gt;\nreal}">
<polygon fill="#8dd3c7" stroke="black" points="776,-143.88 776,-179.88 855,-179.88 855,-143.88 776,-143.88"/>
<text text-anchor="middle" x="815.5" y="-164.28" font-family="Times,serif" font-size="8.00">&lt;&lt;primitive type&gt;&gt;</text>
<text text-anchor="middle" x="815.5" y="-154.53" font-family="Times,serif" font-size="8.00">real</text>
</a>
</g>
</g>
<!-- ivoa:string -->
<g id="node10" class="node">
<title>ivoa:string</title>
<g id="a_node10"><a xlink:href="../ivoa/string" xlink:title="{&amp;lt;&amp;lt;primitive type&amp;gt;&amp;gt;\nstring}">
<polygon fill="#8dd3c7" stroke="black" points="873,-143.88 873,-179.88 952,-179.88 952,-143.88 873,-143.88"/>
<text text-anchor="middle" x="912.5" y="-164.28" font-family="Times,serif" font-size="8.00">&lt;&lt;primitive type&gt;&gt;</text>
<text text-anchor="middle" x="912.5" y="-154.53" font-family="Times,serif" font-size="8.00">string</text>
</a>
</g>
</g>
<!-- ivoa:IntegerQuantity -->
<g id="node11" class="node">
<title>ivoa:IntegerQuantity</title>
<g id="a_node11"><a xlink:href="../ivoa/IntegerQuantity" xlink:title="{&amp;lt;&amp;lt;datatype&amp;gt;&amp;gt;\nIntegerQuantity|+value : ivoa:integer\l}">
<polygon fill="#8dd3c7" stroke="black" points="970.12,-139.25 970.12,-184.5 1052.88,-184.5 1052.88,-139.25 970.12,-139.25"/>
<text text-anchor="middle" x="1011.5" y="-172.9" font-family="Times,serif" font-size="8.00">&lt;&lt;datatype&gt;&gt;</text>
<text text-anchor="middle" x="1011.5" y="-163.15" font-family="Times,serif" font-size="8.00">IntegerQuantity</text>
<polyline fill="none" stroke="black" points="970.12,-157 1052.88,-157"/>
<text text-anchor="start" x="978.12" y="-145.4" font-family="Times,serif" font-size="8.00">+value : ivoa:integer</text>
</a>
</g>
</g>
<!-- ivoa:Quantity -->
<g id="node12" class="node">
<title>ivoa:Quantity</title>
<g id="a_node12"><a xlink:href="../ivoa/Quantity" xlink:title="{&amp;lt;&amp;lt;datatype&amp;gt;&amp;gt;\nQuantity|+unit : ivoa:Unit\l}">
<polygon fill="#8dd3c7" stroke="black" points="1024.88,-57 1024.88,-102.25 1094.12,-102.25 1094.12,-57 1024.88,-57"/>
<text text-anchor="middle" x="1059.5" y="-90.65" font-family="Times,serif" font-size="8.00">&lt;&lt;datatype&gt;&gt;</text>
<text text-anchor="middle" x="1059.5" y="-80.9" font-family="Times,serif" font-size="8.00">Quantity</text>
<polyline fill="none" stroke="black" points="1024.88,-74.75 1094.12,-74.75"/>
<text text-anchor="start" x="1032.88" y="-63.15" font-family="Times,serif" font-size="8.00">+unit : ivoa:Unit</text>
</a>
</g>
</g>
<!-- ivoa:IntegerQuantity&#45;&gt;ivoa:Quantity -->
<g id="edge1" class="edge">
<title>ivoa:IntegerQuantity&#45;&gt;ivoa:Quantity</title>
<path fill="none" stroke="red" d="M1024.62,-138.95C1029.54,-130.72 1035.23,-121.2 1040.58,-112.26"/>
<polygon fill="none" stroke="red" points="1043.49,-114.2 1045.62,-103.83 1037.49,-110.61 1043.49,-114.2"/>
</g>
<!-- ivoa:RealQuantity -->
<g id="node13" class="node">
<title>ivoa:RealQuantity</title>
<g id="a_node13"><a xlink:href="../ivoa/RealQuantity" xlink:title="{&amp;lt;&amp;lt;datatype&amp;gt;&amp;gt;\nRealQuantity|+value : ivoa:real\l}">
<polygon fill="#8dd3c7" stroke="black" points="1071,-139.25 1071,-184.5 1144,-184.5 1144,-139.25 1071,-139.25"/>
<text text-anchor="middle" x="1107.5" y="-172.9" font-family="Times,serif" font-size="8.00">&lt;&lt;datatype&gt;&gt;</text>
<text text-anchor="middle" x="1107.5" y="-163.15" font-family="Times,serif" font-size="8.00">RealQuantity</text>
<polyline fill="none" stroke="black" points="1071,-157 1144,-157"/>
<text text-anchor="start" x="1079" y="-145.4" font-family="Times,serif" font-size="8.00">+value : ivoa:real</text>
</a>
</g>
</g>
<!-- ivoa:RealQuantity&#45;&gt;ivoa:Quantity -->
<g id="edge2" class="edge">
<title>ivoa:RealQuantity&#45;&gt;ivoa:Quantity</title>
<path fill="none" stroke="red" d="M1094.38,-138.95C1089.46,-130.72 1083.77,-121.2 1078.42,-112.26"/>
<polygon fill="none" stroke="red" points="1081.51,-110.61 1073.38,-103.83 1075.51,-114.2 1081.51,-110.61"/>
</g>
</g>
</svg>
