<?xml version="1.0" encoding="UTF-8" standalone="no"?>
<!DOCTYPE svg PUBLIC "-//W3C//DTD SVG 1.1//EN"
 "http://www.w3.org/Graphics/SVG/1.1/DTD/svg11.dtd">
<!-- Generated by graphviz version 11.0.0 (20240428.1522)
 -->
<!-- Title: GVmap Pages: 1 -->
<svg width="1879pt" height="287pt"
 viewBox="0.00 0.00 1878.88 287.00" xmlns="http://www.w3.org/2000/svg" xmlns:xlink="http://www.w3.org/1999/xlink">
<g id="graph0" class="graph" transform="scale(1 1) rotate(0) translate(4 283)">
<title>GVmap</title>
<polygon fill="white" stroke="none" points="-4,4 -4,-283 1874.88,-283 1874.88,4 -4,4"/>
<text text-anchor="middle" x="935.44" y="-7.2" font-family="Times,serif" font-size="14.00">meas data model</text>
<!-- meas:Uncertainty -->
<g id="node1" class="node">
<title>meas:Uncertainty</title>
<g id="a_node1"><a xlink:href="../meas/Uncertainty" xlink:title="{&amp;lt;&amp;lt;datatype&amp;gt;&amp;gt;\nUncertainty}">
<polygon fill="#8dd3c7" stroke="black" points="516.12,-150.5 516.12,-186.5 577.12,-186.5 577.12,-150.5 516.12,-150.5"/>
<text text-anchor="middle" x="546.62" y="-170.9" font-family="Times,serif" font-size="8.00">&lt;&lt;datatype&gt;&gt;</text>
<text text-anchor="middle" x="546.62" y="-161.15" font-family="Times,serif" font-size="8.00">Uncertainty</text>
</a>
</g>
</g>
<!-- meas:Symmetrical -->
<g id="node2" class="node">
<title>meas:Symmetrical</title>
<g id="a_node2"><a xlink:href="../meas/Symmetrical" xlink:title="{&amp;lt;&amp;lt;datatype&amp;gt;&amp;gt;\nSymmetrical|+radius : ivoa:RealQuantity\l}">
<polygon fill="#8dd3c7" stroke="black" points="0,-228.38 0,-273.62 105.25,-273.62 105.25,-228.38 0,-228.38"/>
<text text-anchor="middle" x="52.62" y="-262.02" font-family="Times,serif" font-size="8.00">&lt;&lt;datatype&gt;&gt;</text>
<text text-anchor="middle" x="52.62" y="-252.28" font-family="Times,serif" font-size="8.00">Symmetrical</text>
<polyline fill="none" stroke="black" points="0,-246.12 105.25,-246.12"/>
<text text-anchor="start" x="8" y="-234.53" font-family="Times,serif" font-size="8.00">+radius : ivoa:RealQuantity</text>
</a>
</g>
</g>
<!-- meas:Symmetrical&#45;&gt;meas:Uncertainty -->
<g id="edge1" class="edge">
<title>meas:Symmetrical&#45;&gt;meas:Uncertainty</title>
<path fill="none" stroke="red" d="M99.51,-227.92C104.54,-226.05 109.64,-224.36 114.62,-223 253.99,-184.88 426.14,-173.86 504.37,-170.72"/>
<polygon fill="none" stroke="red" points="504.29,-174.23 514.15,-170.36 504.02,-167.23 504.29,-174.23"/>
</g>
<!-- meas:Asymmetrical1D -->
<g id="node3" class="node">
<title>meas:Asymmetrical1D</title>
<g id="a_node3"><a xlink:href="../meas/Asymmetrical1D" xlink:title="{&amp;lt;&amp;lt;datatype&amp;gt;&amp;gt;\nAsymmetrical1D|+plus : ivoa:RealQuantity\l+minus : ivoa:RealQuantity\l}">
<polygon fill="#8dd3c7" stroke="black" points="123.38,-223.5 123.38,-278.5 227.88,-278.5 227.88,-223.5 123.38,-223.5"/>
<text text-anchor="middle" x="175.62" y="-266.9" font-family="Times,serif" font-size="8.00">&lt;&lt;datatype&gt;&gt;</text>
<text text-anchor="middle" x="175.62" y="-257.15" font-family="Times,serif" font-size="8.00">Asymmetrical1D</text>
<polyline fill="none" stroke="black" points="123.38,-251 227.88,-251"/>
<text text-anchor="start" x="131.38" y="-239.4" font-family="Times,serif" font-size="8.00">+plus : ivoa:RealQuantity</text>
<text text-anchor="start" x="131.38" y="-229.65" font-family="Times,serif" font-size="8.00">+minus : ivoa:RealQuantity</text>
</a>
</g>
</g>
<!-- meas:Asymmetrical1D&#45;&gt;meas:Uncertainty -->
<g id="edge2" class="edge">
<title>meas:Asymmetrical1D&#45;&gt;meas:Uncertainty</title>
<path fill="none" stroke="red" d="M228.07,-226.14C231.27,-225 234.48,-223.94 237.62,-223 330.77,-195.1 444.34,-180.09 504.5,-173.56"/>
<polygon fill="none" stroke="red" points="504.72,-177.06 514.3,-172.53 503.99,-170.1 504.72,-177.06"/>
</g>
<!-- meas:Asymmetrical2D -->
<g id="node4" class="node">
<title>meas:Asymmetrical2D</title>
<g id="a_node4"><a xlink:href="../meas/Asymmetrical2D" xlink:title="{&amp;lt;&amp;lt;datatype&amp;gt;&amp;gt;\nAsymmetrical2D|+plus : ivoa:RealQuantity\l+minus : ivoa:RealQuantity\l}">
<polygon fill="#8dd3c7" stroke="black" points="246.38,-223.5 246.38,-278.5 350.88,-278.5 350.88,-223.5 246.38,-223.5"/>
<text text-anchor="middle" x="298.62" y="-266.9" font-family="Times,serif" font-size="8.00">&lt;&lt;datatype&gt;&gt;</text>
<text text-anchor="middle" x="298.62" y="-257.15" font-family="Times,serif" font-size="8.00">Asymmetrical2D</text>
<polyline fill="none" stroke="black" points="246.38,-251 350.88,-251"/>
<text text-anchor="start" x="254.38" y="-239.4" font-family="Times,serif" font-size="8.00">+plus : ivoa:RealQuantity</text>
<text text-anchor="start" x="254.38" y="-229.65" font-family="Times,serif" font-size="8.00">+minus : ivoa:RealQuantity</text>
</a>
</g>
</g>
<!-- meas:Asymmetrical2D&#45;&gt;meas:Uncertainty -->
<g id="edge3" class="edge">
<title>meas:Asymmetrical2D&#45;&gt;meas:Uncertainty</title>
<path fill="none" stroke="red" d="M351.2,-226.55C354.37,-225.31 357.53,-224.11 360.62,-223 409.33,-205.47 466.78,-189.67 504.81,-179.86"/>
<polygon fill="none" stroke="red" points="505.66,-183.25 514.49,-177.38 503.93,-176.47 505.66,-183.25"/>
</g>
<!-- meas:Asymmetrical3D -->
<g id="node5" class="node">
<title>meas:Asymmetrical3D</title>
<g id="a_node5"><a xlink:href="../meas/Asymmetrical3D" xlink:title="{&amp;lt;&amp;lt;datatype&amp;gt;&amp;gt;\nAsymmetrical3D|+plus : ivoa:RealQuantity\l+minus : ivoa:RealQuantity\l}">
<polygon fill="#8dd3c7" stroke="black" points="369.38,-223.5 369.38,-278.5 473.88,-278.5 473.88,-223.5 369.38,-223.5"/>
<text text-anchor="middle" x="421.62" y="-266.9" font-family="Times,serif" font-size="8.00">&lt;&lt;datatype&gt;&gt;</text>
<text text-anchor="middle" x="421.62" y="-257.15" font-family="Times,serif" font-size="8.00">Asymmetrical3D</text>
<polyline fill="none" stroke="black" points="369.38,-251 473.88,-251"/>
<text text-anchor="start" x="377.38" y="-239.4" font-family="Times,serif" font-size="8.00">+plus : ivoa:RealQuantity</text>
<text text-anchor="start" x="377.38" y="-229.65" font-family="Times,serif" font-size="8.00">+minus : ivoa:RealQuantity</text>
</a>
</g>
</g>
<!-- meas:Asymmetrical3D&#45;&gt;meas:Uncertainty -->
<g id="edge4" class="edge">
<title>meas:Asymmetrical3D&#45;&gt;meas:Uncertainty</title>
<path fill="none" stroke="red" d="M463.25,-223.19C478.51,-213.36 495.65,-202.33 510.41,-192.83"/>
<polygon fill="none" stroke="red" points="511.93,-196.01 518.44,-187.65 508.14,-190.12 511.93,-196.01"/>
</g>
<!-- meas:Bounds1D -->
<g id="node6" class="node">
<title>meas:Bounds1D</title>
<g id="a_node6"><a xlink:href="../meas/Bounds1D" xlink:title="{&amp;lt;&amp;lt;datatype&amp;gt;&amp;gt;\nBounds1D|+loLimit : ivoa:RealQuantity\l+hiLimit : ivoa:RealQuantity\l}">
<polygon fill="#8dd3c7" stroke="black" points="491.75,-223.5 491.75,-278.5 601.5,-278.5 601.5,-223.5 491.75,-223.5"/>
<text text-anchor="middle" x="546.62" y="-266.9" font-family="Times,serif" font-size="8.00">&lt;&lt;datatype&gt;&gt;</text>
<text text-anchor="middle" x="546.62" y="-257.15" font-family="Times,serif" font-size="8.00">Bounds1D</text>
<polyline fill="none" stroke="black" points="491.75,-251 601.5,-251"/>
<text text-anchor="start" x="499.75" y="-239.4" font-family="Times,serif" font-size="8.00">+loLimit : ivoa:RealQuantity</text>
<text text-anchor="start" x="499.75" y="-229.65" font-family="Times,serif" font-size="8.00">+hiLimit : ivoa:RealQuantity</text>
</a>
</g>
</g>
<!-- meas:Bounds1D&#45;&gt;meas:Uncertainty -->
<g id="edge5" class="edge">
<title>meas:Bounds1D&#45;&gt;meas:Uncertainty</title>
<path fill="none" stroke="red" d="M546.62,-223.19C546.62,-215.08 546.62,-206.15 546.62,-197.93"/>
<polygon fill="none" stroke="red" points="550.13,-198.1 546.63,-188.1 543.13,-198.1 550.13,-198.1"/>
</g>
<!-- meas:Bounds2D -->
<g id="node7" class="node">
<title>meas:Bounds2D</title>
<g id="a_node7"><a xlink:href="../meas/Bounds2D" xlink:title="{&amp;lt;&amp;lt;datatype&amp;gt;&amp;gt;\nBounds2D|+loLimit : ivoa:RealQuantity\l+hiLimit : ivoa:RealQuantity\l}">
<polygon fill="#8dd3c7" stroke="black" points="619.75,-223.5 619.75,-278.5 729.5,-278.5 729.5,-223.5 619.75,-223.5"/>
<text text-anchor="middle" x="674.62" y="-266.9" font-family="Times,serif" font-size="8.00">&lt;&lt;datatype&gt;&gt;</text>
<text text-anchor="middle" x="674.62" y="-257.15" font-family="Times,serif" font-size="8.00">Bounds2D</text>
<polyline fill="none" stroke="black" points="619.75,-251 729.5,-251"/>
<text text-anchor="start" x="627.75" y="-239.4" font-family="Times,serif" font-size="8.00">+loLimit : ivoa:RealQuantity</text>
<text text-anchor="start" x="627.75" y="-229.65" font-family="Times,serif" font-size="8.00">+hiLimit : ivoa:RealQuantity</text>
</a>
</g>
</g>
<!-- meas:Bounds2D&#45;&gt;meas:Uncertainty -->
<g id="edge6" class="edge">
<title>meas:Bounds2D&#45;&gt;meas:Uncertainty</title>
<path fill="none" stroke="red" d="M632,-223.19C616.37,-213.36 598.82,-202.33 583.71,-192.83"/>
<polygon fill="none" stroke="red" points="585.79,-190 575.47,-187.64 582.07,-195.92 585.79,-190"/>
</g>
<!-- meas:Bounds3D -->
<g id="node8" class="node">
<title>meas:Bounds3D</title>
<g id="a_node8"><a xlink:href="../meas/Bounds3D" xlink:title="{&amp;lt;&amp;lt;datatype&amp;gt;&amp;gt;\nBounds3D|+loLimit : ivoa:RealQuantity\l+hiLimit : ivoa:RealQuantity\l}">
<polygon fill="#8dd3c7" stroke="black" points="747.75,-223.5 747.75,-278.5 857.5,-278.5 857.5,-223.5 747.75,-223.5"/>
<text text-anchor="middle" x="802.62" y="-266.9" font-family="Times,serif" font-size="8.00">&lt;&lt;datatype&gt;&gt;</text>
<text text-anchor="middle" x="802.62" y="-257.15" font-family="Times,serif" font-size="8.00">Bounds3D</text>
<polyline fill="none" stroke="black" points="747.75,-251 857.5,-251"/>
<text text-anchor="start" x="755.75" y="-239.4" font-family="Times,serif" font-size="8.00">+loLimit : ivoa:RealQuantity</text>
<text text-anchor="start" x="755.75" y="-229.65" font-family="Times,serif" font-size="8.00">+hiLimit : ivoa:RealQuantity</text>
</a>
</g>
</g>
<!-- meas:Bounds3D&#45;&gt;meas:Uncertainty -->
<g id="edge7" class="edge">
<title>meas:Bounds3D&#45;&gt;meas:Uncertainty</title>
<path fill="none" stroke="red" d="M747.29,-226.15C744.37,-225.05 741.47,-223.99 738.62,-223 687.77,-205.27 627.79,-189.32 588.57,-179.55"/>
<polygon fill="none" stroke="red" points="589.61,-176.2 579.06,-177.2 587.93,-182.99 589.61,-176.2"/>
</g>
<!-- meas:Ellipse -->
<g id="node9" class="node">
<title>meas:Ellipse</title>
<g id="a_node9"><a xlink:href="../meas/Ellipse" xlink:title="{&amp;lt;&amp;lt;datatype&amp;gt;&amp;gt;\nEllipse|+semiAxis : ivoa:RealQuantity\l+posAngle : ivoa:RealQuantity\l}">
<polygon fill="#8dd3c7" stroke="black" points="875.75,-223.5 875.75,-278.5 991.5,-278.5 991.5,-223.5 875.75,-223.5"/>
<text text-anchor="middle" x="933.62" y="-266.9" font-family="Times,serif" font-size="8.00">&lt;&lt;datatype&gt;&gt;</text>
<text text-anchor="middle" x="933.62" y="-257.15" font-family="Times,serif" font-size="8.00">Ellipse</text>
<polyline fill="none" stroke="black" points="875.75,-251 991.5,-251"/>
<text text-anchor="start" x="883.75" y="-239.4" font-family="Times,serif" font-size="8.00">+semiAxis : ivoa:RealQuantity</text>
<text text-anchor="start" x="883.75" y="-229.65" font-family="Times,serif" font-size="8.00">+posAngle : ivoa:RealQuantity</text>
</a>
</g>
</g>
<!-- meas:Ellipse&#45;&gt;meas:Uncertainty -->
<g id="edge8" class="edge">
<title>meas:Ellipse&#45;&gt;meas:Uncertainty</title>
<path fill="none" stroke="red" d="M875.42,-225.68C872.47,-224.72 869.52,-223.82 866.62,-223 769.08,-195.54 650.6,-180.26 588.78,-173.59"/>
<polygon fill="none" stroke="red" points="589.37,-170.14 579.06,-172.57 588.64,-177.1 589.37,-170.14"/>
</g>
<!-- meas:Ellipsoid -->
<g id="node10" class="node">
<title>meas:Ellipsoid</title>
<g id="a_node10"><a xlink:href="../meas/Ellipsoid" xlink:title="{&amp;lt;&amp;lt;datatype&amp;gt;&amp;gt;\nEllipsoid|+semiAxis : ivoa:RealQuantity\l+posAngle : ivoa:RealQuantity\l}">
<polygon fill="#8dd3c7" stroke="black" points="1009.75,-223.5 1009.75,-278.5 1125.5,-278.5 1125.5,-223.5 1009.75,-223.5"/>
<text text-anchor="middle" x="1067.62" y="-266.9" font-family="Times,serif" font-size="8.00">&lt;&lt;datatype&gt;&gt;</text>
<text text-anchor="middle" x="1067.62" y="-257.15" font-family="Times,serif" font-size="8.00">Ellipsoid</text>
<polyline fill="none" stroke="black" points="1009.75,-251 1125.5,-251"/>
<text text-anchor="start" x="1017.75" y="-239.4" font-family="Times,serif" font-size="8.00">+semiAxis : ivoa:RealQuantity</text>
<text text-anchor="start" x="1017.75" y="-229.65" font-family="Times,serif" font-size="8.00">+posAngle : ivoa:RealQuantity</text>
</a>
</g>
</g>
<!-- meas:Ellipsoid&#45;&gt;meas:Uncertainty -->
<g id="edge9" class="edge">
<title>meas:Ellipsoid&#45;&gt;meas:Uncertainty</title>
<path fill="none" stroke="red" d="M1009.47,-225.5C1006.5,-224.59 1003.54,-223.75 1000.62,-223 852.37,-185.11 669.9,-173.95 588.85,-170.74"/>
<polygon fill="none" stroke="red" points="589.06,-167.25 578.93,-170.38 588.8,-174.25 589.06,-167.25"/>
</g>
<!-- meas:Measure -->
<g id="node11" class="node">
<title>meas:Measure</title>
<g id="a_node11"><a xlink:href="../meas/Measure" xlink:title="{Measure|+ucd : ivoa:string\l}">
<polygon fill="#8dd3c7" stroke="black" points="1475.5,-150.5 1475.5,-186.5 1547.75,-186.5 1547.75,-150.5 1475.5,-150.5"/>
<text text-anchor="middle" x="1511.62" y="-174.9" font-family="Times,serif" font-size="8.00">Measure</text>
<polyline fill="none" stroke="black" points="1475.5,-168.75 1547.75,-168.75"/>
<text text-anchor="start" x="1483.5" y="-157.15" font-family="Times,serif" font-size="8.00">+ucd : ivoa:string</text>
</a>
</g>
</g>
<!-- meas:Error -->
<g id="node12" class="node">
<title>meas:Error</title>
<g id="a_node12"><a xlink:href="../meas/Error" xlink:title="{Error|+statError : meas:Uncertainty\l+sysError : meas:Uncertainty\l}">
<polygon fill="#8dd3c7" stroke="black" points="1454.88,-57 1454.88,-102.25 1568.38,-102.25 1568.38,-57 1454.88,-57"/>
<text text-anchor="middle" x="1511.62" y="-90.65" font-family="Times,serif" font-size="8.00">Error</text>
<polyline fill="none" stroke="black" points="1454.88,-84.5 1568.38,-84.5"/>
<text text-anchor="start" x="1462.88" y="-72.9" font-family="Times,serif" font-size="8.00">+statError : meas:Uncertainty</text>
<text text-anchor="start" x="1462.88" y="-63.15" font-family="Times,serif" font-size="8.00">+sysError : meas:Uncertainty</text>
</a>
</g>
</g>
<!-- meas:Measure&#45;&gt;meas:Error -->
<g id="edge16" class="edge">
<title>meas:Measure&#45;&gt;meas:Error</title>
<path fill="none" stroke="blue" d="M1511.62,-137.35C1511.62,-129.79 1511.62,-121.63 1511.62,-113.92"/>
<polygon fill="blue" stroke="blue" points="1511.63,-137.43 1515.63,-143.43 1511.63,-149.43 1507.63,-143.43 1511.63,-137.43"/>
<polygon fill="blue" stroke="blue" points="1511.63,-103.92 1516.13,-113.92 1511.63,-107.71 1511.63,-113.92 1511.63,-113.92 1511.63,-113.92 1511.63,-107.71 1507.13,-113.92 1511.63,-103.92"/>
<text text-anchor="middle" x="1521" y="-122.5" font-family="Times,serif" font-size="10.00">error</text>
<text text-anchor="middle" x="1504.12" y="-104.46" font-family="Times,serif" font-size="10.00">0..1</text>
</g>
<!-- meas:GenericMeasure -->
<g id="node13" class="node">
<title>meas:GenericMeasure</title>
<g id="a_node13"><a xlink:href="../meas/GenericMeasure" xlink:title="{GenericMeasure|+coord : coords:PhysicalCoordinate\l}">
<polygon fill="#8dd3c7" stroke="black" points="1143.25,-233 1143.25,-269 1274,-269 1274,-233 1143.25,-233"/>
<text text-anchor="middle" x="1208.62" y="-257.4" font-family="Times,serif" font-size="8.00">GenericMeasure</text>
<polyline fill="none" stroke="black" points="1143.25,-251.25 1274,-251.25"/>
<text text-anchor="start" x="1151.25" y="-239.65" font-family="Times,serif" font-size="8.00">+coord : coords:PhysicalCoordinate</text>
</a>
</g>
</g>
<!-- meas:GenericMeasure&#45;&gt;meas:Measure -->
<g id="edge10" class="edge">
<title>meas:GenericMeasure&#45;&gt;meas:Measure</title>
<path fill="none" stroke="red" d="M1253.73,-232.56C1263.21,-229.18 1273.19,-225.81 1282.62,-223 1344.48,-204.56 1417.28,-188.49 1463.91,-178.9"/>
<polygon fill="none" stroke="red" points="1464.6,-182.33 1473.7,-176.9 1463.2,-175.47 1464.6,-182.33"/>
</g>
<!-- meas:Position -->
<g id="node14" class="node">
<title>meas:Position</title>
<g id="a_node14"><a xlink:href="../meas/Position" xlink:title="{Position|+coord : coords:Point\l}">
<polygon fill="#8dd3c7" stroke="black" points="1292.12,-233 1292.12,-269 1377.12,-269 1377.12,-233 1292.12,-233"/>
<text text-anchor="middle" x="1334.62" y="-257.4" font-family="Times,serif" font-size="8.00">Position</text>
<polyline fill="none" stroke="black" points="1292.12,-251.25 1377.12,-251.25"/>
<text text-anchor="start" x="1300.12" y="-239.65" font-family="Times,serif" font-size="8.00">+coord : coords:Point</text>
</a>
</g>
</g>
<!-- meas:Position&#45;&gt;meas:Measure -->
<g id="edge11" class="edge">
<title>meas:Position&#45;&gt;meas:Measure</title>
<path fill="none" stroke="red" d="M1366.52,-232.58C1372.8,-229.3 1379.38,-225.97 1385.62,-223 1411.4,-210.73 1440.72,-198.2 1464.59,-188.35"/>
<polygon fill="none" stroke="red" points="1465.82,-191.63 1473.74,-184.6 1463.16,-185.16 1465.82,-191.63"/>
</g>
<!-- meas:Time -->
<g id="node15" class="node">
<title>meas:Time</title>
<g id="a_node15"><a xlink:href="../meas/Time" xlink:title="{Time|+coord : coords:TimeStamp\l}">
<polygon fill="#8dd3c7" stroke="black" points="1395,-233 1395,-269 1500.25,-269 1500.25,-233 1395,-233"/>
<text text-anchor="middle" x="1447.62" y="-257.4" font-family="Times,serif" font-size="8.00">Time</text>
<polyline fill="none" stroke="black" points="1395,-251.25 1500.25,-251.25"/>
<text text-anchor="start" x="1403" y="-239.65" font-family="Times,serif" font-size="8.00">+coord : coords:TimeStamp</text>
</a>
</g>
</g>
<!-- meas:Time&#45;&gt;meas:Measure -->
<g id="edge12" class="edge">
<title>meas:Time&#45;&gt;meas:Measure</title>
<path fill="none" stroke="red" d="M1461.51,-232.53C1470.07,-221.77 1481.2,-207.77 1490.79,-195.7"/>
<polygon fill="none" stroke="red" points="1493.34,-198.12 1496.82,-188.12 1487.86,-193.77 1493.34,-198.12"/>
</g>
<!-- meas:Polarization -->
<g id="node16" class="node">
<title>meas:Polarization</title>
<g id="a_node16"><a xlink:href="../meas/Polarization" xlink:title="{Polarization|+coord : coords:PolCoordinate\l}">
<polygon fill="#8dd3c7" stroke="black" points="1518.5,-233 1518.5,-269 1632.75,-269 1632.75,-233 1518.5,-233"/>
<text text-anchor="middle" x="1575.62" y="-257.4" font-family="Times,serif" font-size="8.00">Polarization</text>
<polyline fill="none" stroke="black" points="1518.5,-251.25 1632.75,-251.25"/>
<text text-anchor="start" x="1526.5" y="-239.65" font-family="Times,serif" font-size="8.00">+coord : coords:PolCoordinate</text>
</a>
</g>
</g>
<!-- meas:Polarization&#45;&gt;meas:Measure -->
<g id="edge13" class="edge">
<title>meas:Polarization&#45;&gt;meas:Measure</title>
<path fill="none" stroke="red" d="M1561.74,-232.53C1553.18,-221.77 1542.05,-207.77 1532.46,-195.7"/>
<polygon fill="none" stroke="red" points="1535.39,-193.77 1526.43,-188.12 1529.91,-198.12 1535.39,-193.77"/>
</g>
<!-- meas:Velocity -->
<g id="node17" class="node">
<title>meas:Velocity</title>
<g id="a_node17"><a xlink:href="../meas/Velocity" xlink:title="{Velocity|+coord : coords:Point\l}">
<polygon fill="#8dd3c7" stroke="black" points="1651.12,-233 1651.12,-269 1736.12,-269 1736.12,-233 1651.12,-233"/>
<text text-anchor="middle" x="1693.62" y="-257.4" font-family="Times,serif" font-size="8.00">Velocity</text>
<polyline fill="none" stroke="black" points="1651.12,-251.25 1736.12,-251.25"/>
<text text-anchor="start" x="1659.12" y="-239.65" font-family="Times,serif" font-size="8.00">+coord : coords:Point</text>
</a>
</g>
</g>
<!-- meas:Velocity&#45;&gt;meas:Measure -->
<g id="edge14" class="edge">
<title>meas:Velocity&#45;&gt;meas:Measure</title>
<path fill="none" stroke="red" d="M1661.11,-232.56C1654.7,-229.28 1647.99,-225.96 1641.62,-223 1614.53,-210.42 1583.63,-197.64 1558.76,-187.73"/>
<polygon fill="none" stroke="red" points="1560.13,-184.51 1549.55,-184.08 1557.56,-191.02 1560.13,-184.51"/>
</g>
<!-- meas:ProperMotion -->
<g id="node18" class="node">
<title>meas:ProperMotion</title>
<g id="a_node18"><a xlink:href="../meas/ProperMotion" xlink:title="{ProperMotion|+coord : coords:Point\l+cosLat_applied : ivoa:boolean\l}">
<polygon fill="#8dd3c7" stroke="black" points="1754.38,-228.38 1754.38,-273.62 1870.88,-273.62 1870.88,-228.38 1754.38,-228.38"/>
<text text-anchor="middle" x="1812.62" y="-262.02" font-family="Times,serif" font-size="8.00">ProperMotion</text>
<polyline fill="none" stroke="black" points="1754.38,-255.88 1870.88,-255.88"/>
<text text-anchor="start" x="1762.38" y="-244.28" font-family="Times,serif" font-size="8.00">+coord : coords:Point</text>
<text text-anchor="start" x="1762.38" y="-234.53" font-family="Times,serif" font-size="8.00">+cosLat_applied : ivoa:boolean</text>
</a>
</g>
</g>
<!-- meas:ProperMotion&#45;&gt;meas:Measure -->
<g id="edge15" class="edge">
<title>meas:ProperMotion&#45;&gt;meas:Measure</title>
<path fill="none" stroke="red" d="M1760.24,-227.98C1755.34,-226.19 1750.41,-224.5 1745.62,-223 1682.26,-203.13 1607.11,-187.26 1559.4,-178.12"/>
<polygon fill="none" stroke="red" points="1560.14,-174.7 1549.66,-176.28 1558.84,-181.58 1560.14,-174.7"/>
</g>
</g>
</svg>
