<?xml version="1.0" encoding="UTF-8" standalone="no"?>
<!DOCTYPE svg PUBLIC "-//W3C//DTD SVG 1.1//EN"
 "http://www.w3.org/Graphics/SVG/1.1/DTD/svg11.dtd">
<!-- Generated by graphviz version 11.0.0 (20240428.1522)
 -->
<!-- Title: GVmap Pages: 1 -->
<svg width="431pt" height="327pt"
 viewBox="0.00 0.00 430.88 327.00" xmlns="http://www.w3.org/2000/svg" xmlns:xlink="http://www.w3.org/1999/xlink">
<g id="graph0" class="graph" transform="scale(1 1) rotate(0) translate(4 323)">
<title>GVmap</title>
<polygon fill="white" stroke="none" points="-4,4 -4,-323 426.88,-323 426.88,4 -4,4"/>
<text text-anchor="middle" x="211.44" y="-7.2" font-family="Times,serif" font-size="14.00">SIA data model</text>
<!-- VOResource:Capability -->
<g id="node1" class="node">
<title>VOResource:Capability</title>
<g id="a_node1"><a xlink:href="#Capability" xlink:title="{VOResource:Capability}">
<polygon fill="grey" stroke="black" points="0,-155.12 0,-191.12 93.25,-191.12 93.25,-155.12 0,-155.12"/>
<text text-anchor="middle" x="46.62" y="-170.53" font-family="Times,serif" font-size="8.00">VOResource:Capability</text>
</a>
</g>
</g>
<!-- SIA:ImageServiceType -->
<g id="node2" class="node">
<title>SIA:ImageServiceType</title>
<g id="a_node2"><a xlink:href="../SIA/ImageServiceType" xlink:title="{&amp;lt;&amp;lt;enumeration&amp;gt;&amp;gt;\nImageServiceType|+Cutout\l+Mosaic\l+Atlas\l+Pointed\l}">
<polygon fill="#8dd3c7" stroke="black" points="292.25,-244 292.25,-318.5 369,-318.5 369,-244 292.25,-244"/>
<text text-anchor="middle" x="330.62" y="-306.9" font-family="Times,serif" font-size="8.00">&lt;&lt;enumeration&gt;&gt;</text>
<text text-anchor="middle" x="330.62" y="-297.15" font-family="Times,serif" font-size="8.00">ImageServiceType</text>
<polyline fill="none" stroke="black" points="292.25,-291 369,-291"/>
<text text-anchor="start" x="300.25" y="-279.4" font-family="Times,serif" font-size="8.00">+Cutout</text>
<text text-anchor="start" x="300.25" y="-269.65" font-family="Times,serif" font-size="8.00">+Mosaic</text>
<text text-anchor="start" x="300.25" y="-259.9" font-family="Times,serif" font-size="8.00">+Atlas</text>
<text text-anchor="start" x="300.25" y="-250.15" font-family="Times,serif" font-size="8.00">+Pointed</text>
</a>
</g>
</g>
<!-- SIA:SimpleImageAccess -->
<g id="node3" class="node">
<title>SIA:SimpleImageAccess</title>
<g id="a_node3"><a xlink:href="../SIA/SimpleImageAccess" xlink:title="{SimpleImageAccess|+imageServiceType : SIA:ImageServiceType\l+maxImageSize : ivoa:integer\l+maxFileSize : ivoa:integer\l+maxRecords : ivoa:integer\l}">
<polygon fill="#8dd3c7" stroke="black" points="110.75,-248.88 110.75,-313.62 274.5,-313.62 274.5,-248.88 110.75,-248.88"/>
<text text-anchor="middle" x="192.62" y="-302.02" font-family="Times,serif" font-size="8.00">SimpleImageAccess</text>
<polyline fill="none" stroke="black" points="110.75,-295.88 274.5,-295.88"/>
<text text-anchor="start" x="118.75" y="-284.27" font-family="Times,serif" font-size="8.00">+imageServiceType : SIA:ImageServiceType</text>
<text text-anchor="start" x="118.75" y="-274.52" font-family="Times,serif" font-size="8.00">+maxImageSize : ivoa:integer</text>
<text text-anchor="start" x="118.75" y="-264.77" font-family="Times,serif" font-size="8.00">+maxFileSize : ivoa:integer</text>
<text text-anchor="start" x="118.75" y="-255.03" font-family="Times,serif" font-size="8.00">+maxRecords : ivoa:integer</text>
</a>
</g>
</g>
<!-- SIA:SimpleImageAccess&#45;&gt;VOResource:Capability -->
<g id="edge1" class="edge">
<title>SIA:SimpleImageAccess&#45;&gt;VOResource:Capability</title>
<path fill="none" stroke="red" d="M147.72,-248.57C137.16,-241.05 125.97,-233.03 115.62,-225.5 103.52,-216.69 90.32,-206.91 78.74,-198.26"/>
<polygon fill="none" stroke="red" points="81.16,-195.71 71.06,-192.52 76.97,-201.31 81.16,-195.71"/>
</g>
<!-- SIA:SkySize -->
<g id="node4" class="node">
<title>SIA:SkySize</title>
<g id="a_node4"><a xlink:href="../SIA/SkySize" xlink:title="{SkySize|+long : ivoa:real\l+lat : ivoa:real\l}">
<polygon fill="#8dd3c7" stroke="black" points="221,-57 221,-102.25 290.25,-102.25 290.25,-57 221,-57"/>
<text text-anchor="middle" x="255.62" y="-90.65" font-family="Times,serif" font-size="8.00">SkySize</text>
<polyline fill="none" stroke="black" points="221,-84.5 290.25,-84.5"/>
<text text-anchor="start" x="229" y="-72.9" font-family="Times,serif" font-size="8.00">+long : ivoa:real</text>
<text text-anchor="start" x="229" y="-63.15" font-family="Times,serif" font-size="8.00">+lat : ivoa:real</text>
</a>
</g>
</g>
<!-- SIA:SimpleImageAccess&#45;&gt;SIA:SkySize -->
<g id="edge2" class="edge">
<title>SIA:SimpleImageAccess&#45;&gt;SIA:SkySize</title>
<path fill="none" stroke="blue" d="M158.4,-237.86C141.65,-211.69 128.09,-177.89 143.62,-150 157.89,-124.38 185.95,-107.03 210.42,-96.08"/>
<polygon fill="blue" stroke="blue" points="158.43,-237.91 165.12,-240.62 165.19,-247.83 158.51,-245.12 158.43,-237.91"/>
<polygon fill="blue" stroke="blue" points="219.51,-92.25 212.04,-100.28 216.02,-93.72 210.29,-96.13 210.29,-96.13 210.29,-96.13 216.02,-93.72 208.54,-91.99 219.51,-92.25"/>
<text text-anchor="middle" x="188.62" y="-169.25" font-family="Times,serif" font-size="10.00">maxQueryRegionSize</text>
<text text-anchor="middle" x="213.13" y="-93.53" font-family="Times,serif" font-size="10.00">0..1</text>
</g>
<!-- SIA:SimpleImageAccess&#45;&gt;SIA:SkySize -->
<g id="edge3" class="edge">
<title>SIA:SimpleImageAccess&#45;&gt;SIA:SkySize</title>
<path fill="none" stroke="blue" d="M216.43,-237.06C222.75,-224.22 229.08,-209.93 233.62,-196.25 242.67,-169.05 248.41,-136.93 251.75,-113.46"/>
<polygon fill="blue" stroke="blue" points="216.52,-236.89 217.36,-244.05 211.08,-247.58 210.23,-240.42 216.52,-236.89"/>
<polygon fill="blue" stroke="blue" points="253.08,-103.58 256.21,-114.09 252.57,-107.33 251.75,-113.49 251.75,-113.49 251.75,-113.49 252.57,-107.33 247.29,-112.89 253.08,-103.58"/>
<text text-anchor="middle" x="280.12" y="-169.25" font-family="Times,serif" font-size="10.00">maxImageExtent</text>
<text text-anchor="middle" x="260.74" y="-104.12" font-family="Times,serif" font-size="10.00">0..1</text>
</g>
<!-- SIA:Query -->
<g id="node6" class="node">
<title>SIA:Query</title>
<g id="a_node6"><a xlink:href="../SIA/Query" xlink:title="{Query|+verb : ivoa:integer\l+extras : ivoa:string\l}">
<polygon fill="#8dd3c7" stroke="black" points="342.38,-150.5 342.38,-195.75 422.88,-195.75 422.88,-150.5 342.38,-150.5"/>
<text text-anchor="middle" x="382.62" y="-184.15" font-family="Times,serif" font-size="8.00">Query</text>
<polyline fill="none" stroke="black" points="342.38,-178 422.88,-178"/>
<text text-anchor="start" x="350.38" y="-166.4" font-family="Times,serif" font-size="8.00">+verb : ivoa:integer</text>
<text text-anchor="start" x="350.38" y="-156.65" font-family="Times,serif" font-size="8.00">+extras : ivoa:string</text>
</a>
</g>
</g>
<!-- SIA:SimpleImageAccess&#45;&gt;SIA:Query -->
<g id="edge4" class="edge">
<title>SIA:SimpleImageAccess&#45;&gt;SIA:Query</title>
<path fill="none" stroke="blue" d="M260.83,-242.15C284.89,-228.71 311.45,-213.88 333.61,-201.5"/>
<polygon fill="blue" stroke="blue" points="260.89,-242.12 257.61,-248.54 250.42,-247.97 253.71,-241.55 260.89,-242.12"/>
<polygon fill="blue" stroke="blue" points="342.07,-196.78 335.53,-205.58 338.77,-198.62 333.34,-201.65 333.34,-201.65 333.34,-201.65 338.77,-198.62 331.15,-197.72 342.07,-196.78"/>
<text text-anchor="middle" x="329.5" y="-216" font-family="Times,serif" font-size="10.00">testQuery</text>
<text text-anchor="middle" x="335.63" y="-197.93" font-family="Times,serif" font-size="10.00">0..1</text>
</g>
<!-- SIA:SkyPos -->
<g id="node5" class="node">
<title>SIA:SkyPos</title>
<g id="a_node5"><a xlink:href="../SIA/SkyPos" xlink:title="{SkyPos|+long : ivoa:real\l+lat : ivoa:real\l}">
<polygon fill="#8dd3c7" stroke="black" points="348,-57 348,-102.25 417.25,-102.25 417.25,-57 348,-57"/>
<text text-anchor="middle" x="382.62" y="-90.65" font-family="Times,serif" font-size="8.00">SkyPos</text>
<polyline fill="none" stroke="black" points="348,-84.5 417.25,-84.5"/>
<text text-anchor="start" x="356" y="-72.9" font-family="Times,serif" font-size="8.00">+long : ivoa:real</text>
<text text-anchor="start" x="356" y="-63.15" font-family="Times,serif" font-size="8.00">+lat : ivoa:real</text>
</a>
</g>
</g>
<!-- SIA:Query&#45;&gt;SIA:SkySize -->
<g id="edge6" class="edge">
<title>SIA:Query&#45;&gt;SIA:SkySize</title>
<path fill="none" stroke="blue" d="M341.69,-142.63C326.77,-131.89 309.94,-119.76 295.15,-109.1"/>
<polygon fill="blue" stroke="blue" points="341.74,-142.67 348.94,-142.93 351.47,-149.68 344.27,-149.42 341.74,-142.67"/>
<polygon fill="blue" stroke="blue" points="287.23,-103.39 297.97,-105.59 290.29,-105.6 295.34,-109.24 295.34,-109.24 295.34,-109.24 290.29,-105.6 292.71,-112.89 287.23,-103.39"/>
<text text-anchor="middle" x="334.5" y="-122.5" font-family="Times,serif" font-size="10.00">size</text>
<text text-anchor="middle" x="278.74" y="-104.43" font-family="Times,serif" font-size="10.00">0..1</text>
</g>
<!-- SIA:Query&#45;&gt;SIA:SkyPos -->
<g id="edge5" class="edge">
<title>SIA:Query&#45;&gt;SIA:SkyPos</title>
<path fill="none" stroke="blue" d="M382.62,-137.74C382.62,-129.8 382.62,-121.37 382.62,-113.49"/>
<polygon fill="blue" stroke="blue" points="382.63,-137.54 386.63,-143.54 382.63,-149.54 378.63,-143.54 382.63,-137.54"/>
<polygon fill="blue" stroke="blue" points="382.63,-103.69 387.13,-113.69 382.63,-107.47 382.63,-113.69 382.63,-113.69 382.63,-113.69 382.63,-107.47 378.13,-113.69 382.63,-103.69"/>
<text text-anchor="middle" x="389.75" y="-122.5" font-family="Times,serif" font-size="10.00">pos</text>
<text text-anchor="middle" x="375.12" y="-104.22" font-family="Times,serif" font-size="10.00">0..1</text>
</g>
</g>
</svg>
