<?xml version="1.0" encoding="UTF-8" standalone="no"?>
<!DOCTYPE svg PUBLIC "-//W3C//DTD SVG 1.1//EN"
 "http://www.w3.org/Graphics/SVG/1.1/DTD/svg11.dtd">
<!-- Generated by graphviz version 12.1.1 (20240910.0053)
 -->
<!-- Title: GVmap Pages: 1 -->
<svg width="929pt" height="402pt"
 viewBox="0.00 0.00 929.25 401.50" xmlns="http://www.w3.org/2000/svg" xmlns:xlink="http://www.w3.org/1999/xlink">
<g id="graph0" class="graph" transform="scale(1 1) rotate(0) translate(4 397.5)">
<title>GVmap</title>
<polygon fill="white" stroke="none" points="-4,4 -4,-397.5 925.25,-397.5 925.25,4 -4,4"/>
<text text-anchor="middle" x="460.62" y="-7.2" font-family="Times,serif" font-size="14.00">TAPRegExt data model</text>
<!-- VOResource:Capability -->
<g id="node1" class="node">
<title>VOResource:Capability</title>
<g id="a_node1"><a xlink:href="#Capability" xlink:title="{VOResource:Capability}">
<polygon fill="grey" stroke="black" points="0,-150.5 0,-186.5 93.25,-186.5 93.25,-150.5 0,-150.5"/>
<text text-anchor="middle" x="46.62" y="-165.9" font-family="Times,serif" font-size="8.00">VOResource:Capability</text>
</a>
</g>
</g>
<!-- TAPRegExt:DataLimit_unit -->
<g id="node2" class="node">
<title>TAPRegExt:DataLimit_unit</title>
<g id="a_node2"><a xlink:href="../TAPRegExt/DataLimit_unit" xlink:title="{&amp;lt;&amp;lt;enumeration&amp;gt;&amp;gt;\nDataLimit_unit|+byte\l+row\l}">
<polygon fill="#8dd3c7" stroke="black" points="495.75,-338 495.75,-393 569.5,-393 569.5,-338 495.75,-338"/>
<text text-anchor="middle" x="532.62" y="-381.4" font-family="Times,serif" font-size="8.00">&lt;&lt;enumeration&gt;&gt;</text>
<text text-anchor="middle" x="532.62" y="-371.65" font-family="Times,serif" font-size="8.00">DataLimit_unit</text>
<polyline fill="none" stroke="black" points="495.75,-365.5 569.5,-365.5"/>
<text text-anchor="start" x="503.75" y="-353.9" font-family="Times,serif" font-size="8.00">+byte</text>
<text text-anchor="start" x="503.75" y="-344.15" font-family="Times,serif" font-size="8.00">+row</text>
</a>
</g>
</g>
<!-- TAPRegExt:DataModelType -->
<g id="node3" class="node">
<title>TAPRegExt:DataModelType</title>
<g id="a_node3"><a xlink:href="../TAPRegExt/DataModelType" xlink:title="{&amp;lt;&amp;lt;datatype&amp;gt;&amp;gt;\nDataModelType|+value : ivoa:string\l+ivoid : ivoa:anyURI\l}">
<polygon fill="#8dd3c7" stroke="black" points="587.5,-338 587.5,-393 671.75,-393 671.75,-338 587.5,-338"/>
<text text-anchor="middle" x="629.62" y="-381.4" font-family="Times,serif" font-size="8.00">&lt;&lt;datatype&gt;&gt;</text>
<text text-anchor="middle" x="629.62" y="-371.65" font-family="Times,serif" font-size="8.00">DataModelType</text>
<polyline fill="none" stroke="black" points="587.5,-365.5 671.75,-365.5"/>
<text text-anchor="start" x="595.5" y="-353.9" font-family="Times,serif" font-size="8.00">+value : ivoa:string</text>
<text text-anchor="start" x="595.5" y="-344.15" font-family="Times,serif" font-size="8.00">+ivoid : ivoa:anyURI</text>
</a>
</g>
</g>
<!-- TAPRegExt:Version -->
<g id="node4" class="node">
<title>TAPRegExt:Version</title>
<g id="a_node4"><a xlink:href="../TAPRegExt/Version" xlink:title="{&amp;lt;&amp;lt;datatype&amp;gt;&amp;gt;\nVersion|+value : ivoa:string\l+ivoid : ivoa:anyURI\l}">
<polygon fill="#8dd3c7" stroke="black" points="689.5,-338 689.5,-393 773.75,-393 773.75,-338 689.5,-338"/>
<text text-anchor="middle" x="731.62" y="-381.4" font-family="Times,serif" font-size="8.00">&lt;&lt;datatype&gt;&gt;</text>
<text text-anchor="middle" x="731.62" y="-371.65" font-family="Times,serif" font-size="8.00">Version</text>
<polyline fill="none" stroke="black" points="689.5,-365.5 773.75,-365.5"/>
<text text-anchor="start" x="697.5" y="-353.9" font-family="Times,serif" font-size="8.00">+value : ivoa:string</text>
<text text-anchor="start" x="697.5" y="-344.15" font-family="Times,serif" font-size="8.00">+ivoid : ivoa:anyURI</text>
</a>
</g>
</g>
<!-- TAPRegExt:DataLimit -->
<g id="node5" class="node">
<title>TAPRegExt:DataLimit</title>
<g id="a_node5"><a xlink:href="../TAPRegExt/DataLimit" xlink:title="{&amp;lt;&amp;lt;datatype&amp;gt;&amp;gt;\nDataLimit|+value : ivoa:integer\l+unit : TAPRegExt:DataLimit_unit\l}">
<polygon fill="#8dd3c7" stroke="black" points="792,-338 792,-393 921.25,-393 921.25,-338 792,-338"/>
<text text-anchor="middle" x="856.62" y="-381.4" font-family="Times,serif" font-size="8.00">&lt;&lt;datatype&gt;&gt;</text>
<text text-anchor="middle" x="856.62" y="-371.65" font-family="Times,serif" font-size="8.00">DataLimit</text>
<polyline fill="none" stroke="black" points="792,-365.5 921.25,-365.5"/>
<text text-anchor="start" x="800" y="-353.9" font-family="Times,serif" font-size="8.00">+value : ivoa:integer</text>
<text text-anchor="start" x="800" y="-344.15" font-family="Times,serif" font-size="8.00">+unit : TAPRegExt:DataLimit_unit</text>
</a>
</g>
</g>
<!-- TAPRegExt:TAPCapRestriction -->
<g id="node6" class="node">
<title>TAPRegExt:TAPCapRestriction</title>
<g id="a_node6"><a xlink:href="../TAPRegExt/TAPCapRestriction" xlink:title="{TAPCapRestriction}">
<polygon fill="#8dd3c7" stroke="black" points="7.5,-244.25 7.5,-280.25 85.75,-280.25 85.75,-244.25 7.5,-244.25"/>
<text text-anchor="middle" x="46.62" y="-259.65" font-family="Times,serif" font-size="8.00">TAPCapRestriction</text>
</a>
</g>
</g>
<!-- TAPRegExt:TAPCapRestriction&#45;&gt;VOResource:Capability -->
<g id="edge1" class="edge">
<title>TAPRegExt:TAPCapRestriction&#45;&gt;VOResource:Capability</title>
<path fill="none" stroke="red" d="M46.62,-243.99C46.62,-231.13 46.62,-213.27 46.62,-198.27"/>
<polygon fill="none" stroke="red" points="50.13,-198.51 46.63,-188.51 43.13,-198.51 50.13,-198.51"/>
</g>
<!-- TAPRegExt:TableAccess -->
<g id="node7" class="node">
<title>TAPRegExt:TableAccess</title>
<g id="a_node7"><a xlink:href="../TAPRegExt/TableAccess" xlink:title="{TableAccess|+dataModel : TAPRegExt:DataModelType\l}">
<polygon fill="#8dd3c7" stroke="black" points="324,-347.5 324,-383.5 477.25,-383.5 477.25,-347.5 324,-347.5"/>
<text text-anchor="middle" x="400.62" y="-371.9" font-family="Times,serif" font-size="8.00">TableAccess</text>
<polyline fill="none" stroke="black" points="324,-365.75 477.25,-365.75"/>
<text text-anchor="start" x="332" y="-354.15" font-family="Times,serif" font-size="8.00">+dataModel : TAPRegExt:DataModelType</text>
</a>
</g>
</g>
<!-- TAPRegExt:TableAccess&#45;&gt;TAPRegExt:TAPCapRestriction -->
<g id="edge2" class="edge">
<title>TAPRegExt:TableAccess&#45;&gt;TAPRegExt:TAPCapRestriction</title>
<path fill="none" stroke="red" d="M323.7,-351.9C260.72,-340.15 170.03,-319.95 94.62,-290.25 91.39,-288.98 88.11,-287.52 84.86,-285.96"/>
<polygon fill="none" stroke="red" points="86.51,-282.87 76.02,-281.41 83.31,-289.1 86.51,-282.87"/>
</g>
<!-- TAPRegExt:Language -->
<g id="node8" class="node">
<title>TAPRegExt:Language</title>
<g id="a_node8"><a xlink:href="../TAPRegExt/Language" xlink:title="{Language|+name : ivoa:string\l+version : TAPRegExt:Version\l+description : ivoa:string\l}">
<polygon fill="#8dd3c7" stroke="black" points="104.12,-234.75 104.12,-289.75 219.12,-289.75 219.12,-234.75 104.12,-234.75"/>
<text text-anchor="middle" x="161.62" y="-278.15" font-family="Times,serif" font-size="8.00">Language</text>
<polyline fill="none" stroke="black" points="104.12,-272 219.12,-272"/>
<text text-anchor="start" x="112.12" y="-260.4" font-family="Times,serif" font-size="8.00">+name : ivoa:string</text>
<text text-anchor="start" x="112.12" y="-250.65" font-family="Times,serif" font-size="8.00">+version : TAPRegExt:Version</text>
<text text-anchor="start" x="112.12" y="-240.9" font-family="Times,serif" font-size="8.00">+description : ivoa:string</text>
</a>
</g>
</g>
<!-- TAPRegExt:TableAccess&#45;&gt;TAPRegExt:Language -->
<g id="edge3" class="edge">
<title>TAPRegExt:TableAccess&#45;&gt;TAPRegExt:Language</title>
<path fill="none" stroke="blue" d="M314.38,-343.47C292.64,-336.93 269.65,-328.91 249.12,-319.5 234.99,-313.02 220.47,-304.53 207.41,-296.13"/>
<polygon fill="blue" stroke="blue" points="314.28,-343.43 321.16,-341.27 325.8,-346.79 318.92,-348.95 314.28,-343.43"/>
<polygon fill="blue" stroke="blue" points="199.21,-290.72 210.04,-292.47 202.37,-292.8 207.56,-296.22 207.56,-296.22 207.56,-296.22 202.37,-292.8 205.08,-299.98 199.21,-290.72"/>
<text text-anchor="middle" x="267.88" y="-310" font-family="Times,serif" font-size="10.00">language</text>
<text text-anchor="middle" x="190.7" y="-291.8" font-family="Times,serif" font-size="10.00">1..*</text>
</g>
<!-- TAPRegExt:OutputFormat -->
<g id="node11" class="node">
<title>TAPRegExt:OutputFormat</title>
<g id="a_node11"><a xlink:href="../TAPRegExt/OutputFormat" xlink:title="{OutputFormat|+mime : ivoa:string\l+alias : ivoa:string\l+ivoid : ivoa:anyURI\l}">
<polygon fill="#8dd3c7" stroke="black" points="237.5,-234.75 237.5,-289.75 321.75,-289.75 321.75,-234.75 237.5,-234.75"/>
<text text-anchor="middle" x="279.62" y="-278.15" font-family="Times,serif" font-size="8.00">OutputFormat</text>
<polyline fill="none" stroke="black" points="237.5,-272 321.75,-272"/>
<text text-anchor="start" x="245.5" y="-260.4" font-family="Times,serif" font-size="8.00">+mime : ivoa:string</text>
<text text-anchor="start" x="245.5" y="-250.65" font-family="Times,serif" font-size="8.00">+alias : ivoa:string</text>
<text text-anchor="start" x="245.5" y="-240.9" font-family="Times,serif" font-size="8.00">+ivoid : ivoa:anyURI</text>
</a>
</g>
</g>
<!-- TAPRegExt:TableAccess&#45;&gt;TAPRegExt:OutputFormat -->
<g id="edge4" class="edge">
<title>TAPRegExt:TableAccess&#45;&gt;TAPRegExt:OutputFormat</title>
<path fill="none" stroke="blue" d="M327.19,-341.5C316.41,-335.65 306.22,-328.42 298.12,-319.5 293.32,-314.21 289.76,-307.64 287.12,-300.87"/>
<polygon fill="blue" stroke="blue" points="327.01,-341.41 334.16,-340.47 337.78,-346.7 330.63,-347.65 327.01,-341.41"/>
<polygon fill="blue" stroke="blue" points="284.06,-291.41 291.42,-299.54 285.22,-295.01 287.13,-300.92 287.13,-300.92 287.13,-300.92 285.22,-295.01 282.85,-302.31 284.06,-291.41"/>
<text text-anchor="middle" x="325.88" y="-310" font-family="Times,serif" font-size="10.00">outputFormat</text>
<text text-anchor="middle" x="276.19" y="-292" font-family="Times,serif" font-size="10.00">1..*</text>
</g>
<!-- TAPRegExt:UploadMethod -->
<g id="node12" class="node">
<title>TAPRegExt:UploadMethod</title>
<g id="a_node12"><a xlink:href="../TAPRegExt/UploadMethod" xlink:title="{UploadMethod|+ivoid : ivoa:anyURI\l}">
<polygon fill="#8dd3c7" stroke="black" points="339.5,-244.25 339.5,-280.25 423.75,-280.25 423.75,-244.25 339.5,-244.25"/>
<text text-anchor="middle" x="381.62" y="-268.65" font-family="Times,serif" font-size="8.00">UploadMethod</text>
<polyline fill="none" stroke="black" points="339.5,-262.5 423.75,-262.5"/>
<text text-anchor="start" x="347.5" y="-250.9" font-family="Times,serif" font-size="8.00">+ivoid : ivoa:anyURI</text>
</a>
</g>
</g>
<!-- TAPRegExt:TableAccess&#45;&gt;TAPRegExt:UploadMethod -->
<g id="edge5" class="edge">
<title>TAPRegExt:TableAccess&#45;&gt;TAPRegExt:UploadMethod</title>
<path fill="none" stroke="blue" d="M371.04,-338.03C366.48,-332.4 362.43,-326.14 359.88,-319.5 356.24,-310.06 358.44,-299.73 362.6,-290.53"/>
<polygon fill="blue" stroke="blue" points="370.92,-337.89 377.92,-339.63 379.01,-346.75 372.01,-345.02 370.92,-337.89"/>
<polygon fill="blue" stroke="blue" points="367.34,-281.8 366.52,-292.74 365.53,-285.12 362.57,-290.59 362.57,-290.59 362.57,-290.59 365.53,-285.12 358.61,-288.44 367.34,-281.8"/>
<text text-anchor="middle" x="390.25" y="-310" font-family="Times,serif" font-size="10.00">uploadMethod</text>
<text text-anchor="middle" x="360.42" y="-282.48" font-family="Times,serif" font-size="10.00">0..*</text>
</g>
<!-- TAPRegExt:TimeLimits -->
<g id="node13" class="node">
<title>TAPRegExt:TimeLimits</title>
<g id="a_node13"><a xlink:href="../TAPRegExt/TimeLimits" xlink:title="{TimeLimits|+default : ivoa:integer\l+hard : ivoa:integer\l}">
<polygon fill="#8dd3c7" stroke="black" points="463.62,-239.62 463.62,-284.88 551.62,-284.88 551.62,-239.62 463.62,-239.62"/>
<text text-anchor="middle" x="507.62" y="-273.27" font-family="Times,serif" font-size="8.00">TimeLimits</text>
<polyline fill="none" stroke="black" points="463.62,-267.12 551.62,-267.12"/>
<text text-anchor="start" x="471.62" y="-255.53" font-family="Times,serif" font-size="8.00">+default : ivoa:integer</text>
<text text-anchor="start" x="471.62" y="-245.78" font-family="Times,serif" font-size="8.00">+hard : ivoa:integer</text>
</a>
</g>
</g>
<!-- TAPRegExt:TableAccess&#45;&gt;TAPRegExt:TimeLimits -->
<g id="edge6" class="edge">
<title>TAPRegExt:TableAccess&#45;&gt;TAPRegExt:TimeLimits</title>
<path fill="none" stroke="blue" d="M419.37,-336.55C426.4,-327.04 434.83,-316.7 443.62,-308.25 449.69,-302.43 456.55,-296.79 463.49,-291.59"/>
<polygon fill="blue" stroke="blue" points="419.3,-336.65 419.08,-343.85 412.34,-346.42 412.56,-339.21 419.3,-336.65"/>
<polygon fill="blue" stroke="blue" points="471.26,-285.97 465.8,-295.47 468.2,-288.18 463.16,-291.83 463.16,-291.83 463.16,-291.83 468.2,-288.18 460.52,-288.18 471.26,-285.97"/>
<text text-anchor="middle" x="475.12" y="-310" font-family="Times,serif" font-size="10.00">retentionPeriod</text>
<text text-anchor="middle" x="464.75" y="-287" font-family="Times,serif" font-size="10.00">0..1</text>
</g>
<!-- TAPRegExt:TableAccess&#45;&gt;TAPRegExt:TimeLimits -->
<g id="edge7" class="edge">
<title>TAPRegExt:TableAccess&#45;&gt;TAPRegExt:TimeLimits</title>
<path fill="none" stroke="blue" d="M468.46,-342.39C485.99,-335.26 501.42,-327.21 506.62,-319.5 511.15,-312.79 512.86,-304.52 513.08,-296.41"/>
<polygon fill="blue" stroke="blue" points="468.44,-342.4 464.28,-348.29 457.24,-346.72 461.4,-340.83 468.44,-342.4"/>
<polygon fill="blue" stroke="blue" points="512.62,-286.45 517.58,-296.23 512.8,-290.23 513.08,-296.44 513.08,-296.44 513.08,-296.44 512.8,-290.23 508.59,-296.65 512.62,-286.45"/>
<text text-anchor="middle" x="550.06" y="-310" font-family="Times,serif" font-size="10.00">executionDuration</text>
<text text-anchor="middle" x="505.07" y="-286.98" font-family="Times,serif" font-size="10.00">0..1</text>
</g>
<!-- TAPRegExt:DataLimits -->
<g id="node14" class="node">
<title>TAPRegExt:DataLimits</title>
<g id="a_node14"><a xlink:href="../TAPRegExt/DataLimits" xlink:title="{DataLimits|+default : TAPRegExt:DataLimit\l+hard : TAPRegExt:DataLimit\l}">
<polygon fill="#8dd3c7" stroke="black" points="615.62,-239.62 615.62,-284.88 739.62,-284.88 739.62,-239.62 615.62,-239.62"/>
<text text-anchor="middle" x="677.62" y="-273.27" font-family="Times,serif" font-size="8.00">DataLimits</text>
<polyline fill="none" stroke="black" points="615.62,-267.12 739.62,-267.12"/>
<text text-anchor="start" x="623.62" y="-255.53" font-family="Times,serif" font-size="8.00">+default : TAPRegExt:DataLimit</text>
<text text-anchor="start" x="623.62" y="-245.78" font-family="Times,serif" font-size="8.00">+hard : TAPRegExt:DataLimit</text>
</a>
</g>
</g>
<!-- TAPRegExt:TableAccess&#45;&gt;TAPRegExt:DataLimits -->
<g id="edge8" class="edge">
<title>TAPRegExt:TableAccess&#45;&gt;TAPRegExt:DataLimits</title>
<path fill="none" stroke="blue" d="M464.5,-343.39C471.92,-341.26 479.41,-339.24 486.62,-337.5 533.08,-326.32 548.18,-337.06 592.62,-319.5 610.07,-312.61 627.64,-301.78 642.24,-291.45"/>
<polygon fill="blue" stroke="blue" points="464.51,-343.39 459.91,-348.94 453.01,-346.82 457.62,-341.27 464.51,-343.39"/>
<polygon fill="blue" stroke="blue" points="649.94,-285.85 644.5,-295.37 646.88,-288.07 641.86,-291.74 641.86,-291.74 641.86,-291.74 646.88,-288.07 639.21,-288.1 649.94,-285.85"/>
<text text-anchor="middle" x="639.94" y="-310" font-family="Times,serif" font-size="10.00">outputLimit</text>
<text text-anchor="middle" x="643.42" y="-286.88" font-family="Times,serif" font-size="10.00">0..1</text>
</g>
<!-- TAPRegExt:TableAccess&#45;&gt;TAPRegExt:DataLimits -->
<g id="edge9" class="edge">
<title>TAPRegExt:TableAccess&#45;&gt;TAPRegExt:DataLimits</title>
<path fill="none" stroke="blue" d="M462.61,-343.38C470.63,-341.14 478.78,-339.1 486.62,-337.5 526.45,-329.37 639.04,-347.36 668.62,-319.5 674.98,-313.51 678.03,-304.96 679.28,-296.33"/>
<polygon fill="blue" stroke="blue" points="462.57,-343.4 457.94,-348.93 451.06,-346.78 455.69,-341.25 462.57,-343.4"/>
<polygon fill="blue" stroke="blue" points="679.96,-286.36 683.77,-296.64 679.7,-290.13 679.28,-296.34 679.28,-296.34 679.28,-296.34 679.7,-290.13 674.79,-296.04 679.96,-286.36"/>
<text text-anchor="middle" x="701.59" y="-310" font-family="Times,serif" font-size="10.00">uploadLimit</text>
<text text-anchor="middle" x="672.54" y="-286.9" font-family="Times,serif" font-size="10.00">0..1</text>
</g>
<!-- TAPRegExt:LanguageFeatureList -->
<g id="node9" class="node">
<title>TAPRegExt:LanguageFeatureList</title>
<g id="a_node9"><a xlink:href="../TAPRegExt/LanguageFeatureList" xlink:title="{LanguageFeatureList|+type : ivoa:anyURI\l}">
<polygon fill="#8dd3c7" stroke="black" points="119.12,-150.5 119.12,-186.5 204.12,-186.5 204.12,-150.5 119.12,-150.5"/>
<text text-anchor="middle" x="161.62" y="-174.9" font-family="Times,serif" font-size="8.00">LanguageFeatureList</text>
<polyline fill="none" stroke="black" points="119.12,-168.75 204.12,-168.75"/>
<text text-anchor="start" x="127.12" y="-157.15" font-family="Times,serif" font-size="8.00">+type : ivoa:anyURI</text>
</a>
</g>
</g>
<!-- TAPRegExt:Language&#45;&gt;TAPRegExt:LanguageFeatureList -->
<g id="edge10" class="edge">
<title>TAPRegExt:Language&#45;&gt;TAPRegExt:LanguageFeatureList</title>
<path fill="none" stroke="blue" d="M161.62,-221.9C161.62,-213.9 161.62,-205.63 161.62,-198.1"/>
<polygon fill="blue" stroke="blue" points="161.63,-221.81 165.63,-227.81 161.63,-233.81 157.63,-227.81 161.63,-221.81"/>
<polygon fill="blue" stroke="blue" points="161.63,-188.21 166.13,-198.21 161.63,-191.99 161.63,-198.21 161.63,-198.21 161.63,-198.21 161.63,-191.99 157.13,-198.21 161.63,-188.21"/>
<text text-anchor="middle" x="197.25" y="-206.75" font-family="Times,serif" font-size="10.00">languageFeatures</text>
<text text-anchor="middle" x="154.12" y="-188.74" font-family="Times,serif" font-size="10.00">0..*</text>
</g>
<!-- TAPRegExt:LanguageFeature -->
<g id="node10" class="node">
<title>TAPRegExt:LanguageFeature</title>
<g id="a_node10"><a xlink:href="../TAPRegExt/LanguageFeature" xlink:title="{LanguageFeature|+form : ivoa:string\l+description : ivoa:string\l}">
<polygon fill="#8dd3c7" stroke="black" points="113.5,-57 113.5,-102.25 209.75,-102.25 209.75,-57 113.5,-57"/>
<text text-anchor="middle" x="161.62" y="-90.65" font-family="Times,serif" font-size="8.00">LanguageFeature</text>
<polyline fill="none" stroke="black" points="113.5,-84.5 209.75,-84.5"/>
<text text-anchor="start" x="121.5" y="-72.9" font-family="Times,serif" font-size="8.00">+form : ivoa:string</text>
<text text-anchor="start" x="121.5" y="-63.15" font-family="Times,serif" font-size="8.00">+description : ivoa:string</text>
</a>
</g>
</g>
<!-- TAPRegExt:LanguageFeatureList&#45;&gt;TAPRegExt:LanguageFeature -->
<g id="edge11" class="edge">
<title>TAPRegExt:LanguageFeatureList&#45;&gt;TAPRegExt:LanguageFeature</title>
<path fill="none" stroke="blue" d="M161.62,-137.35C161.62,-129.79 161.62,-121.63 161.62,-113.92"/>
<polygon fill="blue" stroke="blue" points="161.63,-137.43 165.63,-143.43 161.63,-149.43 157.63,-143.43 161.63,-137.43"/>
<polygon fill="blue" stroke="blue" points="161.63,-103.92 166.13,-113.92 161.63,-107.71 161.63,-113.92 161.63,-113.92 161.63,-113.92 161.63,-107.71 157.13,-113.92 161.63,-103.92"/>
<text text-anchor="middle" x="175.5" y="-122.5" font-family="Times,serif" font-size="10.00">feature</text>
<text text-anchor="middle" x="154.12" y="-104.46" font-family="Times,serif" font-size="10.00">0..*</text>
</g>
</g>
</svg>
