<?xml version="1.0" encoding="UTF-8" standalone="no"?>
<!DOCTYPE svg PUBLIC "-//W3C//DTD SVG 1.1//EN"
 "http://www.w3.org/Graphics/SVG/1.1/DTD/svg11.dtd">
<!-- Generated by graphviz version 11.0.0 (20240428.1522)
 -->
<!-- Title: GVmap Pages: 1 -->
<svg width="2251pt" height="643pt"
 viewBox="0.00 0.00 2251.12 643.25" xmlns="http://www.w3.org/2000/svg" xmlns:xlink="http://www.w3.org/1999/xlink">
<g id="graph0" class="graph" transform="scale(1 1) rotate(0) translate(4 639.25)">
<title>GVmap</title>
<polygon fill="white" stroke="none" points="-4,4 -4,-639.25 2247.12,-639.25 2247.12,4 -4,4"/>
<text text-anchor="middle" x="1121.56" y="-7.2" font-family="Times,serif" font-size="14.00">trans data model</text>
<!-- coords:CoordSys -->
<g id="node1" class="node">
<title>coords:CoordSys</title>
<g id="a_node1"><a xlink:href="#CoordSys" xlink:title="{coords:CoordSys}">
<polygon fill="grey" stroke="black" points="0,-66.5 0,-102.5 70,-102.5 70,-66.5 0,-66.5"/>
<text text-anchor="middle" x="35" y="-81.9" font-family="Times,serif" font-size="8.00">coords:CoordSys</text>
</a>
</g>
</g>
<!-- trans:InterpolationMethod -->
<g id="node2" class="node">
<title>trans:InterpolationMethod</title>
<g id="a_node2"><a xlink:href="../trans/InterpolationMethod" xlink:title="{&amp;lt;&amp;lt;enumeration&amp;gt;&amp;gt;\nInterpolationMethod|+None\l+Nearest\l+Linear\l+Spline\l}">
<polygon fill="#8dd3c7" stroke="black" points="1861.38,-453 1861.38,-527.5 1942.62,-527.5 1942.62,-453 1861.38,-453"/>
<text text-anchor="middle" x="1902" y="-515.9" font-family="Times,serif" font-size="8.00">&lt;&lt;enumeration&gt;&gt;</text>
<text text-anchor="middle" x="1902" y="-506.15" font-family="Times,serif" font-size="8.00">InterpolationMethod</text>
<polyline fill="none" stroke="black" points="1861.38,-500 1942.62,-500"/>
<text text-anchor="start" x="1869.38" y="-488.4" font-family="Times,serif" font-size="8.00">+None</text>
<text text-anchor="start" x="1869.38" y="-478.65" font-family="Times,serif" font-size="8.00">+Nearest</text>
<text text-anchor="start" x="1869.38" y="-468.9" font-family="Times,serif" font-size="8.00">+Linear</text>
<text text-anchor="start" x="1869.38" y="-459.15" font-family="Times,serif" font-size="8.00">+Spline</text>
</a>
</g>
</g>
<!-- trans:SkyProjectionType -->
<g id="node3" class="node">
<title>trans:SkyProjectionType</title>
<g id="a_node3"><a xlink:href="../trans/SkyProjectionType" xlink:title="{&amp;lt;&amp;lt;enumeration&amp;gt;&amp;gt;\nSkyProjectionType|+AZP\l+SZP\l+TAN\l+STG\l+SIN\l+ARC\l+ZPN\l+ZEA\l+AIR\l+CYP\l+CEA\l+CAR\l+MER\l+SFL\l+PAR\l+MOL\l+AIT\l+COP\l+COE\l+COD\l+COO\l+BON\l+PCO\l+TSC\l+CSC\l+QSC\l}">
<polygon fill="#8dd3c7" stroke="black" points="1960.62,-345.75 1960.62,-634.75 2037.38,-634.75 2037.38,-345.75 1960.62,-345.75"/>
<text text-anchor="middle" x="1999" y="-623.15" font-family="Times,serif" font-size="8.00">&lt;&lt;enumeration&gt;&gt;</text>
<text text-anchor="middle" x="1999" y="-613.4" font-family="Times,serif" font-size="8.00">SkyProjectionType</text>
<polyline fill="none" stroke="black" points="1960.62,-607.25 2037.38,-607.25"/>
<text text-anchor="start" x="1968.62" y="-595.65" font-family="Times,serif" font-size="8.00">+AZP</text>
<text text-anchor="start" x="1968.62" y="-585.9" font-family="Times,serif" font-size="8.00">+SZP</text>
<text text-anchor="start" x="1968.62" y="-576.15" font-family="Times,serif" font-size="8.00">+TAN</text>
<text text-anchor="start" x="1968.62" y="-566.4" font-family="Times,serif" font-size="8.00">+STG</text>
<text text-anchor="start" x="1968.62" y="-556.65" font-family="Times,serif" font-size="8.00">+SIN</text>
<text text-anchor="start" x="1968.62" y="-546.9" font-family="Times,serif" font-size="8.00">+ARC</text>
<text text-anchor="start" x="1968.62" y="-537.15" font-family="Times,serif" font-size="8.00">+ZPN</text>
<text text-anchor="start" x="1968.62" y="-527.4" font-family="Times,serif" font-size="8.00">+ZEA</text>
<text text-anchor="start" x="1968.62" y="-517.65" font-family="Times,serif" font-size="8.00">+AIR</text>
<text text-anchor="start" x="1968.62" y="-507.9" font-family="Times,serif" font-size="8.00">+CYP</text>
<text text-anchor="start" x="1968.62" y="-498.15" font-family="Times,serif" font-size="8.00">+CEA</text>
<text text-anchor="start" x="1968.62" y="-488.4" font-family="Times,serif" font-size="8.00">+CAR</text>
<text text-anchor="start" x="1968.62" y="-478.65" font-family="Times,serif" font-size="8.00">+MER</text>
<text text-anchor="start" x="1968.62" y="-468.9" font-family="Times,serif" font-size="8.00">+SFL</text>
<text text-anchor="start" x="1968.62" y="-459.15" font-family="Times,serif" font-size="8.00">+PAR</text>
<text text-anchor="start" x="1968.62" y="-449.4" font-family="Times,serif" font-size="8.00">+MOL</text>
<text text-anchor="start" x="1968.62" y="-439.65" font-family="Times,serif" font-size="8.00">+AIT</text>
<text text-anchor="start" x="1968.62" y="-429.9" font-family="Times,serif" font-size="8.00">+COP</text>
<text text-anchor="start" x="1968.62" y="-420.15" font-family="Times,serif" font-size="8.00">+COE</text>
<text text-anchor="start" x="1968.62" y="-410.4" font-family="Times,serif" font-size="8.00">+COD</text>
<text text-anchor="start" x="1968.62" y="-400.65" font-family="Times,serif" font-size="8.00">+COO</text>
<text text-anchor="start" x="1968.62" y="-390.9" font-family="Times,serif" font-size="8.00">+BON</text>
<text text-anchor="start" x="1968.62" y="-381.15" font-family="Times,serif" font-size="8.00">+PCO</text>
<text text-anchor="start" x="1968.62" y="-371.4" font-family="Times,serif" font-size="8.00">+TSC</text>
<text text-anchor="start" x="1968.62" y="-361.65" font-family="Times,serif" font-size="8.00">+CSC</text>
<text text-anchor="start" x="1968.62" y="-351.9" font-family="Times,serif" font-size="8.00">+QSC</text>
</a>
</g>
</g>
<!-- trans:SpectralProjectionType -->
<g id="node4" class="node">
<title>trans:SpectralProjectionType</title>
<g id="a_node4"><a xlink:href="../trans/SpectralProjectionType" xlink:title="{&amp;lt;&amp;lt;enumeration&amp;gt;&amp;gt;\nSpectralProjectionType|+F2W\l+F2V\l+F2A\l+W2F\l+W2V\l+W2A\l+V2F\l+V2W\l+V2A\l+A2F\l+A2W\l+A2V\l+LOG\l+GRI\l+GRA\l}">
<polygon fill="#8dd3c7" stroke="black" points="2055.12,-399.38 2055.12,-581.12 2146.88,-581.12 2146.88,-399.38 2055.12,-399.38"/>
<text text-anchor="middle" x="2101" y="-569.52" font-family="Times,serif" font-size="8.00">&lt;&lt;enumeration&gt;&gt;</text>
<text text-anchor="middle" x="2101" y="-559.77" font-family="Times,serif" font-size="8.00">SpectralProjectionType</text>
<polyline fill="none" stroke="black" points="2055.12,-553.62 2146.88,-553.62"/>
<text text-anchor="start" x="2063.12" y="-542.02" font-family="Times,serif" font-size="8.00">+F2W</text>
<text text-anchor="start" x="2063.12" y="-532.27" font-family="Times,serif" font-size="8.00">+F2V</text>
<text text-anchor="start" x="2063.12" y="-522.52" font-family="Times,serif" font-size="8.00">+F2A</text>
<text text-anchor="start" x="2063.12" y="-512.77" font-family="Times,serif" font-size="8.00">+W2F</text>
<text text-anchor="start" x="2063.12" y="-503.02" font-family="Times,serif" font-size="8.00">+W2V</text>
<text text-anchor="start" x="2063.12" y="-493.27" font-family="Times,serif" font-size="8.00">+W2A</text>
<text text-anchor="start" x="2063.12" y="-483.52" font-family="Times,serif" font-size="8.00">+V2F</text>
<text text-anchor="start" x="2063.12" y="-473.77" font-family="Times,serif" font-size="8.00">+V2W</text>
<text text-anchor="start" x="2063.12" y="-464.02" font-family="Times,serif" font-size="8.00">+V2A</text>
<text text-anchor="start" x="2063.12" y="-454.27" font-family="Times,serif" font-size="8.00">+A2F</text>
<text text-anchor="start" x="2063.12" y="-444.52" font-family="Times,serif" font-size="8.00">+A2W</text>
<text text-anchor="start" x="2063.12" y="-434.77" font-family="Times,serif" font-size="8.00">+A2V</text>
<text text-anchor="start" x="2063.12" y="-425.02" font-family="Times,serif" font-size="8.00">+LOG</text>
<text text-anchor="start" x="2063.12" y="-415.27" font-family="Times,serif" font-size="8.00">+GRI</text>
<text text-anchor="start" x="2063.12" y="-405.52" font-family="Times,serif" font-size="8.00">+GRA</text>
</a>
</g>
</g>
<!-- trans:SpectralCoordType -->
<g id="node5" class="node">
<title>trans:SpectralCoordType</title>
<g id="a_node5"><a xlink:href="../trans/SpectralCoordType" xlink:title="{&amp;lt;&amp;lt;enumeration&amp;gt;&amp;gt;\nSpectralCoordType|+FREQ\l+ENER\l+WAVN\l+VRAD\l+WAVE\l+VOPT\l+ZOPT\l+AWAV\l+VELO\l+BETA\l}">
<polygon fill="#8dd3c7" stroke="black" points="2164.88,-423.75 2164.88,-556.75 2243.12,-556.75 2243.12,-423.75 2164.88,-423.75"/>
<text text-anchor="middle" x="2204" y="-545.15" font-family="Times,serif" font-size="8.00">&lt;&lt;enumeration&gt;&gt;</text>
<text text-anchor="middle" x="2204" y="-535.4" font-family="Times,serif" font-size="8.00">SpectralCoordType</text>
<polyline fill="none" stroke="black" points="2164.88,-529.25 2243.12,-529.25"/>
<text text-anchor="start" x="2172.88" y="-517.65" font-family="Times,serif" font-size="8.00">+FREQ</text>
<text text-anchor="start" x="2172.88" y="-507.9" font-family="Times,serif" font-size="8.00">+ENER</text>
<text text-anchor="start" x="2172.88" y="-498.15" font-family="Times,serif" font-size="8.00">+WAVN</text>
<text text-anchor="start" x="2172.88" y="-488.4" font-family="Times,serif" font-size="8.00">+VRAD</text>
<text text-anchor="start" x="2172.88" y="-478.65" font-family="Times,serif" font-size="8.00">+WAVE</text>
<text text-anchor="start" x="2172.88" y="-468.9" font-family="Times,serif" font-size="8.00">+VOPT</text>
<text text-anchor="start" x="2172.88" y="-459.15" font-family="Times,serif" font-size="8.00">+ZOPT</text>
<text text-anchor="start" x="2172.88" y="-449.4" font-family="Times,serif" font-size="8.00">+AWAV</text>
<text text-anchor="start" x="2172.88" y="-439.65" font-family="Times,serif" font-size="8.00">+VELO</text>
<text text-anchor="start" x="2172.88" y="-429.9" font-family="Times,serif" font-size="8.00">+BETA</text>
</a>
</g>
</g>
<!-- trans:Mapping -->
<g id="node6" class="node">
<title>trans:Mapping</title>
<g id="a_node6"><a xlink:href="../trans/Mapping" xlink:title="{Mapping|+invert : ivoa:boolean\l}">
<polygon fill="#8dd3c7" stroke="black" points="624.75,-66.5 624.75,-102.5 711.25,-102.5 711.25,-66.5 624.75,-66.5"/>
<text text-anchor="middle" x="668" y="-90.9" font-family="Times,serif" font-size="8.00">Mapping</text>
<polyline fill="none" stroke="black" points="624.75,-84.75 711.25,-84.75"/>
<text text-anchor="start" x="632.75" y="-73.15" font-family="Times,serif" font-size="8.00">+invert : ivoa:boolean</text>
</a>
</g>
</g>
<!-- trans:CompoundMap -->
<g id="node7" class="node">
<title>trans:CompoundMap</title>
<g id="a_node7"><a xlink:href="../trans/CompoundMap" xlink:title="{CompoundMap}">
<polygon fill="#8dd3c7" stroke="black" points="405,-263.25 405,-299.25 469,-299.25 469,-263.25 405,-263.25"/>
<text text-anchor="middle" x="437" y="-278.65" font-family="Times,serif" font-size="8.00">CompoundMap</text>
</a>
</g>
</g>
<!-- trans:CompoundMap&#45;&gt;trans:Mapping -->
<g id="edge1" class="edge">
<title>trans:CompoundMap&#45;&gt;trans:Mapping</title>
<path fill="none" stroke="red" d="M443.84,-262.81C447.03,-254.5 450.82,-244.4 454,-235.25 470.94,-186.52 460.18,-157.73 504,-130.5 537.23,-109.85 580.01,-98.52 613.54,-92.4"/>
<polygon fill="none" stroke="red" points="613.77,-95.91 623.03,-90.77 612.59,-89.01 613.77,-95.91"/>
</g>
<!-- trans:MapRef -->
<g id="node37" class="node">
<title>trans:MapRef</title>
<g id="a_node37"><a xlink:href="../trans/MapRef" xlink:title="{MapRef}">
<polygon fill="#8dd3c7" stroke="black" points="378,-164.88 378,-200.88 432,-200.88 432,-164.88 378,-164.88"/>
<text text-anchor="middle" x="404.62" y="-180.28" font-family="Times,serif" font-size="8.00">MapRef</text>
</a>
</g>
</g>
<!-- trans:CompoundMap&#45;&gt;trans:MapRef -->
<g id="edge23" class="edge">
<title>trans:CompoundMap&#45;&gt;trans:MapRef</title>
<path fill="none" stroke="blue" d="M427.26,-250.91C423.13,-238.49 418.35,-224.09 414.28,-211.83"/>
<polygon fill="blue" stroke="blue" points="427.21,-250.78 432.9,-255.21 430.99,-262.16 425.31,-257.73 427.21,-250.78"/>
<polygon fill="blue" stroke="blue" points="411.16,-202.44 418.59,-210.51 412.35,-206.03 414.31,-211.93 414.31,-211.93 414.31,-211.93 412.35,-206.03 410.04,-213.35 411.16,-202.44"/>
<text text-anchor="middle" x="436.75" y="-225.75" font-family="Times,serif" font-size="10.00">cptMap</text>
<text text-anchor="middle" x="403.28" y="-203.03" font-family="Times,serif" font-size="10.00">1..*</text>
</g>
<!-- trans:ComposeMap -->
<g id="node8" class="node">
<title>trans:ComposeMap</title>
<g id="a_node8"><a xlink:href="../trans/ComposeMap" xlink:title="{ComposeMap}">
<polygon fill="#8dd3c7" stroke="black" points="448.25,-472.25 448.25,-508.25 507.75,-508.25 507.75,-472.25 448.25,-472.25"/>
<text text-anchor="middle" x="478" y="-487.65" font-family="Times,serif" font-size="8.00">ComposeMap</text>
</a>
</g>
</g>
<!-- trans:ComposeMap&#45;&gt;trans:CompoundMap -->
<g id="edge2" class="edge">
<title>trans:ComposeMap&#45;&gt;trans:CompoundMap</title>
<path fill="none" stroke="red" d="M474.57,-471.96C467.52,-436.34 451.31,-354.49 442.67,-310.86"/>
<polygon fill="none" stroke="red" points="446.11,-310.25 440.74,-301.12 439.25,-311.61 446.11,-310.25"/>
</g>
<!-- trans:ConcatenateMap -->
<g id="node9" class="node">
<title>trans:ConcatenateMap</title>
<g id="a_node9"><a xlink:href="../trans/ConcatenateMap" xlink:title="{ConcatenateMap}">
<polygon fill="#8dd3c7" stroke="black" points="360,-472.25 360,-508.25 430,-508.25 430,-472.25 360,-472.25"/>
<text text-anchor="middle" x="395" y="-487.65" font-family="Times,serif" font-size="8.00">ConcatenateMap</text>
</a>
</g>
</g>
<!-- trans:ConcatenateMap&#45;&gt;trans:CompoundMap -->
<g id="edge3" class="edge">
<title>trans:ConcatenateMap&#45;&gt;trans:CompoundMap</title>
<path fill="none" stroke="red" d="M398.51,-471.96C405.74,-436.34 422.34,-354.49 431.19,-310.86"/>
<polygon fill="none" stroke="red" points="434.61,-311.62 433.17,-301.12 427.75,-310.23 434.61,-311.62"/>
</g>
<!-- trans:Permute -->
<g id="node10" class="node">
<title>trans:Permute</title>
<g id="a_node10"><a xlink:href="../trans/Permute" xlink:title="{Permute|+numSourceAxes : ivoa:nonnegativeInteger\l}">
<polygon fill="#8dd3c7" stroke="black" points="123.5,-164.88 123.5,-200.88 280.5,-200.88 280.5,-164.88 123.5,-164.88"/>
<text text-anchor="middle" x="202" y="-189.28" font-family="Times,serif" font-size="8.00">Permute</text>
<polyline fill="none" stroke="black" points="123.5,-183.12 280.5,-183.12"/>
<text text-anchor="start" x="131.5" y="-171.53" font-family="Times,serif" font-size="8.00">+numSourceAxes : ivoa:nonnegativeInteger</text>
</a>
</g>
</g>
<!-- trans:Permute&#45;&gt;trans:Mapping -->
<g id="edge4" class="edge">
<title>trans:Permute&#45;&gt;trans:Mapping</title>
<path fill="none" stroke="red" d="M236.95,-164.5C261.33,-153.1 294.94,-138.82 326,-130.5 425.11,-103.94 544.75,-92.78 613.05,-88.3"/>
<polygon fill="none" stroke="red" points="613.1,-91.8 622.86,-87.68 612.66,-84.81 613.1,-91.8"/>
</g>
<!-- trans:PermuteAxis -->
<g id="node11" class="node">
<title>trans:PermuteAxis</title>
<g id="a_node11"><a xlink:href="../trans/PermuteAxis" xlink:title="{PermuteAxis|+sourceAxis : ivoa:nonnegativeInteger\l+seedValue : ivoa:real\l}">
<polygon fill="#8dd3c7" stroke="black" points="122.75,-61.88 122.75,-107.12 263.25,-107.12 263.25,-61.88 122.75,-61.88"/>
<text text-anchor="middle" x="193" y="-95.53" font-family="Times,serif" font-size="8.00">PermuteAxis</text>
<polyline fill="none" stroke="black" points="122.75,-89.38 263.25,-89.38"/>
<text text-anchor="start" x="130.75" y="-77.78" font-family="Times,serif" font-size="8.00">+sourceAxis : ivoa:nonnegativeInteger</text>
<text text-anchor="start" x="130.75" y="-68.03" font-family="Times,serif" font-size="8.00">+seedValue : ivoa:real</text>
</a>
</g>
</g>
<!-- trans:Permute&#45;&gt;trans:PermuteAxis -->
<g id="edge24" class="edge">
<title>trans:Permute&#45;&gt;trans:PermuteAxis</title>
<path fill="none" stroke="blue" d="M199.19,-151.81C198.2,-141.23 197.09,-129.29 196.08,-118.48"/>
<polygon fill="blue" stroke="blue" points="199.19,-151.8 203.73,-157.4 200.31,-163.75 195.77,-158.15 199.19,-151.8"/>
<polygon fill="blue" stroke="blue" points="195.15,-108.53 200.56,-118.07 195.5,-112.29 196.08,-118.49 196.08,-118.49 196.08,-118.49 195.5,-112.29 191.6,-118.9 195.15,-108.53"/>
<text text-anchor="middle" x="214.88" y="-132.25" font-family="Times,serif" font-size="10.00">axismap</text>
<text text-anchor="middle" x="187.54" y="-109.07" font-family="Times,serif" font-size="10.00">0..*</text>
</g>
<!-- trans:Unit -->
<g id="node12" class="node">
<title>trans:Unit</title>
<g id="a_node12"><a xlink:href="../trans/Unit" xlink:title="{Unit}">
<polygon fill="#8dd3c7" stroke="black" points="860,-164.88 860,-200.88 914,-200.88 914,-164.88 860,-164.88"/>
<text text-anchor="middle" x="886.62" y="-180.28" font-family="Times,serif" font-size="8.00">Unit</text>
</a>
</g>
</g>
<!-- trans:Unit&#45;&gt;trans:Mapping -->
<g id="edge5" class="edge">
<title>trans:Unit&#45;&gt;trans:Mapping</title>
<path fill="none" stroke="red" d="M859.75,-164.48C856.83,-162.82 853.88,-161.21 851,-159.75 808.81,-138.41 758.98,-118.52 721.98,-104.71"/>
<polygon fill="none" stroke="red" points="723.43,-101.51 712.83,-101.32 721,-108.07 723.43,-101.51"/>
</g>
<!-- trans:Shift -->
<g id="node13" class="node">
<title>trans:Shift</title>
<g id="a_node13"><a xlink:href="../trans/Shift" xlink:title="{Shift|+offset : ivoa:real\l}">
<polygon fill="#8dd3c7" stroke="black" points="932.5,-164.88 932.5,-200.88 1005.5,-200.88 1005.5,-164.88 932.5,-164.88"/>
<text text-anchor="middle" x="969" y="-189.28" font-family="Times,serif" font-size="8.00">Shift</text>
<polyline fill="none" stroke="black" points="932.5,-183.12 1005.5,-183.12"/>
<text text-anchor="start" x="940.5" y="-171.53" font-family="Times,serif" font-size="8.00">+offset : ivoa:real</text>
</a>
</g>
</g>
<!-- trans:Shift&#45;&gt;trans:Mapping -->
<g id="edge6" class="edge">
<title>trans:Shift&#45;&gt;trans:Mapping</title>
<path fill="none" stroke="red" d="M934.35,-164.47C930.56,-162.79 926.72,-161.18 923,-159.75 855.41,-133.86 774.82,-111.8 722.6,-98.61"/>
<polygon fill="none" stroke="red" points="723.6,-95.25 713.05,-96.22 721.9,-102.04 723.6,-95.25"/>
</g>
<!-- trans:Scale -->
<g id="node14" class="node">
<title>trans:Scale</title>
<g id="a_node14"><a xlink:href="../trans/Scale" xlink:title="{Scale|+factor : ivoa:real\l}">
<polygon fill="#8dd3c7" stroke="black" points="1023.38,-164.88 1023.38,-200.88 1098.62,-200.88 1098.62,-164.88 1023.38,-164.88"/>
<text text-anchor="middle" x="1061" y="-189.28" font-family="Times,serif" font-size="8.00">Scale</text>
<polyline fill="none" stroke="black" points="1023.38,-183.12 1098.62,-183.12"/>
<text text-anchor="start" x="1031.38" y="-171.53" font-family="Times,serif" font-size="8.00">+factor : ivoa:real</text>
</a>
</g>
</g>
<!-- trans:Scale&#45;&gt;trans:Mapping -->
<g id="edge7" class="edge">
<title>trans:Scale&#45;&gt;trans:Mapping</title>
<path fill="none" stroke="red" d="M1026.96,-164.41C1022.99,-162.7 1018.94,-161.1 1015,-159.75 914.5,-125.38 791.99,-103.63 722.69,-93.09"/>
<polygon fill="none" stroke="red" points="723.53,-89.67 713.12,-91.65 722.5,-96.6 723.53,-89.67"/>
</g>
<!-- trans:Rotate2D -->
<g id="node15" class="node">
<title>trans:Rotate2D</title>
<g id="a_node15"><a xlink:href="../trans/Rotate2D" xlink:title="{Rotate2D|+angle : ivoa:real\l}">
<polygon fill="#8dd3c7" stroke="black" points="1116.5,-164.88 1116.5,-200.88 1189.5,-200.88 1189.5,-164.88 1116.5,-164.88"/>
<text text-anchor="middle" x="1153" y="-189.28" font-family="Times,serif" font-size="8.00">Rotate2D</text>
<polyline fill="none" stroke="black" points="1116.5,-183.12 1189.5,-183.12"/>
<text text-anchor="start" x="1124.5" y="-171.53" font-family="Times,serif" font-size="8.00">+angle : ivoa:real</text>
</a>
</g>
</g>
<!-- trans:Rotate2D&#45;&gt;trans:Mapping -->
<g id="edge8" class="edge">
<title>trans:Rotate2D&#45;&gt;trans:Mapping</title>
<path fill="none" stroke="red" d="M1120,-164.41C1116.02,-162.68 1111.96,-161.07 1108,-159.75 973.96,-114.98 807.53,-96.31 722.93,-89.28"/>
<polygon fill="none" stroke="red" points="723.31,-85.8 713.06,-88.49 722.75,-92.78 723.31,-85.8"/>
</g>
<!-- trans:EulerRotation -->
<g id="node16" class="node">
<title>trans:EulerRotation</title>
<g id="a_node16"><a xlink:href="../trans/EulerRotation" xlink:title="{EulerRotation}">
<polygon fill="#8dd3c7" stroke="black" points="298.5,-164.88 298.5,-200.88 359.5,-200.88 359.5,-164.88 298.5,-164.88"/>
<text text-anchor="middle" x="329" y="-180.28" font-family="Times,serif" font-size="8.00">EulerRotation</text>
</a>
</g>
</g>
<!-- trans:EulerRotation&#45;&gt;trans:Mapping -->
<g id="edge9" class="edge">
<title>trans:EulerRotation&#45;&gt;trans:Mapping</title>
<path fill="none" stroke="red" d="M355.96,-164.61C374.87,-153.26 401.11,-139 426,-130.5 488.47,-109.17 563.66,-97.2 613.48,-91.06"/>
<polygon fill="none" stroke="red" points="613.62,-94.56 623.13,-89.9 612.79,-87.61 613.62,-94.56"/>
</g>
<!-- trans:EulerAngle -->
<g id="node17" class="node">
<title>trans:EulerAngle</title>
<g id="a_node17"><a xlink:href="../trans/EulerAngle" xlink:title="{EulerAngle|+rotationAxis : ivoa:string\l+angle : ivoa:real\l}">
<polygon fill="#8dd3c7" stroke="black" points="281.62,-61.88 281.62,-107.12 382.38,-107.12 382.38,-61.88 281.62,-61.88"/>
<text text-anchor="middle" x="332" y="-95.53" font-family="Times,serif" font-size="8.00">EulerAngle</text>
<polyline fill="none" stroke="black" points="281.62,-89.38 382.38,-89.38"/>
<text text-anchor="start" x="289.62" y="-77.78" font-family="Times,serif" font-size="8.00">+rotationAxis : ivoa:string</text>
<text text-anchor="start" x="289.62" y="-68.03" font-family="Times,serif" font-size="8.00">+angle : ivoa:real</text>
</a>
</g>
</g>
<!-- trans:EulerRotation&#45;&gt;trans:EulerAngle -->
<g id="edge25" class="edge">
<title>trans:EulerRotation&#45;&gt;trans:EulerAngle</title>
<path fill="none" stroke="blue" d="M329.94,-151.81C330.27,-141.23 330.64,-129.29 330.97,-118.48"/>
<polygon fill="blue" stroke="blue" points="329.94,-151.75 333.75,-157.87 329.56,-163.74 325.75,-157.62 329.94,-151.75"/>
<polygon fill="blue" stroke="blue" points="331.28,-108.53 335.47,-118.67 331.17,-112.31 330.97,-118.53 330.97,-118.53 330.97,-118.53 331.17,-112.31 326.47,-118.39 331.28,-108.53"/>
<text text-anchor="middle" x="352.88" y="-132.25" font-family="Times,serif" font-size="10.00">eulerAngle</text>
<text text-anchor="middle" x="323.82" y="-109.07" font-family="Times,serif" font-size="10.00">1..*</text>
</g>
<!-- trans:Matrix -->
<g id="node18" class="node">
<title>trans:Matrix</title>
<g id="a_node18"><a xlink:href="../trans/Matrix" xlink:title="{Matrix|+M : ivoa:nonnegativeInteger\l+N : ivoa:nonnegativeInteger\l}">
<polygon fill="#8dd3c7" stroke="black" points="1350.38,-160.25 1350.38,-205.5 1461.62,-205.5 1461.62,-160.25 1350.38,-160.25"/>
<text text-anchor="middle" x="1406" y="-193.9" font-family="Times,serif" font-size="8.00">Matrix</text>
<polyline fill="none" stroke="black" points="1350.38,-187.75 1461.62,-187.75"/>
<text text-anchor="start" x="1358.38" y="-176.15" font-family="Times,serif" font-size="8.00">+M : ivoa:nonnegativeInteger</text>
<text text-anchor="start" x="1358.38" y="-166.4" font-family="Times,serif" font-size="8.00">+N : ivoa:nonnegativeInteger</text>
</a>
</g>
</g>
<!-- trans:Matrix&#45;&gt;trans:Mapping -->
<g id="edge10" class="edge">
<title>trans:Matrix&#45;&gt;trans:Mapping</title>
<path fill="none" stroke="red" d="M1350.2,-162.02C1347.11,-161.19 1344.03,-160.42 1341,-159.75 1114.98,-109.45 838.32,-92.6 722.77,-87.5"/>
<polygon fill="none" stroke="red" points="723.1,-84.01 712.96,-87.08 722.8,-91 723.1,-84.01"/>
</g>
<!-- trans:MatrixElement -->
<g id="node19" class="node">
<title>trans:MatrixElement</title>
<g id="a_node19"><a xlink:href="../trans/MatrixElement" xlink:title="{MatrixElement|+m : ivoa:nonnegativeInteger\l+n : ivoa:nonnegativeInteger\l+value : ivoa:real\l}">
<polygon fill="#8dd3c7" stroke="black" points="1350.75,-57 1350.75,-112 1461.25,-112 1461.25,-57 1350.75,-57"/>
<text text-anchor="middle" x="1406" y="-100.4" font-family="Times,serif" font-size="8.00">MatrixElement</text>
<polyline fill="none" stroke="black" points="1350.75,-94.25 1461.25,-94.25"/>
<text text-anchor="start" x="1358.75" y="-82.65" font-family="Times,serif" font-size="8.00">+m : ivoa:nonnegativeInteger</text>
<text text-anchor="start" x="1358.75" y="-72.9" font-family="Times,serif" font-size="8.00">+n : ivoa:nonnegativeInteger</text>
<text text-anchor="start" x="1358.75" y="-63.15" font-family="Times,serif" font-size="8.00">+value : ivoa:real</text>
</a>
</g>
</g>
<!-- trans:Matrix&#45;&gt;trans:MatrixElement -->
<g id="edge26" class="edge">
<title>trans:Matrix&#45;&gt;trans:MatrixElement</title>
<path fill="none" stroke="blue" d="M1406,-147.25C1406,-139.55 1406,-131.36 1406,-123.53"/>
<polygon fill="blue" stroke="blue" points="1406,-147.1 1410,-153.1 1406,-159.1 1402,-153.1 1406,-147.1"/>
<polygon fill="blue" stroke="blue" points="1406,-113.66 1410.5,-123.66 1406,-117.44 1406,-123.66 1406,-123.66 1406,-123.66 1406,-117.44 1401.5,-123.66 1406,-113.66"/>
<text text-anchor="middle" x="1422.12" y="-132.25" font-family="Times,serif" font-size="10.00">element</text>
<text text-anchor="middle" x="1398.5" y="-114.19" font-family="Times,serif" font-size="10.00">0..*</text>
</g>
<!-- trans:Projection -->
<g id="node20" class="node">
<title>trans:Projection</title>
<g id="a_node20"><a xlink:href="../trans/Projection" xlink:title="{Projection}">
<polygon fill="#8dd3c7" stroke="black" points="1649,-164.88 1649,-200.88 1703,-200.88 1703,-164.88 1649,-164.88"/>
<text text-anchor="middle" x="1676" y="-180.28" font-family="Times,serif" font-size="8.00">Projection</text>
</a>
</g>
</g>
<!-- trans:Projection&#45;&gt;trans:Mapping -->
<g id="edge11" class="edge">
<title>trans:Projection&#45;&gt;trans:Mapping</title>
<path fill="none" stroke="red" d="M1663.56,-164.43C1653.98,-152.53 1639.58,-137.68 1623,-130.5 1602.23,-121.51 923.35,-95.16 723.08,-87.57"/>
<polygon fill="none" stroke="red" points="723.33,-84.08 713.2,-87.2 723.07,-91.07 723.33,-84.08"/>
</g>
<!-- trans:ProjectionParam -->
<g id="node21" class="node">
<title>trans:ProjectionParam</title>
<g id="a_node21"><a xlink:href="../trans/ProjectionParam" xlink:title="{ProjectionParam|+name : ivoa:string\l+value : ivoa:real\l}">
<polygon fill="#8dd3c7" stroke="black" points="1636.88,-61.88 1636.88,-107.12 1715.12,-107.12 1715.12,-61.88 1636.88,-61.88"/>
<text text-anchor="middle" x="1676" y="-95.53" font-family="Times,serif" font-size="8.00">ProjectionParam</text>
<polyline fill="none" stroke="black" points="1636.88,-89.38 1715.12,-89.38"/>
<text text-anchor="start" x="1644.88" y="-77.78" font-family="Times,serif" font-size="8.00">+name : ivoa:string</text>
<text text-anchor="start" x="1644.88" y="-68.03" font-family="Times,serif" font-size="8.00">+value : ivoa:real</text>
</a>
</g>
</g>
<!-- trans:Projection&#45;&gt;trans:ProjectionParam -->
<g id="edge27" class="edge">
<title>trans:Projection&#45;&gt;trans:ProjectionParam</title>
<path fill="none" stroke="blue" d="M1676,-151.81C1676,-141.23 1676,-129.29 1676,-118.48"/>
<polygon fill="blue" stroke="blue" points="1676,-151.74 1680,-157.74 1676,-163.74 1672,-157.74 1676,-151.74"/>
<polygon fill="blue" stroke="blue" points="1676,-108.53 1680.5,-118.53 1676,-112.32 1676,-118.53 1676,-118.53 1676,-118.53 1676,-112.32 1671.5,-118.53 1676,-108.53"/>
<text text-anchor="middle" x="1688.38" y="-132.25" font-family="Times,serif" font-size="10.00">param</text>
<text text-anchor="middle" x="1668.5" y="-109.07" font-family="Times,serif" font-size="10.00">0..*</text>
</g>
<!-- trans:SkyProjection -->
<g id="node22" class="node">
<title>trans:SkyProjection</title>
<g id="a_node22"><a xlink:href="../trans/SkyProjection" xlink:title="{SkyProjection|+algorithm : trans:SkyProjectionType\l}">
<polygon fill="#8dd3c7" stroke="black" points="1722.62,-263.25 1722.62,-299.25 1859.38,-299.25 1859.38,-263.25 1722.62,-263.25"/>
<text text-anchor="middle" x="1791" y="-287.65" font-family="Times,serif" font-size="8.00">SkyProjection</text>
<polyline fill="none" stroke="black" points="1722.62,-281.5 1859.38,-281.5"/>
<text text-anchor="start" x="1730.62" y="-269.9" font-family="Times,serif" font-size="8.00">+algorithm : trans:SkyProjectionType</text>
</a>
</g>
</g>
<!-- trans:SkyProjection&#45;&gt;trans:Projection -->
<g id="edge12" class="edge">
<title>trans:SkyProjection&#45;&gt;trans:Projection</title>
<path fill="none" stroke="red" d="M1770.17,-262.8C1752.1,-247.65 1725.73,-225.55 1705.49,-208.59"/>
<polygon fill="none" stroke="red" points="1707.74,-205.91 1697.83,-202.17 1703.25,-211.28 1707.74,-205.91"/>
</g>
<!-- trans:SkyProjRotate -->
<g id="node23" class="node">
<title>trans:SkyProjRotate</title>
<g id="a_node23"><a xlink:href="../trans/SkyProjRotate" xlink:title="{SkyProjRotate|+referenceValue : ivoa:real\l}">
<polygon fill="#8dd3c7" stroke="black" points="1738.38,-472.25 1738.38,-508.25 1843.62,-508.25 1843.62,-472.25 1738.38,-472.25"/>
<text text-anchor="middle" x="1791" y="-496.65" font-family="Times,serif" font-size="8.00">SkyProjRotate</text>
<polyline fill="none" stroke="black" points="1738.38,-490.5 1843.62,-490.5"/>
<text text-anchor="start" x="1746.38" y="-478.9" font-family="Times,serif" font-size="8.00">+referenceValue : ivoa:real</text>
</a>
</g>
</g>
<!-- trans:SkyProjRotate&#45;&gt;trans:SkyProjection -->
<g id="edge13" class="edge">
<title>trans:SkyProjRotate&#45;&gt;trans:SkyProjection</title>
<path fill="none" stroke="red" d="M1791,-471.96C1791,-436.42 1791,-354.84 1791,-311.14"/>
<polygon fill="none" stroke="red" points="1794.5,-311.15 1791,-301.15 1787.5,-311.15 1794.5,-311.15"/>
</g>
<!-- trans:SpectralProjection -->
<g id="node24" class="node">
<title>trans:SpectralProjection</title>
<g id="a_node24"><a xlink:href="../trans/SpectralProjection" xlink:title="{SpectralProjection|+referenceValue : ivoa:real\l+algorithm : trans:SpectralProjectionType\l+coordType : trans:SpectralCoordType\l}">
<polygon fill="#8dd3c7" stroke="black" points="1553.12,-253.75 1553.12,-308.75 1704.88,-308.75 1704.88,-253.75 1553.12,-253.75"/>
<text text-anchor="middle" x="1629" y="-297.15" font-family="Times,serif" font-size="8.00">SpectralProjection</text>
<polyline fill="none" stroke="black" points="1553.12,-291 1704.88,-291"/>
<text text-anchor="start" x="1561.12" y="-279.4" font-family="Times,serif" font-size="8.00">+referenceValue : ivoa:real</text>
<text text-anchor="start" x="1561.12" y="-269.65" font-family="Times,serif" font-size="8.00">+algorithm : trans:SpectralProjectionType</text>
<text text-anchor="start" x="1561.12" y="-259.9" font-family="Times,serif" font-size="8.00">+coordType : trans:SpectralCoordType</text>
</a>
</g>
</g>
<!-- trans:SpectralProjection&#45;&gt;trans:Projection -->
<g id="edge14" class="edge">
<title>trans:SpectralProjection&#45;&gt;trans:Projection</title>
<path fill="none" stroke="red" d="M1642.09,-253.4C1648.52,-240.22 1656.25,-224.36 1662.71,-211.13"/>
<polygon fill="none" stroke="red" points="1665.66,-213.05 1666.9,-202.53 1659.37,-209.99 1665.66,-213.05"/>
</g>
<!-- trans:Polynomial -->
<g id="node25" class="node">
<title>trans:Polynomial</title>
<g id="a_node25"><a xlink:href="../trans/Polynomial" xlink:title="{Polynomial|+order : ivoa:nonnegativeInteger\l}">
<polygon fill="#8dd3c7" stroke="black" points="578.12,-164.88 578.12,-200.88 699.88,-200.88 699.88,-164.88 578.12,-164.88"/>
<text text-anchor="middle" x="639" y="-189.28" font-family="Times,serif" font-size="8.00">Polynomial</text>
<polyline fill="none" stroke="black" points="578.12,-183.12 699.88,-183.12"/>
<text text-anchor="start" x="586.12" y="-171.53" font-family="Times,serif" font-size="8.00">+order : ivoa:nonnegativeInteger</text>
</a>
</g>
</g>
<!-- trans:Polynomial&#45;&gt;trans:Mapping -->
<g id="edge15" class="edge">
<title>trans:Polynomial&#45;&gt;trans:Mapping</title>
<path fill="none" stroke="red" d="M647.78,-164.64C651.04,-157.67 654.55,-149.46 657,-141.75 659.81,-132.91 662.03,-123.06 663.72,-114.1"/>
<polygon fill="none" stroke="red" points="667.12,-114.93 665.38,-104.48 660.23,-113.74 667.12,-114.93"/>
</g>
<!-- trans:Polynomial1D -->
<g id="node26" class="node">
<title>trans:Polynomial1D</title>
<g id="a_node26"><a xlink:href="../trans/Polynomial1D" xlink:title="{Polynomial1D}">
<polygon fill="#8dd3c7" stroke="black" points="708.12,-263.25 708.12,-299.25 769.88,-299.25 769.88,-263.25 708.12,-263.25"/>
<text text-anchor="middle" x="739" y="-278.65" font-family="Times,serif" font-size="8.00">Polynomial1D</text>
</a>
</g>
</g>
<!-- trans:Polynomial1D&#45;&gt;trans:Polynomial -->
<g id="edge16" class="edge">
<title>trans:Polynomial1D&#45;&gt;trans:Polynomial</title>
<path fill="none" stroke="red" d="M721.12,-263.02C705.58,-248.04 682.85,-226.13 665.24,-209.16"/>
<polygon fill="none" stroke="red" points="667.78,-206.75 658.15,-202.33 662.92,-211.79 667.78,-206.75"/>
</g>
<!-- trans:PolyCoeff1D -->
<g id="node27" class="node">
<title>trans:PolyCoeff1D</title>
<g id="a_node27"><a xlink:href="../trans/PolyCoeff1D" xlink:title="{PolyCoeff1D|+coeff : ivoa:real\l+power : ivoa:nonnegativeInteger\l}">
<polygon fill="#8dd3c7" stroke="black" points="717.62,-160.25 717.62,-205.5 842.38,-205.5 842.38,-160.25 717.62,-160.25"/>
<text text-anchor="middle" x="780" y="-193.9" font-family="Times,serif" font-size="8.00">PolyCoeff1D</text>
<polyline fill="none" stroke="black" points="717.62,-187.75 842.38,-187.75"/>
<text text-anchor="start" x="725.62" y="-176.15" font-family="Times,serif" font-size="8.00">+coeff : ivoa:real</text>
<text text-anchor="start" x="725.62" y="-166.4" font-family="Times,serif" font-size="8.00">+power : ivoa:nonnegativeInteger</text>
</a>
</g>
</g>
<!-- trans:Polynomial1D&#45;&gt;trans:PolyCoeff1D -->
<g id="edge28" class="edge">
<title>trans:Polynomial1D&#45;&gt;trans:PolyCoeff1D</title>
<path fill="none" stroke="blue" d="M751.41,-251.08C756.17,-239.9 761.61,-227.1 766.46,-215.69"/>
<polygon fill="blue" stroke="blue" points="751.38,-251.15 752.71,-258.24 746.68,-262.19 745.35,-255.1 751.38,-251.15"/>
<polygon fill="blue" stroke="blue" points="770.24,-206.81 770.47,-217.78 768.76,-210.29 766.33,-216.01 766.33,-216.01 766.33,-216.01 768.76,-210.29 762.19,-214.25 770.24,-206.81"/>
<text text-anchor="middle" x="770" y="-225.75" font-family="Times,serif" font-size="10.00">term</text>
<text text-anchor="middle" x="763.22" y="-207.44" font-family="Times,serif" font-size="10.00">1..*</text>
</g>
<!-- trans:Polynomial2D -->
<g id="node28" class="node">
<title>trans:Polynomial2D</title>
<g id="a_node28"><a xlink:href="../trans/Polynomial2D" xlink:title="{Polynomial2D}">
<polygon fill="#8dd3c7" stroke="black" points="1121.12,-263.25 1121.12,-299.25 1182.88,-299.25 1182.88,-263.25 1121.12,-263.25"/>
<text text-anchor="middle" x="1152" y="-278.65" font-family="Times,serif" font-size="8.00">Polynomial2D</text>
</a>
</g>
</g>
<!-- trans:Polynomial2D&#45;&gt;trans:Polynomial -->
<g id="edge17" class="edge">
<title>trans:Polynomial2D&#45;&gt;trans:Polynomial</title>
<path fill="none" stroke="red" d="M1120.82,-276.55C1048.04,-267.59 861.59,-242.71 709,-206 706.86,-205.49 704.7,-204.94 702.51,-204.37"/>
<polygon fill="none" stroke="red" points="703.55,-201.03 692.98,-201.75 701.7,-207.78 703.55,-201.03"/>
</g>
<!-- trans:PolyCoeff2D -->
<g id="node29" class="node">
<title>trans:PolyCoeff2D</title>
<g id="a_node29"><a xlink:href="../trans/PolyCoeff2D" xlink:title="{PolyCoeff2D|+coeff : ivoa:real\l+power : ivoa:nonnegativeInteger\l}">
<polygon fill="#8dd3c7" stroke="black" points="1207.62,-160.25 1207.62,-205.5 1332.38,-205.5 1332.38,-160.25 1207.62,-160.25"/>
<text text-anchor="middle" x="1270" y="-193.9" font-family="Times,serif" font-size="8.00">PolyCoeff2D</text>
<polyline fill="none" stroke="black" points="1207.62,-187.75 1332.38,-187.75"/>
<text text-anchor="start" x="1215.62" y="-176.15" font-family="Times,serif" font-size="8.00">+coeff : ivoa:real</text>
<text text-anchor="start" x="1215.62" y="-166.4" font-family="Times,serif" font-size="8.00">+power : ivoa:nonnegativeInteger</text>
</a>
</g>
</g>
<!-- trans:Polynomial2D&#45;&gt;trans:PolyCoeff2D -->
<g id="edge29" class="edge">
<title>trans:Polynomial2D&#45;&gt;trans:PolyCoeff2D</title>
<path fill="none" stroke="blue" d="M1183.41,-254.6C1199.07,-241.81 1218.08,-226.28 1234.3,-213.03"/>
<polygon fill="blue" stroke="blue" points="1183.36,-254.64 1181.24,-261.53 1174.07,-262.23 1176.18,-255.33 1183.36,-254.64"/>
<polygon fill="blue" stroke="blue" points="1242.04,-206.71 1237.14,-216.52 1239.11,-209.1 1234.29,-213.04 1234.29,-213.04 1234.29,-213.04 1239.11,-209.1 1231.45,-209.55 1242.04,-206.71"/>
<text text-anchor="middle" x="1227" y="-225.75" font-family="Times,serif" font-size="10.00">term</text>
<text text-anchor="middle" x="1235.48" y="-207.69" font-family="Times,serif" font-size="10.00">1..*</text>
</g>
<!-- trans:Lookup -->
<g id="node30" class="node">
<title>trans:Lookup</title>
<g id="a_node30"><a xlink:href="../trans/Lookup" xlink:title="{Lookup|+interpolation : trans:InterpolationMethod\l+bounds_error : ivoa:boolean\l}">
<polygon fill="#8dd3c7" stroke="black" points="1479.5,-160.25 1479.5,-205.5 1630.5,-205.5 1630.5,-160.25 1479.5,-160.25"/>
<text text-anchor="middle" x="1555" y="-193.9" font-family="Times,serif" font-size="8.00">Lookup</text>
<polyline fill="none" stroke="black" points="1479.5,-187.75 1630.5,-187.75"/>
<text text-anchor="start" x="1487.5" y="-176.15" font-family="Times,serif" font-size="8.00">+interpolation : trans:InterpolationMethod</text>
<text text-anchor="start" x="1487.5" y="-166.4" font-family="Times,serif" font-size="8.00">+bounds_error : ivoa:boolean</text>
</a>
</g>
</g>
<!-- trans:Lookup&#45;&gt;trans:Mapping -->
<g id="edge18" class="edge">
<title>trans:Lookup&#45;&gt;trans:Mapping</title>
<path fill="none" stroke="red" d="M1516.03,-159.83C1494.82,-148.97 1467.73,-136.86 1442,-130.5 1305.42,-96.73 875.76,-88.11 722.76,-86.08"/>
<polygon fill="none" stroke="red" points="722.94,-82.58 712.89,-85.95 722.85,-89.58 722.94,-82.58"/>
</g>
<!-- trans:LookupEntry -->
<g id="node31" class="node">
<title>trans:LookupEntry</title>
<g id="a_node31"><a xlink:href="../trans/LookupEntry" xlink:title="{LookupEntry|+fill : ivoa:boolean\l}">
<polygon fill="#8dd3c7" stroke="black" points="1786.25,-66.5 1786.25,-102.5 1863.75,-102.5 1863.75,-66.5 1786.25,-66.5"/>
<text text-anchor="middle" x="1825" y="-90.9" font-family="Times,serif" font-size="8.00">LookupEntry</text>
<polyline fill="none" stroke="black" points="1786.25,-84.75 1863.75,-84.75"/>
<text text-anchor="start" x="1794.25" y="-73.15" font-family="Times,serif" font-size="8.00">+fill : ivoa:boolean</text>
</a>
</g>
</g>
<!-- trans:Lookup&#45;&gt;trans:LookupEntry -->
<g id="edge30" class="edge">
<title>trans:Lookup&#45;&gt;trans:LookupEntry</title>
<path fill="none" stroke="blue" d="M1577.96,-149.95C1584.86,-142.45 1593.02,-135.27 1602,-130.5 1650.41,-104.79 1670.33,-123.6 1724,-112.5 1740.91,-109 1759.21,-104.38 1775.52,-99.94"/>
<polygon fill="blue" stroke="blue" points="1577.97,-149.94 1577.16,-157.11 1570.23,-159.12 1571.04,-151.95 1577.97,-149.94"/>
<polygon fill="blue" stroke="blue" points="1784.74,-97.39 1776.3,-104.39 1781.1,-98.4 1775.11,-100.06 1775.11,-100.06 1775.11,-100.06 1781.1,-98.4 1773.91,-95.72 1784.74,-97.39"/>
<text text-anchor="middle" x="1612.5" y="-132.25" font-family="Times,serif" font-size="10.00">entry</text>
<text text-anchor="middle" x="1778.42" y="-98.82" font-family="Times,serif" font-size="10.00">1..*</text>
</g>
<!-- trans:NumericEntry -->
<g id="node32" class="node">
<title>trans:NumericEntry</title>
<g id="a_node32"><a xlink:href="../trans/NumericEntry" xlink:title="{NumericEntry|+nativeValue : ivoa:real\l+targetValue : ivoa:real\l}">
<polygon fill="#8dd3c7" stroke="black" points="1721.38,-160.25 1721.38,-205.5 1814.62,-205.5 1814.62,-160.25 1721.38,-160.25"/>
<text text-anchor="middle" x="1768" y="-193.9" font-family="Times,serif" font-size="8.00">NumericEntry</text>
<polyline fill="none" stroke="black" points="1721.38,-187.75 1814.62,-187.75"/>
<text text-anchor="start" x="1729.38" y="-176.15" font-family="Times,serif" font-size="8.00">+nativeValue : ivoa:real</text>
<text text-anchor="start" x="1729.38" y="-166.4" font-family="Times,serif" font-size="8.00">+targetValue : ivoa:real</text>
</a>
</g>
</g>
<!-- trans:NumericEntry&#45;&gt;trans:LookupEntry -->
<g id="edge19" class="edge">
<title>trans:NumericEntry&#45;&gt;trans:LookupEntry</title>
<path fill="none" stroke="red" d="M1780.93,-160.01C1789.26,-145.93 1800.14,-127.53 1809.01,-112.53"/>
<polygon fill="none" stroke="red" points="1811.92,-114.48 1814,-104.1 1805.9,-110.92 1811.92,-114.48"/>
</g>
<!-- trans:NumericEntry2D -->
<g id="node33" class="node">
<title>trans:NumericEntry2D</title>
<g id="a_node33"><a xlink:href="../trans/NumericEntry2D" xlink:title="{NumericEntry2D|+nativeValue : ivoa:real\l+targetValue : ivoa:real\l}">
<polygon fill="#8dd3c7" stroke="black" points="1832.38,-160.25 1832.38,-205.5 1925.62,-205.5 1925.62,-160.25 1832.38,-160.25"/>
<text text-anchor="middle" x="1879" y="-193.9" font-family="Times,serif" font-size="8.00">NumericEntry2D</text>
<polyline fill="none" stroke="black" points="1832.38,-187.75 1925.62,-187.75"/>
<text text-anchor="start" x="1840.38" y="-176.15" font-family="Times,serif" font-size="8.00">+nativeValue : ivoa:real</text>
<text text-anchor="start" x="1840.38" y="-166.4" font-family="Times,serif" font-size="8.00">+targetValue : ivoa:real</text>
</a>
</g>
</g>
<!-- trans:NumericEntry2D&#45;&gt;trans:LookupEntry -->
<g id="edge20" class="edge">
<title>trans:NumericEntry2D&#45;&gt;trans:LookupEntry</title>
<path fill="none" stroke="red" d="M1866.75,-160.01C1858.86,-145.93 1848.55,-127.53 1840.15,-112.53"/>
<polygon fill="none" stroke="red" points="1843.37,-111.13 1835.43,-104.11 1837.26,-114.55 1843.37,-111.13"/>
</g>
<!-- trans:StringEntry -->
<g id="node34" class="node">
<title>trans:StringEntry</title>
<g id="a_node34"><a xlink:href="../trans/StringEntry" xlink:title="{StringEntry|+nativeValue : ivoa:integer\l+targetValue : ivoa:string\l}">
<polygon fill="#8dd3c7" stroke="black" points="1943.5,-160.25 1943.5,-205.5 2046.5,-205.5 2046.5,-160.25 1943.5,-160.25"/>
<text text-anchor="middle" x="1995" y="-193.9" font-family="Times,serif" font-size="8.00">StringEntry</text>
<polyline fill="none" stroke="black" points="1943.5,-187.75 2046.5,-187.75"/>
<text text-anchor="start" x="1951.5" y="-176.15" font-family="Times,serif" font-size="8.00">+nativeValue : ivoa:integer</text>
<text text-anchor="start" x="1951.5" y="-166.4" font-family="Times,serif" font-size="8.00">+targetValue : ivoa:string</text>
</a>
</g>
</g>
<!-- trans:StringEntry&#45;&gt;trans:LookupEntry -->
<g id="edge21" class="edge">
<title>trans:StringEntry&#45;&gt;trans:LookupEntry</title>
<path fill="none" stroke="red" d="M1956,-159.76C1928.85,-144.37 1892.73,-123.9 1865.3,-108.35"/>
<polygon fill="none" stroke="red" points="1867.36,-105.49 1856.94,-103.61 1863.91,-111.58 1867.36,-105.49"/>
</g>
<!-- trans:TransformSet -->
<g id="node35" class="node">
<title>trans:TransformSet</title>
<g id="a_node35"><a xlink:href="../trans/TransformSet" xlink:title="{TransformSet}">
<polygon fill="#8dd3c7" stroke="black" points="5.25,-263.25 5.25,-299.25 64.75,-299.25 64.75,-263.25 5.25,-263.25"/>
<text text-anchor="middle" x="35" y="-278.65" font-family="Times,serif" font-size="8.00">TransformSet</text>
</a>
</g>
</g>
<!-- trans:TransNode -->
<g id="node36" class="node">
<title>trans:TransNode</title>
<g id="a_node36"><a xlink:href="../trans/TransNode" xlink:title="{TransNode}">
<polygon fill="#8dd3c7" stroke="black" points="8,-164.88 8,-200.88 62,-200.88 62,-164.88 8,-164.88"/>
<text text-anchor="middle" x="34.75" y="-180.28" font-family="Times,serif" font-size="8.00">TransNode</text>
</a>
</g>
</g>
<!-- trans:TransformSet&#45;&gt;trans:TransNode -->
<g id="edge31" class="edge">
<title>trans:TransformSet&#45;&gt;trans:TransNode</title>
<path fill="none" stroke="blue" d="M35,-250.43C35,-238.33 35,-224.42 35,-212.46"/>
<polygon fill="blue" stroke="blue" points="35,-250.12 39,-256.12 35,-262.12 31,-256.12 35,-250.12"/>
<polygon fill="blue" stroke="blue" points="35,-202.5 39.5,-212.5 35,-206.28 35,-212.5 35,-212.5 35,-212.5 35,-206.28 30.5,-212.5 35,-202.5"/>
<text text-anchor="middle" x="45.12" y="-225.75" font-family="Times,serif" font-size="10.00">node</text>
<text text-anchor="middle" x="27.5" y="-203.03" font-family="Times,serif" font-size="10.00">1..*</text>
</g>
<!-- trans:TransNode&#45;&gt;coords:CoordSys -->
<g id="edge33" class="edge">
<title>trans:TransNode&#45;&gt;coords:CoordSys</title>
<path fill="none" stroke="green" d="M35,-164.65C35,-150.62 35,-130.52 35,-114.08"/>
<polygon fill="green" stroke="green" points="35,-104.12 39.5,-114.12 35,-107.91 35,-114.12 35,-114.12 35,-114.12 35,-107.91 30.5,-114.12 35,-104.12"/>
<text text-anchor="middle" x="46.62" y="-132.25" font-family="Times,serif" font-size="10.00">target</text>
<text text-anchor="middle" x="27.5" y="-104.66" font-family="Times,serif" font-size="10.00">0..1</text>
</g>
<!-- trans:TransNode&#45;&gt;trans:Mapping -->
<g id="edge34" class="edge">
<title>trans:TransNode&#45;&gt;trans:Mapping</title>
<path fill="none" stroke="green" d="M62.24,-167.4C86.41,-155.29 123.05,-138.72 157,-130.5 258.38,-105.94 287.09,-121.56 391,-112.5 468.23,-105.77 557.46,-96.87 613.31,-91.16"/>
<polygon fill="green" stroke="green" points="623.16,-90.15 613.67,-95.65 619.39,-90.54 613.21,-91.17 613.21,-91.17 613.21,-91.17 619.39,-90.54 612.75,-86.7 623.16,-90.15"/>
<text text-anchor="middle" x="175" y="-132.25" font-family="Times,serif" font-size="10.00">mapping</text>
<text text-anchor="middle" x="616.87" y="-80.53" font-family="Times,serif" font-size="10.00">0..1</text>
</g>
<!-- trans:TransNode&#45;&gt;trans:TransNode -->
<g id="edge32" class="edge">
<title>trans:TransNode&#45;&gt;trans:TransNode</title>
<path fill="none" stroke="green" d="M62.24,-191.63C72.02,-191.82 80,-188.9 80,-182.88 80,-179.39 77.33,-176.95 73.19,-175.54"/>
<polygon fill="green" stroke="green" points="63.45,-174.27 73.94,-171.1 67.2,-174.76 73.37,-175.56 73.37,-175.56 73.37,-175.56 67.2,-174.76 72.79,-180.02 63.45,-174.27"/>
<text text-anchor="middle" x="92.75" y="-179" font-family="Times,serif" font-size="10.00">parent</text>
<text text-anchor="middle" x="69.74" y="-175.87" font-family="Times,serif" font-size="10.00">0..1</text>
</g>
<!-- trans:MapRef&#45;&gt;trans:Mapping -->
<g id="edge35" class="edge">
<title>trans:MapRef&#45;&gt;trans:Mapping</title>
<path fill="none" stroke="green" d="M413.71,-164.42C420.32,-152.99 430.49,-138.71 443.5,-130.5 495.01,-98.01 565.28,-88.29 613.4,-85.72"/>
<polygon fill="green" stroke="green" points="623.31,-85.29 613.52,-90.22 619.53,-85.45 613.32,-85.73 613.32,-85.73 613.32,-85.73 619.53,-85.45 613.12,-81.23 623.31,-85.29"/>
<text text-anchor="middle" x="448.25" y="-132.25" font-family="Times,serif" font-size="10.00">ref</text>
<text text-anchor="middle" x="621.9" y="-86.99" font-family="Times,serif" font-size="10.00">1</text>
</g>
<!-- trans:BiDirectionalMap -->
<g id="node38" class="node">
<title>trans:BiDirectionalMap</title>
<g id="a_node38"><a xlink:href="../trans/BiDirectionalMap" xlink:title="{BiDirectionalMap}">
<polygon fill="#8dd3c7" stroke="black" points="485.75,-164.88 485.75,-200.88 560.25,-200.88 560.25,-164.88 485.75,-164.88"/>
<text text-anchor="middle" x="523" y="-180.28" font-family="Times,serif" font-size="8.00">BiDirectionalMap</text>
</a>
</g>
</g>
<!-- trans:BiDirectionalMap&#45;&gt;trans:Mapping -->
<g id="edge22" class="edge">
<title>trans:BiDirectionalMap&#45;&gt;trans:Mapping</title>
<path fill="none" stroke="red" d="M557.63,-164.42C561.42,-162.74 565.27,-161.15 569,-159.75 597.06,-149.21 610.11,-159.86 634,-141.75 643.65,-134.43 651.14,-123.52 656.61,-113.24"/>
<polygon fill="none" stroke="red" points="659.73,-114.83 660.92,-104.31 653.42,-111.79 659.73,-114.83"/>
</g>
<!-- trans:BiDirectionalMap&#45;&gt;trans:Mapping -->
<g id="edge36" class="edge">
<title>trans:BiDirectionalMap&#45;&gt;trans:Mapping</title>
<path fill="none" stroke="green" d="M513.37,-164.63C508.77,-153.86 505.69,-140.24 513,-130.5 525.27,-114.17 573.83,-101.84 613.38,-94.26"/>
<polygon fill="green" stroke="green" points="623.05,-92.47 614.04,-98.71 619.33,-93.15 613.22,-94.29 613.22,-94.29 613.22,-94.29 619.33,-93.15 612.4,-89.86 623.05,-92.47"/>
<text text-anchor="middle" x="537" y="-132.25" font-family="Times,serif" font-size="10.00">inverseMap</text>
<text text-anchor="middle" x="621.63" y="-93.99" font-family="Times,serif" font-size="10.00">1</text>
</g>
<!-- trans:BiDirectionalMap&#45;&gt;trans:Mapping -->
<g id="edge37" class="edge">
<title>trans:BiDirectionalMap&#45;&gt;trans:Mapping</title>
<path fill="none" stroke="green" d="M539.88,-164.4C550.67,-153.81 565.31,-140.46 579.75,-130.5 591.82,-122.18 605.64,-114.4 618.71,-107.74"/>
<polygon fill="green" stroke="green" points="627.42,-103.41 620.47,-111.89 624.03,-105.1 618.46,-107.86 618.46,-107.86 618.46,-107.86 624.03,-105.1 616.46,-103.83 627.42,-103.41"/>
<text text-anchor="middle" x="604.12" y="-132.25" font-family="Times,serif" font-size="10.00">forwardMap</text>
<text text-anchor="middle" x="625.89" y="-104.62" font-family="Times,serif" font-size="10.00">1</text>
</g>
</g>
</svg>
