<?xml version="1.0" encoding="UTF-8" standalone="no"?>
<!DOCTYPE svg PUBLIC "-//W3C//DTD SVG 1.1//EN"
 "http://www.w3.org/Graphics/SVG/1.1/DTD/svg11.dtd">
<!-- Generated by graphviz version 11.0.0 (20240428.1522)
 -->
<!-- Title: GVmap Pages: 1 -->
<svg width="619pt" height="772pt"
 viewBox="0.00 0.00 618.75 772.25" xmlns="http://www.w3.org/2000/svg" xmlns:xlink="http://www.w3.org/1999/xlink">
<g id="graph0" class="graph" transform="scale(1 1) rotate(0) translate(4 768.25)">
<title>GVmap</title>
<polygon fill="white" stroke="none" points="-4,4 -4,-768.25 614.75,-768.25 614.75,4 -4,4"/>
<text text-anchor="middle" x="305.38" y="-7.2" font-family="Times,serif" font-size="14.00">uws data model</text>
<!-- uws:JobIdentifier -->
<g id="node1" class="node">
<title>uws:JobIdentifier</title>
<g id="a_node1"><a xlink:href="../uws/JobIdentifier" xlink:title="{&amp;lt;&amp;lt;primitive type&amp;gt;&amp;gt;\nJobIdentifier}">
<polygon fill="#8dd3c7" stroke="black" points="0,-679.25 0,-715.25 79,-715.25 79,-679.25 0,-679.25"/>
<text text-anchor="middle" x="39.5" y="-699.65" font-family="Times,serif" font-size="8.00">&lt;&lt;primitive type&gt;&gt;</text>
<text text-anchor="middle" x="39.5" y="-689.9" font-family="Times,serif" font-size="8.00">JobIdentifier</text>
</a>
</g>
</g>
<!-- uws:UWSVersion -->
<g id="node2" class="node">
<title>uws:UWSVersion</title>
<g id="a_node2"><a xlink:href="../uws/UWSVersion" xlink:title="{&amp;lt;&amp;lt;primitive type&amp;gt;&amp;gt;\nUWSVersion}">
<polygon fill="#8dd3c7" stroke="black" points="97,-679.25 97,-715.25 176,-715.25 176,-679.25 97,-679.25"/>
<text text-anchor="middle" x="136.5" y="-699.65" font-family="Times,serif" font-size="8.00">&lt;&lt;primitive type&gt;&gt;</text>
<text text-anchor="middle" x="136.5" y="-689.9" font-family="Times,serif" font-size="8.00">UWSVersion</text>
</a>
</g>
</g>
<!-- uws:ExecutionPhase -->
<g id="node3" class="node">
<title>uws:ExecutionPhase</title>
<g id="a_node3"><a xlink:href="../uws/ExecutionPhase" xlink:title="{&amp;lt;&amp;lt;enumeration&amp;gt;&amp;gt;\nExecutionPhase|+PENDING\l+QUEUED\l+EXECUTING\l+COMPLETED\l+ERROR\l+UNKNOWN\l+HELD\l+SUSPENDED\l+ABORTED\l+ARCHIVED\l}">
<polygon fill="#8dd3c7" stroke="black" points="193.62,-630.75 193.62,-763.75 267.38,-763.75 267.38,-630.75 193.62,-630.75"/>
<text text-anchor="middle" x="230.5" y="-752.15" font-family="Times,serif" font-size="8.00">&lt;&lt;enumeration&gt;&gt;</text>
<text text-anchor="middle" x="230.5" y="-742.4" font-family="Times,serif" font-size="8.00">ExecutionPhase</text>
<polyline fill="none" stroke="black" points="193.62,-736.25 267.38,-736.25"/>
<text text-anchor="start" x="201.62" y="-724.65" font-family="Times,serif" font-size="8.00">+PENDING</text>
<text text-anchor="start" x="201.62" y="-714.9" font-family="Times,serif" font-size="8.00">+QUEUED</text>
<text text-anchor="start" x="201.62" y="-705.15" font-family="Times,serif" font-size="8.00">+EXECUTING</text>
<text text-anchor="start" x="201.62" y="-695.4" font-family="Times,serif" font-size="8.00">+COMPLETED</text>
<text text-anchor="start" x="201.62" y="-685.65" font-family="Times,serif" font-size="8.00">+ERROR</text>
<text text-anchor="start" x="201.62" y="-675.9" font-family="Times,serif" font-size="8.00">+UNKNOWN</text>
<text text-anchor="start" x="201.62" y="-666.15" font-family="Times,serif" font-size="8.00">+HELD</text>
<text text-anchor="start" x="201.62" y="-656.4" font-family="Times,serif" font-size="8.00">+SUSPENDED</text>
<text text-anchor="start" x="201.62" y="-646.65" font-family="Times,serif" font-size="8.00">+ABORTED</text>
<text text-anchor="start" x="201.62" y="-636.9" font-family="Times,serif" font-size="8.00">+ARCHIVED</text>
</a>
</g>
</g>
<!-- uws:ErrorType -->
<g id="node4" class="node">
<title>uws:ErrorType</title>
<g id="a_node4"><a xlink:href="../uws/ErrorType" xlink:title="{&amp;lt;&amp;lt;enumeration&amp;gt;&amp;gt;\nErrorType|+transient\l+fatal\l}">
<polygon fill="#8dd3c7" stroke="black" points="285.62,-669.75 285.62,-724.75 359.38,-724.75 359.38,-669.75 285.62,-669.75"/>
<text text-anchor="middle" x="322.5" y="-713.15" font-family="Times,serif" font-size="8.00">&lt;&lt;enumeration&gt;&gt;</text>
<text text-anchor="middle" x="322.5" y="-703.4" font-family="Times,serif" font-size="8.00">ErrorType</text>
<polyline fill="none" stroke="black" points="285.62,-697.25 359.38,-697.25"/>
<text text-anchor="start" x="293.62" y="-685.65" font-family="Times,serif" font-size="8.00">+transient</text>
<text text-anchor="start" x="293.62" y="-675.9" font-family="Times,serif" font-size="8.00">+fatal</text>
</a>
</g>
</g>
<!-- uws:jobInfo -->
<g id="node5" class="node">
<title>uws:jobInfo</title>
<g id="a_node5"><a xlink:href="../uws/jobInfo" xlink:title="{jobInfo}">
<polygon fill="#8dd3c7" stroke="black" points="296.5,-169.75 296.5,-205.75 350.5,-205.75 350.5,-169.75 296.5,-169.75"/>
<text text-anchor="middle" x="323.12" y="-185.15" font-family="Times,serif" font-size="8.00">jobInfo</text>
</a>
</g>
</g>
<!-- uws:jobs -->
<g id="node6" class="node">
<title>uws:jobs</title>
<g id="a_node6"><a xlink:href="../uws/jobs" xlink:title="{jobs|+version : uws:UWSVersion\l}">
<polygon fill="#8dd3c7" stroke="black" points="377.75,-679.25 377.75,-715.25 485.25,-715.25 485.25,-679.25 377.75,-679.25"/>
<text text-anchor="middle" x="431.5" y="-703.65" font-family="Times,serif" font-size="8.00">jobs</text>
<polyline fill="none" stroke="black" points="377.75,-697.5 485.25,-697.5"/>
<text text-anchor="start" x="385.75" y="-685.9" font-family="Times,serif" font-size="8.00">+version : uws:UWSVersion</text>
</a>
</g>
</g>
<!-- uws:ShortJobDescription -->
<g id="node9" class="node">
<title>uws:ShortJobDescription</title>
<g id="a_node9"><a xlink:href="../uws/ShortJobDescription" xlink:title="{ShortJobDescription|+phase : uws:ExecutionPhase\l+runId : ivoa:string\l+ownerId : ivoa:string\l+creationTime : ivoa:datetime\l}">
<polygon fill="#8dd3c7" stroke="black" points="374.75,-517.75 374.75,-582.5 488.25,-582.5 488.25,-517.75 374.75,-517.75"/>
<text text-anchor="middle" x="431.5" y="-570.9" font-family="Times,serif" font-size="8.00">ShortJobDescription</text>
<polyline fill="none" stroke="black" points="374.75,-564.75 488.25,-564.75"/>
<text text-anchor="start" x="382.75" y="-553.15" font-family="Times,serif" font-size="8.00">+phase : uws:ExecutionPhase</text>
<text text-anchor="start" x="382.75" y="-543.4" font-family="Times,serif" font-size="8.00">+runId : ivoa:string</text>
<text text-anchor="start" x="382.75" y="-533.65" font-family="Times,serif" font-size="8.00">+ownerId : ivoa:string</text>
<text text-anchor="start" x="382.75" y="-523.9" font-family="Times,serif" font-size="8.00">+creationTime : ivoa:datetime</text>
</a>
</g>
</g>
<!-- uws:jobs&#45;&gt;uws:ShortJobDescription -->
<g id="edge2" class="edge">
<title>uws:jobs&#45;&gt;uws:ShortJobDescription</title>
<path fill="none" stroke="blue" d="M431.5,-666.32C431.5,-645.39 431.5,-617.13 431.5,-593.84"/>
<polygon fill="blue" stroke="blue" points="431.5,-666.13 435.5,-672.13 431.5,-678.13 427.5,-672.13 431.5,-666.13"/>
<polygon fill="blue" stroke="blue" points="431.5,-584.08 436,-594.08 431.5,-587.86 431.5,-594.08 431.5,-594.08 431.5,-594.08 431.5,-587.86 427,-594.08 431.5,-584.08"/>
<text text-anchor="middle" x="443.5" y="-602.75" font-family="Times,serif" font-size="10.00">jobref</text>
<text text-anchor="middle" x="424" y="-584.61" font-family="Times,serif" font-size="10.00">0..*</text>
</g>
<!-- uws:results -->
<g id="node7" class="node">
<title>uws:results</title>
<g id="a_node7"><a xlink:href="../uws/results" xlink:title="{results}">
<polygon fill="#8dd3c7" stroke="black" points="368.5,-169.75 368.5,-205.75 422.5,-205.75 422.5,-169.75 368.5,-169.75"/>
<text text-anchor="middle" x="395.5" y="-185.15" font-family="Times,serif" font-size="8.00">results</text>
</a>
</g>
</g>
<!-- uws:ResultReference -->
<g id="node12" class="node">
<title>uws:ResultReference</title>
<g id="a_node12"><a xlink:href="../uws/ResultReference" xlink:title="{ResultReference|+id : ivoa:string\l+size : ivoa:integer\l+mime_type : ivoa:string\l}">
<polygon fill="#8dd3c7" stroke="black" points="323.38,-57 323.38,-112 419.62,-112 419.62,-57 323.38,-57"/>
<text text-anchor="middle" x="371.5" y="-100.4" font-family="Times,serif" font-size="8.00">ResultReference</text>
<polyline fill="none" stroke="black" points="323.38,-94.25 419.62,-94.25"/>
<text text-anchor="start" x="331.38" y="-82.65" font-family="Times,serif" font-size="8.00">+id : ivoa:string</text>
<text text-anchor="start" x="331.38" y="-72.9" font-family="Times,serif" font-size="8.00">+size : ivoa:integer</text>
<text text-anchor="start" x="331.38" y="-63.15" font-family="Times,serif" font-size="8.00">+mime_type : ivoa:string</text>
</a>
</g>
</g>
<!-- uws:results&#45;&gt;uws:ResultReference -->
<g id="edge3" class="edge">
<title>uws:results&#45;&gt;uws:ResultReference</title>
<path fill="none" stroke="blue" d="M388.45,-157C385.93,-146.38 383.06,-134.29 380.41,-123.1"/>
<polygon fill="blue" stroke="blue" points="388.45,-157.02 393.73,-161.94 391.22,-168.7 385.94,-163.78 388.45,-157.02"/>
<polygon fill="blue" stroke="blue" points="378.13,-113.49 384.82,-122.18 379.01,-117.17 380.44,-123.22 380.44,-123.22 380.44,-123.22 379.01,-117.17 376.06,-124.26 378.13,-113.49"/>
<text text-anchor="middle" x="395.75" y="-132.25" font-family="Times,serif" font-size="10.00">result</text>
<text text-anchor="middle" x="370.35" y="-114.05" font-family="Times,serif" font-size="10.00">0..*</text>
</g>
<!-- uws:parameters -->
<g id="node8" class="node">
<title>uws:parameters</title>
<g id="a_node8"><a xlink:href="../uws/parameters" xlink:title="{parameters}">
<polygon fill="#8dd3c7" stroke="black" points="440.5,-169.75 440.5,-205.75 494.5,-205.75 494.5,-169.75 440.5,-169.75"/>
<text text-anchor="middle" x="467.5" y="-185.15" font-family="Times,serif" font-size="8.00">parameters</text>
</a>
</g>
</g>
<!-- uws:Parameter -->
<g id="node14" class="node">
<title>uws:Parameter</title>
<g id="a_node14"><a xlink:href="../uws/Parameter" xlink:title="{Parameter|+byReference : ivoa:boolean\l+id : ivoa:string\l+isPost : ivoa:boolean\l}">
<polygon fill="#8dd3c7" stroke="black" points="438,-57 438,-112 547,-112 547,-57 438,-57"/>
<text text-anchor="middle" x="492.5" y="-100.4" font-family="Times,serif" font-size="8.00">Parameter</text>
<polyline fill="none" stroke="black" points="438,-94.25 547,-94.25"/>
<text text-anchor="start" x="446" y="-82.65" font-family="Times,serif" font-size="8.00">+byReference : ivoa:boolean</text>
<text text-anchor="start" x="446" y="-72.9" font-family="Times,serif" font-size="8.00">+id : ivoa:string</text>
<text text-anchor="start" x="446" y="-63.15" font-family="Times,serif" font-size="8.00">+isPost : ivoa:boolean</text>
</a>
</g>
</g>
<!-- uws:parameters&#45;&gt;uws:Parameter -->
<g id="edge4" class="edge">
<title>uws:parameters&#45;&gt;uws:Parameter</title>
<path fill="none" stroke="blue" d="M474.85,-157C477.47,-146.38 480.45,-134.29 483.22,-123.1"/>
<polygon fill="blue" stroke="blue" points="474.83,-157.05 477.28,-163.83 471.96,-168.7 469.51,-161.92 474.83,-157.05"/>
<polygon fill="blue" stroke="blue" points="485.59,-113.49 487.56,-124.27 484.68,-117.16 483.19,-123.19 483.19,-123.19 483.19,-123.19 484.68,-117.16 478.82,-122.12 485.59,-113.49"/>
<text text-anchor="middle" x="500.38" y="-132.25" font-family="Times,serif" font-size="10.00">parameter</text>
<text text-anchor="middle" x="478.38" y="-114.05" font-family="Times,serif" font-size="10.00">0..*</text>
</g>
<!-- uws:job -->
<g id="node11" class="node">
<title>uws:job</title>
<g id="a_node11"><a xlink:href="../uws/job" xlink:title="{job}">
<polygon fill="#8dd3c7" stroke="black" points="404.5,-433.5 404.5,-469.5 458.5,-469.5 458.5,-433.5 404.5,-433.5"/>
<text text-anchor="middle" x="431.38" y="-448.9" font-family="Times,serif" font-size="8.00">job</text>
</a>
</g>
</g>
<!-- uws:ShortJobDescription&#45;&gt;uws:job -->
<g id="edge9" class="edge">
<title>uws:ShortJobDescription&#45;&gt;uws:job</title>
<path fill="none" stroke="green" d="M431.5,-517.49C431.5,-505.72 431.5,-492.45 431.5,-480.99"/>
<polygon fill="green" stroke="green" points="431.5,-471.05 436,-481.05 431.5,-474.83 431.5,-481.05 431.5,-481.05 431.5,-481.05 431.5,-474.83 427,-481.05 431.5,-471.05"/>
<text text-anchor="middle" x="442.38" y="-489.75" font-family="Times,serif" font-size="10.00">jobid</text>
<text text-anchor="middle" x="428.88" y="-471.58" font-family="Times,serif" font-size="10.00">1</text>
</g>
<!-- uws:JobSummary -->
<g id="node10" class="node">
<title>uws:JobSummary</title>
<g id="a_node10"><a xlink:href="../uws/JobSummary" xlink:title="{JobSummary|+jobId : ivoa:string\l+runId : ivoa:string\l+ownerId : ivoa:string\l+phase : uws:ExecutionPhase\l+quote : ivoa:datetime\l+creationTime : ivoa:datetime\l+startTime : ivoa:datetime\l+endTime : ivoa:datetime\l+executionDuration : ivoa:integer\l+destruction : ivoa:datetime\l+version : uws:UWSVersion\l}">
<polygon fill="#8dd3c7" stroke="black" points="369.12,-263.5 369.12,-396.5 493.88,-396.5 493.88,-263.5 369.12,-263.5"/>
<text text-anchor="middle" x="431.5" y="-384.9" font-family="Times,serif" font-size="8.00">JobSummary</text>
<polyline fill="none" stroke="black" points="369.12,-378.75 493.88,-378.75"/>
<text text-anchor="start" x="377.12" y="-367.15" font-family="Times,serif" font-size="8.00">+jobId : ivoa:string</text>
<text text-anchor="start" x="377.12" y="-357.4" font-family="Times,serif" font-size="8.00">+runId : ivoa:string</text>
<text text-anchor="start" x="377.12" y="-347.65" font-family="Times,serif" font-size="8.00">+ownerId : ivoa:string</text>
<text text-anchor="start" x="377.12" y="-337.9" font-family="Times,serif" font-size="8.00">+phase : uws:ExecutionPhase</text>
<text text-anchor="start" x="377.12" y="-328.15" font-family="Times,serif" font-size="8.00">+quote : ivoa:datetime</text>
<text text-anchor="start" x="377.12" y="-318.4" font-family="Times,serif" font-size="8.00">+creationTime : ivoa:datetime</text>
<text text-anchor="start" x="377.12" y="-308.65" font-family="Times,serif" font-size="8.00">+startTime : ivoa:datetime</text>
<text text-anchor="start" x="377.12" y="-298.9" font-family="Times,serif" font-size="8.00">+endTime : ivoa:datetime</text>
<text text-anchor="start" x="377.12" y="-289.15" font-family="Times,serif" font-size="8.00">+executionDuration : ivoa:integer</text>
<text text-anchor="start" x="377.12" y="-279.4" font-family="Times,serif" font-size="8.00">+destruction : ivoa:datetime</text>
<text text-anchor="start" x="377.12" y="-269.65" font-family="Times,serif" font-size="8.00">+version : uws:UWSVersion</text>
</a>
</g>
</g>
<!-- uws:JobSummary&#45;&gt;uws:jobInfo -->
<g id="edge8" class="edge">
<title>uws:JobSummary&#45;&gt;uws:jobInfo</title>
<path fill="none" stroke="blue" d="M373.35,-253.49C362.65,-239.59 352.16,-225.97 343.59,-214.84"/>
<polygon fill="blue" stroke="blue" points="373.11,-253.17 379.94,-255.48 380.43,-262.68 373.6,-260.36 373.11,-253.17"/>
<polygon fill="blue" stroke="blue" points="337.63,-207.09 347.29,-212.27 339.93,-210.09 343.73,-215.02 343.73,-215.02 343.73,-215.02 339.93,-210.09 340.16,-217.76 337.63,-207.09"/>
<text text-anchor="middle" x="380.5" y="-235.5" font-family="Times,serif" font-size="10.00">jobInfo</text>
<text text-anchor="middle" x="329.38" y="-207.88" font-family="Times,serif" font-size="10.00">0..1</text>
</g>
<!-- uws:JobSummary&#45;&gt;uws:results -->
<g id="edge6" class="edge">
<title>uws:JobSummary&#45;&gt;uws:results</title>
<path fill="none" stroke="blue" d="M411.48,-251.02C408.36,-238.86 405.32,-227.02 402.75,-216.99"/>
<polygon fill="blue" stroke="blue" points="411.45,-250.9 416.82,-255.71 414.44,-262.52 409.07,-257.7 411.45,-250.9"/>
<polygon fill="blue" stroke="blue" points="400.26,-207.31 407.11,-215.88 401.2,-210.97 402.75,-216.99 402.75,-216.99 402.75,-216.99 401.2,-210.97 398.39,-218.11 400.26,-207.31"/>
<text text-anchor="middle" x="422.62" y="-235.5" font-family="Times,serif" font-size="10.00">results</text>
<text text-anchor="middle" x="397.34" y="-207.88" font-family="Times,serif" font-size="10.00">1</text>
</g>
<!-- uws:JobSummary&#45;&gt;uws:parameters -->
<g id="edge5" class="edge">
<title>uws:JobSummary&#45;&gt;uws:parameters</title>
<path fill="none" stroke="blue" d="M451.52,-251.02C454.64,-238.86 457.68,-227.02 460.25,-216.99"/>
<polygon fill="blue" stroke="blue" points="451.55,-250.9 453.93,-257.7 448.56,-262.52 446.18,-255.71 451.55,-250.9"/>
<polygon fill="blue" stroke="blue" points="462.74,-207.31 464.61,-218.11 461.8,-210.97 460.25,-216.99 460.25,-216.99 460.25,-216.99 461.8,-210.97 455.89,-215.88 462.74,-207.31"/>
<text text-anchor="middle" x="477.25" y="-235.5" font-family="Times,serif" font-size="10.00">parameters</text>
<text text-anchor="middle" x="455.54" y="-207.88" font-family="Times,serif" font-size="10.00">0..1</text>
</g>
<!-- uws:ErrorSummary -->
<g id="node13" class="node">
<title>uws:ErrorSummary</title>
<g id="a_node13"><a xlink:href="../uws/ErrorSummary" xlink:title="{ErrorSummary|+message : ivoa:string\l+type : uws:ErrorType\l+hasDetail : ivoa:boolean\l}">
<polygon fill="#8dd3c7" stroke="black" points="512.25,-160.25 512.25,-215.25 610.75,-215.25 610.75,-160.25 512.25,-160.25"/>
<text text-anchor="middle" x="561.5" y="-203.65" font-family="Times,serif" font-size="8.00">ErrorSummary</text>
<polyline fill="none" stroke="black" points="512.25,-197.5 610.75,-197.5"/>
<text text-anchor="start" x="520.25" y="-185.9" font-family="Times,serif" font-size="8.00">+message : ivoa:string</text>
<text text-anchor="start" x="520.25" y="-176.15" font-family="Times,serif" font-size="8.00">+type : uws:ErrorType</text>
<text text-anchor="start" x="520.25" y="-166.4" font-family="Times,serif" font-size="8.00">+hasDetail : ivoa:boolean</text>
</a>
</g>
</g>
<!-- uws:JobSummary&#45;&gt;uws:ErrorSummary -->
<g id="edge7" class="edge">
<title>uws:JobSummary&#45;&gt;uws:ErrorSummary</title>
<path fill="none" stroke="blue" d="M501.17,-253.84C510.95,-243.29 520.59,-232.89 529.19,-223.61"/>
<polygon fill="blue" stroke="blue" points="501.08,-253.93 499.94,-261.05 492.93,-262.73 494.07,-255.61 501.08,-253.93"/>
<polygon fill="blue" stroke="blue" points="535.95,-216.32 532.45,-226.71 533.38,-219.09 529.15,-223.65 529.15,-223.65 529.15,-223.65 533.38,-219.09 525.85,-220.59 535.95,-216.32"/>
<text text-anchor="middle" x="547" y="-235.5" font-family="Times,serif" font-size="10.00">errorSummary</text>
<text text-anchor="middle" x="529.28" y="-217.17" font-family="Times,serif" font-size="10.00">0..1</text>
</g>
<!-- uws:job&#45;&gt;uws:JobSummary -->
<g id="edge1" class="edge">
<title>uws:job&#45;&gt;uws:JobSummary</title>
<path fill="none" stroke="red" d="M431.5,-433.12C431.5,-426.13 431.5,-417.54 431.5,-408.33"/>
<polygon fill="none" stroke="red" points="435,-408.39 431.5,-398.39 428,-408.39 435,-408.39"/>
</g>
</g>
</svg>
