<?xml version="1.0" encoding="UTF-8" standalone="no"?>
<!DOCTYPE svg PUBLIC "-//W3C//DTD SVG 1.1//EN"
 "http://www.w3.org/Graphics/SVG/1.1/DTD/svg11.dtd">
<!-- Generated by graphviz version 12.1.1 (20240910.0053)
 -->
<!-- Title: GVmap Pages: 1 -->
<svg width="1408pt" height="944pt"
 viewBox="0.00 0.00 1408.34 944.25" xmlns="http://www.w3.org/2000/svg" xmlns:xlink="http://www.w3.org/1999/xlink">
<g id="graph0" class="graph" transform="scale(1 1) rotate(0) translate(4 940.25)">
<title>GVmap</title>
<polygon fill="white" stroke="none" points="-4,4 -4,-940.25 1404.34,-940.25 1404.34,4 -4,4"/>
<text text-anchor="middle" x="700.17" y="-7.2" font-family="Times,serif" font-size="14.00">VODataService data model</text>
<!-- ivoa:string -->
<g id="node1" class="node">
<title>ivoa:string</title>
<g id="a_node1"><a xlink:href="#string" xlink:title="{ivoa:string}">
<polygon fill="grey" stroke="black" points="62.97,-665.62 62.97,-701.62 116.97,-701.62 116.97,-665.62 62.97,-665.62"/>
<text text-anchor="middle" x="89.84" y="-681.02" font-family="Times,serif" font-size="8.00">ivoa:string</text>
</a>
</g>
</g>
<!-- VOResource:Resource -->
<g id="node2" class="node">
<title>VOResource:Resource</title>
<g id="a_node2"><a xlink:href="#Resource" xlink:title="{VOResource:Resource}">
<polygon fill="grey" stroke="black" points="56.84,-557.5 56.84,-593.5 147.09,-593.5 147.09,-557.5 56.84,-557.5"/>
<text text-anchor="middle" x="101.97" y="-572.9" font-family="Times,serif" font-size="8.00">VOResource:Resource</text>
</a>
</g>
</g>
<!-- VOResource:AccessURL -->
<g id="node3" class="node">
<title>VOResource:AccessURL</title>
<g id="a_node3"><a xlink:href="#AccessURL" xlink:title="{VOResource:AccessURL}">
<polygon fill="grey" stroke="black" points="164.97,-557.5 164.97,-593.5 264.97,-593.5 264.97,-557.5 164.97,-557.5"/>
<text text-anchor="middle" x="214.97" y="-572.9" font-family="Times,serif" font-size="8.00">VOResource:AccessURL</text>
</a>
</g>
</g>
<!-- VOResource:Service -->
<g id="node4" class="node">
<title>VOResource:Service</title>
<g id="a_node4"><a xlink:href="#Service" xlink:title="{VOResource:Service}">
<polygon fill="grey" stroke="black" points="426.47,-439.62 426.47,-475.62 511.47,-475.62 511.47,-439.62 426.47,-439.62"/>
<text text-anchor="middle" x="468.97" y="-455.02" font-family="Times,serif" font-size="8.00">VOResource:Service</text>
</a>
</g>
</g>
<!-- VOResource:Interface -->
<g id="node5" class="node">
<title>VOResource:Interface</title>
<g id="a_node5"><a xlink:href="#Interface" xlink:title="{VOResource:Interface}">
<polygon fill="grey" stroke="black" points="505.84,-189.25 505.84,-225.25 596.09,-225.25 596.09,-189.25 505.84,-189.25"/>
<text text-anchor="middle" x="550.97" y="-204.65" font-family="Times,serif" font-size="8.00">VOResource:Interface</text>
</a>
</g>
</g>
<!-- VODataService:ArrayShape -->
<g id="node6" class="node">
<title>VODataService:ArrayShape</title>
<g id="a_node6"><a xlink:href="../VODataService/ArrayShape" xlink:title="{&amp;lt;&amp;lt;primitive type&amp;gt;&amp;gt;\nArrayShape}">
<polygon fill="#8dd3c7" stroke="black" points="2.47,-826.88 2.47,-862.88 81.47,-862.88 81.47,-826.88 2.47,-826.88"/>
<text text-anchor="middle" x="41.97" y="-847.27" font-family="Times,serif" font-size="8.00">&lt;&lt;primitive type&gt;&gt;</text>
<text text-anchor="middle" x="41.97" y="-837.52" font-family="Times,serif" font-size="8.00">ArrayShape</text>
</a>
</g>
</g>
<!-- VODataService:ArrayShape&#45;&gt;ivoa:string -->
<g id="edge1" class="edge">
<title>VODataService:ArrayShape&#45;&gt;ivoa:string</title>
<path fill="none" stroke="red" d="M47.2,-826.53C55.46,-799.13 71.6,-745.56 81.52,-712.65"/>
<polygon fill="none" stroke="red" points="84.78,-713.98 84.31,-703.4 78.07,-711.96 84.78,-713.98"/>
</g>
<!-- VODataService:FloatInterval -->
<g id="node7" class="node">
<title>VODataService:FloatInterval</title>
<g id="a_node7"><a xlink:href="../VODataService/FloatInterval" xlink:title="{&amp;lt;&amp;lt;primitive type&amp;gt;&amp;gt;\nFloatInterval}">
<polygon fill="#8dd3c7" stroke="black" points="99.47,-826.88 99.47,-862.88 178.47,-862.88 178.47,-826.88 99.47,-826.88"/>
<text text-anchor="middle" x="138.97" y="-847.27" font-family="Times,serif" font-size="8.00">&lt;&lt;primitive type&gt;&gt;</text>
<text text-anchor="middle" x="138.97" y="-837.52" font-family="Times,serif" font-size="8.00">FloatInterval</text>
</a>
</g>
</g>
<!-- VODataService:FloatInterval&#45;&gt;ivoa:string -->
<g id="edge2" class="edge">
<title>VODataService:FloatInterval&#45;&gt;ivoa:string</title>
<path fill="none" stroke="red" d="M133.63,-826.53C125.2,-799.13 108.72,-745.56 98.59,-712.65"/>
<polygon fill="none" stroke="red" points="102.03,-711.92 95.75,-703.4 95.34,-713.98 102.03,-711.92"/>
</g>
<!-- VODataService:SimpleDataType_enum -->
<g id="node8" class="node">
<title>VODataService:SimpleDataType_enum</title>
<g id="a_node8"><a xlink:href="../VODataService/SimpleDataType_enum" xlink:title="{&amp;lt;&amp;lt;enumeration&amp;gt;&amp;gt;\nSimpleDataType_enum|+integer\l+real\l+complex\l+boolean\l+char\l+string\l}">
<polygon fill="#8dd3c7" stroke="black" points="395.47,-797.88 395.47,-891.88 486.47,-891.88 486.47,-797.88 395.47,-797.88"/>
<text text-anchor="middle" x="440.97" y="-880.27" font-family="Times,serif" font-size="8.00">&lt;&lt;enumeration&gt;&gt;</text>
<text text-anchor="middle" x="440.97" y="-870.52" font-family="Times,serif" font-size="8.00">SimpleDataType_enum</text>
<polyline fill="none" stroke="black" points="395.47,-864.38 486.47,-864.38"/>
<text text-anchor="start" x="403.47" y="-852.77" font-family="Times,serif" font-size="8.00">+integer</text>
<text text-anchor="start" x="403.47" y="-843.02" font-family="Times,serif" font-size="8.00">+real</text>
<text text-anchor="start" x="403.47" y="-833.27" font-family="Times,serif" font-size="8.00">+complex</text>
<text text-anchor="start" x="403.47" y="-823.52" font-family="Times,serif" font-size="8.00">+boolean</text>
<text text-anchor="start" x="403.47" y="-813.77" font-family="Times,serif" font-size="8.00">+char</text>
<text text-anchor="start" x="403.47" y="-804.02" font-family="Times,serif" font-size="8.00">+string</text>
</a>
</g>
</g>
<!-- VODataService:VOTableType_enum -->
<g id="node9" class="node">
<title>VODataService:VOTableType_enum</title>
<g id="a_node9"><a xlink:href="../VODataService/VOTableType_enum" xlink:title="{&amp;lt;&amp;lt;enumeration&amp;gt;&amp;gt;\nVOTableType_enum|+boolean\l+bit\l+unsignedByte\l+short\l+int\l+long\l+char\l+unicodeChar\l+float\l+double\l+floatComplex\l+doubleComplex\l}">
<polygon fill="#8dd3c7" stroke="black" points="504.97,-768.62 504.97,-921.12 586.97,-921.12 586.97,-768.62 504.97,-768.62"/>
<text text-anchor="middle" x="545.97" y="-909.52" font-family="Times,serif" font-size="8.00">&lt;&lt;enumeration&gt;&gt;</text>
<text text-anchor="middle" x="545.97" y="-899.77" font-family="Times,serif" font-size="8.00">VOTableType_enum</text>
<polyline fill="none" stroke="black" points="504.97,-893.62 586.97,-893.62"/>
<text text-anchor="start" x="512.97" y="-882.02" font-family="Times,serif" font-size="8.00">+boolean</text>
<text text-anchor="start" x="512.97" y="-872.27" font-family="Times,serif" font-size="8.00">+bit</text>
<text text-anchor="start" x="512.97" y="-862.52" font-family="Times,serif" font-size="8.00">+unsignedByte</text>
<text text-anchor="start" x="512.97" y="-852.77" font-family="Times,serif" font-size="8.00">+short</text>
<text text-anchor="start" x="512.97" y="-843.02" font-family="Times,serif" font-size="8.00">+int</text>
<text text-anchor="start" x="512.97" y="-833.27" font-family="Times,serif" font-size="8.00">+long</text>
<text text-anchor="start" x="512.97" y="-823.52" font-family="Times,serif" font-size="8.00">+char</text>
<text text-anchor="start" x="512.97" y="-813.77" font-family="Times,serif" font-size="8.00">+unicodeChar</text>
<text text-anchor="start" x="512.97" y="-804.02" font-family="Times,serif" font-size="8.00">+float</text>
<text text-anchor="start" x="512.97" y="-794.27" font-family="Times,serif" font-size="8.00">+double</text>
<text text-anchor="start" x="512.97" y="-784.52" font-family="Times,serif" font-size="8.00">+floatComplex</text>
<text text-anchor="start" x="512.97" y="-774.77" font-family="Times,serif" font-size="8.00">+doubleComplex</text>
</a>
</g>
</g>
<!-- VODataService:TAPType_enum -->
<g id="node10" class="node">
<title>VODataService:TAPType_enum</title>
<g id="a_node10"><a xlink:href="../VODataService/TAPType_enum" xlink:title="{&amp;lt;&amp;lt;enumeration&amp;gt;&amp;gt;\nTAPType_enum|+BOOLEAN\l+SMALLINT\l+INTEGER\l+BIGINT\l+REAL\l+DOUBLE\l+TIMESTAMP\l+CHAR\l+VARCHAR\l+BINARY\l+VARBINARY\l+POINT\l+REGION\l+CLOB\l+BLOB\l}">
<polygon fill="#8dd3c7" stroke="black" points="605.09,-754 605.09,-935.75 678.84,-935.75 678.84,-754 605.09,-754"/>
<text text-anchor="middle" x="641.97" y="-924.15" font-family="Times,serif" font-size="8.00">&lt;&lt;enumeration&gt;&gt;</text>
<text text-anchor="middle" x="641.97" y="-914.4" font-family="Times,serif" font-size="8.00">TAPType_enum</text>
<polyline fill="none" stroke="black" points="605.09,-908.25 678.84,-908.25"/>
<text text-anchor="start" x="613.09" y="-896.65" font-family="Times,serif" font-size="8.00">+BOOLEAN</text>
<text text-anchor="start" x="613.09" y="-886.9" font-family="Times,serif" font-size="8.00">+SMALLINT</text>
<text text-anchor="start" x="613.09" y="-877.15" font-family="Times,serif" font-size="8.00">+INTEGER</text>
<text text-anchor="start" x="613.09" y="-867.4" font-family="Times,serif" font-size="8.00">+BIGINT</text>
<text text-anchor="start" x="613.09" y="-857.65" font-family="Times,serif" font-size="8.00">+REAL</text>
<text text-anchor="start" x="613.09" y="-847.9" font-family="Times,serif" font-size="8.00">+DOUBLE</text>
<text text-anchor="start" x="613.09" y="-838.15" font-family="Times,serif" font-size="8.00">+TIMESTAMP</text>
<text text-anchor="start" x="613.09" y="-828.4" font-family="Times,serif" font-size="8.00">+CHAR</text>
<text text-anchor="start" x="613.09" y="-818.65" font-family="Times,serif" font-size="8.00">+VARCHAR</text>
<text text-anchor="start" x="613.09" y="-808.9" font-family="Times,serif" font-size="8.00">+BINARY</text>
<text text-anchor="start" x="613.09" y="-799.15" font-family="Times,serif" font-size="8.00">+VARBINARY</text>
<text text-anchor="start" x="613.09" y="-789.4" font-family="Times,serif" font-size="8.00">+POINT</text>
<text text-anchor="start" x="613.09" y="-779.65" font-family="Times,serif" font-size="8.00">+REGION</text>
<text text-anchor="start" x="613.09" y="-769.9" font-family="Times,serif" font-size="8.00">+CLOB</text>
<text text-anchor="start" x="613.09" y="-760.15" font-family="Times,serif" font-size="8.00">+BLOB</text>
</a>
</g>
</g>
<!-- VODataService:HTTPQueryType -->
<g id="node11" class="node">
<title>VODataService:HTTPQueryType</title>
<g id="a_node11"><a xlink:href="../VODataService/HTTPQueryType" xlink:title="{&amp;lt;&amp;lt;enumeration&amp;gt;&amp;gt;\nHTTPQueryType|+GET\l+POST\l}">
<polygon fill="#8dd3c7" stroke="black" points="697.09,-817.38 697.09,-872.38 770.84,-872.38 770.84,-817.38 697.09,-817.38"/>
<text text-anchor="middle" x="733.97" y="-860.77" font-family="Times,serif" font-size="8.00">&lt;&lt;enumeration&gt;&gt;</text>
<text text-anchor="middle" x="733.97" y="-851.02" font-family="Times,serif" font-size="8.00">HTTPQueryType</text>
<polyline fill="none" stroke="black" points="697.09,-844.88 770.84,-844.88"/>
<text text-anchor="start" x="705.09" y="-833.27" font-family="Times,serif" font-size="8.00">+GET</text>
<text text-anchor="start" x="705.09" y="-823.52" font-family="Times,serif" font-size="8.00">+POST</text>
</a>
</g>
</g>
<!-- VODataService:ParamUse -->
<g id="node12" class="node">
<title>VODataService:ParamUse</title>
<g id="a_node12"><a xlink:href="../VODataService/ParamUse" xlink:title="{&amp;lt;&amp;lt;enumeration&amp;gt;&amp;gt;\nParamUse|+required\l+optional\l+ignored\l}">
<polygon fill="#8dd3c7" stroke="black" points="789.09,-812.5 789.09,-877.25 862.84,-877.25 862.84,-812.5 789.09,-812.5"/>
<text text-anchor="middle" x="825.97" y="-865.65" font-family="Times,serif" font-size="8.00">&lt;&lt;enumeration&gt;&gt;</text>
<text text-anchor="middle" x="825.97" y="-855.9" font-family="Times,serif" font-size="8.00">ParamUse</text>
<polyline fill="none" stroke="black" points="789.09,-849.75 862.84,-849.75"/>
<text text-anchor="start" x="797.09" y="-838.15" font-family="Times,serif" font-size="8.00">+required</text>
<text text-anchor="start" x="797.09" y="-828.4" font-family="Times,serif" font-size="8.00">+optional</text>
<text text-anchor="start" x="797.09" y="-818.65" font-family="Times,serif" font-size="8.00">+ignored</text>
</a>
</g>
</g>
<!-- VODataService:SpatialCoverage -->
<g id="node13" class="node">
<title>VODataService:SpatialCoverage</title>
<g id="a_node13"><a xlink:href="../VODataService/SpatialCoverage" xlink:title="{&amp;lt;&amp;lt;datatype&amp;gt;&amp;gt;\nSpatialCoverage|+value : ivoa:string\l+frame : ivoa:string\l}">
<polygon fill="#8dd3c7" stroke="black" points="880.72,-817.38 880.72,-872.38 961.22,-872.38 961.22,-817.38 880.72,-817.38"/>
<text text-anchor="middle" x="920.97" y="-860.77" font-family="Times,serif" font-size="8.00">&lt;&lt;datatype&gt;&gt;</text>
<text text-anchor="middle" x="920.97" y="-851.02" font-family="Times,serif" font-size="8.00">SpatialCoverage</text>
<polyline fill="none" stroke="black" points="880.72,-844.88 961.22,-844.88"/>
<text text-anchor="start" x="888.72" y="-833.27" font-family="Times,serif" font-size="8.00">+value : ivoa:string</text>
<text text-anchor="start" x="888.72" y="-823.52" font-family="Times,serif" font-size="8.00">+frame : ivoa:string</text>
</a>
</g>
</g>
<!-- VODataService:ServiceReference -->
<g id="node14" class="node">
<title>VODataService:ServiceReference</title>
<g id="a_node14"><a xlink:href="../VODataService/ServiceReference" xlink:title="{&amp;lt;&amp;lt;datatype&amp;gt;&amp;gt;\nServiceReference|+value : ivoa:anyURI\l+ivoid : VOResource:IdentifierURI\l}">
<polygon fill="#8dd3c7" stroke="black" points="978.84,-817.38 978.84,-872.38 1111.09,-872.38 1111.09,-817.38 978.84,-817.38"/>
<text text-anchor="middle" x="1044.97" y="-860.77" font-family="Times,serif" font-size="8.00">&lt;&lt;datatype&gt;&gt;</text>
<text text-anchor="middle" x="1044.97" y="-851.02" font-family="Times,serif" font-size="8.00">ServiceReference</text>
<polyline fill="none" stroke="black" points="978.84,-844.88 1111.09,-844.88"/>
<text text-anchor="start" x="986.84" y="-833.27" font-family="Times,serif" font-size="8.00">+value : ivoa:anyURI</text>
<text text-anchor="start" x="986.84" y="-823.52" font-family="Times,serif" font-size="8.00">+ivoid : VOResource:IdentifierURI</text>
</a>
</g>
</g>
<!-- VODataService:Format -->
<g id="node15" class="node">
<title>VODataService:Format</title>
<g id="a_node15"><a xlink:href="../VODataService/Format" xlink:title="{&amp;lt;&amp;lt;datatype&amp;gt;&amp;gt;\nFormat|+value : ivoa:string\l+isMIMEType : ivoa:boolean\l}">
<polygon fill="#8dd3c7" stroke="black" points="1128.72,-817.38 1128.72,-872.38 1239.22,-872.38 1239.22,-817.38 1128.72,-817.38"/>
<text text-anchor="middle" x="1183.97" y="-860.77" font-family="Times,serif" font-size="8.00">&lt;&lt;datatype&gt;&gt;</text>
<text text-anchor="middle" x="1183.97" y="-851.02" font-family="Times,serif" font-size="8.00">Format</text>
<polyline fill="none" stroke="black" points="1128.72,-844.88 1239.22,-844.88"/>
<text text-anchor="start" x="1136.72" y="-833.27" font-family="Times,serif" font-size="8.00">+value : ivoa:string</text>
<text text-anchor="start" x="1136.72" y="-823.52" font-family="Times,serif" font-size="8.00">+isMIMEType : ivoa:boolean</text>
</a>
</g>
</g>
<!-- VODataService:DataType -->
<g id="node16" class="node">
<title>VODataService:DataType</title>
<g id="a_node16"><a xlink:href="../VODataService/DataType" xlink:title="{&amp;lt;&amp;lt;datatype&amp;gt;&amp;gt;\nDataType|+arraysize : VODataService:ArrayShape\l+delim : ivoa:string\l+extendedType : ivoa:string\l+extendedSchema : ivoa:anyURI\l}">
<polygon fill="#8dd3c7" stroke="black" points="1063.47,-420.38 1063.47,-494.88 1214.47,-494.88 1214.47,-420.38 1063.47,-420.38"/>
<text text-anchor="middle" x="1138.97" y="-483.27" font-family="Times,serif" font-size="8.00">&lt;&lt;datatype&gt;&gt;</text>
<text text-anchor="middle" x="1138.97" y="-473.52" font-family="Times,serif" font-size="8.00">DataType</text>
<polyline fill="none" stroke="black" points="1063.47,-467.38 1214.47,-467.38"/>
<text text-anchor="start" x="1071.47" y="-455.77" font-family="Times,serif" font-size="8.00">+arraysize : VODataService:ArrayShape</text>
<text text-anchor="start" x="1071.47" y="-446.02" font-family="Times,serif" font-size="8.00">+delim : ivoa:string</text>
<text text-anchor="start" x="1071.47" y="-436.27" font-family="Times,serif" font-size="8.00">+extendedType : ivoa:string</text>
<text text-anchor="start" x="1071.47" y="-426.52" font-family="Times,serif" font-size="8.00">+extendedSchema : ivoa:anyURI</text>
</a>
</g>
</g>
<!-- VODataService:SimpleDataType -->
<g id="node17" class="node">
<title>VODataService:SimpleDataType</title>
<g id="a_node17"><a xlink:href="../VODataService/SimpleDataType" xlink:title="{&amp;lt;&amp;lt;datatype&amp;gt;&amp;gt;\nSimpleDataType|+val : VODataService:SimpleDataType_enum\l}">
<polygon fill="#8dd3c7" stroke="black" points="1015.59,-552.88 1015.59,-598.12 1182.34,-598.12 1182.34,-552.88 1015.59,-552.88"/>
<text text-anchor="middle" x="1098.97" y="-586.52" font-family="Times,serif" font-size="8.00">&lt;&lt;datatype&gt;&gt;</text>
<text text-anchor="middle" x="1098.97" y="-576.77" font-family="Times,serif" font-size="8.00">SimpleDataType</text>
<polyline fill="none" stroke="black" points="1015.59,-570.62 1182.34,-570.62"/>
<text text-anchor="start" x="1023.59" y="-559.02" font-family="Times,serif" font-size="8.00">+val : VODataService:SimpleDataType_enum</text>
</a>
</g>
</g>
<!-- VODataService:SimpleDataType&#45;&gt;VODataService:DataType -->
<g id="edge3" class="edge">
<title>VODataService:SimpleDataType&#45;&gt;VODataService:DataType</title>
<path fill="none" stroke="red" d="M1106.59,-552.43C1111.12,-539.31 1117.05,-522.13 1122.59,-506.07"/>
<polygon fill="none" stroke="red" points="1125.9,-507.22 1125.85,-496.63 1119.28,-504.94 1125.9,-507.22"/>
</g>
<!-- VODataService:TableDataType -->
<g id="node18" class="node">
<title>VODataService:TableDataType</title>
<g id="a_node18"><a xlink:href="../VODataService/TableDataType" xlink:title="{&amp;lt;&amp;lt;datatype&amp;gt;&amp;gt;\nTableDataType}">
<polygon fill="#8dd3c7" stroke="black" points="1200.59,-557.5 1200.59,-593.5 1265.34,-593.5 1265.34,-557.5 1200.59,-557.5"/>
<text text-anchor="middle" x="1232.97" y="-577.9" font-family="Times,serif" font-size="8.00">&lt;&lt;datatype&gt;&gt;</text>
<text text-anchor="middle" x="1232.97" y="-568.15" font-family="Times,serif" font-size="8.00">TableDataType</text>
</a>
</g>
</g>
<!-- VODataService:TableDataType&#45;&gt;VODataService:DataType -->
<g id="edge4" class="edge">
<title>VODataService:TableDataType&#45;&gt;VODataService:DataType</title>
<path fill="none" stroke="red" d="M1218.9,-557.15C1207.54,-543.15 1191.03,-522.8 1175.96,-504.23"/>
<polygon fill="none" stroke="red" points="1178.68,-502.02 1169.66,-496.46 1173.24,-506.43 1178.68,-502.02"/>
</g>
<!-- VODataService:VOTableType -->
<g id="node19" class="node">
<title>VODataService:VOTableType</title>
<g id="a_node19"><a xlink:href="../VODataService/VOTableType" xlink:title="{&amp;lt;&amp;lt;datatype&amp;gt;&amp;gt;\nVOTableType|+val : VODataService:VOTableType_enum\l}">
<polygon fill="#8dd3c7" stroke="black" points="1114.09,-661 1114.09,-706.25 1271.84,-706.25 1271.84,-661 1114.09,-661"/>
<text text-anchor="middle" x="1192.97" y="-694.65" font-family="Times,serif" font-size="8.00">&lt;&lt;datatype&gt;&gt;</text>
<text text-anchor="middle" x="1192.97" y="-684.9" font-family="Times,serif" font-size="8.00">VOTableType</text>
<polyline fill="none" stroke="black" points="1114.09,-678.75 1271.84,-678.75"/>
<text text-anchor="start" x="1122.09" y="-667.15" font-family="Times,serif" font-size="8.00">+val : VODataService:VOTableType_enum</text>
</a>
</g>
</g>
<!-- VODataService:VOTableType&#45;&gt;VODataService:TableDataType -->
<g id="edge5" class="edge">
<title>VODataService:VOTableType&#45;&gt;VODataService:TableDataType</title>
<path fill="none" stroke="red" d="M1201.26,-660.64C1207.38,-644.4 1215.76,-622.17 1222.36,-604.64"/>
<polygon fill="none" stroke="red" points="1225.62,-605.92 1225.87,-595.32 1219.07,-603.45 1225.62,-605.92"/>
</g>
<!-- VODataService:TAPDataType -->
<g id="node20" class="node">
<title>VODataService:TAPDataType</title>
<g id="a_node20"><a xlink:href="../VODataService/TAPDataType" xlink:title="{&amp;lt;&amp;lt;datatype&amp;gt;&amp;gt;\nTAPDataType|+size : ivoa:integer\l}">
<polygon fill="#8dd3c7" stroke="black" points="1289.84,-661 1289.84,-706.25 1368.09,-706.25 1368.09,-661 1289.84,-661"/>
<text text-anchor="middle" x="1328.97" y="-694.65" font-family="Times,serif" font-size="8.00">&lt;&lt;datatype&gt;&gt;</text>
<text text-anchor="middle" x="1328.97" y="-684.9" font-family="Times,serif" font-size="8.00">TAPDataType</text>
<polyline fill="none" stroke="black" points="1289.84,-678.75 1368.09,-678.75"/>
<text text-anchor="start" x="1297.84" y="-667.15" font-family="Times,serif" font-size="8.00">+size : ivoa:integer</text>
</a>
</g>
</g>
<!-- VODataService:TAPDataType&#45;&gt;VODataService:TableDataType -->
<g id="edge6" class="edge">
<title>VODataService:TAPDataType&#45;&gt;VODataService:TableDataType</title>
<path fill="none" stroke="red" d="M1309.08,-660.64C1293.69,-643.63 1272.36,-620.04 1256.19,-602.17"/>
<polygon fill="none" stroke="red" points="1259.04,-600.1 1249.73,-595.03 1253.84,-604.79 1259.04,-600.1"/>
</g>
<!-- VODataService:TAPType -->
<g id="node21" class="node">
<title>VODataService:TAPType</title>
<g id="a_node21"><a xlink:href="../VODataService/TAPType" xlink:title="{&amp;lt;&amp;lt;datatype&amp;gt;&amp;gt;\nTAPType|+val : VODataService:TAPType_enum\l}">
<polygon fill="#8dd3c7" stroke="black" points="1257.59,-822.25 1257.59,-867.5 1400.34,-867.5 1400.34,-822.25 1257.59,-822.25"/>
<text text-anchor="middle" x="1328.97" y="-855.9" font-family="Times,serif" font-size="8.00">&lt;&lt;datatype&gt;&gt;</text>
<text text-anchor="middle" x="1328.97" y="-846.15" font-family="Times,serif" font-size="8.00">TAPType</text>
<polyline fill="none" stroke="black" points="1257.59,-840 1400.34,-840"/>
<text text-anchor="start" x="1265.59" y="-828.4" font-family="Times,serif" font-size="8.00">+val : VODataService:TAPType_enum</text>
</a>
</g>
</g>
<!-- VODataService:TAPType&#45;&gt;VODataService:TAPDataType -->
<g id="edge7" class="edge">
<title>VODataService:TAPType&#45;&gt;VODataService:TAPDataType</title>
<path fill="none" stroke="red" d="M1328.97,-822.07C1328.97,-795.18 1328.97,-749.2 1328.97,-717.89"/>
<polygon fill="none" stroke="red" points="1332.47,-718.2 1328.97,-708.2 1325.47,-718.2 1332.47,-718.2"/>
</g>
<!-- VODataService:DataCollection -->
<g id="node22" class="node">
<title>VODataService:DataCollection</title>
<g id="a_node22"><a xlink:href="../VODataService/DataCollection" xlink:title="{DataCollection|+facility : VOResource:ResourceName\l+instrument : VOResource:ResourceName\l+rights : VOResource:Rights\l+format : VODataService:Format\l}">
<polygon fill="#8dd3c7" stroke="black" points="134.59,-651.25 134.59,-716 289.34,-716 289.34,-651.25 134.59,-651.25"/>
<text text-anchor="middle" x="211.97" y="-704.4" font-family="Times,serif" font-size="8.00">DataCollection</text>
<polyline fill="none" stroke="black" points="134.59,-698.25 289.34,-698.25"/>
<text text-anchor="start" x="142.59" y="-686.65" font-family="Times,serif" font-size="8.00">+facility : VOResource:ResourceName</text>
<text text-anchor="start" x="142.59" y="-676.9" font-family="Times,serif" font-size="8.00">+instrument : VOResource:ResourceName</text>
<text text-anchor="start" x="142.59" y="-667.15" font-family="Times,serif" font-size="8.00">+rights : VOResource:Rights</text>
<text text-anchor="start" x="142.59" y="-657.4" font-family="Times,serif" font-size="8.00">+format : VODataService:Format</text>
</a>
</g>
</g>
<!-- VODataService:DataCollection&#45;&gt;VOResource:Resource -->
<g id="edge8" class="edge">
<title>VODataService:DataCollection&#45;&gt;VOResource:Resource</title>
<path fill="none" stroke="red" d="M178.97,-650.78C162.63,-635.02 143.19,-616.27 127.93,-601.54"/>
<polygon fill="none" stroke="red" points="130.64,-599.3 121.02,-594.88 125.78,-604.34 130.64,-599.3"/>
</g>
<!-- VODataService:DataCollection&#45;&gt;VOResource:AccessURL -->
<g id="edge18" class="edge">
<title>VODataService:DataCollection&#45;&gt;VOResource:AccessURL</title>
<path fill="none" stroke="blue" d="M213.23,-638.04C213.55,-626.83 213.88,-615.11 214.17,-604.93"/>
<polygon fill="blue" stroke="blue" points="213.23,-637.89 217.06,-644 212.89,-649.88 209.07,-643.77 213.23,-637.89"/>
<polygon fill="blue" stroke="blue" points="214.45,-595.04 218.66,-605.17 214.34,-598.82 214.16,-605.04 214.16,-605.04 214.16,-605.04 214.34,-598.82 209.66,-604.91 214.45,-595.04"/>
<text text-anchor="middle" x="236.52" y="-623.25" font-family="Times,serif" font-size="10.00">accessURL</text>
<text text-anchor="middle" x="206.98" y="-595.58" font-family="Times,serif" font-size="10.00">0..1</text>
</g>
<!-- VODataService:Coverage -->
<g id="node23" class="node">
<title>VODataService:Coverage</title>
<g id="a_node23"><a xlink:href="../VODataService/Coverage" xlink:title="{Coverage|+spatial : VODataService:SpatialCoverage\l+temporal : VODataService:FloatInterval\l+spectral : VODataService:FloatInterval\l+footprint : VODataService:ServiceReference\l+waveband : ivoa:string\l+regionOfRegard : ivoa:real\l}">
<polygon fill="#8dd3c7" stroke="black" points="239.84,-415.5 239.84,-499.75 408.09,-499.75 408.09,-415.5 239.84,-415.5"/>
<text text-anchor="middle" x="323.97" y="-488.15" font-family="Times,serif" font-size="8.00">Coverage</text>
<polyline fill="none" stroke="black" points="239.84,-482 408.09,-482"/>
<text text-anchor="start" x="247.84" y="-470.4" font-family="Times,serif" font-size="8.00">+spatial : VODataService:SpatialCoverage</text>
<text text-anchor="start" x="247.84" y="-460.65" font-family="Times,serif" font-size="8.00">+temporal : VODataService:FloatInterval</text>
<text text-anchor="start" x="247.84" y="-450.9" font-family="Times,serif" font-size="8.00">+spectral : VODataService:FloatInterval</text>
<text text-anchor="start" x="247.84" y="-441.15" font-family="Times,serif" font-size="8.00">+footprint : VODataService:ServiceReference</text>
<text text-anchor="start" x="247.84" y="-431.4" font-family="Times,serif" font-size="8.00">+waveband : ivoa:string</text>
<text text-anchor="start" x="247.84" y="-421.65" font-family="Times,serif" font-size="8.00">+regionOfRegard : ivoa:real</text>
</a>
</g>
</g>
<!-- VODataService:DataCollection&#45;&gt;VODataService:Coverage -->
<g id="edge16" class="edge">
<title>VODataService:DataCollection&#45;&gt;VODataService:Coverage</title>
<path fill="none" stroke="blue" d="M122.4,-648.59C69.72,-628.36 13.01,-606.14 11.22,-603.5 -2.79,-582.93 -4.42,-566.86 11.22,-547.5 71.85,-472.45 131.79,-527.28 228.91,-500.53"/>
<polygon fill="blue" stroke="blue" points="122.22,-648.52 129.25,-646.93 133.42,-652.81 126.39,-654.4 122.22,-648.52"/>
<polygon fill="blue" stroke="blue" points="238.2,-497.72 229.92,-504.92 234.58,-498.81 228.62,-500.61 228.62,-500.61 228.62,-500.61 234.58,-498.81 227.32,-496.3 238.2,-497.72"/>
<text text-anchor="middle" x="29.59" y="-571.62" font-family="Times,serif" font-size="10.00">coverage</text>
<text text-anchor="middle" x="231.86" y="-499.12" font-family="Times,serif" font-size="10.00">0..1</text>
</g>
<!-- VODataService:TableSet -->
<g id="node24" class="node">
<title>VODataService:TableSet</title>
<g id="a_node24"><a xlink:href="../VODataService/TableSet" xlink:title="{TableSet}">
<polygon fill="#8dd3c7" stroke="black" points="282.97,-557.5 282.97,-593.5 336.97,-593.5 336.97,-557.5 282.97,-557.5"/>
<text text-anchor="middle" x="309.84" y="-572.9" font-family="Times,serif" font-size="8.00">TableSet</text>
</a>
</g>
</g>
<!-- VODataService:DataCollection&#45;&gt;VODataService:TableSet -->
<g id="edge17" class="edge">
<title>VODataService:DataCollection&#45;&gt;VODataService:TableSet</title>
<path fill="none" stroke="blue" d="M254.33,-641.85C257.29,-638.81 260.19,-635.75 262.97,-632.75 271.9,-623.09 281.28,-612.06 289.29,-602.35"/>
<polygon fill="blue" stroke="blue" points="254.45,-641.73 253.07,-648.81 246.01,-650.26 247.39,-643.18 254.45,-641.73"/>
<polygon fill="blue" stroke="blue" points="295.44,-594.81 292.61,-605.4 293.05,-597.74 289.12,-602.56 289.12,-602.56 289.12,-602.56 293.05,-597.74 285.63,-599.71 295.44,-594.81"/>
<text text-anchor="middle" x="288.1" y="-623.25" font-family="Times,serif" font-size="10.00">tableset</text>
<text text-anchor="middle" x="288.71" y="-595.62" font-family="Times,serif" font-size="10.00">0..1</text>
</g>
<!-- VODataService:TableSchema -->
<g id="node25" class="node">
<title>VODataService:TableSchema</title>
<g id="a_node25"><a xlink:href="../VODataService/TableSchema" xlink:title="{TableSchema|+name : ivoa:string\l+title : ivoa:string\l+description : ivoa:string\l+utype : ivoa:string\l}">
<polygon fill="#8dd3c7" stroke="black" points="125.84,-425.25 125.84,-490 222.09,-490 222.09,-425.25 125.84,-425.25"/>
<text text-anchor="middle" x="173.97" y="-478.4" font-family="Times,serif" font-size="8.00">TableSchema</text>
<polyline fill="none" stroke="black" points="125.84,-472.25 222.09,-472.25"/>
<text text-anchor="start" x="133.84" y="-460.65" font-family="Times,serif" font-size="8.00">+name : ivoa:string</text>
<text text-anchor="start" x="133.84" y="-450.9" font-family="Times,serif" font-size="8.00">+title : ivoa:string</text>
<text text-anchor="start" x="133.84" y="-441.15" font-family="Times,serif" font-size="8.00">+description : ivoa:string</text>
<text text-anchor="start" x="133.84" y="-431.4" font-family="Times,serif" font-size="8.00">+utype : ivoa:string</text>
</a>
</g>
</g>
<!-- VODataService:TableSet&#45;&gt;VODataService:TableSchema -->
<g id="edge19" class="edge">
<title>VODataService:TableSet&#45;&gt;VODataService:TableSchema</title>
<path fill="none" stroke="blue" d="M279.68,-548.7C261.98,-533.61 239.29,-514.28 219.47,-497.39"/>
<polygon fill="blue" stroke="blue" points="279.79,-548.79 286.95,-549.63 288.92,-556.57 281.76,-555.72 279.79,-548.79"/>
<polygon fill="blue" stroke="blue" points="212.1,-491.11 222.63,-494.17 214.98,-493.57 219.71,-497.6 219.71,-497.6 219.71,-497.6 214.98,-493.57 216.79,-501.02 212.1,-491.11"/>
<text text-anchor="middle" x="269.15" y="-520" font-family="Times,serif" font-size="10.00">schema</text>
<text text-anchor="middle" x="203.67" y="-492.07" font-family="Times,serif" font-size="10.00">1..*</text>
</g>
<!-- VODataService:Table -->
<g id="node31" class="node">
<title>VODataService:Table</title>
<g id="a_node31"><a xlink:href="../VODataService/Table" xlink:title="{Table|+name : ivoa:string\l+title : ivoa:string\l+description : ivoa:string\l+utype : ivoa:string\l+nrows : ivoa:nonnegativeInteger\l+type : ivoa:string\l}">
<polygon fill="#8dd3c7" stroke="black" points="111.97,-283 111.97,-367.25 235.97,-367.25 235.97,-283 111.97,-283"/>
<text text-anchor="middle" x="173.97" y="-355.65" font-family="Times,serif" font-size="8.00">Table</text>
<polyline fill="none" stroke="black" points="111.97,-349.5 235.97,-349.5"/>
<text text-anchor="start" x="119.97" y="-337.9" font-family="Times,serif" font-size="8.00">+name : ivoa:string</text>
<text text-anchor="start" x="119.97" y="-328.15" font-family="Times,serif" font-size="8.00">+title : ivoa:string</text>
<text text-anchor="start" x="119.97" y="-318.4" font-family="Times,serif" font-size="8.00">+description : ivoa:string</text>
<text text-anchor="start" x="119.97" y="-308.65" font-family="Times,serif" font-size="8.00">+utype : ivoa:string</text>
<text text-anchor="start" x="119.97" y="-298.9" font-family="Times,serif" font-size="8.00">+nrows : ivoa:nonnegativeInteger</text>
<text text-anchor="start" x="119.97" y="-289.15" font-family="Times,serif" font-size="8.00">+type : ivoa:string</text>
</a>
</g>
</g>
<!-- VODataService:TableSchema&#45;&gt;VODataService:Table -->
<g id="edge20" class="edge">
<title>VODataService:TableSchema&#45;&gt;VODataService:Table</title>
<path fill="none" stroke="blue" d="M173.97,-412.21C173.97,-401.31 173.97,-389.53 173.97,-378.3"/>
<polygon fill="blue" stroke="blue" points="173.97,-412.13 177.97,-418.13 173.97,-424.13 169.97,-418.13 173.97,-412.13"/>
<polygon fill="blue" stroke="blue" points="173.97,-368.52 178.47,-378.52 173.97,-372.3 173.97,-378.52 173.97,-378.52 173.97,-378.52 173.97,-372.3 169.47,-378.52 173.97,-368.52"/>
<text text-anchor="middle" x="184.09" y="-387.5" font-family="Times,serif" font-size="10.00">table</text>
<text text-anchor="middle" x="166.47" y="-369.05" font-family="Times,serif" font-size="10.00">0..*</text>
</g>
<!-- VODataService:DataResource -->
<g id="node26" class="node">
<title>VODataService:DataResource</title>
<g id="a_node26"><a xlink:href="../VODataService/DataResource" xlink:title="{DataResource|+facility : VOResource:ResourceName\l+instrument : VOResource:ResourceName\l+productTypeServed : ivoa:string\l}">
<polygon fill="#8dd3c7" stroke="black" points="354.59,-548 354.59,-603 509.34,-603 509.34,-548 354.59,-548"/>
<text text-anchor="middle" x="431.97" y="-591.4" font-family="Times,serif" font-size="8.00">DataResource</text>
<polyline fill="none" stroke="black" points="354.59,-585.25 509.34,-585.25"/>
<text text-anchor="start" x="362.59" y="-573.65" font-family="Times,serif" font-size="8.00">+facility : VOResource:ResourceName</text>
<text text-anchor="start" x="362.59" y="-563.9" font-family="Times,serif" font-size="8.00">+instrument : VOResource:ResourceName</text>
<text text-anchor="start" x="362.59" y="-554.15" font-family="Times,serif" font-size="8.00">+productTypeServed : ivoa:string</text>
</a>
</g>
</g>
<!-- VODataService:DataResource&#45;&gt;VOResource:Service -->
<g id="edge9" class="edge">
<title>VODataService:DataResource&#45;&gt;VOResource:Service</title>
<path fill="none" stroke="red" d="M440.55,-547.62C446.38,-529.35 454.09,-505.23 460,-486.71"/>
<polygon fill="none" stroke="red" points="463.25,-488.04 462.96,-477.45 456.58,-485.91 463.25,-488.04"/>
</g>
<!-- VODataService:DataResource&#45;&gt;VODataService:Coverage -->
<g id="edge21" class="edge">
<title>VODataService:DataResource&#45;&gt;VODataService:Coverage</title>
<path fill="none" stroke="blue" d="M398.17,-538.24C389.22,-528.63 379.41,-518.1 369.93,-507.94"/>
<polygon fill="blue" stroke="blue" points="398.12,-538.19 405.14,-539.85 406.31,-546.97 399.29,-545.3 398.12,-538.19"/>
<polygon fill="blue" stroke="blue" points="363.26,-500.78 373.37,-505.02 365.84,-503.54 370.08,-508.09 370.08,-508.09 370.08,-508.09 365.84,-503.54 366.78,-511.16 363.26,-500.78"/>
<text text-anchor="middle" x="406.02" y="-520" font-family="Times,serif" font-size="10.00">coverage</text>
<text text-anchor="middle" x="354.93" y="-501.64" font-family="Times,serif" font-size="10.00">0..1</text>
</g>
<!-- VODataService:DataService -->
<g id="node27" class="node">
<title>VODataService:DataService</title>
<g id="a_node27"><a xlink:href="../VODataService/DataService" xlink:title="{DataService}">
<polygon fill="#8dd3c7" stroke="black" points="403.72,-665.62 403.72,-701.62 460.22,-701.62 460.22,-665.62 403.72,-665.62"/>
<text text-anchor="middle" x="431.97" y="-681.02" font-family="Times,serif" font-size="8.00">DataService</text>
</a>
</g>
</g>
<!-- VODataService:DataService&#45;&gt;VODataService:DataResource -->
<g id="edge10" class="edge">
<title>VODataService:DataService&#45;&gt;VODataService:DataResource</title>
<path fill="none" stroke="red" d="M431.97,-665.57C431.97,-651.83 431.97,-631.98 431.97,-614.5"/>
<polygon fill="none" stroke="red" points="435.47,-614.96 431.97,-604.96 428.47,-614.96 435.47,-614.96"/>
</g>
<!-- VODataService:ParamHTTP -->
<g id="node28" class="node">
<title>VODataService:ParamHTTP</title>
<g id="a_node28"><a xlink:href="../VODataService/ParamHTTP" xlink:title="{ParamHTTP|+queryType : VODataService:HTTPQueryType\l+resultType : ivoa:string\l+testQuery : ivoa:string\l}">
<polygon fill="#8dd3c7" stroke="black" points="420.59,-297.62 420.59,-352.62 593.34,-352.62 593.34,-297.62 420.59,-297.62"/>
<text text-anchor="middle" x="506.97" y="-341.02" font-family="Times,serif" font-size="8.00">ParamHTTP</text>
<polyline fill="none" stroke="black" points="420.59,-334.88 593.34,-334.88"/>
<text text-anchor="start" x="428.59" y="-323.27" font-family="Times,serif" font-size="8.00">+queryType : VODataService:HTTPQueryType</text>
<text text-anchor="start" x="428.59" y="-313.52" font-family="Times,serif" font-size="8.00">+resultType : ivoa:string</text>
<text text-anchor="start" x="428.59" y="-303.77" font-family="Times,serif" font-size="8.00">+testQuery : ivoa:string</text>
</a>
</g>
</g>
<!-- VODataService:ParamHTTP&#45;&gt;VOResource:Interface -->
<g id="edge11" class="edge">
<title>VODataService:ParamHTTP&#45;&gt;VOResource:Interface</title>
<path fill="none" stroke="red" d="M517.17,-297.25C524.11,-278.98 533.27,-254.86 540.3,-236.34"/>
<polygon fill="none" stroke="red" points="543.56,-237.64 543.83,-227.04 537.01,-235.15 543.56,-237.64"/>
</g>
<!-- VODataService:InputParam -->
<g id="node34" class="node">
<title>VODataService:InputParam</title>
<g id="a_node34"><a xlink:href="../VODataService/InputParam" xlink:title="{InputParam|+dataType : VODataService:DataType\l+use : VODataService:ParamUse\l+std : ivoa:boolean\l}">
<polygon fill="#8dd3c7" stroke="black" points="344.59,-179.75 344.59,-234.75 487.34,-234.75 487.34,-179.75 344.59,-179.75"/>
<text text-anchor="middle" x="415.97" y="-223.15" font-family="Times,serif" font-size="8.00">InputParam</text>
<polyline fill="none" stroke="black" points="344.59,-217 487.34,-217"/>
<text text-anchor="start" x="352.59" y="-205.4" font-family="Times,serif" font-size="8.00">+dataType : VODataService:DataType</text>
<text text-anchor="start" x="352.59" y="-195.65" font-family="Times,serif" font-size="8.00">+use : VODataService:ParamUse</text>
<text text-anchor="start" x="352.59" y="-185.9" font-family="Times,serif" font-size="8.00">+std : ivoa:boolean</text>
</a>
</g>
</g>
<!-- VODataService:ParamHTTP&#45;&gt;VODataService:InputParam -->
<g id="edge22" class="edge">
<title>VODataService:ParamHTTP&#45;&gt;VODataService:InputParam</title>
<path fill="none" stroke="blue" d="M477.9,-287.12C466.99,-273.21 454.61,-257.45 443.8,-243.69"/>
<polygon fill="blue" stroke="blue" points="477.9,-287.1 484.75,-289.35 485.31,-296.54 478.45,-294.29 477.9,-287.1"/>
<polygon fill="blue" stroke="blue" points="437.71,-235.94 447.43,-241.02 440.05,-238.91 443.89,-243.8 443.89,-243.8 443.89,-243.8 440.05,-238.91 440.35,-246.58 437.71,-235.94"/>
<text text-anchor="middle" x="471.12" y="-255" font-family="Times,serif" font-size="10.00">param</text>
<text text-anchor="middle" x="429.46" y="-236.73" font-family="Times,serif" font-size="10.00">0..*</text>
</g>
<!-- VODataService:CatalogResource -->
<g id="node29" class="node">
<title>VODataService:CatalogResource</title>
<g id="a_node29"><a xlink:href="../VODataService/CatalogResource" xlink:title="{CatalogResource}">
<polygon fill="#8dd3c7" stroke="black" points="309.59,-665.62 309.59,-701.62 380.34,-701.62 380.34,-665.62 309.59,-665.62"/>
<text text-anchor="middle" x="344.97" y="-681.02" font-family="Times,serif" font-size="8.00">CatalogResource</text>
</a>
</g>
</g>
<!-- VODataService:CatalogResource&#45;&gt;VODataService:TableSet -->
<g id="edge23" class="edge">
<title>VODataService:CatalogResource&#45;&gt;VODataService:TableSet</title>
<path fill="none" stroke="blue" d="M335.31,-653.34C330.24,-637.97 324.07,-619.25 319.08,-604.13"/>
<polygon fill="blue" stroke="blue" points="335.31,-653.32 340.98,-657.77 339.06,-664.72 333.39,-660.27 335.31,-653.32"/>
<polygon fill="blue" stroke="blue" points="316.08,-595.02 323.48,-603.11 317.26,-598.61 319.21,-604.52 319.21,-604.52 319.21,-604.52 317.26,-598.61 314.94,-605.92 316.08,-595.02"/>
<text text-anchor="middle" x="344.27" y="-623.25" font-family="Times,serif" font-size="10.00">tableset</text>
<text text-anchor="middle" x="308.2" y="-595.61" font-family="Times,serif" font-size="10.00">0..1</text>
</g>
<!-- VODataService:CatalogResource&#45;&gt;VODataService:DataResource -->
<g id="edge12" class="edge">
<title>VODataService:CatalogResource&#45;&gt;VODataService:DataResource</title>
<path fill="none" stroke="red" d="M358.95,-665.57C370.75,-651.17 388.05,-630.07 402.85,-612.02"/>
<polygon fill="none" stroke="red" points="405.28,-614.57 408.92,-604.62 399.87,-610.13 405.28,-614.57"/>
</g>
<!-- VODataService:CatalogService -->
<g id="node30" class="node">
<title>VODataService:CatalogService</title>
<g id="a_node30"><a xlink:href="../VODataService/CatalogService" xlink:title="{CatalogService}">
<polygon fill="#8dd3c7" stroke="black" points="312.22,-826.88 312.22,-862.88 377.72,-862.88 377.72,-826.88 312.22,-826.88"/>
<text text-anchor="middle" x="344.97" y="-842.27" font-family="Times,serif" font-size="8.00">CatalogService</text>
</a>
</g>
</g>
<!-- VODataService:CatalogService&#45;&gt;VODataService:CatalogResource -->
<g id="edge13" class="edge">
<title>VODataService:CatalogService&#45;&gt;VODataService:CatalogResource</title>
<path fill="none" stroke="red" d="M344.97,-826.53C344.97,-799.25 344.97,-746.03 344.97,-713.08"/>
<polygon fill="none" stroke="red" points="348.47,-713.46 344.97,-703.46 341.47,-713.46 348.47,-713.46"/>
</g>
<!-- VODataService:TableParam -->
<g id="node33" class="node">
<title>VODataService:TableParam</title>
<g id="a_node33"><a xlink:href="../VODataService/TableParam" xlink:title="{TableParam|+dataType : VODataService:TableDataType\l+flag : ivoa:string\l+std : ivoa:boolean\l}">
<polygon fill="#8dd3c7" stroke="black" points="166.97,-179.75 166.97,-234.75 326.97,-234.75 326.97,-179.75 166.97,-179.75"/>
<text text-anchor="middle" x="246.97" y="-223.15" font-family="Times,serif" font-size="8.00">TableParam</text>
<polyline fill="none" stroke="black" points="166.97,-217 326.97,-217"/>
<text text-anchor="start" x="174.97" y="-205.4" font-family="Times,serif" font-size="8.00">+dataType : VODataService:TableDataType</text>
<text text-anchor="start" x="174.97" y="-195.65" font-family="Times,serif" font-size="8.00">+flag : ivoa:string</text>
<text text-anchor="start" x="174.97" y="-185.9" font-family="Times,serif" font-size="8.00">+std : ivoa:boolean</text>
</a>
</g>
</g>
<!-- VODataService:Table&#45;&gt;VODataService:TableParam -->
<g id="edge24" class="edge">
<title>VODataService:Table&#45;&gt;VODataService:TableParam</title>
<path fill="none" stroke="blue" d="M207.04,-271.64C212.84,-262.43 218.75,-253.04 224.19,-244.4"/>
<polygon fill="blue" stroke="blue" points="206.99,-271.7 207.18,-278.91 200.6,-281.86 200.41,-274.65 206.99,-271.7"/>
<polygon fill="blue" stroke="blue" points="229.45,-236.05 227.93,-246.91 227.44,-239.25 224.12,-244.51 224.12,-244.51 224.12,-244.51 227.44,-239.25 220.32,-242.12 229.45,-236.05"/>
<text text-anchor="middle" x="232.38" y="-255" font-family="Times,serif" font-size="10.00">column</text>
<text text-anchor="middle" x="222.6" y="-236.77" font-family="Times,serif" font-size="10.00">0..*</text>
</g>
<!-- VODataService:ForeignKey -->
<g id="node35" class="node">
<title>VODataService:ForeignKey</title>
<g id="a_node35"><a xlink:href="../VODataService/ForeignKey" xlink:title="{ForeignKey|+targetTable : ivoa:string\l+description : ivoa:string\l+utype : ivoa:string\l}">
<polygon fill="#8dd3c7" stroke="black" points="52.84,-179.75 52.84,-234.75 149.09,-234.75 149.09,-179.75 52.84,-179.75"/>
<text text-anchor="middle" x="100.97" y="-223.15" font-family="Times,serif" font-size="8.00">ForeignKey</text>
<polyline fill="none" stroke="black" points="52.84,-217 149.09,-217"/>
<text text-anchor="start" x="60.84" y="-205.4" font-family="Times,serif" font-size="8.00">+targetTable : ivoa:string</text>
<text text-anchor="start" x="60.84" y="-195.65" font-family="Times,serif" font-size="8.00">+description : ivoa:string</text>
<text text-anchor="start" x="60.84" y="-185.9" font-family="Times,serif" font-size="8.00">+utype : ivoa:string</text>
</a>
</g>
</g>
<!-- VODataService:Table&#45;&gt;VODataService:ForeignKey -->
<g id="edge25" class="edge">
<title>VODataService:Table&#45;&gt;VODataService:ForeignKey</title>
<path fill="none" stroke="blue" d="M140.9,-271.64C135.1,-262.43 129.18,-253.04 123.74,-244.4"/>
<polygon fill="blue" stroke="blue" points="140.94,-271.7 147.53,-274.65 147.34,-281.86 140.76,-278.91 140.94,-271.7"/>
<polygon fill="blue" stroke="blue" points="118.49,-236.05 127.62,-242.12 120.5,-239.25 123.82,-244.51 123.82,-244.51 123.82,-244.51 120.5,-239.25 120.01,-246.91 118.49,-236.05"/>
<text text-anchor="middle" x="158.53" y="-255" font-family="Times,serif" font-size="10.00">foreignKey</text>
<text text-anchor="middle" x="110.34" y="-236.77" font-family="Times,serif" font-size="10.00">0..*</text>
</g>
<!-- VODataService:BaseParam -->
<g id="node32" class="node">
<title>VODataService:BaseParam</title>
<g id="a_node32"><a xlink:href="../VODataService/BaseParam" xlink:title="{BaseParam|+name : ivoa:string\l+description : ivoa:string\l+unit : ivoa:string\l+ucd : ivoa:string\l+utype : ivoa:string\l}">
<polygon fill="#8dd3c7" stroke="black" points="282.84,-57 282.84,-131.5 379.09,-131.5 379.09,-57 282.84,-57"/>
<text text-anchor="middle" x="330.97" y="-119.9" font-family="Times,serif" font-size="8.00">BaseParam</text>
<polyline fill="none" stroke="black" points="282.84,-113.75 379.09,-113.75"/>
<text text-anchor="start" x="290.84" y="-102.15" font-family="Times,serif" font-size="8.00">+name : ivoa:string</text>
<text text-anchor="start" x="290.84" y="-92.4" font-family="Times,serif" font-size="8.00">+description : ivoa:string</text>
<text text-anchor="start" x="290.84" y="-82.65" font-family="Times,serif" font-size="8.00">+unit : ivoa:string</text>
<text text-anchor="start" x="290.84" y="-72.9" font-family="Times,serif" font-size="8.00">+ucd : ivoa:string</text>
<text text-anchor="start" x="290.84" y="-63.15" font-family="Times,serif" font-size="8.00">+utype : ivoa:string</text>
</a>
</g>
</g>
<!-- VODataService:TableParam&#45;&gt;VODataService:BaseParam -->
<g id="edge14" class="edge">
<title>VODataService:TableParam&#45;&gt;VODataService:BaseParam</title>
<path fill="none" stroke="red" d="M267.3,-179.38C276.06,-167.81 286.55,-153.95 296.46,-140.85"/>
<polygon fill="none" stroke="red" points="299.05,-143.23 302.29,-133.14 293.47,-139.01 299.05,-143.23"/>
</g>
<!-- VODataService:InputParam&#45;&gt;VODataService:BaseParam -->
<g id="edge15" class="edge">
<title>VODataService:InputParam&#45;&gt;VODataService:BaseParam</title>
<path fill="none" stroke="red" d="M395.39,-179.38C386.53,-167.81 375.92,-153.95 365.89,-140.85"/>
<polygon fill="none" stroke="red" points="368.84,-138.95 359.98,-133.14 363.28,-143.21 368.84,-138.95"/>
</g>
<!-- VODataService:FKColumn -->
<g id="node36" class="node">
<title>VODataService:FKColumn</title>
<g id="a_node36"><a xlink:href="../VODataService/FKColumn" xlink:title="{FKColumn|+fromColumn : ivoa:string\l+targetColumn : ivoa:string\l}">
<polygon fill="#8dd3c7" stroke="black" points="49.09,-71.62 49.09,-116.88 152.84,-116.88 152.84,-71.62 49.09,-71.62"/>
<text text-anchor="middle" x="100.97" y="-105.28" font-family="Times,serif" font-size="8.00">FKColumn</text>
<polyline fill="none" stroke="black" points="49.09,-99.12 152.84,-99.12"/>
<text text-anchor="start" x="57.09" y="-87.53" font-family="Times,serif" font-size="8.00">+fromColumn : ivoa:string</text>
<text text-anchor="start" x="57.09" y="-77.78" font-family="Times,serif" font-size="8.00">+targetColumn : ivoa:string</text>
</a>
</g>
</g>
<!-- VODataService:ForeignKey&#45;&gt;VODataService:FKColumn -->
<g id="edge26" class="edge">
<title>VODataService:ForeignKey&#45;&gt;VODataService:FKColumn</title>
<path fill="none" stroke="blue" d="M100.97,-166.58C100.97,-153.93 100.97,-140.1 100.97,-128"/>
<polygon fill="blue" stroke="blue" points="100.97,-166.48 104.97,-172.48 100.97,-178.48 96.97,-172.48 100.97,-166.48"/>
<polygon fill="blue" stroke="blue" points="100.97,-118.25 105.47,-128.25 100.97,-122.04 100.97,-128.25 100.97,-128.25 100.97,-128.25 100.97,-122.04 96.47,-128.25 100.97,-118.25"/>
<text text-anchor="middle" x="121.59" y="-151.75" font-family="Times,serif" font-size="10.00">fkColumn</text>
<text text-anchor="middle" x="93.47" y="-118.79" font-family="Times,serif" font-size="10.00">1..*</text>
</g>
</g>
</svg>
