<?xml version="1.0" encoding="UTF-8" standalone="no"?>
<!DOCTYPE svg PUBLIC "-//W3C//DTD SVG 1.1//EN"
 "http://www.w3.org/Graphics/SVG/1.1/DTD/svg11.dtd">
<!-- Generated by graphviz version 12.1.1 (20240910.0053)
 -->
<!-- Title: GVmap Pages: 1 -->
<svg width="1604pt" height="935pt"
 viewBox="0.00 0.00 1603.81 934.50" xmlns="http://www.w3.org/2000/svg" xmlns:xlink="http://www.w3.org/1999/xlink">
<g id="graph0" class="graph" transform="scale(1 1) rotate(0) translate(4 930.5)">
<title>GVmap</title>
<polygon fill="white" stroke="none" points="-4,4 -4,-930.5 1599.81,-930.5 1599.81,4 -4,4"/>
<text text-anchor="middle" x="797.9" y="-7.2" font-family="Times,serif" font-size="14.00">VODataService data model</text>
<!-- VOResource:Resource -->
<g id="node1" class="node">
<title>VOResource:Resource</title>
<g id="a_node1"><a xlink:href="#Resource" xlink:title="{VOResource:Resource}">
<polygon fill="grey" stroke="black" points="55.31,-552.62 55.31,-588.62 145.56,-588.62 145.56,-552.62 55.31,-552.62"/>
<text text-anchor="middle" x="100.43" y="-568.02" font-family="Times,serif" font-size="8.00">VOResource:Resource</text>
</a>
</g>
</g>
<!-- VOResource:AccessURL -->
<g id="node2" class="node">
<title>VOResource:AccessURL</title>
<g id="a_node2"><a xlink:href="#AccessURL" xlink:title="{VOResource:AccessURL}">
<polygon fill="grey" stroke="black" points="163.43,-552.62 163.43,-588.62 263.43,-588.62 263.43,-552.62 163.43,-552.62"/>
<text text-anchor="middle" x="213.43" y="-568.02" font-family="Times,serif" font-size="8.00">VOResource:AccessURL</text>
</a>
</g>
</g>
<!-- VOResource:Service -->
<g id="node3" class="node">
<title>VOResource:Service</title>
<g id="a_node3"><a xlink:href="#Service" xlink:title="{VOResource:Service}">
<polygon fill="grey" stroke="black" points="436.93,-439.62 436.93,-475.62 521.93,-475.62 521.93,-439.62 436.93,-439.62"/>
<text text-anchor="middle" x="479.43" y="-455.02" font-family="Times,serif" font-size="8.00">VOResource:Service</text>
</a>
</g>
</g>
<!-- VOResource:Interface -->
<g id="node4" class="node">
<title>VOResource:Interface</title>
<g id="a_node4"><a xlink:href="#Interface" xlink:title="{VOResource:Interface}">
<polygon fill="grey" stroke="black" points="516.31,-189.25 516.31,-225.25 606.56,-225.25 606.56,-189.25 516.31,-189.25"/>
<text text-anchor="middle" x="561.43" y="-204.65" font-family="Times,serif" font-size="8.00">VOResource:Interface</text>
</a>
</g>
</g>
<!-- VODataService:ArrayShape -->
<g id="node5" class="node">
<title>VODataService:ArrayShape</title>
<g id="a_node5"><a xlink:href="../VODataService/ArrayShape" xlink:title="{&amp;lt;&amp;lt;primitive type&amp;gt;&amp;gt;\nArrayShape}">
<polygon fill="#8dd3c7" stroke="black" points="396.93,-817.12 396.93,-853.12 475.93,-853.12 475.93,-817.12 396.93,-817.12"/>
<text text-anchor="middle" x="436.43" y="-837.52" font-family="Times,serif" font-size="8.00">&lt;&lt;primitive type&gt;&gt;</text>
<text text-anchor="middle" x="436.43" y="-827.77" font-family="Times,serif" font-size="8.00">ArrayShape</text>
</a>
</g>
</g>
<!-- VODataService:FloatInterval -->
<g id="node6" class="node">
<title>VODataService:FloatInterval</title>
<g id="a_node6"><a xlink:href="../VODataService/FloatInterval" xlink:title="{&amp;lt;&amp;lt;primitive type&amp;gt;&amp;gt;\nFloatInterval}">
<polygon fill="#8dd3c7" stroke="black" points="493.93,-817.12 493.93,-853.12 572.93,-853.12 572.93,-817.12 493.93,-817.12"/>
<text text-anchor="middle" x="533.43" y="-837.52" font-family="Times,serif" font-size="8.00">&lt;&lt;primitive type&gt;&gt;</text>
<text text-anchor="middle" x="533.43" y="-827.77" font-family="Times,serif" font-size="8.00">FloatInterval</text>
</a>
</g>
</g>
<!-- VODataService:SimpleDataType_enum -->
<g id="node7" class="node">
<title>VODataService:SimpleDataType_enum</title>
<g id="a_node7"><a xlink:href="../VODataService/SimpleDataType_enum" xlink:title="{&amp;lt;&amp;lt;enumeration&amp;gt;&amp;gt;\nSimpleDataType_enum|+integer\l+real\l+complex\l+boolean\l+char\l+string\l}">
<polygon fill="#8dd3c7" stroke="black" points="590.93,-788.12 590.93,-882.12 681.93,-882.12 681.93,-788.12 590.93,-788.12"/>
<text text-anchor="middle" x="636.43" y="-870.52" font-family="Times,serif" font-size="8.00">&lt;&lt;enumeration&gt;&gt;</text>
<text text-anchor="middle" x="636.43" y="-860.77" font-family="Times,serif" font-size="8.00">SimpleDataType_enum</text>
<polyline fill="none" stroke="black" points="590.93,-854.62 681.93,-854.62"/>
<text text-anchor="start" x="598.93" y="-843.02" font-family="Times,serif" font-size="8.00">+integer</text>
<text text-anchor="start" x="598.93" y="-833.27" font-family="Times,serif" font-size="8.00">+real</text>
<text text-anchor="start" x="598.93" y="-823.52" font-family="Times,serif" font-size="8.00">+complex</text>
<text text-anchor="start" x="598.93" y="-813.77" font-family="Times,serif" font-size="8.00">+boolean</text>
<text text-anchor="start" x="598.93" y="-804.02" font-family="Times,serif" font-size="8.00">+char</text>
<text text-anchor="start" x="598.93" y="-794.27" font-family="Times,serif" font-size="8.00">+string</text>
</a>
</g>
</g>
<!-- VODataService:VOTableType_enum -->
<g id="node8" class="node">
<title>VODataService:VOTableType_enum</title>
<g id="a_node8"><a xlink:href="../VODataService/VOTableType_enum" xlink:title="{&amp;lt;&amp;lt;enumeration&amp;gt;&amp;gt;\nVOTableType_enum|+boolean\l+bit\l+unsignedByte\l+short\l+int\l+long\l+char\l+unicodeChar\l+float\l+double\l+floatComplex\l+doubleComplex\l}">
<polygon fill="#8dd3c7" stroke="black" points="700.43,-758.88 700.43,-911.38 782.43,-911.38 782.43,-758.88 700.43,-758.88"/>
<text text-anchor="middle" x="741.43" y="-899.77" font-family="Times,serif" font-size="8.00">&lt;&lt;enumeration&gt;&gt;</text>
<text text-anchor="middle" x="741.43" y="-890.02" font-family="Times,serif" font-size="8.00">VOTableType_enum</text>
<polyline fill="none" stroke="black" points="700.43,-883.88 782.43,-883.88"/>
<text text-anchor="start" x="708.43" y="-872.27" font-family="Times,serif" font-size="8.00">+boolean</text>
<text text-anchor="start" x="708.43" y="-862.52" font-family="Times,serif" font-size="8.00">+bit</text>
<text text-anchor="start" x="708.43" y="-852.77" font-family="Times,serif" font-size="8.00">+unsignedByte</text>
<text text-anchor="start" x="708.43" y="-843.02" font-family="Times,serif" font-size="8.00">+short</text>
<text text-anchor="start" x="708.43" y="-833.27" font-family="Times,serif" font-size="8.00">+int</text>
<text text-anchor="start" x="708.43" y="-823.52" font-family="Times,serif" font-size="8.00">+long</text>
<text text-anchor="start" x="708.43" y="-813.77" font-family="Times,serif" font-size="8.00">+char</text>
<text text-anchor="start" x="708.43" y="-804.02" font-family="Times,serif" font-size="8.00">+unicodeChar</text>
<text text-anchor="start" x="708.43" y="-794.27" font-family="Times,serif" font-size="8.00">+float</text>
<text text-anchor="start" x="708.43" y="-784.52" font-family="Times,serif" font-size="8.00">+double</text>
<text text-anchor="start" x="708.43" y="-774.77" font-family="Times,serif" font-size="8.00">+floatComplex</text>
<text text-anchor="start" x="708.43" y="-765.02" font-family="Times,serif" font-size="8.00">+doubleComplex</text>
</a>
</g>
</g>
<!-- VODataService:TAPType_enum -->
<g id="node9" class="node">
<title>VODataService:TAPType_enum</title>
<g id="a_node9"><a xlink:href="../VODataService/TAPType_enum" xlink:title="{&amp;lt;&amp;lt;enumeration&amp;gt;&amp;gt;\nTAPType_enum|+BOOLEAN\l+SMALLINT\l+INTEGER\l+BIGINT\l+REAL\l+DOUBLE\l+TIMESTAMP\l+CHAR\l+VARCHAR\l+BINARY\l+VARBINARY\l+POINT\l+REGION\l+CLOB\l+BLOB\l}">
<polygon fill="#8dd3c7" stroke="black" points="800.56,-744.25 800.56,-926 874.31,-926 874.31,-744.25 800.56,-744.25"/>
<text text-anchor="middle" x="837.43" y="-914.4" font-family="Times,serif" font-size="8.00">&lt;&lt;enumeration&gt;&gt;</text>
<text text-anchor="middle" x="837.43" y="-904.65" font-family="Times,serif" font-size="8.00">TAPType_enum</text>
<polyline fill="none" stroke="black" points="800.56,-898.5 874.31,-898.5"/>
<text text-anchor="start" x="808.56" y="-886.9" font-family="Times,serif" font-size="8.00">+BOOLEAN</text>
<text text-anchor="start" x="808.56" y="-877.15" font-family="Times,serif" font-size="8.00">+SMALLINT</text>
<text text-anchor="start" x="808.56" y="-867.4" font-family="Times,serif" font-size="8.00">+INTEGER</text>
<text text-anchor="start" x="808.56" y="-857.65" font-family="Times,serif" font-size="8.00">+BIGINT</text>
<text text-anchor="start" x="808.56" y="-847.9" font-family="Times,serif" font-size="8.00">+REAL</text>
<text text-anchor="start" x="808.56" y="-838.15" font-family="Times,serif" font-size="8.00">+DOUBLE</text>
<text text-anchor="start" x="808.56" y="-828.4" font-family="Times,serif" font-size="8.00">+TIMESTAMP</text>
<text text-anchor="start" x="808.56" y="-818.65" font-family="Times,serif" font-size="8.00">+CHAR</text>
<text text-anchor="start" x="808.56" y="-808.9" font-family="Times,serif" font-size="8.00">+VARCHAR</text>
<text text-anchor="start" x="808.56" y="-799.15" font-family="Times,serif" font-size="8.00">+BINARY</text>
<text text-anchor="start" x="808.56" y="-789.4" font-family="Times,serif" font-size="8.00">+VARBINARY</text>
<text text-anchor="start" x="808.56" y="-779.65" font-family="Times,serif" font-size="8.00">+POINT</text>
<text text-anchor="start" x="808.56" y="-769.9" font-family="Times,serif" font-size="8.00">+REGION</text>
<text text-anchor="start" x="808.56" y="-760.15" font-family="Times,serif" font-size="8.00">+CLOB</text>
<text text-anchor="start" x="808.56" y="-750.4" font-family="Times,serif" font-size="8.00">+BLOB</text>
</a>
</g>
</g>
<!-- VODataService:HTTPQueryType -->
<g id="node10" class="node">
<title>VODataService:HTTPQueryType</title>
<g id="a_node10"><a xlink:href="../VODataService/HTTPQueryType" xlink:title="{&amp;lt;&amp;lt;enumeration&amp;gt;&amp;gt;\nHTTPQueryType|+GET\l+POST\l}">
<polygon fill="#8dd3c7" stroke="black" points="892.56,-807.62 892.56,-862.62 966.31,-862.62 966.31,-807.62 892.56,-807.62"/>
<text text-anchor="middle" x="929.43" y="-851.02" font-family="Times,serif" font-size="8.00">&lt;&lt;enumeration&gt;&gt;</text>
<text text-anchor="middle" x="929.43" y="-841.27" font-family="Times,serif" font-size="8.00">HTTPQueryType</text>
<polyline fill="none" stroke="black" points="892.56,-835.12 966.31,-835.12"/>
<text text-anchor="start" x="900.56" y="-823.52" font-family="Times,serif" font-size="8.00">+GET</text>
<text text-anchor="start" x="900.56" y="-813.77" font-family="Times,serif" font-size="8.00">+POST</text>
</a>
</g>
</g>
<!-- VODataService:ParamUse -->
<g id="node11" class="node">
<title>VODataService:ParamUse</title>
<g id="a_node11"><a xlink:href="../VODataService/ParamUse" xlink:title="{&amp;lt;&amp;lt;enumeration&amp;gt;&amp;gt;\nParamUse|+required\l+optional\l+ignored\l}">
<polygon fill="#8dd3c7" stroke="black" points="984.56,-802.75 984.56,-867.5 1058.31,-867.5 1058.31,-802.75 984.56,-802.75"/>
<text text-anchor="middle" x="1021.43" y="-855.9" font-family="Times,serif" font-size="8.00">&lt;&lt;enumeration&gt;&gt;</text>
<text text-anchor="middle" x="1021.43" y="-846.15" font-family="Times,serif" font-size="8.00">ParamUse</text>
<polyline fill="none" stroke="black" points="984.56,-840 1058.31,-840"/>
<text text-anchor="start" x="992.56" y="-828.4" font-family="Times,serif" font-size="8.00">+required</text>
<text text-anchor="start" x="992.56" y="-818.65" font-family="Times,serif" font-size="8.00">+optional</text>
<text text-anchor="start" x="992.56" y="-808.9" font-family="Times,serif" font-size="8.00">+ignored</text>
</a>
</g>
</g>
<!-- VODataService:SpatialCoverage -->
<g id="node12" class="node">
<title>VODataService:SpatialCoverage</title>
<g id="a_node12"><a xlink:href="../VODataService/SpatialCoverage" xlink:title="{&amp;lt;&amp;lt;datatype&amp;gt;&amp;gt;\nSpatialCoverage|+value : ivoa:string\l+frame : ivoa:string\l}">
<polygon fill="#8dd3c7" stroke="black" points="1076.18,-807.62 1076.18,-862.62 1156.68,-862.62 1156.68,-807.62 1076.18,-807.62"/>
<text text-anchor="middle" x="1116.43" y="-851.02" font-family="Times,serif" font-size="8.00">&lt;&lt;datatype&gt;&gt;</text>
<text text-anchor="middle" x="1116.43" y="-841.27" font-family="Times,serif" font-size="8.00">SpatialCoverage</text>
<polyline fill="none" stroke="black" points="1076.18,-835.12 1156.68,-835.12"/>
<text text-anchor="start" x="1084.18" y="-823.52" font-family="Times,serif" font-size="8.00">+value : ivoa:string</text>
<text text-anchor="start" x="1084.18" y="-813.77" font-family="Times,serif" font-size="8.00">+frame : ivoa:string</text>
</a>
</g>
</g>
<!-- VODataService:ServiceReference -->
<g id="node13" class="node">
<title>VODataService:ServiceReference</title>
<g id="a_node13"><a xlink:href="../VODataService/ServiceReference" xlink:title="{&amp;lt;&amp;lt;datatype&amp;gt;&amp;gt;\nServiceReference|+value : ivoa:anyURI\l+ivoid : VOResource:IdentifierURI\l}">
<polygon fill="#8dd3c7" stroke="black" points="1174.31,-807.62 1174.31,-862.62 1306.56,-862.62 1306.56,-807.62 1174.31,-807.62"/>
<text text-anchor="middle" x="1240.43" y="-851.02" font-family="Times,serif" font-size="8.00">&lt;&lt;datatype&gt;&gt;</text>
<text text-anchor="middle" x="1240.43" y="-841.27" font-family="Times,serif" font-size="8.00">ServiceReference</text>
<polyline fill="none" stroke="black" points="1174.31,-835.12 1306.56,-835.12"/>
<text text-anchor="start" x="1182.31" y="-823.52" font-family="Times,serif" font-size="8.00">+value : ivoa:anyURI</text>
<text text-anchor="start" x="1182.31" y="-813.77" font-family="Times,serif" font-size="8.00">+ivoid : VOResource:IdentifierURI</text>
</a>
</g>
</g>
<!-- VODataService:Format -->
<g id="node14" class="node">
<title>VODataService:Format</title>
<g id="a_node14"><a xlink:href="../VODataService/Format" xlink:title="{&amp;lt;&amp;lt;datatype&amp;gt;&amp;gt;\nFormat|+value : ivoa:string\l+isMIMEType : ivoa:boolean\l}">
<polygon fill="#8dd3c7" stroke="black" points="1324.18,-807.62 1324.18,-862.62 1434.68,-862.62 1434.68,-807.62 1324.18,-807.62"/>
<text text-anchor="middle" x="1379.43" y="-851.02" font-family="Times,serif" font-size="8.00">&lt;&lt;datatype&gt;&gt;</text>
<text text-anchor="middle" x="1379.43" y="-841.27" font-family="Times,serif" font-size="8.00">Format</text>
<polyline fill="none" stroke="black" points="1324.18,-835.12 1434.68,-835.12"/>
<text text-anchor="start" x="1332.18" y="-823.52" font-family="Times,serif" font-size="8.00">+value : ivoa:string</text>
<text text-anchor="start" x="1332.18" y="-813.77" font-family="Times,serif" font-size="8.00">+isMIMEType : ivoa:boolean</text>
</a>
</g>
</g>
<!-- VODataService:DataType -->
<g id="node15" class="node">
<title>VODataService:DataType</title>
<g id="a_node15"><a xlink:href="../VODataService/DataType" xlink:title="{&amp;lt;&amp;lt;datatype&amp;gt;&amp;gt;\nDataType|+arraysize : VODataService:ArrayShape\l+delim : ivoa:string\l+extendedType : ivoa:string\l+extendedSchema : ivoa:anyURI\l}">
<polygon fill="#8dd3c7" stroke="black" points="1258.93,-420.38 1258.93,-494.88 1409.93,-494.88 1409.93,-420.38 1258.93,-420.38"/>
<text text-anchor="middle" x="1334.43" y="-483.27" font-family="Times,serif" font-size="8.00">&lt;&lt;datatype&gt;&gt;</text>
<text text-anchor="middle" x="1334.43" y="-473.52" font-family="Times,serif" font-size="8.00">DataType</text>
<polyline fill="none" stroke="black" points="1258.93,-467.38 1409.93,-467.38"/>
<text text-anchor="start" x="1266.93" y="-455.77" font-family="Times,serif" font-size="8.00">+arraysize : VODataService:ArrayShape</text>
<text text-anchor="start" x="1266.93" y="-446.02" font-family="Times,serif" font-size="8.00">+delim : ivoa:string</text>
<text text-anchor="start" x="1266.93" y="-436.27" font-family="Times,serif" font-size="8.00">+extendedType : ivoa:string</text>
<text text-anchor="start" x="1266.93" y="-426.52" font-family="Times,serif" font-size="8.00">+extendedSchema : ivoa:anyURI</text>
</a>
</g>
</g>
<!-- VODataService:SimpleDataType -->
<g id="node16" class="node">
<title>VODataService:SimpleDataType</title>
<g id="a_node16"><a xlink:href="../VODataService/SimpleDataType" xlink:title="{&amp;lt;&amp;lt;datatype&amp;gt;&amp;gt;\nSimpleDataType|+val : VODataService:SimpleDataType_enum\l}">
<polygon fill="#8dd3c7" stroke="black" points="1211.06,-548 1211.06,-593.25 1377.81,-593.25 1377.81,-548 1211.06,-548"/>
<text text-anchor="middle" x="1294.43" y="-581.65" font-family="Times,serif" font-size="8.00">&lt;&lt;datatype&gt;&gt;</text>
<text text-anchor="middle" x="1294.43" y="-571.9" font-family="Times,serif" font-size="8.00">SimpleDataType</text>
<polyline fill="none" stroke="black" points="1211.06,-565.75 1377.81,-565.75"/>
<text text-anchor="start" x="1219.06" y="-554.15" font-family="Times,serif" font-size="8.00">+val : VODataService:SimpleDataType_enum</text>
</a>
</g>
</g>
<!-- VODataService:SimpleDataType&#45;&gt;VODataService:DataType -->
<g id="edge1" class="edge">
<title>VODataService:SimpleDataType&#45;&gt;VODataService:DataType</title>
<path fill="none" stroke="red" d="M1302.34,-547.69C1306.66,-535.7 1312.19,-520.34 1317.44,-505.78"/>
<polygon fill="none" stroke="red" points="1320.58,-507.39 1320.68,-496.79 1314,-505.01 1320.58,-507.39"/>
</g>
<!-- VODataService:TableDataType -->
<g id="node17" class="node">
<title>VODataService:TableDataType</title>
<g id="a_node17"><a xlink:href="../VODataService/TableDataType" xlink:title="{&amp;lt;&amp;lt;datatype&amp;gt;&amp;gt;\nTableDataType}">
<polygon fill="#8dd3c7" stroke="black" points="1396.06,-552.62 1396.06,-588.62 1460.81,-588.62 1460.81,-552.62 1396.06,-552.62"/>
<text text-anchor="middle" x="1428.43" y="-573.02" font-family="Times,serif" font-size="8.00">&lt;&lt;datatype&gt;&gt;</text>
<text text-anchor="middle" x="1428.43" y="-563.27" font-family="Times,serif" font-size="8.00">TableDataType</text>
</a>
</g>
</g>
<!-- VODataService:TableDataType&#45;&gt;VODataService:DataType -->
<g id="edge2" class="edge">
<title>VODataService:TableDataType&#45;&gt;VODataService:DataType</title>
<path fill="none" stroke="red" d="M1413.75,-552.28C1402.75,-539.3 1387.19,-520.92 1372.76,-503.88"/>
<polygon fill="none" stroke="red" points="1375.45,-501.65 1366.32,-496.28 1370.11,-506.17 1375.45,-501.65"/>
</g>
<!-- VODataService:VOTableType -->
<g id="node18" class="node">
<title>VODataService:VOTableType</title>
<g id="a_node18"><a xlink:href="../VODataService/VOTableType" xlink:title="{&amp;lt;&amp;lt;datatype&amp;gt;&amp;gt;\nVOTableType|+val : VODataService:VOTableType_enum\l}">
<polygon fill="#8dd3c7" stroke="black" points="1309.56,-651.25 1309.56,-696.5 1467.31,-696.5 1467.31,-651.25 1309.56,-651.25"/>
<text text-anchor="middle" x="1388.43" y="-684.9" font-family="Times,serif" font-size="8.00">&lt;&lt;datatype&gt;&gt;</text>
<text text-anchor="middle" x="1388.43" y="-675.15" font-family="Times,serif" font-size="8.00">VOTableType</text>
<polyline fill="none" stroke="black" points="1309.56,-669 1467.31,-669"/>
<text text-anchor="start" x="1317.56" y="-657.4" font-family="Times,serif" font-size="8.00">+val : VODataService:VOTableType_enum</text>
</a>
</g>
</g>
<!-- VODataService:VOTableType&#45;&gt;VODataService:TableDataType -->
<g id="edge3" class="edge">
<title>VODataService:VOTableType&#45;&gt;VODataService:TableDataType</title>
<path fill="none" stroke="red" d="M1397.11,-650.91C1403.09,-635.78 1411.07,-615.58 1417.48,-599.35"/>
<polygon fill="none" stroke="red" points="1420.65,-600.85 1421.07,-590.27 1414.14,-598.28 1420.65,-600.85"/>
</g>
<!-- VODataService:TAPDataType -->
<g id="node19" class="node">
<title>VODataService:TAPDataType</title>
<g id="a_node19"><a xlink:href="../VODataService/TAPDataType" xlink:title="{&amp;lt;&amp;lt;datatype&amp;gt;&amp;gt;\nTAPDataType|+size : ivoa:integer\l}">
<polygon fill="#8dd3c7" stroke="black" points="1485.31,-651.25 1485.31,-696.5 1563.56,-696.5 1563.56,-651.25 1485.31,-651.25"/>
<text text-anchor="middle" x="1524.43" y="-684.9" font-family="Times,serif" font-size="8.00">&lt;&lt;datatype&gt;&gt;</text>
<text text-anchor="middle" x="1524.43" y="-675.15" font-family="Times,serif" font-size="8.00">TAPDataType</text>
<polyline fill="none" stroke="black" points="1485.31,-669 1563.56,-669"/>
<text text-anchor="start" x="1493.31" y="-657.4" font-family="Times,serif" font-size="8.00">+size : ivoa:integer</text>
</a>
</g>
</g>
<!-- VODataService:TAPDataType&#45;&gt;VODataService:TableDataType -->
<g id="edge4" class="edge">
<title>VODataService:TAPDataType&#45;&gt;VODataService:TableDataType</title>
<path fill="none" stroke="red" d="M1503.6,-650.91C1488.58,-635.06 1468.25,-613.62 1452.53,-597.03"/>
<polygon fill="none" stroke="red" points="1455.24,-594.8 1445.81,-589.96 1450.16,-599.62 1455.24,-594.8"/>
</g>
<!-- VODataService:TAPType -->
<g id="node20" class="node">
<title>VODataService:TAPType</title>
<g id="a_node20"><a xlink:href="../VODataService/TAPType" xlink:title="{&amp;lt;&amp;lt;datatype&amp;gt;&amp;gt;\nTAPType|+val : VODataService:TAPType_enum\l}">
<polygon fill="#8dd3c7" stroke="black" points="1453.06,-812.5 1453.06,-857.75 1595.81,-857.75 1595.81,-812.5 1453.06,-812.5"/>
<text text-anchor="middle" x="1524.43" y="-846.15" font-family="Times,serif" font-size="8.00">&lt;&lt;datatype&gt;&gt;</text>
<text text-anchor="middle" x="1524.43" y="-836.4" font-family="Times,serif" font-size="8.00">TAPType</text>
<polyline fill="none" stroke="black" points="1453.06,-830.25 1595.81,-830.25"/>
<text text-anchor="start" x="1461.06" y="-818.65" font-family="Times,serif" font-size="8.00">+val : VODataService:TAPType_enum</text>
</a>
</g>
</g>
<!-- VODataService:TAPType&#45;&gt;VODataService:TAPDataType -->
<g id="edge5" class="edge">
<title>VODataService:TAPType&#45;&gt;VODataService:TAPDataType</title>
<path fill="none" stroke="red" d="M1524.43,-812.32C1524.43,-785.43 1524.43,-739.45 1524.43,-708.14"/>
<polygon fill="none" stroke="red" points="1527.93,-708.45 1524.43,-698.45 1520.93,-708.45 1527.93,-708.45"/>
</g>
<!-- VODataService:DataCollection -->
<g id="node21" class="node">
<title>VODataService:DataCollection</title>
<g id="a_node21"><a xlink:href="../VODataService/DataCollection" xlink:title="{DataCollection|+facility : VOResource:ResourceName\l+instrument : VOResource:ResourceName\l+rights : VOResource:Rights\l+format : VODataService:Format\l}">
<polygon fill="#8dd3c7" stroke="black" points="85.06,-641.5 85.06,-706.25 239.81,-706.25 239.81,-641.5 85.06,-641.5"/>
<text text-anchor="middle" x="162.43" y="-694.65" font-family="Times,serif" font-size="8.00">DataCollection</text>
<polyline fill="none" stroke="black" points="85.06,-688.5 239.81,-688.5"/>
<text text-anchor="start" x="93.06" y="-676.9" font-family="Times,serif" font-size="8.00">+facility : VOResource:ResourceName</text>
<text text-anchor="start" x="93.06" y="-667.15" font-family="Times,serif" font-size="8.00">+instrument : VOResource:ResourceName</text>
<text text-anchor="start" x="93.06" y="-657.4" font-family="Times,serif" font-size="8.00">+rights : VOResource:Rights</text>
<text text-anchor="start" x="93.06" y="-647.65" font-family="Times,serif" font-size="8.00">+format : VODataService:Format</text>
</a>
</g>
</g>
<!-- VODataService:DataCollection&#45;&gt;VOResource:Resource -->
<g id="edge6" class="edge">
<title>VODataService:DataCollection&#45;&gt;VOResource:Resource</title>
<path fill="none" stroke="red" d="M142.99,-641.12C134.64,-627.48 124.98,-611.71 116.98,-598.65"/>
<polygon fill="none" stroke="red" points="119.97,-596.83 111.77,-590.13 114,-600.49 119.97,-596.83"/>
</g>
<!-- VODataService:DataCollection&#45;&gt;VOResource:AccessURL -->
<g id="edge16" class="edge">
<title>VODataService:DataCollection&#45;&gt;VOResource:AccessURL</title>
<path fill="none" stroke="blue" d="M184.12,-629.82C189.46,-619.22 195.03,-608.17 199.86,-598.58"/>
<polygon fill="blue" stroke="blue" points="184.23,-629.59 185.11,-636.75 178.84,-640.31 177.96,-633.15 184.23,-629.59"/>
<polygon fill="blue" stroke="blue" points="204.21,-589.93 203.74,-600.88 202.51,-593.3 199.72,-598.86 199.72,-598.86 199.72,-598.86 202.51,-593.3 195.7,-596.83 204.21,-589.93"/>
<text text-anchor="middle" x="215.38" y="-613.5" font-family="Times,serif" font-size="10.00">accessURL</text>
<text text-anchor="middle" x="197.26" y="-590.59" font-family="Times,serif" font-size="10.00">0..1</text>
</g>
<!-- VODataService:Coverage -->
<g id="node22" class="node">
<title>VODataService:Coverage</title>
<g id="a_node22"><a xlink:href="../VODataService/Coverage" xlink:title="{Coverage|+spatial : VODataService:SpatialCoverage\l+temporal : VODataService:FloatInterval\l+spectral : VODataService:FloatInterval\l+footprint : VODataService:ServiceReference\l+waveband : ivoa:string\l+regionOfRegard : ivoa:real\l}">
<polygon fill="#8dd3c7" stroke="black" points="250.31,-415.5 250.31,-499.75 418.56,-499.75 418.56,-415.5 250.31,-415.5"/>
<text text-anchor="middle" x="334.43" y="-488.15" font-family="Times,serif" font-size="8.00">Coverage</text>
<polyline fill="none" stroke="black" points="250.31,-482 418.56,-482"/>
<text text-anchor="start" x="258.31" y="-470.4" font-family="Times,serif" font-size="8.00">+spatial : VODataService:SpatialCoverage</text>
<text text-anchor="start" x="258.31" y="-460.65" font-family="Times,serif" font-size="8.00">+temporal : VODataService:FloatInterval</text>
<text text-anchor="start" x="258.31" y="-450.9" font-family="Times,serif" font-size="8.00">+spectral : VODataService:FloatInterval</text>
<text text-anchor="start" x="258.31" y="-441.15" font-family="Times,serif" font-size="8.00">+footprint : VODataService:ServiceReference</text>
<text text-anchor="start" x="258.31" y="-431.4" font-family="Times,serif" font-size="8.00">+waveband : ivoa:string</text>
<text text-anchor="start" x="258.31" y="-421.65" font-family="Times,serif" font-size="8.00">+regionOfRegard : ivoa:real</text>
</a>
</g>
</g>
<!-- VODataService:DataCollection&#45;&gt;VODataService:Coverage -->
<g id="edge14" class="edge">
<title>VODataService:DataCollection&#45;&gt;VODataService:Coverage</title>
<path fill="none" stroke="blue" d="M73.11,-639.57C24.73,-616.47 -19.7,-583.48 9.68,-547.5 73.97,-468.79 137.03,-528.17 239.18,-500.57"/>
<polygon fill="blue" stroke="blue" points="73.06,-639.55 80.18,-638.42 83.96,-644.56 76.84,-645.69 73.06,-639.55"/>
<polygon fill="blue" stroke="blue" points="248.67,-497.75 240.36,-504.91 245.05,-498.83 239.08,-500.6 239.08,-500.6 239.08,-500.6 245.05,-498.83 237.8,-496.28 248.67,-497.75"/>
<text text-anchor="middle" x="28.06" y="-566.75" font-family="Times,serif" font-size="10.00">coverage</text>
<text text-anchor="middle" x="242.34" y="-499.16" font-family="Times,serif" font-size="10.00">0..1</text>
</g>
<!-- VODataService:TableSet -->
<g id="node23" class="node">
<title>VODataService:TableSet</title>
<g id="a_node23"><a xlink:href="../VODataService/TableSet" xlink:title="{TableSet}">
<polygon fill="#8dd3c7" stroke="black" points="281.43,-552.62 281.43,-588.62 335.43,-588.62 335.43,-552.62 281.43,-552.62"/>
<text text-anchor="middle" x="308.31" y="-568.02" font-family="Times,serif" font-size="8.00">TableSet</text>
</a>
</g>
</g>
<!-- VODataService:DataCollection&#45;&gt;VODataService:TableSet -->
<g id="edge15" class="edge">
<title>VODataService:DataCollection&#45;&gt;VODataService:TableSet</title>
<path fill="none" stroke="blue" d="M225.89,-634.17C231.53,-630.47 237.12,-626.71 242.43,-623 254.55,-614.54 267.47,-604.68 278.63,-595.88"/>
<polygon fill="blue" stroke="blue" points="225.85,-634.19 222.98,-640.8 215.77,-640.69 218.64,-634.08 225.85,-634.19"/>
<polygon fill="blue" stroke="blue" points="286.21,-589.85 281.19,-599.6 283.25,-592.21 278.38,-596.08 278.38,-596.08 278.38,-596.08 283.25,-592.21 275.58,-592.56 286.21,-589.85"/>
<text text-anchor="middle" x="273.04" y="-613.5" font-family="Times,serif" font-size="10.00">tableset</text>
<text text-anchor="middle" x="279.66" y="-590.84" font-family="Times,serif" font-size="10.00">0..1</text>
</g>
<!-- VODataService:TableSchema -->
<g id="node24" class="node">
<title>VODataService:TableSchema</title>
<g id="a_node24"><a xlink:href="../VODataService/TableSchema" xlink:title="{TableSchema|+name : ivoa:string\l+title : ivoa:string\l+description : ivoa:string\l+utype : ivoa:string\l}">
<polygon fill="#8dd3c7" stroke="black" points="136.31,-425.25 136.31,-490 232.56,-490 232.56,-425.25 136.31,-425.25"/>
<text text-anchor="middle" x="184.43" y="-478.4" font-family="Times,serif" font-size="8.00">TableSchema</text>
<polyline fill="none" stroke="black" points="136.31,-472.25 232.56,-472.25"/>
<text text-anchor="start" x="144.31" y="-460.65" font-family="Times,serif" font-size="8.00">+name : ivoa:string</text>
<text text-anchor="start" x="144.31" y="-450.9" font-family="Times,serif" font-size="8.00">+title : ivoa:string</text>
<text text-anchor="start" x="144.31" y="-441.15" font-family="Times,serif" font-size="8.00">+description : ivoa:string</text>
<text text-anchor="start" x="144.31" y="-431.4" font-family="Times,serif" font-size="8.00">+utype : ivoa:string</text>
</a>
</g>
</g>
<!-- VODataService:TableSet&#45;&gt;VODataService:TableSchema -->
<g id="edge17" class="edge">
<title>VODataService:TableSet&#45;&gt;VODataService:TableSchema</title>
<path fill="none" stroke="blue" d="M279.46,-543.69C264.11,-529.95 244.93,-512.78 227.84,-497.48"/>
<polygon fill="blue" stroke="blue" points="279.45,-543.68 286.58,-544.7 288.39,-551.68 281.25,-550.66 279.45,-543.68"/>
<polygon fill="blue" stroke="blue" points="220.54,-490.95 231,-494.27 223.36,-493.47 227.99,-497.62 227.99,-497.62 227.99,-497.62 223.36,-493.47 224.99,-500.97 220.54,-490.95"/>
<text text-anchor="middle" x="276.19" y="-520" font-family="Times,serif" font-size="10.00">schema</text>
<text text-anchor="middle" x="227.14" y="-491.89" font-family="Times,serif" font-size="10.00">1..*</text>
</g>
<!-- VODataService:Table -->
<g id="node30" class="node">
<title>VODataService:Table</title>
<g id="a_node30"><a xlink:href="../VODataService/Table" xlink:title="{Table|+name : ivoa:string\l+title : ivoa:string\l+description : ivoa:string\l+utype : ivoa:string\l+nrows : ivoa:nonnegativeInteger\l+type : ivoa:string\l}">
<polygon fill="#8dd3c7" stroke="black" points="122.43,-283 122.43,-367.25 246.43,-367.25 246.43,-283 122.43,-283"/>
<text text-anchor="middle" x="184.43" y="-355.65" font-family="Times,serif" font-size="8.00">Table</text>
<polyline fill="none" stroke="black" points="122.43,-349.5 246.43,-349.5"/>
<text text-anchor="start" x="130.43" y="-337.9" font-family="Times,serif" font-size="8.00">+name : ivoa:string</text>
<text text-anchor="start" x="130.43" y="-328.15" font-family="Times,serif" font-size="8.00">+title : ivoa:string</text>
<text text-anchor="start" x="130.43" y="-318.4" font-family="Times,serif" font-size="8.00">+description : ivoa:string</text>
<text text-anchor="start" x="130.43" y="-308.65" font-family="Times,serif" font-size="8.00">+utype : ivoa:string</text>
<text text-anchor="start" x="130.43" y="-298.9" font-family="Times,serif" font-size="8.00">+nrows : ivoa:nonnegativeInteger</text>
<text text-anchor="start" x="130.43" y="-289.15" font-family="Times,serif" font-size="8.00">+type : ivoa:string</text>
</a>
</g>
</g>
<!-- VODataService:TableSchema&#45;&gt;VODataService:Table -->
<g id="edge18" class="edge">
<title>VODataService:TableSchema&#45;&gt;VODataService:Table</title>
<path fill="none" stroke="blue" d="M184.43,-412.21C184.43,-401.31 184.43,-389.53 184.43,-378.3"/>
<polygon fill="blue" stroke="blue" points="184.43,-412.13 188.43,-418.13 184.43,-424.13 180.43,-418.13 184.43,-412.13"/>
<polygon fill="blue" stroke="blue" points="184.43,-368.52 188.93,-378.52 184.43,-372.3 184.43,-378.52 184.43,-378.52 184.43,-378.52 184.43,-372.3 179.93,-378.52 184.43,-368.52"/>
<text text-anchor="middle" x="194.56" y="-387.5" font-family="Times,serif" font-size="10.00">table</text>
<text text-anchor="middle" x="176.93" y="-369.05" font-family="Times,serif" font-size="10.00">0..*</text>
</g>
<!-- VODataService:DataResource -->
<g id="node25" class="node">
<title>VODataService:DataResource</title>
<g id="a_node25"><a xlink:href="../VODataService/DataResource" xlink:title="{DataResource|+facility : VOResource:ResourceName\l+instrument : VOResource:ResourceName\l}">
<polygon fill="#8dd3c7" stroke="black" points="353.06,-548 353.06,-593.25 507.81,-593.25 507.81,-548 353.06,-548"/>
<text text-anchor="middle" x="430.43" y="-581.65" font-family="Times,serif" font-size="8.00">DataResource</text>
<polyline fill="none" stroke="black" points="353.06,-575.5 507.81,-575.5"/>
<text text-anchor="start" x="361.06" y="-563.9" font-family="Times,serif" font-size="8.00">+facility : VOResource:ResourceName</text>
<text text-anchor="start" x="361.06" y="-554.15" font-family="Times,serif" font-size="8.00">+instrument : VOResource:ResourceName</text>
</a>
</g>
</g>
<!-- VODataService:DataResource&#45;&gt;VOResource:Service -->
<g id="edge7" class="edge">
<title>VODataService:DataResource&#45;&gt;VOResource:Service</title>
<path fill="none" stroke="red" d="M440.11,-547.69C447.9,-530.05 458.89,-505.17 467.27,-486.18"/>
<polygon fill="none" stroke="red" points="470.41,-487.73 471.25,-477.17 464.01,-484.9 470.41,-487.73"/>
</g>
<!-- VODataService:DataResource&#45;&gt;VODataService:Coverage -->
<g id="edge19" class="edge">
<title>VODataService:DataResource&#45;&gt;VODataService:Coverage</title>
<path fill="none" stroke="blue" d="M403.24,-538.18C395.19,-528.87 386.17,-518.44 377.37,-508.28"/>
<polygon fill="blue" stroke="blue" points="403.03,-537.94 409.98,-539.86 410.88,-547.01 403.93,-545.09 403.03,-537.94"/>
<polygon fill="blue" stroke="blue" points="370.87,-500.75 380.81,-505.37 373.34,-503.61 377.41,-508.31 377.41,-508.31 377.41,-508.31 373.34,-503.61 374,-511.26 370.87,-500.75"/>
<text text-anchor="middle" x="412.23" y="-520" font-family="Times,serif" font-size="10.00">coverage</text>
<text text-anchor="middle" x="362.57" y="-501.58" font-family="Times,serif" font-size="10.00">0..1</text>
</g>
<!-- VODataService:DataService -->
<g id="node26" class="node">
<title>VODataService:DataService</title>
<g id="a_node26"><a xlink:href="../VODataService/DataService" xlink:title="{DataService}">
<polygon fill="#8dd3c7" stroke="black" points="402.18,-655.88 402.18,-691.88 458.68,-691.88 458.68,-655.88 402.18,-655.88"/>
<text text-anchor="middle" x="430.43" y="-671.27" font-family="Times,serif" font-size="8.00">DataService</text>
</a>
</g>
</g>
<!-- VODataService:DataService&#45;&gt;VODataService:DataResource -->
<g id="edge8" class="edge">
<title>VODataService:DataService&#45;&gt;VODataService:DataResource</title>
<path fill="none" stroke="red" d="M430.43,-655.7C430.43,-641.76 430.43,-621.71 430.43,-604.68"/>
<polygon fill="none" stroke="red" points="433.93,-605 430.43,-595 426.93,-605 433.93,-605"/>
</g>
<!-- VODataService:ParamHTTP -->
<g id="node27" class="node">
<title>VODataService:ParamHTTP</title>
<g id="a_node27"><a xlink:href="../VODataService/ParamHTTP" xlink:title="{ParamHTTP|+queryType : VODataService:HTTPQueryType\l+resultType : ivoa:string\l+testQuery : ivoa:string\l}">
<polygon fill="#8dd3c7" stroke="black" points="408.06,-297.62 408.06,-352.62 580.81,-352.62 580.81,-297.62 408.06,-297.62"/>
<text text-anchor="middle" x="494.43" y="-341.02" font-family="Times,serif" font-size="8.00">ParamHTTP</text>
<polyline fill="none" stroke="black" points="408.06,-334.88 580.81,-334.88"/>
<text text-anchor="start" x="416.06" y="-323.27" font-family="Times,serif" font-size="8.00">+queryType : VODataService:HTTPQueryType</text>
<text text-anchor="start" x="416.06" y="-313.52" font-family="Times,serif" font-size="8.00">+resultType : ivoa:string</text>
<text text-anchor="start" x="416.06" y="-303.77" font-family="Times,serif" font-size="8.00">+testQuery : ivoa:string</text>
</a>
</g>
</g>
<!-- VODataService:ParamHTTP&#45;&gt;VOResource:Interface -->
<g id="edge9" class="edge">
<title>VODataService:ParamHTTP&#45;&gt;VOResource:Interface</title>
<path fill="none" stroke="red" d="M509.97,-297.25C520.69,-278.72 534.88,-254.17 545.65,-235.55"/>
<polygon fill="none" stroke="red" points="548.65,-237.35 550.63,-226.94 542.59,-233.84 548.65,-237.35"/>
</g>
<!-- VODataService:InputParam -->
<g id="node33" class="node">
<title>VODataService:InputParam</title>
<g id="a_node33"><a xlink:href="../VODataService/InputParam" xlink:title="{InputParam|+dataType : VODataService:DataType\l+use : VODataService:ParamUse\l+std : ivoa:boolean\l}">
<polygon fill="#8dd3c7" stroke="black" points="355.06,-179.75 355.06,-234.75 497.81,-234.75 497.81,-179.75 355.06,-179.75"/>
<text text-anchor="middle" x="426.43" y="-223.15" font-family="Times,serif" font-size="8.00">InputParam</text>
<polyline fill="none" stroke="black" points="355.06,-217 497.81,-217"/>
<text text-anchor="start" x="363.06" y="-205.4" font-family="Times,serif" font-size="8.00">+dataType : VODataService:DataType</text>
<text text-anchor="start" x="363.06" y="-195.65" font-family="Times,serif" font-size="8.00">+use : VODataService:ParamUse</text>
<text text-anchor="start" x="363.06" y="-185.9" font-family="Times,serif" font-size="8.00">+std : ivoa:boolean</text>
</a>
</g>
</g>
<!-- VODataService:ParamHTTP&#45;&gt;VODataService:InputParam -->
<g id="edge20" class="edge">
<title>VODataService:ParamHTTP&#45;&gt;VODataService:InputParam</title>
<path fill="none" stroke="blue" d="M472.15,-286.15C464.25,-272.69 455.39,-257.59 447.59,-244.29"/>
<polygon fill="blue" stroke="blue" points="472.13,-286.12 478.62,-289.27 478.21,-296.47 471.72,-293.32 472.13,-286.12"/>
<polygon fill="blue" stroke="blue" points="442.74,-236.03 451.68,-242.38 444.65,-239.29 447.8,-244.66 447.8,-244.66 447.8,-244.66 444.65,-239.29 443.92,-246.93 442.74,-236.03"/>
<text text-anchor="middle" x="470.77" y="-255" font-family="Times,serif" font-size="10.00">param</text>
<text text-anchor="middle" x="434.62" y="-236.73" font-family="Times,serif" font-size="10.00">0..*</text>
</g>
<!-- VODataService:CatalogResource -->
<g id="node28" class="node">
<title>VODataService:CatalogResource</title>
<g id="a_node28"><a xlink:href="../VODataService/CatalogResource" xlink:title="{CatalogResource}">
<polygon fill="#8dd3c7" stroke="black" points="311.06,-655.88 311.06,-691.88 381.81,-691.88 381.81,-655.88 311.06,-655.88"/>
<text text-anchor="middle" x="346.43" y="-671.27" font-family="Times,serif" font-size="8.00">CatalogResource</text>
</a>
</g>
</g>
<!-- VODataService:CatalogResource&#45;&gt;VODataService:TableSet -->
<g id="edge21" class="edge">
<title>VODataService:CatalogResource&#45;&gt;VODataService:TableSet</title>
<path fill="none" stroke="blue" d="M335.49,-643.7C330.23,-629.7 323.97,-613.01 318.79,-599.22"/>
<polygon fill="blue" stroke="blue" points="335.45,-643.62 341.31,-647.83 339.67,-654.86 333.82,-650.64 335.45,-643.62"/>
<polygon fill="blue" stroke="blue" points="315.34,-590.03 323.07,-597.81 316.67,-593.57 318.85,-599.39 318.85,-599.39 318.85,-599.39 316.67,-593.57 314.64,-600.97 315.34,-590.03"/>
<text text-anchor="middle" x="343.18" y="-613.5" font-family="Times,serif" font-size="10.00">tableset</text>
<text text-anchor="middle" x="307.41" y="-590.63" font-family="Times,serif" font-size="10.00">0..1</text>
</g>
<!-- VODataService:CatalogResource&#45;&gt;VODataService:DataResource -->
<g id="edge10" class="edge">
<title>VODataService:CatalogResource&#45;&gt;VODataService:DataResource</title>
<path fill="none" stroke="red" d="M360.68,-655.7C372.8,-641.09 390.5,-619.76 405.03,-602.24"/>
<polygon fill="none" stroke="red" points="407.64,-604.58 411.33,-594.65 402.25,-600.11 407.64,-604.58"/>
</g>
<!-- VODataService:CatalogService -->
<g id="node29" class="node">
<title>VODataService:CatalogService</title>
<g id="a_node29"><a xlink:href="../VODataService/CatalogService" xlink:title="{CatalogService}">
<polygon fill="#8dd3c7" stroke="black" points="313.68,-817.12 313.68,-853.12 379.18,-853.12 379.18,-817.12 313.68,-817.12"/>
<text text-anchor="middle" x="346.43" y="-832.52" font-family="Times,serif" font-size="8.00">CatalogService</text>
</a>
</g>
</g>
<!-- VODataService:CatalogService&#45;&gt;VODataService:CatalogResource -->
<g id="edge11" class="edge">
<title>VODataService:CatalogService&#45;&gt;VODataService:CatalogResource</title>
<path fill="none" stroke="red" d="M346.43,-816.78C346.43,-789.5 346.43,-736.28 346.43,-703.33"/>
<polygon fill="none" stroke="red" points="349.93,-703.71 346.43,-693.71 342.93,-703.71 349.93,-703.71"/>
</g>
<!-- VODataService:TableParam -->
<g id="node32" class="node">
<title>VODataService:TableParam</title>
<g id="a_node32"><a xlink:href="../VODataService/TableParam" xlink:title="{TableParam|+dataType : VODataService:TableDataType\l+flag : ivoa:string\l+std : ivoa:boolean\l}">
<polygon fill="#8dd3c7" stroke="black" points="177.43,-179.75 177.43,-234.75 337.43,-234.75 337.43,-179.75 177.43,-179.75"/>
<text text-anchor="middle" x="257.43" y="-223.15" font-family="Times,serif" font-size="8.00">TableParam</text>
<polyline fill="none" stroke="black" points="177.43,-217 337.43,-217"/>
<text text-anchor="start" x="185.43" y="-205.4" font-family="Times,serif" font-size="8.00">+dataType : VODataService:TableDataType</text>
<text text-anchor="start" x="185.43" y="-195.65" font-family="Times,serif" font-size="8.00">+flag : ivoa:string</text>
<text text-anchor="start" x="185.43" y="-185.9" font-family="Times,serif" font-size="8.00">+std : ivoa:boolean</text>
</a>
</g>
</g>
<!-- VODataService:Table&#45;&gt;VODataService:TableParam -->
<g id="edge22" class="edge">
<title>VODataService:Table&#45;&gt;VODataService:TableParam</title>
<path fill="none" stroke="blue" d="M217.5,-271.64C223.3,-262.43 229.22,-253.04 234.66,-244.4"/>
<polygon fill="blue" stroke="blue" points="217.46,-271.7 217.65,-278.91 211.06,-281.86 210.88,-274.65 217.46,-271.7"/>
<polygon fill="blue" stroke="blue" points="239.92,-236.05 238.39,-246.91 237.9,-239.25 234.59,-244.51 234.59,-244.51 234.59,-244.51 237.9,-239.25 230.78,-242.12 239.92,-236.05"/>
<text text-anchor="middle" x="242.85" y="-255" font-family="Times,serif" font-size="10.00">column</text>
<text text-anchor="middle" x="233.07" y="-236.77" font-family="Times,serif" font-size="10.00">0..*</text>
</g>
<!-- VODataService:ForeignKey -->
<g id="node34" class="node">
<title>VODataService:ForeignKey</title>
<g id="a_node34"><a xlink:href="../VODataService/ForeignKey" xlink:title="{ForeignKey|+targetTable : ivoa:string\l+description : ivoa:string\l+utype : ivoa:string\l}">
<polygon fill="#8dd3c7" stroke="black" points="63.31,-179.75 63.31,-234.75 159.56,-234.75 159.56,-179.75 63.31,-179.75"/>
<text text-anchor="middle" x="111.43" y="-223.15" font-family="Times,serif" font-size="8.00">ForeignKey</text>
<polyline fill="none" stroke="black" points="63.31,-217 159.56,-217"/>
<text text-anchor="start" x="71.31" y="-205.4" font-family="Times,serif" font-size="8.00">+targetTable : ivoa:string</text>
<text text-anchor="start" x="71.31" y="-195.65" font-family="Times,serif" font-size="8.00">+description : ivoa:string</text>
<text text-anchor="start" x="71.31" y="-185.9" font-family="Times,serif" font-size="8.00">+utype : ivoa:string</text>
</a>
</g>
</g>
<!-- VODataService:Table&#45;&gt;VODataService:ForeignKey -->
<g id="edge23" class="edge">
<title>VODataService:Table&#45;&gt;VODataService:ForeignKey</title>
<path fill="none" stroke="blue" d="M151.37,-271.64C145.57,-262.43 139.65,-253.04 134.21,-244.4"/>
<polygon fill="blue" stroke="blue" points="151.41,-271.7 157.99,-274.65 157.8,-281.86 151.22,-278.91 151.41,-271.7"/>
<polygon fill="blue" stroke="blue" points="128.95,-236.05 138.09,-242.12 130.97,-239.25 134.28,-244.51 134.28,-244.51 134.28,-244.51 130.97,-239.25 130.47,-246.91 128.95,-236.05"/>
<text text-anchor="middle" x="169" y="-255" font-family="Times,serif" font-size="10.00">foreignKey</text>
<text text-anchor="middle" x="120.8" y="-236.77" font-family="Times,serif" font-size="10.00">0..*</text>
</g>
<!-- VODataService:BaseParam -->
<g id="node31" class="node">
<title>VODataService:BaseParam</title>
<g id="a_node31"><a xlink:href="../VODataService/BaseParam" xlink:title="{BaseParam|+name : ivoa:string\l+description : ivoa:string\l+unit : ivoa:string\l+ucd : ivoa:string\l+utype : ivoa:string\l}">
<polygon fill="#8dd3c7" stroke="black" points="294.31,-57 294.31,-131.5 390.56,-131.5 390.56,-57 294.31,-57"/>
<text text-anchor="middle" x="342.43" y="-119.9" font-family="Times,serif" font-size="8.00">BaseParam</text>
<polyline fill="none" stroke="black" points="294.31,-113.75 390.56,-113.75"/>
<text text-anchor="start" x="302.31" y="-102.15" font-family="Times,serif" font-size="8.00">+name : ivoa:string</text>
<text text-anchor="start" x="302.31" y="-92.4" font-family="Times,serif" font-size="8.00">+description : ivoa:string</text>
<text text-anchor="start" x="302.31" y="-82.65" font-family="Times,serif" font-size="8.00">+unit : ivoa:string</text>
<text text-anchor="start" x="302.31" y="-72.9" font-family="Times,serif" font-size="8.00">+ucd : ivoa:string</text>
<text text-anchor="start" x="302.31" y="-63.15" font-family="Times,serif" font-size="8.00">+utype : ivoa:string</text>
</a>
</g>
</g>
<!-- VODataService:TableParam&#45;&gt;VODataService:BaseParam -->
<g id="edge12" class="edge">
<title>VODataService:TableParam&#45;&gt;VODataService:BaseParam</title>
<path fill="none" stroke="red" d="M278.01,-179.38C286.87,-167.81 297.49,-153.95 307.52,-140.85"/>
<polygon fill="none" stroke="red" points="310.12,-143.21 313.42,-133.14 304.56,-138.95 310.12,-143.21"/>
</g>
<!-- VODataService:InputParam&#45;&gt;VODataService:BaseParam -->
<g id="edge13" class="edge">
<title>VODataService:InputParam&#45;&gt;VODataService:BaseParam</title>
<path fill="none" stroke="red" d="M406.1,-179.38C397.34,-167.81 386.85,-153.95 376.94,-140.85"/>
<polygon fill="none" stroke="red" points="379.94,-139.01 371.11,-133.14 374.35,-143.23 379.94,-139.01"/>
</g>
<!-- VODataService:FKColumn -->
<g id="node35" class="node">
<title>VODataService:FKColumn</title>
<g id="a_node35"><a xlink:href="../VODataService/FKColumn" xlink:title="{FKColumn|+fromColumn : ivoa:string\l+targetColumn : ivoa:string\l}">
<polygon fill="#8dd3c7" stroke="black" points="59.56,-71.62 59.56,-116.88 163.31,-116.88 163.31,-71.62 59.56,-71.62"/>
<text text-anchor="middle" x="111.43" y="-105.28" font-family="Times,serif" font-size="8.00">FKColumn</text>
<polyline fill="none" stroke="black" points="59.56,-99.12 163.31,-99.12"/>
<text text-anchor="start" x="67.56" y="-87.53" font-family="Times,serif" font-size="8.00">+fromColumn : ivoa:string</text>
<text text-anchor="start" x="67.56" y="-77.78" font-family="Times,serif" font-size="8.00">+targetColumn : ivoa:string</text>
</a>
</g>
</g>
<!-- VODataService:ForeignKey&#45;&gt;VODataService:FKColumn -->
<g id="edge24" class="edge">
<title>VODataService:ForeignKey&#45;&gt;VODataService:FKColumn</title>
<path fill="none" stroke="blue" d="M111.43,-166.58C111.43,-153.93 111.43,-140.1 111.43,-128"/>
<polygon fill="blue" stroke="blue" points="111.43,-166.48 115.43,-172.48 111.43,-178.48 107.43,-172.48 111.43,-166.48"/>
<polygon fill="blue" stroke="blue" points="111.43,-118.25 115.93,-128.25 111.43,-122.04 111.43,-128.25 111.43,-128.25 111.43,-128.25 111.43,-122.04 106.93,-128.25 111.43,-118.25"/>
<text text-anchor="middle" x="132.06" y="-151.75" font-family="Times,serif" font-size="10.00">fkColumn</text>
<text text-anchor="middle" x="103.93" y="-118.79" font-family="Times,serif" font-size="10.00">1..*</text>
</g>
</g>
</svg>
