<?xml version="1.0" encoding="UTF-8" standalone="no"?>
<!DOCTYPE svg PUBLIC "-//W3C//DTD SVG 1.1//EN"
 "http://www.w3.org/Graphics/SVG/1.1/DTD/svg11.dtd">
<!-- Generated by graphviz version 11.0.0 (20240428.1522)
 -->
<!-- Title: GVmap Pages: 1 -->
<svg width="1604pt" height="934pt"
 viewBox="0.00 0.00 1603.82 933.50" xmlns="http://www.w3.org/2000/svg" xmlns:xlink="http://www.w3.org/1999/xlink">
<g id="graph0" class="graph" transform="scale(1 1) rotate(0) translate(4 929.5)">
<title>GVmap</title>
<polygon fill="white" stroke="none" points="-4,4 -4,-929.5 1599.82,-929.5 1599.82,4 -4,4"/>
<text text-anchor="middle" x="797.91" y="-7.2" font-family="Times,serif" font-size="14.00">VODataService data model</text>
<!-- VOResource:Resource -->
<g id="node1" class="node">
<title>VOResource:Resource</title>
<g id="a_node1"><a xlink:href="#Resource" xlink:title="{VOResource:Resource}">
<polygon fill="grey" stroke="black" points="55.32,-552.62 55.32,-588.62 145.57,-588.62 145.57,-552.62 55.32,-552.62"/>
<text text-anchor="middle" x="100.45" y="-568.02" font-family="Times,serif" font-size="8.00">VOResource:Resource</text>
</a>
</g>
</g>
<!-- VOResource:AccessURL -->
<g id="node2" class="node">
<title>VOResource:AccessURL</title>
<g id="a_node2"><a xlink:href="#AccessURL" xlink:title="{VOResource:AccessURL}">
<polygon fill="grey" stroke="black" points="163.45,-552.62 163.45,-588.62 263.45,-588.62 263.45,-552.62 163.45,-552.62"/>
<text text-anchor="middle" x="213.45" y="-568.02" font-family="Times,serif" font-size="8.00">VOResource:AccessURL</text>
</a>
</g>
</g>
<!-- VOResource:Service -->
<g id="node3" class="node">
<title>VOResource:Service</title>
<g id="a_node3"><a xlink:href="#Service" xlink:title="{VOResource:Service}">
<polygon fill="grey" stroke="black" points="438.95,-439.62 438.95,-475.62 523.95,-475.62 523.95,-439.62 438.95,-439.62"/>
<text text-anchor="middle" x="481.45" y="-455.02" font-family="Times,serif" font-size="8.00">VOResource:Service</text>
</a>
</g>
</g>
<!-- VOResource:Interface -->
<g id="node4" class="node">
<title>VOResource:Interface</title>
<g id="a_node4"><a xlink:href="#Interface" xlink:title="{VOResource:Interface}">
<polygon fill="grey" stroke="black" points="518.32,-189.25 518.32,-225.25 608.57,-225.25 608.57,-189.25 518.32,-189.25"/>
<text text-anchor="middle" x="563.45" y="-204.65" font-family="Times,serif" font-size="8.00">VOResource:Interface</text>
</a>
</g>
</g>
<!-- VODataService:ArrayShape -->
<g id="node5" class="node">
<title>VODataService:ArrayShape</title>
<g id="a_node5"><a xlink:href="../VODataService/ArrayShape" xlink:title="{&amp;lt;&amp;lt;primitive type&amp;gt;&amp;gt;\nArrayShape}">
<polygon fill="#8dd3c7" stroke="black" points="396.95,-816.12 396.95,-852.12 475.95,-852.12 475.95,-816.12 396.95,-816.12"/>
<text text-anchor="middle" x="436.45" y="-836.52" font-family="Times,serif" font-size="8.00">&lt;&lt;primitive type&gt;&gt;</text>
<text text-anchor="middle" x="436.45" y="-826.77" font-family="Times,serif" font-size="8.00">ArrayShape</text>
</a>
</g>
</g>
<!-- VODataService:FloatInterval -->
<g id="node6" class="node">
<title>VODataService:FloatInterval</title>
<g id="a_node6"><a xlink:href="../VODataService/FloatInterval" xlink:title="{&amp;lt;&amp;lt;primitive type&amp;gt;&amp;gt;\nFloatInterval}">
<polygon fill="#8dd3c7" stroke="black" points="493.95,-816.12 493.95,-852.12 572.95,-852.12 572.95,-816.12 493.95,-816.12"/>
<text text-anchor="middle" x="533.45" y="-836.52" font-family="Times,serif" font-size="8.00">&lt;&lt;primitive type&gt;&gt;</text>
<text text-anchor="middle" x="533.45" y="-826.77" font-family="Times,serif" font-size="8.00">FloatInterval</text>
</a>
</g>
</g>
<!-- VODataService:SimpleDataType_enum -->
<g id="node7" class="node">
<title>VODataService:SimpleDataType_enum</title>
<g id="a_node7"><a xlink:href="../VODataService/SimpleDataType_enum" xlink:title="{&amp;lt;&amp;lt;enumeration&amp;gt;&amp;gt;\nSimpleDataType_enum|+integer\l+real\l+complex\l+boolean\l+char\l+string\l}">
<polygon fill="#8dd3c7" stroke="black" points="590.95,-787.12 590.95,-881.12 681.95,-881.12 681.95,-787.12 590.95,-787.12"/>
<text text-anchor="middle" x="636.45" y="-869.52" font-family="Times,serif" font-size="8.00">&lt;&lt;enumeration&gt;&gt;</text>
<text text-anchor="middle" x="636.45" y="-859.77" font-family="Times,serif" font-size="8.00">SimpleDataType_enum</text>
<polyline fill="none" stroke="black" points="590.95,-853.62 681.95,-853.62"/>
<text text-anchor="start" x="598.95" y="-842.02" font-family="Times,serif" font-size="8.00">+integer</text>
<text text-anchor="start" x="598.95" y="-832.27" font-family="Times,serif" font-size="8.00">+real</text>
<text text-anchor="start" x="598.95" y="-822.52" font-family="Times,serif" font-size="8.00">+complex</text>
<text text-anchor="start" x="598.95" y="-812.77" font-family="Times,serif" font-size="8.00">+boolean</text>
<text text-anchor="start" x="598.95" y="-803.02" font-family="Times,serif" font-size="8.00">+char</text>
<text text-anchor="start" x="598.95" y="-793.27" font-family="Times,serif" font-size="8.00">+string</text>
</a>
</g>
</g>
<!-- VODataService:VOTableType_enum -->
<g id="node8" class="node">
<title>VODataService:VOTableType_enum</title>
<g id="a_node8"><a xlink:href="../VODataService/VOTableType_enum" xlink:title="{&amp;lt;&amp;lt;enumeration&amp;gt;&amp;gt;\nVOTableType_enum|+boolean\l+bit\l+unsignedByte\l+short\l+int\l+long\l+char\l+unicodeChar\l+float\l+double\l+floatComplex\l+doubleComplex\l}">
<polygon fill="#8dd3c7" stroke="black" points="700.45,-757.88 700.45,-910.38 782.45,-910.38 782.45,-757.88 700.45,-757.88"/>
<text text-anchor="middle" x="741.45" y="-898.77" font-family="Times,serif" font-size="8.00">&lt;&lt;enumeration&gt;&gt;</text>
<text text-anchor="middle" x="741.45" y="-889.02" font-family="Times,serif" font-size="8.00">VOTableType_enum</text>
<polyline fill="none" stroke="black" points="700.45,-882.88 782.45,-882.88"/>
<text text-anchor="start" x="708.45" y="-871.27" font-family="Times,serif" font-size="8.00">+boolean</text>
<text text-anchor="start" x="708.45" y="-861.52" font-family="Times,serif" font-size="8.00">+bit</text>
<text text-anchor="start" x="708.45" y="-851.77" font-family="Times,serif" font-size="8.00">+unsignedByte</text>
<text text-anchor="start" x="708.45" y="-842.02" font-family="Times,serif" font-size="8.00">+short</text>
<text text-anchor="start" x="708.45" y="-832.27" font-family="Times,serif" font-size="8.00">+int</text>
<text text-anchor="start" x="708.45" y="-822.52" font-family="Times,serif" font-size="8.00">+long</text>
<text text-anchor="start" x="708.45" y="-812.77" font-family="Times,serif" font-size="8.00">+char</text>
<text text-anchor="start" x="708.45" y="-803.02" font-family="Times,serif" font-size="8.00">+unicodeChar</text>
<text text-anchor="start" x="708.45" y="-793.27" font-family="Times,serif" font-size="8.00">+float</text>
<text text-anchor="start" x="708.45" y="-783.52" font-family="Times,serif" font-size="8.00">+double</text>
<text text-anchor="start" x="708.45" y="-773.77" font-family="Times,serif" font-size="8.00">+floatComplex</text>
<text text-anchor="start" x="708.45" y="-764.02" font-family="Times,serif" font-size="8.00">+doubleComplex</text>
</a>
</g>
</g>
<!-- VODataService:TAPType_enum -->
<g id="node9" class="node">
<title>VODataService:TAPType_enum</title>
<g id="a_node9"><a xlink:href="../VODataService/TAPType_enum" xlink:title="{&amp;lt;&amp;lt;enumeration&amp;gt;&amp;gt;\nTAPType_enum|+BOOLEAN\l+SMALLINT\l+INTEGER\l+BIGINT\l+REAL\l+DOUBLE\l+TIMESTAMP\l+CHAR\l+VARCHAR\l+BINARY\l+VARBINARY\l+POINT\l+REGION\l+CLOB\l+BLOB\l}">
<polygon fill="#8dd3c7" stroke="black" points="800.57,-743.25 800.57,-925 874.32,-925 874.32,-743.25 800.57,-743.25"/>
<text text-anchor="middle" x="837.45" y="-913.4" font-family="Times,serif" font-size="8.00">&lt;&lt;enumeration&gt;&gt;</text>
<text text-anchor="middle" x="837.45" y="-903.65" font-family="Times,serif" font-size="8.00">TAPType_enum</text>
<polyline fill="none" stroke="black" points="800.57,-897.5 874.32,-897.5"/>
<text text-anchor="start" x="808.57" y="-885.9" font-family="Times,serif" font-size="8.00">+BOOLEAN</text>
<text text-anchor="start" x="808.57" y="-876.15" font-family="Times,serif" font-size="8.00">+SMALLINT</text>
<text text-anchor="start" x="808.57" y="-866.4" font-family="Times,serif" font-size="8.00">+INTEGER</text>
<text text-anchor="start" x="808.57" y="-856.65" font-family="Times,serif" font-size="8.00">+BIGINT</text>
<text text-anchor="start" x="808.57" y="-846.9" font-family="Times,serif" font-size="8.00">+REAL</text>
<text text-anchor="start" x="808.57" y="-837.15" font-family="Times,serif" font-size="8.00">+DOUBLE</text>
<text text-anchor="start" x="808.57" y="-827.4" font-family="Times,serif" font-size="8.00">+TIMESTAMP</text>
<text text-anchor="start" x="808.57" y="-817.65" font-family="Times,serif" font-size="8.00">+CHAR</text>
<text text-anchor="start" x="808.57" y="-807.9" font-family="Times,serif" font-size="8.00">+VARCHAR</text>
<text text-anchor="start" x="808.57" y="-798.15" font-family="Times,serif" font-size="8.00">+BINARY</text>
<text text-anchor="start" x="808.57" y="-788.4" font-family="Times,serif" font-size="8.00">+VARBINARY</text>
<text text-anchor="start" x="808.57" y="-778.65" font-family="Times,serif" font-size="8.00">+POINT</text>
<text text-anchor="start" x="808.57" y="-768.9" font-family="Times,serif" font-size="8.00">+REGION</text>
<text text-anchor="start" x="808.57" y="-759.15" font-family="Times,serif" font-size="8.00">+CLOB</text>
<text text-anchor="start" x="808.57" y="-749.4" font-family="Times,serif" font-size="8.00">+BLOB</text>
</a>
</g>
</g>
<!-- VODataService:HTTPQueryType -->
<g id="node10" class="node">
<title>VODataService:HTTPQueryType</title>
<g id="a_node10"><a xlink:href="../VODataService/HTTPQueryType" xlink:title="{&amp;lt;&amp;lt;enumeration&amp;gt;&amp;gt;\nHTTPQueryType|+GET\l+POST\l}">
<polygon fill="#8dd3c7" stroke="black" points="892.57,-806.62 892.57,-861.62 966.32,-861.62 966.32,-806.62 892.57,-806.62"/>
<text text-anchor="middle" x="929.45" y="-850.02" font-family="Times,serif" font-size="8.00">&lt;&lt;enumeration&gt;&gt;</text>
<text text-anchor="middle" x="929.45" y="-840.27" font-family="Times,serif" font-size="8.00">HTTPQueryType</text>
<polyline fill="none" stroke="black" points="892.57,-834.12 966.32,-834.12"/>
<text text-anchor="start" x="900.57" y="-822.52" font-family="Times,serif" font-size="8.00">+GET</text>
<text text-anchor="start" x="900.57" y="-812.77" font-family="Times,serif" font-size="8.00">+POST</text>
</a>
</g>
</g>
<!-- VODataService:ParamUse -->
<g id="node11" class="node">
<title>VODataService:ParamUse</title>
<g id="a_node11"><a xlink:href="../VODataService/ParamUse" xlink:title="{&amp;lt;&amp;lt;enumeration&amp;gt;&amp;gt;\nParamUse|+required\l+optional\l+ignored\l}">
<polygon fill="#8dd3c7" stroke="black" points="984.57,-801.75 984.57,-866.5 1058.32,-866.5 1058.32,-801.75 984.57,-801.75"/>
<text text-anchor="middle" x="1021.45" y="-854.9" font-family="Times,serif" font-size="8.00">&lt;&lt;enumeration&gt;&gt;</text>
<text text-anchor="middle" x="1021.45" y="-845.15" font-family="Times,serif" font-size="8.00">ParamUse</text>
<polyline fill="none" stroke="black" points="984.57,-839 1058.32,-839"/>
<text text-anchor="start" x="992.57" y="-827.4" font-family="Times,serif" font-size="8.00">+required</text>
<text text-anchor="start" x="992.57" y="-817.65" font-family="Times,serif" font-size="8.00">+optional</text>
<text text-anchor="start" x="992.57" y="-807.9" font-family="Times,serif" font-size="8.00">+ignored</text>
</a>
</g>
</g>
<!-- VODataService:SpatialCoverage -->
<g id="node12" class="node">
<title>VODataService:SpatialCoverage</title>
<g id="a_node12"><a xlink:href="../VODataService/SpatialCoverage" xlink:title="{&amp;lt;&amp;lt;datatype&amp;gt;&amp;gt;\nSpatialCoverage|+value : ivoa:string\l+frame : ivoa:string\l}">
<polygon fill="#8dd3c7" stroke="black" points="1076.2,-806.62 1076.2,-861.62 1156.7,-861.62 1156.7,-806.62 1076.2,-806.62"/>
<text text-anchor="middle" x="1116.45" y="-850.02" font-family="Times,serif" font-size="8.00">&lt;&lt;datatype&gt;&gt;</text>
<text text-anchor="middle" x="1116.45" y="-840.27" font-family="Times,serif" font-size="8.00">SpatialCoverage</text>
<polyline fill="none" stroke="black" points="1076.2,-834.12 1156.7,-834.12"/>
<text text-anchor="start" x="1084.2" y="-822.52" font-family="Times,serif" font-size="8.00">+value : ivoa:string</text>
<text text-anchor="start" x="1084.2" y="-812.77" font-family="Times,serif" font-size="8.00">+frame : ivoa:string</text>
</a>
</g>
</g>
<!-- VODataService:ServiceReference -->
<g id="node13" class="node">
<title>VODataService:ServiceReference</title>
<g id="a_node13"><a xlink:href="../VODataService/ServiceReference" xlink:title="{&amp;lt;&amp;lt;datatype&amp;gt;&amp;gt;\nServiceReference|+value : ivoa:anyURI\l+ivoid : VOResource:IdentifierURI\l}">
<polygon fill="#8dd3c7" stroke="black" points="1174.32,-806.62 1174.32,-861.62 1306.57,-861.62 1306.57,-806.62 1174.32,-806.62"/>
<text text-anchor="middle" x="1240.45" y="-850.02" font-family="Times,serif" font-size="8.00">&lt;&lt;datatype&gt;&gt;</text>
<text text-anchor="middle" x="1240.45" y="-840.27" font-family="Times,serif" font-size="8.00">ServiceReference</text>
<polyline fill="none" stroke="black" points="1174.32,-834.12 1306.57,-834.12"/>
<text text-anchor="start" x="1182.32" y="-822.52" font-family="Times,serif" font-size="8.00">+value : ivoa:anyURI</text>
<text text-anchor="start" x="1182.32" y="-812.77" font-family="Times,serif" font-size="8.00">+ivoid : VOResource:IdentifierURI</text>
</a>
</g>
</g>
<!-- VODataService:Format -->
<g id="node14" class="node">
<title>VODataService:Format</title>
<g id="a_node14"><a xlink:href="../VODataService/Format" xlink:title="{&amp;lt;&amp;lt;datatype&amp;gt;&amp;gt;\nFormat|+value : ivoa:string\l+isMIMEType : ivoa:boolean\l}">
<polygon fill="#8dd3c7" stroke="black" points="1324.2,-806.62 1324.2,-861.62 1434.7,-861.62 1434.7,-806.62 1324.2,-806.62"/>
<text text-anchor="middle" x="1379.45" y="-850.02" font-family="Times,serif" font-size="8.00">&lt;&lt;datatype&gt;&gt;</text>
<text text-anchor="middle" x="1379.45" y="-840.27" font-family="Times,serif" font-size="8.00">Format</text>
<polyline fill="none" stroke="black" points="1324.2,-834.12 1434.7,-834.12"/>
<text text-anchor="start" x="1332.2" y="-822.52" font-family="Times,serif" font-size="8.00">+value : ivoa:string</text>
<text text-anchor="start" x="1332.2" y="-812.77" font-family="Times,serif" font-size="8.00">+isMIMEType : ivoa:boolean</text>
</a>
</g>
</g>
<!-- VODataService:DataType -->
<g id="node15" class="node">
<title>VODataService:DataType</title>
<g id="a_node15"><a xlink:href="../VODataService/DataType" xlink:title="{&amp;lt;&amp;lt;datatype&amp;gt;&amp;gt;\nDataType|+arraysize : VODataService:ArrayShape\l+delim : ivoa:string\l+extendedType : ivoa:string\l+extendedSchema : ivoa:anyURI\l}">
<polygon fill="#8dd3c7" stroke="black" points="1257.95,-420.38 1257.95,-494.88 1408.95,-494.88 1408.95,-420.38 1257.95,-420.38"/>
<text text-anchor="middle" x="1333.45" y="-483.27" font-family="Times,serif" font-size="8.00">&lt;&lt;datatype&gt;&gt;</text>
<text text-anchor="middle" x="1333.45" y="-473.52" font-family="Times,serif" font-size="8.00">DataType</text>
<polyline fill="none" stroke="black" points="1257.95,-467.38 1408.95,-467.38"/>
<text text-anchor="start" x="1265.95" y="-455.77" font-family="Times,serif" font-size="8.00">+arraysize : VODataService:ArrayShape</text>
<text text-anchor="start" x="1265.95" y="-446.02" font-family="Times,serif" font-size="8.00">+delim : ivoa:string</text>
<text text-anchor="start" x="1265.95" y="-436.27" font-family="Times,serif" font-size="8.00">+extendedType : ivoa:string</text>
<text text-anchor="start" x="1265.95" y="-426.52" font-family="Times,serif" font-size="8.00">+extendedSchema : ivoa:anyURI</text>
</a>
</g>
</g>
<!-- VODataService:SimpleDataType -->
<g id="node16" class="node">
<title>VODataService:SimpleDataType</title>
<g id="a_node16"><a xlink:href="../VODataService/SimpleDataType" xlink:title="{&amp;lt;&amp;lt;datatype&amp;gt;&amp;gt;\nSimpleDataType|+val : VODataService:SimpleDataType_enum\l}">
<polygon fill="#8dd3c7" stroke="black" points="1211.07,-548 1211.07,-593.25 1377.82,-593.25 1377.82,-548 1211.07,-548"/>
<text text-anchor="middle" x="1294.45" y="-581.65" font-family="Times,serif" font-size="8.00">&lt;&lt;datatype&gt;&gt;</text>
<text text-anchor="middle" x="1294.45" y="-571.9" font-family="Times,serif" font-size="8.00">SimpleDataType</text>
<polyline fill="none" stroke="black" points="1211.07,-565.75 1377.82,-565.75"/>
<text text-anchor="start" x="1219.07" y="-554.15" font-family="Times,serif" font-size="8.00">+val : VODataService:SimpleDataType_enum</text>
</a>
</g>
</g>
<!-- VODataService:SimpleDataType&#45;&gt;VODataService:DataType -->
<g id="edge1" class="edge">
<title>VODataService:SimpleDataType&#45;&gt;VODataService:DataType</title>
<path fill="none" stroke="red" d="M1302.15,-547.69C1306.33,-535.81 1311.66,-520.64 1316.73,-506.2"/>
<polygon fill="none" stroke="red" points="1320.02,-507.39 1320.04,-496.8 1313.42,-505.07 1320.02,-507.39"/>
</g>
<!-- VODataService:TableDataType -->
<g id="node17" class="node">
<title>VODataService:TableDataType</title>
<g id="a_node17"><a xlink:href="../VODataService/TableDataType" xlink:title="{&amp;lt;&amp;lt;datatype&amp;gt;&amp;gt;\nTableDataType}">
<polygon fill="#8dd3c7" stroke="black" points="1396.07,-552.62 1396.07,-588.62 1460.82,-588.62 1460.82,-552.62 1396.07,-552.62"/>
<text text-anchor="middle" x="1428.45" y="-573.02" font-family="Times,serif" font-size="8.00">&lt;&lt;datatype&gt;&gt;</text>
<text text-anchor="middle" x="1428.45" y="-563.27" font-family="Times,serif" font-size="8.00">TableDataType</text>
</a>
</g>
</g>
<!-- VODataService:TableDataType&#45;&gt;VODataService:DataType -->
<g id="edge2" class="edge">
<title>VODataService:TableDataType&#45;&gt;VODataService:DataType</title>
<path fill="none" stroke="red" d="M1413.61,-552.28C1402.39,-539.18 1386.48,-520.58 1371.78,-503.41"/>
<polygon fill="none" stroke="red" points="1374.83,-501.6 1365.67,-496.27 1369.51,-506.15 1374.83,-501.6"/>
</g>
<!-- VODataService:VOTableType -->
<g id="node18" class="node">
<title>VODataService:VOTableType</title>
<g id="a_node18"><a xlink:href="../VODataService/VOTableType" xlink:title="{&amp;lt;&amp;lt;datatype&amp;gt;&amp;gt;\nVOTableType|+val : VODataService:VOTableType_enum\l}">
<polygon fill="#8dd3c7" stroke="black" points="1309.57,-651.25 1309.57,-696.5 1467.32,-696.5 1467.32,-651.25 1309.57,-651.25"/>
<text text-anchor="middle" x="1388.45" y="-684.9" font-family="Times,serif" font-size="8.00">&lt;&lt;datatype&gt;&gt;</text>
<text text-anchor="middle" x="1388.45" y="-675.15" font-family="Times,serif" font-size="8.00">VOTableType</text>
<polyline fill="none" stroke="black" points="1309.57,-669 1467.32,-669"/>
<text text-anchor="start" x="1317.57" y="-657.4" font-family="Times,serif" font-size="8.00">+val : VODataService:VOTableType_enum</text>
</a>
</g>
</g>
<!-- VODataService:VOTableType&#45;&gt;VODataService:TableDataType -->
<g id="edge3" class="edge">
<title>VODataService:VOTableType&#45;&gt;VODataService:TableDataType</title>
<path fill="none" stroke="red" d="M1397.13,-650.91C1403.1,-635.78 1411.09,-615.58 1417.5,-599.35"/>
<polygon fill="none" stroke="red" points="1420.67,-600.85 1421.08,-590.27 1414.16,-598.28 1420.67,-600.85"/>
</g>
<!-- VODataService:TAPDataType -->
<g id="node19" class="node">
<title>VODataService:TAPDataType</title>
<g id="a_node19"><a xlink:href="../VODataService/TAPDataType" xlink:title="{&amp;lt;&amp;lt;datatype&amp;gt;&amp;gt;\nTAPDataType|+size : ivoa:integer\l}">
<polygon fill="#8dd3c7" stroke="black" points="1485.32,-651.25 1485.32,-696.5 1563.57,-696.5 1563.57,-651.25 1485.32,-651.25"/>
<text text-anchor="middle" x="1524.45" y="-684.9" font-family="Times,serif" font-size="8.00">&lt;&lt;datatype&gt;&gt;</text>
<text text-anchor="middle" x="1524.45" y="-675.15" font-family="Times,serif" font-size="8.00">TAPDataType</text>
<polyline fill="none" stroke="black" points="1485.32,-669 1563.57,-669"/>
<text text-anchor="start" x="1493.32" y="-657.4" font-family="Times,serif" font-size="8.00">+size : ivoa:integer</text>
</a>
</g>
</g>
<!-- VODataService:TAPDataType&#45;&gt;VODataService:TableDataType -->
<g id="edge4" class="edge">
<title>VODataService:TAPDataType&#45;&gt;VODataService:TableDataType</title>
<path fill="none" stroke="red" d="M1503.62,-650.91C1488.59,-635.06 1468.27,-613.62 1452.54,-597.03"/>
<polygon fill="none" stroke="red" points="1455.25,-594.8 1445.83,-589.96 1450.17,-599.62 1455.25,-594.8"/>
</g>
<!-- VODataService:TAPType -->
<g id="node20" class="node">
<title>VODataService:TAPType</title>
<g id="a_node20"><a xlink:href="../VODataService/TAPType" xlink:title="{&amp;lt;&amp;lt;datatype&amp;gt;&amp;gt;\nTAPType|+val : VODataService:TAPType_enum\l}">
<polygon fill="#8dd3c7" stroke="black" points="1453.07,-811.5 1453.07,-856.75 1595.82,-856.75 1595.82,-811.5 1453.07,-811.5"/>
<text text-anchor="middle" x="1524.45" y="-845.15" font-family="Times,serif" font-size="8.00">&lt;&lt;datatype&gt;&gt;</text>
<text text-anchor="middle" x="1524.45" y="-835.4" font-family="Times,serif" font-size="8.00">TAPType</text>
<polyline fill="none" stroke="black" points="1453.07,-829.25 1595.82,-829.25"/>
<text text-anchor="start" x="1461.07" y="-817.65" font-family="Times,serif" font-size="8.00">+val : VODataService:TAPType_enum</text>
</a>
</g>
</g>
<!-- VODataService:TAPType&#45;&gt;VODataService:TAPDataType -->
<g id="edge5" class="edge">
<title>VODataService:TAPType&#45;&gt;VODataService:TAPDataType</title>
<path fill="none" stroke="red" d="M1524.45,-811.12C1524.45,-784.5 1524.45,-739.42 1524.45,-708.46"/>
<polygon fill="none" stroke="red" points="1527.95,-708.46 1524.45,-698.46 1520.95,-708.46 1527.95,-708.46"/>
</g>
<!-- VODataService:DataCollection -->
<g id="node21" class="node">
<title>VODataService:DataCollection</title>
<g id="a_node21"><a xlink:href="../VODataService/DataCollection" xlink:title="{DataCollection|+facility : VOResource:ResourceName\l+instrument : VOResource:ResourceName\l+rights : VOResource:Rights\l+format : VODataService:Format\l}">
<polygon fill="#8dd3c7" stroke="black" points="85.07,-641.5 85.07,-706.25 239.82,-706.25 239.82,-641.5 85.07,-641.5"/>
<text text-anchor="middle" x="162.45" y="-694.65" font-family="Times,serif" font-size="8.00">DataCollection</text>
<polyline fill="none" stroke="black" points="85.07,-688.5 239.82,-688.5"/>
<text text-anchor="start" x="93.07" y="-676.9" font-family="Times,serif" font-size="8.00">+facility : VOResource:ResourceName</text>
<text text-anchor="start" x="93.07" y="-667.15" font-family="Times,serif" font-size="8.00">+instrument : VOResource:ResourceName</text>
<text text-anchor="start" x="93.07" y="-657.4" font-family="Times,serif" font-size="8.00">+rights : VOResource:Rights</text>
<text text-anchor="start" x="93.07" y="-647.65" font-family="Times,serif" font-size="8.00">+format : VODataService:Format</text>
</a>
</g>
</g>
<!-- VODataService:DataCollection&#45;&gt;VOResource:Resource -->
<g id="edge6" class="edge">
<title>VODataService:DataCollection&#45;&gt;VOResource:Resource</title>
<path fill="none" stroke="red" d="M143,-641.12C134.65,-627.48 125,-611.71 117,-598.65"/>
<polygon fill="none" stroke="red" points="119.99,-596.83 111.78,-590.13 114.02,-600.49 119.99,-596.83"/>
</g>
<!-- VODataService:DataCollection&#45;&gt;VOResource:AccessURL -->
<g id="edge16" class="edge">
<title>VODataService:DataCollection&#45;&gt;VOResource:AccessURL</title>
<path fill="none" stroke="blue" d="M184.14,-629.82C189.48,-619.22 195.04,-608.17 199.87,-598.58"/>
<polygon fill="blue" stroke="blue" points="184.25,-629.59 185.12,-636.75 178.85,-640.31 177.98,-633.15 184.25,-629.59"/>
<polygon fill="blue" stroke="blue" points="204.23,-589.93 203.75,-600.88 202.53,-593.3 199.73,-598.86 199.73,-598.86 199.73,-598.86 202.53,-593.3 195.71,-596.83 204.23,-589.93"/>
<text text-anchor="middle" x="216.32" y="-613.5" font-family="Times,serif" font-size="10.00">accessURL</text>
<text text-anchor="middle" x="197.28" y="-590.59" font-family="Times,serif" font-size="10.00">0..1</text>
</g>
<!-- VODataService:Coverage -->
<g id="node22" class="node">
<title>VODataService:Coverage</title>
<g id="a_node22"><a xlink:href="../VODataService/Coverage" xlink:title="{Coverage|+spatial : VODataService:SpatialCoverage\l+temporal : VODataService:FloatInterval\l+spectral : VODataService:FloatInterval\l+footprint : VODataService:ServiceReference\l+waveband : ivoa:string\l+regionOfRegard : ivoa:real\l}">
<polygon fill="#8dd3c7" stroke="black" points="252.32,-415.5 252.32,-499.75 420.57,-499.75 420.57,-415.5 252.32,-415.5"/>
<text text-anchor="middle" x="336.45" y="-488.15" font-family="Times,serif" font-size="8.00">Coverage</text>
<polyline fill="none" stroke="black" points="252.32,-482 420.57,-482"/>
<text text-anchor="start" x="260.32" y="-470.4" font-family="Times,serif" font-size="8.00">+spatial : VODataService:SpatialCoverage</text>
<text text-anchor="start" x="260.32" y="-460.65" font-family="Times,serif" font-size="8.00">+temporal : VODataService:FloatInterval</text>
<text text-anchor="start" x="260.32" y="-450.9" font-family="Times,serif" font-size="8.00">+spectral : VODataService:FloatInterval</text>
<text text-anchor="start" x="260.32" y="-441.15" font-family="Times,serif" font-size="8.00">+footprint : VODataService:ServiceReference</text>
<text text-anchor="start" x="260.32" y="-431.4" font-family="Times,serif" font-size="8.00">+waveband : ivoa:string</text>
<text text-anchor="start" x="260.32" y="-421.65" font-family="Times,serif" font-size="8.00">+regionOfRegard : ivoa:real</text>
</a>
</g>
</g>
<!-- VODataService:DataCollection&#45;&gt;VODataService:Coverage -->
<g id="edge14" class="edge">
<title>VODataService:DataCollection&#45;&gt;VODataService:Coverage</title>
<path fill="none" stroke="blue" d="M73.1,-639.55C24.71,-616.45 -19.71,-583.45 9.7,-547.5 74.58,-468.19 138.15,-528.3 241.11,-500.59"/>
<polygon fill="blue" stroke="blue" points="73.06,-639.53 80.18,-638.4 83.96,-644.54 76.84,-645.67 73.06,-639.53"/>
<polygon fill="blue" stroke="blue" points="250.69,-497.76 242.37,-504.91 247.06,-498.83 241.1,-500.59 241.1,-500.59 241.1,-500.59 247.06,-498.83 239.82,-496.28 250.69,-497.76"/>
<text text-anchor="middle" x="28.82" y="-566.75" font-family="Times,serif" font-size="10.00">coverage</text>
<text text-anchor="middle" x="244.36" y="-499.16" font-family="Times,serif" font-size="10.00">0..1</text>
</g>
<!-- VODataService:TableSet -->
<g id="node23" class="node">
<title>VODataService:TableSet</title>
<g id="a_node23"><a xlink:href="../VODataService/TableSet" xlink:title="{TableSet}">
<polygon fill="#8dd3c7" stroke="black" points="281.45,-552.62 281.45,-588.62 335.45,-588.62 335.45,-552.62 281.45,-552.62"/>
<text text-anchor="middle" x="308.32" y="-568.02" font-family="Times,serif" font-size="8.00">TableSet</text>
</a>
</g>
</g>
<!-- VODataService:DataCollection&#45;&gt;VODataService:TableSet -->
<g id="edge15" class="edge">
<title>VODataService:DataCollection&#45;&gt;VODataService:TableSet</title>
<path fill="none" stroke="blue" d="M227.01,-634.08C232.62,-630.42 238.17,-626.69 243.45,-623 255.54,-614.54 268.38,-604.61 279.42,-595.75"/>
<polygon fill="blue" stroke="blue" points="227.04,-634.06 224.15,-640.66 216.94,-640.53 219.83,-633.92 227.04,-634.06"/>
<polygon fill="blue" stroke="blue" points="286.9,-589.69 281.97,-599.48 283.96,-592.07 279.13,-595.99 279.13,-595.99 279.13,-595.99 283.96,-592.07 276.3,-592.49 286.9,-589.69"/>
<text text-anchor="middle" x="274.2" y="-613.5" font-family="Times,serif" font-size="10.00">tableset</text>
<text text-anchor="middle" x="280.35" y="-590.67" font-family="Times,serif" font-size="10.00">0..1</text>
</g>
<!-- VODataService:TableSchema -->
<g id="node24" class="node">
<title>VODataService:TableSchema</title>
<g id="a_node24"><a xlink:href="../VODataService/TableSchema" xlink:title="{TableSchema|+name : ivoa:string\l+title : ivoa:string\l+description : ivoa:string\l+utype : ivoa:string\l}">
<polygon fill="#8dd3c7" stroke="black" points="138.32,-425.25 138.32,-490 234.57,-490 234.57,-425.25 138.32,-425.25"/>
<text text-anchor="middle" x="186.45" y="-478.4" font-family="Times,serif" font-size="8.00">TableSchema</text>
<polyline fill="none" stroke="black" points="138.32,-472.25 234.57,-472.25"/>
<text text-anchor="start" x="146.32" y="-460.65" font-family="Times,serif" font-size="8.00">+name : ivoa:string</text>
<text text-anchor="start" x="146.32" y="-450.9" font-family="Times,serif" font-size="8.00">+title : ivoa:string</text>
<text text-anchor="start" x="146.32" y="-441.15" font-family="Times,serif" font-size="8.00">+description : ivoa:string</text>
<text text-anchor="start" x="146.32" y="-431.4" font-family="Times,serif" font-size="8.00">+utype : ivoa:string</text>
</a>
</g>
</g>
<!-- VODataService:TableSet&#45;&gt;VODataService:TableSchema -->
<g id="edge17" class="edge">
<title>VODataService:TableSet&#45;&gt;VODataService:TableSchema</title>
<path fill="none" stroke="blue" d="M280.19,-543.92C265.05,-530.14 246.09,-512.89 229.19,-497.51"/>
<polygon fill="blue" stroke="blue" points="279.84,-543.6 286.97,-544.68 288.72,-551.67 281.59,-550.6 279.84,-543.6"/>
<polygon fill="blue" stroke="blue" points="221.98,-490.96 232.41,-494.36 224.78,-493.5 229.38,-497.69 229.38,-497.69 229.38,-497.69 224.78,-493.5 226.35,-501.01 221.98,-490.96"/>
<text text-anchor="middle" x="277.45" y="-520" font-family="Times,serif" font-size="10.00">schema</text>
<text text-anchor="middle" x="228.58" y="-491.89" font-family="Times,serif" font-size="10.00">1..*</text>
</g>
<!-- VODataService:Table -->
<g id="node30" class="node">
<title>VODataService:Table</title>
<g id="a_node30"><a xlink:href="../VODataService/Table" xlink:title="{Table|+name : ivoa:string\l+title : ivoa:string\l+description : ivoa:string\l+utype : ivoa:string\l+nrows : ivoa:nonnegativeInteger\l+type : ivoa:string\l}">
<polygon fill="#8dd3c7" stroke="black" points="124.45,-283 124.45,-367.25 248.45,-367.25 248.45,-283 124.45,-283"/>
<text text-anchor="middle" x="186.45" y="-355.65" font-family="Times,serif" font-size="8.00">Table</text>
<polyline fill="none" stroke="black" points="124.45,-349.5 248.45,-349.5"/>
<text text-anchor="start" x="132.45" y="-337.9" font-family="Times,serif" font-size="8.00">+name : ivoa:string</text>
<text text-anchor="start" x="132.45" y="-328.15" font-family="Times,serif" font-size="8.00">+title : ivoa:string</text>
<text text-anchor="start" x="132.45" y="-318.4" font-family="Times,serif" font-size="8.00">+description : ivoa:string</text>
<text text-anchor="start" x="132.45" y="-308.65" font-family="Times,serif" font-size="8.00">+utype : ivoa:string</text>
<text text-anchor="start" x="132.45" y="-298.9" font-family="Times,serif" font-size="8.00">+nrows : ivoa:nonnegativeInteger</text>
<text text-anchor="start" x="132.45" y="-289.15" font-family="Times,serif" font-size="8.00">+type : ivoa:string</text>
</a>
</g>
</g>
<!-- VODataService:TableSchema&#45;&gt;VODataService:Table -->
<g id="edge18" class="edge">
<title>VODataService:TableSchema&#45;&gt;VODataService:Table</title>
<path fill="none" stroke="blue" d="M186.45,-412.21C186.45,-401.31 186.45,-389.53 186.45,-378.3"/>
<polygon fill="blue" stroke="blue" points="186.45,-412.13 190.45,-418.13 186.45,-424.13 182.45,-418.13 186.45,-412.13"/>
<polygon fill="blue" stroke="blue" points="186.45,-368.52 190.95,-378.52 186.45,-372.3 186.45,-378.52 186.45,-378.52 186.45,-378.52 186.45,-372.3 181.95,-378.52 186.45,-368.52"/>
<text text-anchor="middle" x="196.57" y="-387.5" font-family="Times,serif" font-size="10.00">table</text>
<text text-anchor="middle" x="178.95" y="-369.05" font-family="Times,serif" font-size="10.00">0..*</text>
</g>
<!-- VODataService:DataResource -->
<g id="node25" class="node">
<title>VODataService:DataResource</title>
<g id="a_node25"><a xlink:href="../VODataService/DataResource" xlink:title="{DataResource|+facility : VOResource:ResourceName\l+instrument : VOResource:ResourceName\l}">
<polygon fill="#8dd3c7" stroke="black" points="353.07,-548 353.07,-593.25 507.82,-593.25 507.82,-548 353.07,-548"/>
<text text-anchor="middle" x="430.45" y="-581.65" font-family="Times,serif" font-size="8.00">DataResource</text>
<polyline fill="none" stroke="black" points="353.07,-575.5 507.82,-575.5"/>
<text text-anchor="start" x="361.07" y="-563.9" font-family="Times,serif" font-size="8.00">+facility : VOResource:ResourceName</text>
<text text-anchor="start" x="361.07" y="-554.15" font-family="Times,serif" font-size="8.00">+instrument : VOResource:ResourceName</text>
</a>
</g>
</g>
<!-- VODataService:DataResource&#45;&gt;VOResource:Service -->
<g id="edge7" class="edge">
<title>VODataService:DataResource&#45;&gt;VOResource:Service</title>
<path fill="none" stroke="red" d="M440.52,-547.69C448.63,-530.05 460.07,-505.17 468.79,-486.18"/>
<polygon fill="none" stroke="red" points="471.94,-487.71 472.93,-477.16 465.58,-484.79 471.94,-487.71"/>
</g>
<!-- VODataService:DataResource&#45;&gt;VODataService:Coverage -->
<g id="edge19" class="edge">
<title>VODataService:DataResource&#45;&gt;VODataService:Coverage</title>
<path fill="none" stroke="blue" d="M403.52,-537.82C395.69,-528.58 386.94,-518.25 378.42,-508.19"/>
<polygon fill="blue" stroke="blue" points="403.54,-537.85 410.47,-539.84 411.3,-547.01 404.37,-545.01 403.54,-537.85"/>
<polygon fill="blue" stroke="blue" points="372.13,-500.76 382.03,-505.48 374.57,-503.64 378.59,-508.39 378.59,-508.39 378.59,-508.39 374.57,-503.64 375.16,-511.3 372.13,-500.76"/>
<text text-anchor="middle" x="413.82" y="-520" font-family="Times,serif" font-size="10.00">coverage</text>
<text text-anchor="middle" x="363.84" y="-501.58" font-family="Times,serif" font-size="10.00">0..1</text>
</g>
<!-- VODataService:DataService -->
<g id="node26" class="node">
<title>VODataService:DataService</title>
<g id="a_node26"><a xlink:href="../VODataService/DataService" xlink:title="{DataService}">
<polygon fill="#8dd3c7" stroke="black" points="402.2,-655.88 402.2,-691.88 458.7,-691.88 458.7,-655.88 402.2,-655.88"/>
<text text-anchor="middle" x="430.45" y="-671.27" font-family="Times,serif" font-size="8.00">DataService</text>
</a>
</g>
</g>
<!-- VODataService:DataService&#45;&gt;VODataService:DataResource -->
<g id="edge8" class="edge">
<title>VODataService:DataService&#45;&gt;VODataService:DataResource</title>
<path fill="none" stroke="red" d="M430.45,-655.7C430.45,-641.76 430.45,-621.71 430.45,-604.68"/>
<polygon fill="none" stroke="red" points="433.95,-605 430.45,-595 426.95,-605 433.95,-605"/>
</g>
<!-- VODataService:ParamHTTP -->
<g id="node27" class="node">
<title>VODataService:ParamHTTP</title>
<g id="a_node27"><a xlink:href="../VODataService/ParamHTTP" xlink:title="{ParamHTTP|+queryType : VODataService:HTTPQueryType\l+resultType : ivoa:string\l+testQuery : ivoa:string\l}">
<polygon fill="#8dd3c7" stroke="black" points="443.07,-297.62 443.07,-352.62 615.82,-352.62 615.82,-297.62 443.07,-297.62"/>
<text text-anchor="middle" x="529.45" y="-341.02" font-family="Times,serif" font-size="8.00">ParamHTTP</text>
<polyline fill="none" stroke="black" points="443.07,-334.88 615.82,-334.88"/>
<text text-anchor="start" x="451.07" y="-323.27" font-family="Times,serif" font-size="8.00">+queryType : VODataService:HTTPQueryType</text>
<text text-anchor="start" x="451.07" y="-313.52" font-family="Times,serif" font-size="8.00">+resultType : ivoa:string</text>
<text text-anchor="start" x="451.07" y="-303.77" font-family="Times,serif" font-size="8.00">+testQuery : ivoa:string</text>
</a>
</g>
</g>
<!-- VODataService:ParamHTTP&#45;&gt;VOResource:Interface -->
<g id="edge9" class="edge">
<title>VODataService:ParamHTTP&#45;&gt;VOResource:Interface</title>
<path fill="none" stroke="red" d="M537.33,-297.25C542.67,-279.07 549.71,-255.08 555.13,-236.6"/>
<polygon fill="none" stroke="red" points="558.47,-237.66 557.92,-227.08 551.75,-235.69 558.47,-237.66"/>
</g>
<!-- VODataService:InputParam -->
<g id="node33" class="node">
<title>VODataService:InputParam</title>
<g id="a_node33"><a xlink:href="../VODataService/InputParam" xlink:title="{InputParam|+dataType : VODataService:DataType\l+use : VODataService:ParamUse\l+std : ivoa:boolean\l}">
<polygon fill="#8dd3c7" stroke="black" points="357.07,-179.75 357.07,-234.75 499.82,-234.75 499.82,-179.75 357.07,-179.75"/>
<text text-anchor="middle" x="428.45" y="-223.15" font-family="Times,serif" font-size="8.00">InputParam</text>
<polyline fill="none" stroke="black" points="357.07,-217 499.82,-217"/>
<text text-anchor="start" x="365.07" y="-205.4" font-family="Times,serif" font-size="8.00">+dataType : VODataService:DataType</text>
<text text-anchor="start" x="365.07" y="-195.65" font-family="Times,serif" font-size="8.00">+use : VODataService:ParamUse</text>
<text text-anchor="start" x="365.07" y="-185.9" font-family="Times,serif" font-size="8.00">+std : ivoa:boolean</text>
</a>
</g>
</g>
<!-- VODataService:ParamHTTP&#45;&gt;VODataService:InputParam -->
<g id="edge20" class="edge">
<title>VODataService:ParamHTTP&#45;&gt;VODataService:InputParam</title>
<path fill="none" stroke="blue" d="M497.61,-287.59C485.3,-273.47 471.26,-257.37 459.07,-243.38"/>
<polygon fill="blue" stroke="blue" points="497.55,-287.52 504.5,-289.42 505.43,-296.57 498.47,-294.68 497.55,-287.52"/>
<polygon fill="blue" stroke="blue" points="452.55,-235.9 462.51,-240.48 455.03,-238.75 459.12,-243.44 459.12,-243.44 459.12,-243.44 455.03,-238.75 455.73,-246.39 452.55,-235.9"/>
<text text-anchor="middle" x="488.82" y="-255" font-family="Times,serif" font-size="10.00">param</text>
<text text-anchor="middle" x="444.25" y="-236.73" font-family="Times,serif" font-size="10.00">0..*</text>
</g>
<!-- VODataService:CatalogResource -->
<g id="node28" class="node">
<title>VODataService:CatalogResource</title>
<g id="a_node28"><a xlink:href="../VODataService/CatalogResource" xlink:title="{CatalogResource}">
<polygon fill="#8dd3c7" stroke="black" points="311.07,-655.88 311.07,-691.88 381.82,-691.88 381.82,-655.88 311.07,-655.88"/>
<text text-anchor="middle" x="346.45" y="-671.27" font-family="Times,serif" font-size="8.00">CatalogResource</text>
</a>
</g>
</g>
<!-- VODataService:CatalogResource&#45;&gt;VODataService:TableSet -->
<g id="edge21" class="edge">
<title>VODataService:CatalogResource&#45;&gt;VODataService:TableSet</title>
<path fill="none" stroke="blue" d="M335.5,-643.7C330.24,-629.7 323.98,-613.01 318.8,-599.22"/>
<polygon fill="blue" stroke="blue" points="335.47,-643.62 341.32,-647.83 339.69,-654.86 333.83,-650.64 335.47,-643.62"/>
<polygon fill="blue" stroke="blue" points="315.35,-590.03 323.08,-597.81 316.68,-593.57 318.87,-599.39 318.87,-599.39 318.87,-599.39 316.68,-593.57 314.66,-600.97 315.35,-590.03"/>
<text text-anchor="middle" x="343.2" y="-613.5" font-family="Times,serif" font-size="10.00">tableset</text>
<text text-anchor="middle" x="307.43" y="-590.63" font-family="Times,serif" font-size="10.00">0..1</text>
</g>
<!-- VODataService:CatalogResource&#45;&gt;VODataService:DataResource -->
<g id="edge10" class="edge">
<title>VODataService:CatalogResource&#45;&gt;VODataService:DataResource</title>
<path fill="none" stroke="red" d="M360.7,-655.7C372.82,-641.09 390.51,-619.76 405.05,-602.24"/>
<polygon fill="none" stroke="red" points="407.65,-604.58 411.35,-594.65 402.27,-600.11 407.65,-604.58"/>
</g>
<!-- VODataService:CatalogService -->
<g id="node29" class="node">
<title>VODataService:CatalogService</title>
<g id="a_node29"><a xlink:href="../VODataService/CatalogService" xlink:title="{CatalogService}">
<polygon fill="#8dd3c7" stroke="black" points="313.7,-816.12 313.7,-852.12 379.2,-852.12 379.2,-816.12 313.7,-816.12"/>
<text text-anchor="middle" x="346.45" y="-831.52" font-family="Times,serif" font-size="8.00">CatalogService</text>
</a>
</g>
</g>
<!-- VODataService:CatalogService&#45;&gt;VODataService:CatalogResource -->
<g id="edge11" class="edge">
<title>VODataService:CatalogService&#45;&gt;VODataService:CatalogResource</title>
<path fill="none" stroke="red" d="M346.45,-815.89C346.45,-788.9 346.45,-736.36 346.45,-703.59"/>
<polygon fill="none" stroke="red" points="349.95,-703.6 346.45,-693.6 342.95,-703.6 349.95,-703.6"/>
</g>
<!-- VODataService:TableParam -->
<g id="node32" class="node">
<title>VODataService:TableParam</title>
<g id="a_node32"><a xlink:href="../VODataService/TableParam" xlink:title="{TableParam|+dataType : VODataService:TableDataType\l+flag : ivoa:string\l+std : ivoa:boolean\l}">
<polygon fill="#8dd3c7" stroke="black" points="179.45,-179.75 179.45,-234.75 339.45,-234.75 339.45,-179.75 179.45,-179.75"/>
<text text-anchor="middle" x="259.45" y="-223.15" font-family="Times,serif" font-size="8.00">TableParam</text>
<polyline fill="none" stroke="black" points="179.45,-217 339.45,-217"/>
<text text-anchor="start" x="187.45" y="-205.4" font-family="Times,serif" font-size="8.00">+dataType : VODataService:TableDataType</text>
<text text-anchor="start" x="187.45" y="-195.65" font-family="Times,serif" font-size="8.00">+flag : ivoa:string</text>
<text text-anchor="start" x="187.45" y="-185.9" font-family="Times,serif" font-size="8.00">+std : ivoa:boolean</text>
</a>
</g>
</g>
<!-- VODataService:Table&#45;&gt;VODataService:TableParam -->
<g id="edge22" class="edge">
<title>VODataService:Table&#45;&gt;VODataService:TableParam</title>
<path fill="none" stroke="blue" d="M219.52,-271.64C225.32,-262.43 231.23,-253.04 236.67,-244.4"/>
<polygon fill="blue" stroke="blue" points="219.47,-271.7 219.66,-278.91 213.08,-281.86 212.89,-274.65 219.47,-271.7"/>
<polygon fill="blue" stroke="blue" points="241.93,-236.05 240.41,-246.91 239.92,-239.25 236.6,-244.51 236.6,-244.51 236.6,-244.51 239.92,-239.25 232.8,-242.12 241.93,-236.05"/>
<text text-anchor="middle" x="245.82" y="-255" font-family="Times,serif" font-size="10.00">column</text>
<text text-anchor="middle" x="235.08" y="-236.77" font-family="Times,serif" font-size="10.00">0..*</text>
</g>
<!-- VODataService:ForeignKey -->
<g id="node34" class="node">
<title>VODataService:ForeignKey</title>
<g id="a_node34"><a xlink:href="../VODataService/ForeignKey" xlink:title="{ForeignKey|+targetTable : ivoa:string\l+description : ivoa:string\l+utype : ivoa:string\l}">
<polygon fill="#8dd3c7" stroke="black" points="65.32,-179.75 65.32,-234.75 161.57,-234.75 161.57,-179.75 65.32,-179.75"/>
<text text-anchor="middle" x="113.45" y="-223.15" font-family="Times,serif" font-size="8.00">ForeignKey</text>
<polyline fill="none" stroke="black" points="65.32,-217 161.57,-217"/>
<text text-anchor="start" x="73.32" y="-205.4" font-family="Times,serif" font-size="8.00">+targetTable : ivoa:string</text>
<text text-anchor="start" x="73.32" y="-195.65" font-family="Times,serif" font-size="8.00">+description : ivoa:string</text>
<text text-anchor="start" x="73.32" y="-185.9" font-family="Times,serif" font-size="8.00">+utype : ivoa:string</text>
</a>
</g>
</g>
<!-- VODataService:Table&#45;&gt;VODataService:ForeignKey -->
<g id="edge23" class="edge">
<title>VODataService:Table&#45;&gt;VODataService:ForeignKey</title>
<path fill="none" stroke="blue" d="M153.38,-271.64C147.58,-262.43 141.66,-253.04 136.22,-244.4"/>
<polygon fill="blue" stroke="blue" points="153.42,-271.7 160.01,-274.65 159.82,-281.86 153.24,-278.91 153.42,-271.7"/>
<polygon fill="blue" stroke="blue" points="130.96,-236.05 140.1,-242.12 132.98,-239.25 136.3,-244.51 136.3,-244.51 136.3,-244.51 132.98,-239.25 132.49,-246.91 130.96,-236.05"/>
<text text-anchor="middle" x="171.7" y="-255" font-family="Times,serif" font-size="10.00">foreignKey</text>
<text text-anchor="middle" x="122.82" y="-236.77" font-family="Times,serif" font-size="10.00">0..*</text>
</g>
<!-- VODataService:BaseParam -->
<g id="node31" class="node">
<title>VODataService:BaseParam</title>
<g id="a_node31"><a xlink:href="../VODataService/BaseParam" xlink:title="{BaseParam|+name : ivoa:string\l+description : ivoa:string\l+unit : ivoa:string\l+ucd : ivoa:string\l+utype : ivoa:string\l}">
<polygon fill="#8dd3c7" stroke="black" points="295.32,-57 295.32,-131.5 391.57,-131.5 391.57,-57 295.32,-57"/>
<text text-anchor="middle" x="343.45" y="-119.9" font-family="Times,serif" font-size="8.00">BaseParam</text>
<polyline fill="none" stroke="black" points="295.32,-113.75 391.57,-113.75"/>
<text text-anchor="start" x="303.32" y="-102.15" font-family="Times,serif" font-size="8.00">+name : ivoa:string</text>
<text text-anchor="start" x="303.32" y="-92.4" font-family="Times,serif" font-size="8.00">+description : ivoa:string</text>
<text text-anchor="start" x="303.32" y="-82.65" font-family="Times,serif" font-size="8.00">+unit : ivoa:string</text>
<text text-anchor="start" x="303.32" y="-72.9" font-family="Times,serif" font-size="8.00">+ucd : ivoa:string</text>
<text text-anchor="start" x="303.32" y="-63.15" font-family="Times,serif" font-size="8.00">+utype : ivoa:string</text>
</a>
</g>
</g>
<!-- VODataService:TableParam&#45;&gt;VODataService:BaseParam -->
<g id="edge12" class="edge">
<title>VODataService:TableParam&#45;&gt;VODataService:BaseParam</title>
<path fill="none" stroke="red" d="M279.78,-179.38C288.54,-167.81 299.03,-153.95 308.94,-140.85"/>
<polygon fill="none" stroke="red" points="311.53,-143.23 314.77,-133.14 305.95,-139.01 311.53,-143.23"/>
</g>
<!-- VODataService:InputParam&#45;&gt;VODataService:BaseParam -->
<g id="edge13" class="edge">
<title>VODataService:InputParam&#45;&gt;VODataService:BaseParam</title>
<path fill="none" stroke="red" d="M407.87,-179.38C399.01,-167.81 388.4,-153.95 378.37,-140.85"/>
<polygon fill="none" stroke="red" points="381.32,-138.95 372.46,-133.14 375.76,-143.21 381.32,-138.95"/>
</g>
<!-- VODataService:FKColumn -->
<g id="node35" class="node">
<title>VODataService:FKColumn</title>
<g id="a_node35"><a xlink:href="../VODataService/FKColumn" xlink:title="{FKColumn|+fromColumn : ivoa:string\l+targetColumn : ivoa:string\l}">
<polygon fill="#8dd3c7" stroke="black" points="61.57,-71.62 61.57,-116.88 165.32,-116.88 165.32,-71.62 61.57,-71.62"/>
<text text-anchor="middle" x="113.45" y="-105.28" font-family="Times,serif" font-size="8.00">FKColumn</text>
<polyline fill="none" stroke="black" points="61.57,-99.12 165.32,-99.12"/>
<text text-anchor="start" x="69.57" y="-87.53" font-family="Times,serif" font-size="8.00">+fromColumn : ivoa:string</text>
<text text-anchor="start" x="69.57" y="-77.78" font-family="Times,serif" font-size="8.00">+targetColumn : ivoa:string</text>
</a>
</g>
</g>
<!-- VODataService:ForeignKey&#45;&gt;VODataService:FKColumn -->
<g id="edge24" class="edge">
<title>VODataService:ForeignKey&#45;&gt;VODataService:FKColumn</title>
<path fill="none" stroke="blue" d="M113.45,-166.58C113.45,-153.93 113.45,-140.1 113.45,-128"/>
<polygon fill="blue" stroke="blue" points="113.45,-166.48 117.45,-172.48 113.45,-178.48 109.45,-172.48 113.45,-166.48"/>
<polygon fill="blue" stroke="blue" points="113.45,-118.25 117.95,-128.25 113.45,-122.04 113.45,-128.25 113.45,-128.25 113.45,-128.25 113.45,-122.04 108.95,-128.25 113.45,-118.25"/>
<text text-anchor="middle" x="134.07" y="-151.75" font-family="Times,serif" font-size="10.00">fkColumn</text>
<text text-anchor="middle" x="105.95" y="-118.79" font-family="Times,serif" font-size="10.00">1..*</text>
</g>
</g>
</svg>
