<?xml version="1.0" encoding="UTF-8" standalone="no"?>
<!DOCTYPE svg PUBLIC "-//W3C//DTD SVG 1.1//EN"
 "http://www.w3.org/Graphics/SVG/1.1/DTD/svg11.dtd">
<!-- Generated by graphviz version 12.1.1 (20240910.0053)
 -->
<!-- Title: GVmap Pages: 1 -->
<svg width="2094pt" height="577pt"
 viewBox="0.00 0.00 2093.75 576.50" xmlns="http://www.w3.org/2000/svg" xmlns:xlink="http://www.w3.org/1999/xlink">
<g id="graph0" class="graph" transform="scale(1 1) rotate(0) translate(4 572.5)">
<title>GVmap</title>
<polygon fill="white" stroke="none" points="-4,4 -4,-572.5 2089.75,-572.5 2089.75,4 -4,4"/>
<text text-anchor="middle" x="1042.88" y="-7.2" font-family="Times,serif" font-size="14.00">VOResource data model</text>
<!-- ivoa:datetime -->
<g id="node1" class="node">
<title>ivoa:datetime</title>
<g id="a_node1"><a xlink:href="#datetime" xlink:title="{ivoa:datetime}">
<polygon fill="grey" stroke="black" points="9.75,-360.75 9.75,-396.75 69.25,-396.75 69.25,-360.75 9.75,-360.75"/>
<text text-anchor="middle" x="39.5" y="-376.15" font-family="Times,serif" font-size="8.00">ivoa:datetime</text>
</a>
</g>
</g>
<!-- ivoa:string -->
<g id="node2" class="node">
<title>ivoa:string</title>
<g id="a_node2"><a xlink:href="#string" xlink:title="{ivoa:string}">
<polygon fill="grey" stroke="black" points="206.5,-360.75 206.5,-396.75 260.5,-396.75 260.5,-360.75 206.5,-360.75"/>
<text text-anchor="middle" x="233.38" y="-376.15" font-family="Times,serif" font-size="8.00">ivoa:string</text>
</a>
</g>
</g>
<!-- ivoa:anyURI -->
<g id="node3" class="node">
<title>ivoa:anyURI</title>
<g id="a_node3"><a xlink:href="#anyURI" xlink:title="{ivoa:anyURI}">
<polygon fill="grey" stroke="black" points="398.88,-360.75 398.88,-396.75 456.12,-396.75 456.12,-360.75 398.88,-360.75"/>
<text text-anchor="middle" x="427.5" y="-376.15" font-family="Times,serif" font-size="8.00">ivoa:anyURI</text>
</a>
</g>
</g>
<!-- VOResource:UTCTimestamp -->
<g id="node4" class="node">
<title>VOResource:UTCTimestamp</title>
<g id="a_node4"><a xlink:href="../VOResource/UTCTimestamp" xlink:title="{&amp;lt;&amp;lt;primitive type&amp;gt;&amp;gt;\nUTCTimestamp}">
<polygon fill="#8dd3c7" stroke="black" points="0,-507.88 0,-543.88 79,-543.88 79,-507.88 0,-507.88"/>
<text text-anchor="middle" x="39.5" y="-528.27" font-family="Times,serif" font-size="8.00">&lt;&lt;primitive type&gt;&gt;</text>
<text text-anchor="middle" x="39.5" y="-518.52" font-family="Times,serif" font-size="8.00">UTCTimestamp</text>
</a>
</g>
</g>
<!-- VOResource:UTCTimestamp&#45;&gt;ivoa:datetime -->
<g id="edge1" class="edge">
<title>VOResource:UTCTimestamp&#45;&gt;ivoa:datetime</title>
<path fill="none" stroke="red" d="M39.5,-507.66C39.5,-483.11 39.5,-437.75 39.5,-408.18"/>
<polygon fill="none" stroke="red" points="43,-408.46 39.5,-398.46 36,-408.46 43,-408.46"/>
</g>
<!-- VOResource:UTCDateTime -->
<g id="node5" class="node">
<title>VOResource:UTCDateTime</title>
<g id="a_node5"><a xlink:href="../VOResource/UTCDateTime" xlink:title="{&amp;lt;&amp;lt;primitive type&amp;gt;&amp;gt;\nUTCDateTime}">
<polygon fill="#8dd3c7" stroke="black" points="485,-507.88 485,-543.88 564,-543.88 564,-507.88 485,-507.88"/>
<text text-anchor="middle" x="524.5" y="-528.27" font-family="Times,serif" font-size="8.00">&lt;&lt;primitive type&gt;&gt;</text>
<text text-anchor="middle" x="524.5" y="-518.52" font-family="Times,serif" font-size="8.00">UTCDateTime</text>
</a>
</g>
</g>
<!-- VOResource:AuthorityID -->
<g id="node6" class="node">
<title>VOResource:AuthorityID</title>
<g id="a_node6"><a xlink:href="../VOResource/AuthorityID" xlink:title="{&amp;lt;&amp;lt;primitive type&amp;gt;&amp;gt;\nAuthorityID}">
<polygon fill="#8dd3c7" stroke="black" points="97,-507.88 97,-543.88 176,-543.88 176,-507.88 97,-507.88"/>
<text text-anchor="middle" x="136.5" y="-528.27" font-family="Times,serif" font-size="8.00">&lt;&lt;primitive type&gt;&gt;</text>
<text text-anchor="middle" x="136.5" y="-518.52" font-family="Times,serif" font-size="8.00">AuthorityID</text>
</a>
</g>
</g>
<!-- VOResource:AuthorityID&#45;&gt;ivoa:string -->
<g id="edge2" class="edge">
<title>VOResource:AuthorityID&#45;&gt;ivoa:string</title>
<path fill="none" stroke="red" d="M148.01,-507.66C164.78,-482.56 196.08,-435.73 215.8,-406.23"/>
<polygon fill="none" stroke="red" points="218.52,-408.46 221.17,-398.2 212.7,-404.57 218.52,-408.46"/>
</g>
<!-- VOResource:ResourceKey -->
<g id="node7" class="node">
<title>VOResource:ResourceKey</title>
<g id="a_node7"><a xlink:href="../VOResource/ResourceKey" xlink:title="{&amp;lt;&amp;lt;primitive type&amp;gt;&amp;gt;\nResourceKey}">
<polygon fill="#8dd3c7" stroke="black" points="194,-507.88 194,-543.88 273,-543.88 273,-507.88 194,-507.88"/>
<text text-anchor="middle" x="233.5" y="-528.27" font-family="Times,serif" font-size="8.00">&lt;&lt;primitive type&gt;&gt;</text>
<text text-anchor="middle" x="233.5" y="-518.52" font-family="Times,serif" font-size="8.00">ResourceKey</text>
</a>
</g>
</g>
<!-- VOResource:ResourceKey&#45;&gt;ivoa:string -->
<g id="edge3" class="edge">
<title>VOResource:ResourceKey&#45;&gt;ivoa:string</title>
<path fill="none" stroke="red" d="M233.5,-507.66C233.5,-483.11 233.5,-437.75 233.5,-408.18"/>
<polygon fill="none" stroke="red" points="237,-408.46 233.5,-398.46 230,-408.46 237,-408.46"/>
</g>
<!-- VOResource:IdentifierURI -->
<g id="node8" class="node">
<title>VOResource:IdentifierURI</title>
<g id="a_node8"><a xlink:href="../VOResource/IdentifierURI" xlink:title="{&amp;lt;&amp;lt;primitive type&amp;gt;&amp;gt;\nIdentifierURI}">
<polygon fill="#8dd3c7" stroke="black" points="388,-507.88 388,-543.88 467,-543.88 467,-507.88 388,-507.88"/>
<text text-anchor="middle" x="427.5" y="-528.27" font-family="Times,serif" font-size="8.00">&lt;&lt;primitive type&gt;&gt;</text>
<text text-anchor="middle" x="427.5" y="-518.52" font-family="Times,serif" font-size="8.00">IdentifierURI</text>
</a>
</g>
</g>
<!-- VOResource:IdentifierURI&#45;&gt;ivoa:anyURI -->
<g id="edge4" class="edge">
<title>VOResource:IdentifierURI&#45;&gt;ivoa:anyURI</title>
<path fill="none" stroke="red" d="M427.5,-507.66C427.5,-483.11 427.5,-437.75 427.5,-408.18"/>
<polygon fill="none" stroke="red" points="431,-408.46 427.5,-398.46 424,-408.46 431,-408.46"/>
</g>
<!-- VOResource:ShortName -->
<g id="node9" class="node">
<title>VOResource:ShortName</title>
<g id="a_node9"><a xlink:href="../VOResource/ShortName" xlink:title="{&amp;lt;&amp;lt;primitive type&amp;gt;&amp;gt;\nShortName}">
<polygon fill="#8dd3c7" stroke="black" points="291,-507.88 291,-543.88 370,-543.88 370,-507.88 291,-507.88"/>
<text text-anchor="middle" x="330.5" y="-528.27" font-family="Times,serif" font-size="8.00">&lt;&lt;primitive type&gt;&gt;</text>
<text text-anchor="middle" x="330.5" y="-518.52" font-family="Times,serif" font-size="8.00">ShortName</text>
</a>
</g>
</g>
<!-- VOResource:ShortName&#45;&gt;ivoa:string -->
<g id="edge5" class="edge">
<title>VOResource:ShortName&#45;&gt;ivoa:string</title>
<path fill="none" stroke="red" d="M318.99,-507.66C302.22,-482.56 270.92,-435.73 251.2,-406.23"/>
<polygon fill="none" stroke="red" points="254.3,-404.57 245.83,-398.2 248.48,-408.46 254.3,-404.57"/>
</g>
<!-- VOResource:Resource_status -->
<g id="node10" class="node">
<title>VOResource:Resource_status</title>
<g id="a_node10"><a xlink:href="../VOResource/Resource_status" xlink:title="{&amp;lt;&amp;lt;enumeration&amp;gt;&amp;gt;\nResource_status|+active\l+inactive\l+deleted\l}">
<polygon fill="#8dd3c7" stroke="black" points="581.62,-493.5 581.62,-558.25 655.38,-558.25 655.38,-493.5 581.62,-493.5"/>
<text text-anchor="middle" x="618.5" y="-546.65" font-family="Times,serif" font-size="8.00">&lt;&lt;enumeration&gt;&gt;</text>
<text text-anchor="middle" x="618.5" y="-536.9" font-family="Times,serif" font-size="8.00">Resource_status</text>
<polyline fill="none" stroke="black" points="581.62,-530.75 655.38,-530.75"/>
<text text-anchor="start" x="589.62" y="-519.15" font-family="Times,serif" font-size="8.00">+active</text>
<text text-anchor="start" x="589.62" y="-509.4" font-family="Times,serif" font-size="8.00">+inactive</text>
<text text-anchor="start" x="589.62" y="-499.65" font-family="Times,serif" font-size="8.00">+deleted</text>
</a>
</g>
</g>
<!-- VOResource:AccessURL_use -->
<g id="node11" class="node">
<title>VOResource:AccessURL_use</title>
<g id="a_node11"><a xlink:href="../VOResource/AccessURL_use" xlink:title="{&amp;lt;&amp;lt;enumeration&amp;gt;&amp;gt;\nAccessURL_use|+full\l+base\l+dir\l}">
<polygon fill="#8dd3c7" stroke="black" points="673.62,-493.5 673.62,-558.25 747.38,-558.25 747.38,-493.5 673.62,-493.5"/>
<text text-anchor="middle" x="710.5" y="-546.65" font-family="Times,serif" font-size="8.00">&lt;&lt;enumeration&gt;&gt;</text>
<text text-anchor="middle" x="710.5" y="-536.9" font-family="Times,serif" font-size="8.00">AccessURL_use</text>
<polyline fill="none" stroke="black" points="673.62,-530.75 747.38,-530.75"/>
<text text-anchor="start" x="681.62" y="-519.15" font-family="Times,serif" font-size="8.00">+full</text>
<text text-anchor="start" x="681.62" y="-509.4" font-family="Times,serif" font-size="8.00">+base</text>
<text text-anchor="start" x="681.62" y="-499.65" font-family="Times,serif" font-size="8.00">+dir</text>
</a>
</g>
</g>
<!-- VOResource:ValidationLevel -->
<g id="node12" class="node">
<title>VOResource:ValidationLevel</title>
<g id="a_node12"><a xlink:href="../VOResource/ValidationLevel" xlink:title="{&amp;lt;&amp;lt;enumeration&amp;gt;&amp;gt;\nValidationLevel|+described\l+valid\l+compliant\l+inspected\l+interoperable\l}">
<polygon fill="#8dd3c7" stroke="black" points="765.62,-483.75 765.62,-568 839.38,-568 839.38,-483.75 765.62,-483.75"/>
<text text-anchor="middle" x="802.5" y="-556.4" font-family="Times,serif" font-size="8.00">&lt;&lt;enumeration&gt;&gt;</text>
<text text-anchor="middle" x="802.5" y="-546.65" font-family="Times,serif" font-size="8.00">ValidationLevel</text>
<polyline fill="none" stroke="black" points="765.62,-540.5 839.38,-540.5"/>
<text text-anchor="start" x="773.62" y="-528.9" font-family="Times,serif" font-size="8.00">+described</text>
<text text-anchor="start" x="773.62" y="-519.15" font-family="Times,serif" font-size="8.00">+valid</text>
<text text-anchor="start" x="773.62" y="-509.4" font-family="Times,serif" font-size="8.00">+compliant</text>
<text text-anchor="start" x="773.62" y="-499.65" font-family="Times,serif" font-size="8.00">+inspected</text>
<text text-anchor="start" x="773.62" y="-489.9" font-family="Times,serif" font-size="8.00">+interoperable</text>
</a>
</g>
</g>
<!-- VOResource:Validation -->
<g id="node13" class="node">
<title>VOResource:Validation</title>
<g id="a_node13"><a xlink:href="../VOResource/Validation" xlink:title="{&amp;lt;&amp;lt;datatype&amp;gt;&amp;gt;\nValidation|+value : VOResource:ValidationLevel\l+validatedBy : ivoa:anyURI\l}">
<polygon fill="#8dd3c7" stroke="black" points="857.62,-498.38 857.62,-553.38 997.38,-553.38 997.38,-498.38 857.62,-498.38"/>
<text text-anchor="middle" x="927.5" y="-541.77" font-family="Times,serif" font-size="8.00">&lt;&lt;datatype&gt;&gt;</text>
<text text-anchor="middle" x="927.5" y="-532.02" font-family="Times,serif" font-size="8.00">Validation</text>
<polyline fill="none" stroke="black" points="857.62,-525.88 997.38,-525.88"/>
<text text-anchor="start" x="865.62" y="-514.27" font-family="Times,serif" font-size="8.00">+value : VOResource:ValidationLevel</text>
<text text-anchor="start" x="865.62" y="-504.52" font-family="Times,serif" font-size="8.00">+validatedBy : ivoa:anyURI</text>
</a>
</g>
</g>
<!-- VOResource:ResourceName -->
<g id="node14" class="node">
<title>VOResource:ResourceName</title>
<g id="a_node14"><a xlink:href="../VOResource/ResourceName" xlink:title="{&amp;lt;&amp;lt;datatype&amp;gt;&amp;gt;\nResourceName|+value : ivoa:string\l+ivoid : VOResource:IdentifierURI\l}">
<polygon fill="#8dd3c7" stroke="black" points="1015.38,-498.38 1015.38,-553.38 1147.62,-553.38 1147.62,-498.38 1015.38,-498.38"/>
<text text-anchor="middle" x="1081.5" y="-541.77" font-family="Times,serif" font-size="8.00">&lt;&lt;datatype&gt;&gt;</text>
<text text-anchor="middle" x="1081.5" y="-532.02" font-family="Times,serif" font-size="8.00">ResourceName</text>
<polyline fill="none" stroke="black" points="1015.38,-525.88 1147.62,-525.88"/>
<text text-anchor="start" x="1023.38" y="-514.27" font-family="Times,serif" font-size="8.00">+value : ivoa:string</text>
<text text-anchor="start" x="1023.38" y="-504.52" font-family="Times,serif" font-size="8.00">+ivoid : VOResource:IdentifierURI</text>
</a>
</g>
</g>
<!-- VOResource:Date -->
<g id="node15" class="node">
<title>VOResource:Date</title>
<g id="a_node15"><a xlink:href="../VOResource/Date" xlink:title="{&amp;lt;&amp;lt;datatype&amp;gt;&amp;gt;\nDate|+value : VOResource:UTCDateTime\l+role : ivoa:string\l}">
<polygon fill="#8dd3c7" stroke="black" points="1165.75,-498.38 1165.75,-553.38 1303.25,-553.38 1303.25,-498.38 1165.75,-498.38"/>
<text text-anchor="middle" x="1234.5" y="-541.77" font-family="Times,serif" font-size="8.00">&lt;&lt;datatype&gt;&gt;</text>
<text text-anchor="middle" x="1234.5" y="-532.02" font-family="Times,serif" font-size="8.00">Date</text>
<polyline fill="none" stroke="black" points="1165.75,-525.88 1303.25,-525.88"/>
<text text-anchor="start" x="1173.75" y="-514.27" font-family="Times,serif" font-size="8.00">+value : VOResource:UTCDateTime</text>
<text text-anchor="start" x="1173.75" y="-504.52" font-family="Times,serif" font-size="8.00">+role : ivoa:string</text>
</a>
</g>
</g>
<!-- VOResource:Source -->
<g id="node16" class="node">
<title>VOResource:Source</title>
<g id="a_node16"><a xlink:href="../VOResource/Source" xlink:title="{&amp;lt;&amp;lt;datatype&amp;gt;&amp;gt;\nSource|+value : ivoa:string\l+format : ivoa:string\l}">
<polygon fill="#8dd3c7" stroke="black" points="1321.12,-498.38 1321.12,-553.38 1403.88,-553.38 1403.88,-498.38 1321.12,-498.38"/>
<text text-anchor="middle" x="1362.5" y="-541.77" font-family="Times,serif" font-size="8.00">&lt;&lt;datatype&gt;&gt;</text>
<text text-anchor="middle" x="1362.5" y="-532.02" font-family="Times,serif" font-size="8.00">Source</text>
<polyline fill="none" stroke="black" points="1321.12,-525.88 1403.88,-525.88"/>
<text text-anchor="start" x="1329.12" y="-514.27" font-family="Times,serif" font-size="8.00">+value : ivoa:string</text>
<text text-anchor="start" x="1329.12" y="-504.52" font-family="Times,serif" font-size="8.00">+format : ivoa:string</text>
</a>
</g>
</g>
<!-- VOResource:Rights -->
<g id="node17" class="node">
<title>VOResource:Rights</title>
<g id="a_node17"><a xlink:href="../VOResource/Rights" xlink:title="{&amp;lt;&amp;lt;datatype&amp;gt;&amp;gt;\nRights|+value : ivoa:string\l+rightsURI : ivoa:anyURI\l}">
<polygon fill="#8dd3c7" stroke="black" points="1422.12,-498.38 1422.12,-553.38 1522.88,-553.38 1522.88,-498.38 1422.12,-498.38"/>
<text text-anchor="middle" x="1472.5" y="-541.77" font-family="Times,serif" font-size="8.00">&lt;&lt;datatype&gt;&gt;</text>
<text text-anchor="middle" x="1472.5" y="-532.02" font-family="Times,serif" font-size="8.00">Rights</text>
<polyline fill="none" stroke="black" points="1422.12,-525.88 1522.88,-525.88"/>
<text text-anchor="start" x="1430.12" y="-514.27" font-family="Times,serif" font-size="8.00">+value : ivoa:string</text>
<text text-anchor="start" x="1430.12" y="-504.52" font-family="Times,serif" font-size="8.00">+rightsURI : ivoa:anyURI</text>
</a>
</g>
</g>
<!-- VOResource:Resource -->
<g id="node18" class="node">
<title>VOResource:Resource</title>
<g id="a_node18"><a xlink:href="../VOResource/Resource" xlink:title="{Resource|+validationLevel : VOResource:Validation\l+title : ivoa:string\l+shortName : VOResource:ShortName\l+identifier : VOResource:IdentifierURI\l+altIdentifier : ivoa:anyURI\l+created : VOResource:UTCTimestamp\l+updated : VOResource:UTCTimestamp\l+status : VOResource:Resource_status\l+version : ivoa:string\l}">
<polygon fill="#8dd3c7" stroke="black" points="1541.5,-322 1541.5,-435.5 1695.5,-435.5 1695.5,-322 1541.5,-322"/>
<text text-anchor="middle" x="1618.5" y="-423.9" font-family="Times,serif" font-size="8.00">Resource</text>
<polyline fill="none" stroke="black" points="1541.5,-417.75 1695.5,-417.75"/>
<text text-anchor="start" x="1549.5" y="-406.15" font-family="Times,serif" font-size="8.00">+validationLevel : VOResource:Validation</text>
<text text-anchor="start" x="1549.5" y="-396.4" font-family="Times,serif" font-size="8.00">+title : ivoa:string</text>
<text text-anchor="start" x="1549.5" y="-386.65" font-family="Times,serif" font-size="8.00">+shortName : VOResource:ShortName</text>
<text text-anchor="start" x="1549.5" y="-376.9" font-family="Times,serif" font-size="8.00">+identifier : VOResource:IdentifierURI</text>
<text text-anchor="start" x="1549.5" y="-367.15" font-family="Times,serif" font-size="8.00">+altIdentifier : ivoa:anyURI</text>
<text text-anchor="start" x="1549.5" y="-357.4" font-family="Times,serif" font-size="8.00">+created : VOResource:UTCTimestamp</text>
<text text-anchor="start" x="1549.5" y="-347.65" font-family="Times,serif" font-size="8.00">+updated : VOResource:UTCTimestamp</text>
<text text-anchor="start" x="1549.5" y="-337.9" font-family="Times,serif" font-size="8.00">+status : VOResource:Resource_status</text>
<text text-anchor="start" x="1549.5" y="-328.15" font-family="Times,serif" font-size="8.00">+version : ivoa:string</text>
</a>
</g>
</g>
<!-- VOResource:Curation -->
<g id="node19" class="node">
<title>VOResource:Curation</title>
<g id="a_node19"><a xlink:href="../VOResource/Curation" xlink:title="{Curation|+publisher : VOResource:ResourceName\l+contributor : VOResource:ResourceName\l+date : VOResource:Date\l+version : ivoa:string\l}">
<polygon fill="#8dd3c7" stroke="black" points="1366.38,-199.25 1366.38,-264 1522.62,-264 1522.62,-199.25 1366.38,-199.25"/>
<text text-anchor="middle" x="1444.5" y="-252.4" font-family="Times,serif" font-size="8.00">Curation</text>
<polyline fill="none" stroke="black" points="1366.38,-246.25 1522.62,-246.25"/>
<text text-anchor="start" x="1374.38" y="-234.65" font-family="Times,serif" font-size="8.00">+publisher : VOResource:ResourceName</text>
<text text-anchor="start" x="1374.38" y="-224.9" font-family="Times,serif" font-size="8.00">+contributor : VOResource:ResourceName</text>
<text text-anchor="start" x="1374.38" y="-215.15" font-family="Times,serif" font-size="8.00">+date : VOResource:Date</text>
<text text-anchor="start" x="1374.38" y="-205.4" font-family="Times,serif" font-size="8.00">+version : ivoa:string</text>
</a>
</g>
</g>
<!-- VOResource:Resource&#45;&gt;VOResource:Curation -->
<g id="edge10" class="edge">
<title>VOResource:Resource&#45;&gt;VOResource:Curation</title>
<path fill="none" stroke="blue" d="M1541.28,-313.35C1524.06,-298.98 1506.32,-284.18 1490.81,-271.25"/>
<polygon fill="blue" stroke="blue" points="1541.32,-313.38 1548.49,-314.15 1550.53,-321.06 1543.37,-320.29 1541.32,-313.38"/>
<polygon fill="blue" stroke="blue" points="1483.37,-265.04 1493.93,-267.99 1486.27,-267.47 1491.05,-271.45 1491.05,-271.45 1491.05,-271.45 1486.27,-267.47 1488.17,-274.9 1483.37,-265.04"/>
<text text-anchor="middle" x="1543.16" y="-294" font-family="Times,serif" font-size="10.00">curation</text>
<text text-anchor="middle" x="1479.81" y="-266.01" font-family="Times,serif" font-size="10.00">1</text>
</g>
<!-- VOResource:Content -->
<g id="node22" class="node">
<title>VOResource:Content</title>
<g id="a_node22"><a xlink:href="../VOResource/Content" xlink:title="{Content|+subject : ivoa:string\l+description : ivoa:string\l+source : VOResource:Source\l+referenceURL : ivoa:anyURI\l+type : ivoa:string\l+contentLevel : ivoa:string\l}">
<polygon fill="#8dd3c7" stroke="black" points="1561,-189.5 1561,-273.75 1676,-273.75 1676,-189.5 1561,-189.5"/>
<text text-anchor="middle" x="1618.5" y="-262.15" font-family="Times,serif" font-size="8.00">Content</text>
<polyline fill="none" stroke="black" points="1561,-256 1676,-256"/>
<text text-anchor="start" x="1569" y="-244.4" font-family="Times,serif" font-size="8.00">+subject : ivoa:string</text>
<text text-anchor="start" x="1569" y="-234.65" font-family="Times,serif" font-size="8.00">+description : ivoa:string</text>
<text text-anchor="start" x="1569" y="-224.9" font-family="Times,serif" font-size="8.00">+source : VOResource:Source</text>
<text text-anchor="start" x="1569" y="-215.15" font-family="Times,serif" font-size="8.00">+referenceURL : ivoa:anyURI</text>
<text text-anchor="start" x="1569" y="-205.4" font-family="Times,serif" font-size="8.00">+type : ivoa:string</text>
<text text-anchor="start" x="1569" y="-195.65" font-family="Times,serif" font-size="8.00">+contentLevel : ivoa:string</text>
</a>
</g>
</g>
<!-- VOResource:Resource&#45;&gt;VOResource:Content -->
<g id="edge11" class="edge">
<title>VOResource:Resource&#45;&gt;VOResource:Content</title>
<path fill="none" stroke="blue" d="M1618.5,-308.88C1618.5,-300.92 1618.5,-292.89 1618.5,-285.19"/>
<polygon fill="blue" stroke="blue" points="1618.5,-308.74 1622.5,-314.74 1618.5,-320.74 1614.5,-314.74 1618.5,-308.74"/>
<polygon fill="blue" stroke="blue" points="1618.5,-275.4 1623,-285.4 1618.5,-279.18 1618.5,-285.4 1618.5,-285.4 1618.5,-285.4 1618.5,-279.18 1614,-285.4 1618.5,-275.4"/>
<text text-anchor="middle" x="1633.88" y="-294" font-family="Times,serif" font-size="10.00">content</text>
<text text-anchor="middle" x="1615.88" y="-275.93" font-family="Times,serif" font-size="10.00">1</text>
</g>
<!-- VOResource:Contact -->
<g id="node20" class="node">
<title>VOResource:Contact</title>
<g id="a_node20"><a xlink:href="../VOResource/Contact" xlink:title="{Contact|+name : VOResource:ResourceName\l+address : ivoa:string\l+email : ivoa:string\l+telephone : ivoa:string\l+altIdentifier : ivoa:anyURI\l+ivoid : VOResource:IdentifierURI\l}">
<polygon fill="#8dd3c7" stroke="black" points="1219.38,-57 1219.38,-141.25 1357.62,-141.25 1357.62,-57 1219.38,-57"/>
<text text-anchor="middle" x="1288.5" y="-129.65" font-family="Times,serif" font-size="8.00">Contact</text>
<polyline fill="none" stroke="black" points="1219.38,-123.5 1357.62,-123.5"/>
<text text-anchor="start" x="1227.38" y="-111.9" font-family="Times,serif" font-size="8.00">+name : VOResource:ResourceName</text>
<text text-anchor="start" x="1227.38" y="-102.15" font-family="Times,serif" font-size="8.00">+address : ivoa:string</text>
<text text-anchor="start" x="1227.38" y="-92.4" font-family="Times,serif" font-size="8.00">+email : ivoa:string</text>
<text text-anchor="start" x="1227.38" y="-82.65" font-family="Times,serif" font-size="8.00">+telephone : ivoa:string</text>
<text text-anchor="start" x="1227.38" y="-72.9" font-family="Times,serif" font-size="8.00">+altIdentifier : ivoa:anyURI</text>
<text text-anchor="start" x="1227.38" y="-63.15" font-family="Times,serif" font-size="8.00">+ivoid : VOResource:IdentifierURI</text>
</a>
</g>
</g>
<!-- VOResource:Curation&#45;&gt;VOResource:Contact -->
<g id="edge13" class="edge">
<title>VOResource:Curation&#45;&gt;VOResource:Contact</title>
<path fill="none" stroke="blue" d="M1396.97,-190.86C1381.07,-177.56 1363.17,-162.59 1346.56,-148.69"/>
<polygon fill="blue" stroke="blue" points="1396.84,-190.76 1404.01,-191.54 1406.05,-198.46 1398.88,-197.67 1396.84,-190.76"/>
<polygon fill="blue" stroke="blue" points="1338.94,-142.32 1349.5,-145.29 1341.85,-144.75 1346.61,-148.74 1346.61,-148.74 1346.61,-148.74 1341.85,-144.75 1343.73,-152.19 1338.94,-142.32"/>
<text text-anchor="middle" x="1386.18" y="-161.5" font-family="Times,serif" font-size="10.00">contact</text>
<text text-anchor="middle" x="1330.51" y="-143.29" font-family="Times,serif" font-size="10.00">1..*</text>
</g>
<!-- VOResource:Creator -->
<g id="node21" class="node">
<title>VOResource:Creator</title>
<g id="a_node21"><a xlink:href="../VOResource/Creator" xlink:title="{Creator|+name : VOResource:ResourceName\l+logo : ivoa:anyURI\l+altIdentifier : ivoa:anyURI\l+ivoid : VOResource:IdentifierURI\l}">
<polygon fill="#8dd3c7" stroke="black" points="1375.38,-66.75 1375.38,-131.5 1513.62,-131.5 1513.62,-66.75 1375.38,-66.75"/>
<text text-anchor="middle" x="1444.5" y="-119.9" font-family="Times,serif" font-size="8.00">Creator</text>
<polyline fill="none" stroke="black" points="1375.38,-113.75 1513.62,-113.75"/>
<text text-anchor="start" x="1383.38" y="-102.15" font-family="Times,serif" font-size="8.00">+name : VOResource:ResourceName</text>
<text text-anchor="start" x="1383.38" y="-92.4" font-family="Times,serif" font-size="8.00">+logo : ivoa:anyURI</text>
<text text-anchor="start" x="1383.38" y="-82.65" font-family="Times,serif" font-size="8.00">+altIdentifier : ivoa:anyURI</text>
<text text-anchor="start" x="1383.38" y="-72.9" font-family="Times,serif" font-size="8.00">+ivoid : VOResource:IdentifierURI</text>
</a>
</g>
</g>
<!-- VOResource:Curation&#45;&gt;VOResource:Creator -->
<g id="edge12" class="edge">
<title>VOResource:Curation&#45;&gt;VOResource:Creator</title>
<path fill="none" stroke="blue" d="M1444.5,-186.24C1444.5,-172.29 1444.5,-156.93 1444.5,-143.08"/>
<polygon fill="blue" stroke="blue" points="1444.5,-186.13 1448.5,-192.13 1444.5,-198.13 1440.5,-192.13 1444.5,-186.13"/>
<polygon fill="blue" stroke="blue" points="1444.5,-133.1 1449,-143.1 1444.5,-136.88 1444.5,-143.1 1444.5,-143.1 1444.5,-143.1 1444.5,-136.88 1440,-143.1 1444.5,-133.1"/>
<text text-anchor="middle" x="1458.38" y="-161.5" font-family="Times,serif" font-size="10.00">creator</text>
<text text-anchor="middle" x="1437" y="-133.63" font-family="Times,serif" font-size="10.00">0..*</text>
</g>
<!-- VOResource:Relationship -->
<g id="node23" class="node">
<title>VOResource:Relationship</title>
<g id="a_node23"><a xlink:href="../VOResource/Relationship" xlink:title="{Relationship|+relationshipType : ivoa:string\l+relatedResource : VOResource:ResourceName\l}">
<polygon fill="#8dd3c7" stroke="black" points="1531.75,-76.5 1531.75,-121.75 1705.25,-121.75 1705.25,-76.5 1531.75,-76.5"/>
<text text-anchor="middle" x="1618.5" y="-110.15" font-family="Times,serif" font-size="8.00">Relationship</text>
<polyline fill="none" stroke="black" points="1531.75,-104 1705.25,-104"/>
<text text-anchor="start" x="1539.75" y="-92.4" font-family="Times,serif" font-size="8.00">+relationshipType : ivoa:string</text>
<text text-anchor="start" x="1539.75" y="-82.65" font-family="Times,serif" font-size="8.00">+relatedResource : VOResource:ResourceName</text>
</a>
</g>
</g>
<!-- VOResource:Content&#45;&gt;VOResource:Relationship -->
<g id="edge14" class="edge">
<title>VOResource:Content&#45;&gt;VOResource:Relationship</title>
<path fill="none" stroke="blue" d="M1618.5,-176.44C1618.5,-161.72 1618.5,-146.22 1618.5,-133.07"/>
<polygon fill="blue" stroke="blue" points="1618.5,-176.43 1622.5,-182.43 1618.5,-188.43 1614.5,-182.43 1618.5,-176.43"/>
<polygon fill="blue" stroke="blue" points="1618.5,-123.41 1623,-133.41 1618.5,-127.19 1618.5,-133.41 1618.5,-133.41 1618.5,-133.41 1618.5,-127.19 1614,-133.41 1618.5,-123.41"/>
<text text-anchor="middle" x="1642.88" y="-161.5" font-family="Times,serif" font-size="10.00">relationship</text>
<text text-anchor="middle" x="1611" y="-123.94" font-family="Times,serif" font-size="10.00">0..*</text>
</g>
<!-- VOResource:Organisation -->
<g id="node24" class="node">
<title>VOResource:Organisation</title>
<g id="a_node24"><a xlink:href="../VOResource/Organisation" xlink:title="{Organisation|+facility : VOResource:ResourceName\l+instrument : VOResource:ResourceName\l}">
<polygon fill="#8dd3c7" stroke="black" points="1541.12,-503.25 1541.12,-548.5 1695.88,-548.5 1695.88,-503.25 1541.12,-503.25"/>
<text text-anchor="middle" x="1618.5" y="-536.9" font-family="Times,serif" font-size="8.00">Organisation</text>
<polyline fill="none" stroke="black" points="1541.12,-530.75 1695.88,-530.75"/>
<text text-anchor="start" x="1549.12" y="-519.15" font-family="Times,serif" font-size="8.00">+facility : VOResource:ResourceName</text>
<text text-anchor="start" x="1549.12" y="-509.4" font-family="Times,serif" font-size="8.00">+instrument : VOResource:ResourceName</text>
</a>
</g>
</g>
<!-- VOResource:Organisation&#45;&gt;VOResource:Resource -->
<g id="edge6" class="edge">
<title>VOResource:Organisation&#45;&gt;VOResource:Resource</title>
<path fill="none" stroke="red" d="M1618.5,-502.83C1618.5,-487.92 1618.5,-467.34 1618.5,-447.29"/>
<polygon fill="none" stroke="red" points="1622,-447.42 1618.5,-437.42 1615,-447.42 1622,-447.42"/>
</g>
<!-- VOResource:Service -->
<g id="node25" class="node">
<title>VOResource:Service</title>
<g id="a_node25"><a xlink:href="../VOResource/Service" xlink:title="{Service|+rights : VOResource:Rights\l}">
<polygon fill="#8dd3c7" stroke="black" points="1724.62,-507.88 1724.62,-543.88 1834.38,-543.88 1834.38,-507.88 1724.62,-507.88"/>
<text text-anchor="middle" x="1779.5" y="-532.27" font-family="Times,serif" font-size="8.00">Service</text>
<polyline fill="none" stroke="black" points="1724.62,-526.12 1834.38,-526.12"/>
<text text-anchor="start" x="1732.62" y="-514.52" font-family="Times,serif" font-size="8.00">+rights : VOResource:Rights</text>
</a>
</g>
</g>
<!-- VOResource:Service&#45;&gt;VOResource:Resource -->
<g id="edge7" class="edge">
<title>VOResource:Service&#45;&gt;VOResource:Resource</title>
<path fill="none" stroke="red" d="M1760.4,-507.66C1742.66,-491.67 1715.13,-466.85 1689.02,-443.32"/>
<polygon fill="none" stroke="red" points="1691.51,-440.84 1681.73,-436.75 1686.82,-446.04 1691.51,-440.84"/>
</g>
<!-- VOResource:Capability -->
<g id="node26" class="node">
<title>VOResource:Capability</title>
<g id="a_node26"><a xlink:href="../VOResource/Capability" xlink:title="{Capability|+validationLevel : VOResource:Validation\l+description : ivoa:string\l+standardID : ivoa:anyURI\l}">
<polygon fill="#8dd3c7" stroke="black" points="1716.5,-351.25 1716.5,-406.25 1870.5,-406.25 1870.5,-351.25 1716.5,-351.25"/>
<text text-anchor="middle" x="1793.5" y="-394.65" font-family="Times,serif" font-size="8.00">Capability</text>
<polyline fill="none" stroke="black" points="1716.5,-388.5 1870.5,-388.5"/>
<text text-anchor="start" x="1724.5" y="-376.9" font-family="Times,serif" font-size="8.00">+validationLevel : VOResource:Validation</text>
<text text-anchor="start" x="1724.5" y="-367.15" font-family="Times,serif" font-size="8.00">+description : ivoa:string</text>
<text text-anchor="start" x="1724.5" y="-357.4" font-family="Times,serif" font-size="8.00">+standardID : ivoa:anyURI</text>
</a>
</g>
</g>
<!-- VOResource:Service&#45;&gt;VOResource:Capability -->
<g id="edge15" class="edge">
<title>VOResource:Service&#45;&gt;VOResource:Capability</title>
<path fill="none" stroke="blue" d="M1782.4,-494.86C1784.56,-472.41 1787.54,-441.56 1789.86,-417.44"/>
<polygon fill="blue" stroke="blue" points="1782.4,-494.82 1785.81,-501.17 1781.25,-506.76 1777.84,-500.4 1782.4,-494.82"/>
<polygon fill="blue" stroke="blue" points="1790.8,-407.76 1794.32,-418.15 1790.43,-411.53 1789.84,-417.72 1789.84,-417.72 1789.84,-417.72 1790.43,-411.53 1785.36,-417.29 1790.8,-407.76"/>
<text text-anchor="middle" x="1806.71" y="-455.75" font-family="Times,serif" font-size="10.00">capability</text>
<text text-anchor="middle" x="1783.41" y="-408.3" font-family="Times,serif" font-size="10.00">0..*</text>
</g>
<!-- VOResource:Interface -->
<g id="node27" class="node">
<title>VOResource:Interface</title>
<g id="a_node27"><a xlink:href="../VOResource/Interface" xlink:title="{Interface|+testQueryString : ivoa:string\l+version : ivoa:string\l+role : ivoa:string\l}">
<polygon fill="#8dd3c7" stroke="black" points="1863.5,-204.12 1863.5,-259.12 1975.5,-259.12 1975.5,-204.12 1863.5,-204.12"/>
<text text-anchor="middle" x="1919.5" y="-247.53" font-family="Times,serif" font-size="8.00">Interface</text>
<polyline fill="none" stroke="black" points="1863.5,-241.38 1975.5,-241.38"/>
<text text-anchor="start" x="1871.5" y="-229.78" font-family="Times,serif" font-size="8.00">+testQueryString : ivoa:string</text>
<text text-anchor="start" x="1871.5" y="-220.03" font-family="Times,serif" font-size="8.00">+version : ivoa:string</text>
<text text-anchor="start" x="1871.5" y="-210.28" font-family="Times,serif" font-size="8.00">+role : ivoa:string</text>
</a>
</g>
</g>
<!-- VOResource:Capability&#45;&gt;VOResource:Interface -->
<g id="edge16" class="edge">
<title>VOResource:Capability&#45;&gt;VOResource:Interface</title>
<path fill="none" stroke="blue" d="M1825.3,-341.13C1844.87,-318.58 1869.82,-289.85 1889.12,-267.61"/>
<polygon fill="blue" stroke="blue" points="1825.36,-341.05 1824.45,-348.2 1817.5,-350.11 1818.41,-342.96 1825.36,-341.05"/>
<polygon fill="blue" stroke="blue" points="1895.42,-260.36 1892.26,-270.86 1892.94,-263.21 1888.87,-267.91 1888.87,-267.91 1888.87,-267.91 1892.94,-263.21 1885.47,-264.96 1895.42,-260.36"/>
<text text-anchor="middle" x="1881.67" y="-294" font-family="Times,serif" font-size="10.00">interface</text>
<text text-anchor="middle" x="1888.72" y="-261.19" font-family="Times,serif" font-size="10.00">0..*</text>
</g>
<!-- VOResource:AccessURL -->
<g id="node28" class="node">
<title>VOResource:AccessURL</title>
<g id="a_node28"><a xlink:href="../VOResource/AccessURL" xlink:title="{AccessURL|+value : ivoa:anyURI\l+use : VOResource:AccessURL_use\l}">
<polygon fill="#8dd3c7" stroke="black" points="1723.5,-76.5 1723.5,-121.75 1859.5,-121.75 1859.5,-76.5 1723.5,-76.5"/>
<text text-anchor="middle" x="1791.5" y="-110.15" font-family="Times,serif" font-size="8.00">AccessURL</text>
<polyline fill="none" stroke="black" points="1723.5,-104 1859.5,-104"/>
<text text-anchor="start" x="1731.5" y="-92.4" font-family="Times,serif" font-size="8.00">+value : ivoa:anyURI</text>
<text text-anchor="start" x="1731.5" y="-82.65" font-family="Times,serif" font-size="8.00">+use : VOResource:AccessURL_use</text>
</a>
</g>
</g>
<!-- VOResource:Interface&#45;&gt;VOResource:AccessURL -->
<g id="edge17" class="edge">
<title>VOResource:Interface&#45;&gt;VOResource:AccessURL</title>
<path fill="none" stroke="blue" d="M1884.25,-194.68C1864.28,-174.32 1839.59,-149.16 1820.71,-129.91"/>
<polygon fill="blue" stroke="blue" points="1884.25,-194.69 1891.31,-196.17 1892.66,-203.26 1885.6,-201.78 1884.25,-194.69"/>
<polygon fill="blue" stroke="blue" points="1813.86,-122.92 1824.08,-126.91 1816.51,-125.62 1820.86,-130.06 1820.86,-130.06 1820.86,-130.06 1816.51,-125.62 1817.65,-133.21 1813.86,-122.92"/>
<text text-anchor="middle" x="1882.21" y="-161.5" font-family="Times,serif" font-size="10.00">accessURL</text>
<text text-anchor="middle" x="1805.51" y="-123.8" font-family="Times,serif" font-size="10.00">1..*</text>
</g>
<!-- VOResource:MirrorURL -->
<g id="node29" class="node">
<title>VOResource:MirrorURL</title>
<g id="a_node29"><a xlink:href="../VOResource/MirrorURL" xlink:title="{MirrorURL|+value : ivoa:anyURI\l+title : ivoa:string\l}">
<polygon fill="#8dd3c7" stroke="black" points="1877.62,-76.5 1877.62,-121.75 1963.38,-121.75 1963.38,-76.5 1877.62,-76.5"/>
<text text-anchor="middle" x="1920.5" y="-110.15" font-family="Times,serif" font-size="8.00">MirrorURL</text>
<polyline fill="none" stroke="black" points="1877.62,-104 1963.38,-104"/>
<text text-anchor="start" x="1885.62" y="-92.4" font-family="Times,serif" font-size="8.00">+value : ivoa:anyURI</text>
<text text-anchor="start" x="1885.62" y="-82.65" font-family="Times,serif" font-size="8.00">+title : ivoa:string</text>
</a>
</g>
</g>
<!-- VOResource:Interface&#45;&gt;VOResource:MirrorURL -->
<g id="edge18" class="edge">
<title>VOResource:Interface&#45;&gt;VOResource:MirrorURL</title>
<path fill="none" stroke="blue" d="M1919.8,-190.91C1919.95,-172.44 1920.11,-150.74 1920.25,-133.18"/>
<polygon fill="blue" stroke="blue" points="1919.8,-191 1923.76,-197.03 1919.71,-203 1915.76,-196.97 1919.8,-191"/>
<polygon fill="blue" stroke="blue" points="1920.32,-123.27 1924.75,-133.31 1920.29,-127.05 1920.25,-133.27 1920.25,-133.27 1920.25,-133.27 1920.29,-127.05 1915.75,-133.24 1920.32,-123.27"/>
<text text-anchor="middle" x="1942.53" y="-161.5" font-family="Times,serif" font-size="10.00">mirrorURL</text>
<text text-anchor="middle" x="1912.83" y="-123.8" font-family="Times,serif" font-size="10.00">0..*</text>
</g>
<!-- VOResource:SecurityMethod -->
<g id="node30" class="node">
<title>VOResource:SecurityMethod</title>
<g id="a_node30"><a xlink:href="../VOResource/SecurityMethod" xlink:title="{SecurityMethod|+standardID : ivoa:anyURI\l}">
<polygon fill="#8dd3c7" stroke="black" points="1981.25,-81.12 1981.25,-117.12 2085.75,-117.12 2085.75,-81.12 1981.25,-81.12"/>
<text text-anchor="middle" x="2033.5" y="-105.53" font-family="Times,serif" font-size="8.00">SecurityMethod</text>
<polyline fill="none" stroke="black" points="1981.25,-99.38 2085.75,-99.38"/>
<text text-anchor="start" x="1989.25" y="-87.78" font-family="Times,serif" font-size="8.00">+standardID : ivoa:anyURI</text>
</a>
</g>
</g>
<!-- VOResource:Interface&#45;&gt;VOResource:SecurityMethod -->
<g id="edge19" class="edge">
<title>VOResource:Interface&#45;&gt;VOResource:SecurityMethod</title>
<path fill="none" stroke="blue" d="M1951.23,-194.3C1970.3,-172.47 1994.11,-145.22 2011.19,-125.66"/>
<polygon fill="blue" stroke="blue" points="1951.33,-194.19 1950.4,-201.34 1943.44,-203.22 1944.37,-196.07 1951.33,-194.19"/>
<polygon fill="blue" stroke="blue" points="2017.73,-118.18 2014.54,-128.67 2015.24,-121.02 2011.15,-125.71 2011.15,-125.71 2011.15,-125.71 2015.24,-121.02 2007.76,-122.75 2017.73,-118.18"/>
<text text-anchor="middle" x="2012.17" y="-161.5" font-family="Times,serif" font-size="10.00">securityMethod</text>
<text text-anchor="middle" x="2011.03" y="-119.01" font-family="Times,serif" font-size="10.00">0..*</text>
</g>
<!-- VOResource:WebBrowser -->
<g id="node31" class="node">
<title>VOResource:WebBrowser</title>
<g id="a_node31"><a xlink:href="../VOResource/WebBrowser" xlink:title="{WebBrowser}">
<polygon fill="#8dd3c7" stroke="black" points="1889.5,-360.75 1889.5,-396.75 1947.5,-396.75 1947.5,-360.75 1889.5,-360.75"/>
<text text-anchor="middle" x="1918.5" y="-376.15" font-family="Times,serif" font-size="8.00">WebBrowser</text>
</a>
</g>
</g>
<!-- VOResource:WebBrowser&#45;&gt;VOResource:Interface -->
<g id="edge8" class="edge">
<title>VOResource:WebBrowser&#45;&gt;VOResource:Interface</title>
<path fill="none" stroke="red" d="M1918.62,-360.53C1918.77,-338.56 1919.04,-299.91 1919.24,-270.83"/>
<polygon fill="none" stroke="red" points="1922.74,-270.96 1919.3,-260.94 1915.74,-270.92 1922.74,-270.96"/>
</g>
<!-- VOResource:WebService -->
<g id="node32" class="node">
<title>VOResource:WebService</title>
<g id="a_node32"><a xlink:href="../VOResource/WebService" xlink:title="{WebService|+wsdlURL : ivoa:anyURI\l}">
<polygon fill="#8dd3c7" stroke="black" points="1965.25,-360.75 1965.25,-396.75 2063.75,-396.75 2063.75,-360.75 1965.25,-360.75"/>
<text text-anchor="middle" x="2014.5" y="-385.15" font-family="Times,serif" font-size="8.00">WebService</text>
<polyline fill="none" stroke="black" points="1965.25,-379 2063.75,-379"/>
<text text-anchor="start" x="1973.25" y="-367.4" font-family="Times,serif" font-size="8.00">+wsdlURL : ivoa:anyURI</text>
</a>
</g>
</g>
<!-- VOResource:WebService&#45;&gt;VOResource:Interface -->
<g id="edge9" class="edge">
<title>VOResource:WebService&#45;&gt;VOResource:Interface</title>
<path fill="none" stroke="red" d="M2003.23,-360.53C1988.52,-338.07 1962.42,-298.18 1943.25,-268.91"/>
<polygon fill="none" stroke="red" points="1946.28,-267.14 1937.87,-260.69 1940.42,-270.98 1946.28,-267.14"/>
</g>
</g>
</svg>
