<?xml version="1.0" encoding="UTF-8" standalone="no"?>
<!DOCTYPE svg PUBLIC "-//W3C//DTD SVG 1.1//EN"
 "http://www.w3.org/Graphics/SVG/1.1/DTD/svg11.dtd">
<!-- Generated by graphviz version 11.0.0 (20240428.1522)
 -->
<!-- Title: GVmap Pages: 1 -->
<svg width="212pt" height="175pt"
 viewBox="0.00 0.00 212.25 174.50" xmlns="http://www.w3.org/2000/svg" xmlns:xlink="http://www.w3.org/1999/xlink">
<g id="graph0" class="graph" transform="scale(1 1) rotate(0) translate(4 170.5)">
<title>GVmap</title>
<polygon fill="white" stroke="none" points="-4,4 -4,-170.5 208.25,-170.5 208.25,4 -4,4"/>
<text text-anchor="middle" x="102.12" y="-7.2" font-family="Times,serif" font-size="14.00">VOSITables data model</text>
<!-- VODataService:TableSet -->
<g id="node1" class="node">
<title>VODataService:TableSet</title>
<g id="a_node1"><a xlink:href="#TableSet" xlink:title="{VODataService:TableSet}">
<polygon fill="grey" stroke="black" points="0,-57 0,-93 98.5,-93 98.5,-57 0,-57"/>
<text text-anchor="middle" x="49.25" y="-72.4" font-family="Times,serif" font-size="8.00">VODataService:TableSet</text>
</a>
</g>
</g>
<!-- VODataService:Table -->
<g id="node2" class="node">
<title>VODataService:Table</title>
<g id="a_node2"><a xlink:href="#Table" xlink:title="{VODataService:Table}">
<polygon fill="grey" stroke="black" points="116.25,-57 116.25,-93 204.25,-93 204.25,-57 116.25,-57"/>
<text text-anchor="middle" x="160.25" y="-72.4" font-family="Times,serif" font-size="8.00">VODataService:Table</text>
</a>
</g>
</g>
<!-- VOSITables:tableset -->
<g id="node3" class="node">
<title>VOSITables:tableset</title>
<g id="a_node3"><a xlink:href="../VOSITables/tableset" xlink:title="{tableset}">
<polygon fill="#8dd3c7" stroke="black" points="22.25,-130 22.25,-166 76.25,-166 76.25,-130 22.25,-130"/>
<text text-anchor="middle" x="49.12" y="-145.4" font-family="Times,serif" font-size="8.00">tableset</text>
</a>
</g>
</g>
<!-- VOSITables:tableset&#45;&gt;VODataService:TableSet -->
<g id="edge1" class="edge">
<title>VOSITables:tableset&#45;&gt;VODataService:TableSet</title>
<path fill="none" stroke="red" d="M49.25,-129.81C49.25,-122.23 49.25,-113.1 49.25,-104.54"/>
<polygon fill="none" stroke="red" points="52.75,-104.54 49.25,-94.54 45.75,-104.54 52.75,-104.54"/>
</g>
<!-- VOSITables:atable -->
<g id="node4" class="node">
<title>VOSITables:atable</title>
<g id="a_node4"><a xlink:href="../VOSITables/atable" xlink:title="{atable}">
<polygon fill="#8dd3c7" stroke="black" points="133.25,-130 133.25,-166 187.25,-166 187.25,-130 133.25,-130"/>
<text text-anchor="middle" x="160" y="-145.4" font-family="Times,serif" font-size="8.00">atable</text>
</a>
</g>
</g>
<!-- VOSITables:atable&#45;&gt;VODataService:Table -->
<g id="edge2" class="edge">
<title>VOSITables:atable&#45;&gt;VODataService:Table</title>
<path fill="none" stroke="red" d="M160.25,-129.81C160.25,-122.23 160.25,-113.1 160.25,-104.54"/>
<polygon fill="none" stroke="red" points="163.75,-104.54 160.25,-94.54 156.75,-104.54 163.75,-104.54"/>
</g>
</g>
</svg>
