<?xml version="1.0" encoding="UTF-8" standalone="no"?>
<!DOCTYPE svg PUBLIC "-//W3C//DTD SVG 1.1//EN"
 "http://www.w3.org/Graphics/SVG/1.1/DTD/svg11.dtd">
<!-- Generated by graphviz version 12.1.1 (20240910.0053)
 -->
<!-- Title: GVmap Pages: 1 -->
<svg width="139pt" height="186pt"
 viewBox="0.00 0.00 138.75 185.75" xmlns="http://www.w3.org/2000/svg" xmlns:xlink="http://www.w3.org/1999/xlink">
<g id="graph0" class="graph" transform="scale(1 1) rotate(0) translate(4 181.75)">
<title>GVmap</title>
<polygon fill="white" stroke="none" points="-4,4 -4,-181.75 134.75,-181.75 134.75,4 -4,4"/>
<text text-anchor="middle" x="65.38" y="-7.2" font-family="Times,serif" font-size="14.00">VOSIcap data model</text>
<!-- VOResource:Capability -->
<g id="node1" class="node">
<title>VOResource:Capability</title>
<g id="a_node1"><a xlink:href="#Capability" xlink:title="{VOResource:Capability}">
<polygon fill="grey" stroke="black" points="18.75,-57 18.75,-93 112,-93 112,-57 18.75,-57"/>
<text text-anchor="middle" x="65.38" y="-72.4" font-family="Times,serif" font-size="8.00">VOResource:Capability</text>
</a>
</g>
</g>
<!-- VOSIcap:capabilities -->
<g id="node2" class="node">
<title>VOSIcap:capabilities</title>
<g id="a_node2"><a xlink:href="../VOSIcap/capabilities" xlink:title="{capabilities}">
<polygon fill="#8dd3c7" stroke="black" points="38.38,-141.25 38.38,-177.25 92.38,-177.25 92.38,-141.25 38.38,-141.25"/>
<text text-anchor="middle" x="65.25" y="-156.65" font-family="Times,serif" font-size="8.00">capabilities</text>
</a>
</g>
</g>
<!-- VOSIcap:capabilities&#45;&gt;VOResource:Capability -->
<g id="edge1" class="edge">
<title>VOSIcap:capabilities&#45;&gt;VOResource:Capability</title>
<path fill="none" stroke="blue" d="M65.38,-127.97C65.38,-120.33 65.38,-112.16 65.38,-104.6"/>
<polygon fill="blue" stroke="blue" points="65.38,-127.91 69.38,-133.91 65.38,-139.91 61.38,-133.91 65.38,-127.91"/>
<polygon fill="blue" stroke="blue" points="65.38,-94.64 69.88,-104.64 65.38,-98.42 65.38,-104.64 65.38,-104.64 65.38,-104.64 65.38,-98.42 60.88,-104.64 65.38,-94.64"/>
<text text-anchor="middle" x="86" y="-113.25" font-family="Times,serif" font-size="10.00">capability</text>
<text text-anchor="middle" x="57.88" y="-95.17" font-family="Times,serif" font-size="10.00">0..*</text>
</g>
</g>
</svg>
